solid vane housing
facet normal 0.216865803838605 0.976201425488324 8.26012686913576e-19
outer loop
vertex 10.6390990155195 9.27912399630491 7.1
vertex 11.7598273520762 9.03015114577819 2.1
vertex 10.6390990155195 9.27912399630491 2.1
endloop
endfacet
facet normal 0.216865803838605 0.976201425488324 8.26012686913576e-19
outer loop
vertex 11.7598273520762 9.03015114577819 2.1
vertex 10.6390990155195 9.27912399630491 7.1
vertex 11.7598273520762 9.03015114577819 7.1
endloop
endfacet
facet normal 0.0 0.0 -1.0
outer loop
vertex 9.53463624054056 11.8849179211358 2.1
vertex 10.2716476503379 11.3683773304475 2.1
vertex 10.0226747998111 10.2476489938909 2.1
endloop
endfacet
facet normal 0.0 0.0 -1.0
outer loop
vertex 10.2716476503379 11.3683773304475 2.1
vertex 9.53463624054056 11.8849179211358 2.1
vertex 11.0842762366781 12.8711966662692 2.1
endloop
endfacet
facet normal 0.0 0.0 -1.0
outer loop
vertex 10.2716476503379 11.3683773304475 2.1
vertex 11.0842762366781 12.8711966662692 2.1
vertex 11.2401726479238 11.9848015461559 2.1
endloop
endfacet
facet normal 0.0 0.0 -1.0
outer loop
vertex 11.2401726479238 11.9848015461559 2.1
vertex 11.0842762366781 12.8711966662692 2.1
vertex 12.8774415751688 12.4728401054265 2.1
endloop
endfacet
facet normal 0.0 0.0 -1.0
outer loop
vertex 11.2401726479238 11.9848015461559 2.1
vertex 12.8774415751688 12.4728401054265 2.1
vertex 12.3609009844805 11.7358286956292 2.1
endloop
endfacet
facet normal 0.0 0.0 -1.0
outer loop
vertex 12.3609009844805 11.7358286956292 2.1
vertex 12.8774415751688 12.4728401054265 2.1
vertex 12.9773252001889 10.7673036980433 2.1
endloop
endfacet
facet normal 0.0 0.0 -1.0
outer loop
vertex 12.9773252001889 10.7673036980433 2.1
vertex 12.8774415751688 12.4728401054265 2.1
vertex 13.8637203203022 10.923200109289 2.1
endloop
endfacet
facet normal 0.0 0.0 -1.0
outer loop
vertex 12.9773252001889 10.7673036980433 2.1
vertex 13.8637203203022 10.923200109289 2.1
vertex 13.4653637594594 9.13003477079828 2.1
endloop
endfacet
facet normal 0.0 0.0 -1.0
outer loop
vertex 9.53463624054056 11.8849179211358 2.1
vertex 10.1225584248312 8.54211258650762 2.1
vertex 9.13627967969782 10.0917525826451 2.1
endloop
endfacet
facet normal 0.0 0.0 -1.0
outer loop
vertex 10.1225584248312 8.54211258650762 2.1
vertex 9.53463624054056 11.8849179211358 2.1
vertex 10.0226747998111 10.2476489938909 2.1
endloop
endfacet
facet normal 0.0 0.0 -1.0
outer loop
vertex 10.1225584248312 8.54211258650762 2.1
vertex 10.0226747998111 10.2476489938909 2.1
vertex 10.6390990155195 9.27912399630491 2.1
endloop
endfacet
facet normal 0.0 0.0 -1.0
outer loop
vertex 10.1225584248312 8.54211258650762 2.1
vertex 10.6390990155195 9.27912399630491 2.1
vertex 11.9157237633219 8.14375602566488 2.1
endloop
endfacet
facet normal 0.0 0.0 -1.0
outer loop
vertex 11.9157237633219 8.14375602566488 2.1
vertex 10.6390990155195 9.27912399630491 2.1
vertex 11.7598273520762 9.03015114577819 2.1
endloop
endfacet
facet normal 0.0 0.0 -1.0
outer loop
vertex 11.9157237633219 8.14375602566488 2.1
vertex 11.7598273520762 9.03015114577819 2.1
vertex 12.7283523496622 9.64657536148657 2.1
endloop
endfacet
facet normal 0.0 0.0 -1.0
outer loop
vertex 11.9157237633219 8.14375602566488 2.1
vertex 12.7283523496622 9.64657536148657 2.1
vertex 13.4653637594594 9.13003477079828 2.1
endloop
endfacet
facet normal 0.0 0.0 -1.0
outer loop
vertex 13.4653637594594 9.13003477079828 2.1
vertex 12.7283523496622 9.64657536148657 2.1
vertex 12.9773252001889 10.7673036980433 2.1
endloop
endfacet
facet normal 0.976201425488324 -0.216865803838604 -8.26012686913618e-19
outer loop
vertex 10.2716476503379 11.3683773304475 2.1
vertex 10.0226747998111 10.2476489938909 7.1
vertex 10.0226747998111 10.2476489938909 2.1
endloop
endfacet
facet normal 0.976201425488324 -0.216865803838604 -8.26012686913618e-19
outer loop
vertex 10.0226747998111 10.2476489938909 7.1
vertex 10.2716476503379 11.3683773304475 2.1
vertex 10.2716476503379 11.3683773304475 7.1
endloop
endfacet
facet normal -0.216865803838605 -0.976201425488324 8.26012686913576e-19
outer loop
vertex 12.3609009844805 11.7358286956292 7.1
vertex 11.2401726479238 11.9848015461559 2.1
vertex 12.3609009844805 11.7358286956292 2.1
endloop
endfacet
facet normal -0.216865803838605 -0.976201425488324 8.26012686913576e-19
outer loop
vertex 11.2401726479238 11.9848015461559 2.1
vertex 12.3609009844805 11.7358286956292 7.1
vertex 11.2401726479238 11.9848015461559 7.1
endloop
endfacet
facet normal 0.976201425488324 -0.216865803838604 0.0
outer loop
vertex 13.8637203203022 10.923200109289 2.1
vertex 13.4653637594594 9.13003477079828 8.1
vertex 13.4653637594594 9.13003477079828 2.1
endloop
endfacet
facet normal 0.976201425488324 -0.216865803838604 0.0
outer loop
vertex 13.4653637594594 9.13003477079828 8.1
vertex 13.8637203203022 10.923200109289 2.1
vertex 13.8637203203022 10.923200109289 8.1
endloop
endfacet
facet normal 0.536931367265019 -0.843625928268517 -2.4346057337381e-31
outer loop
vertex 11.2401726479238 11.9848015461559 7.1
vertex 10.2716476503379 11.3683773304475 2.1
vertex 11.2401726479238 11.9848015461559 2.1
endloop
endfacet
facet normal 0.536931367265019 -0.843625928268517 -2.4346057337381e-31
outer loop
vertex 10.2716476503379 11.3683773304475 2.1
vertex 11.2401726479238 11.9848015461559 7.1
vertex 10.2716476503379 11.3683773304475 7.1
endloop
endfacet
facet normal -1.61719019589188e-15 6.84243501021841e-16 -1.0
outer loop
vertex 13.2529342750641 22.6332109211525 2.10000000000001
vertex 12.8774415751688 12.4728401054265 2.1
vertex 11.0842762366781 12.8711966662692 2.1
endloop
endfacet
facet normal -1.61719019589188e-15 6.84243501021841e-16 -1.0
outer loop
vertex 12.8774415751688 12.4728401054265 2.1
vertex 13.2529342750641 22.6332109211525 2.10000000000001
vertex 15.0460996135548 22.2348543603097 2.1
endloop
endfacet
facet normal -0.843625928268518 -0.536931367265019 -3.63459515450584e-18
outer loop
vertex 12.3609009844805 11.7358286956292 7.1
vertex 12.9773252001889 10.7673036980433 2.1
vertex 12.9773252001889 10.7673036980433 7.1
endloop
endfacet
facet normal -0.843625928268518 -0.536931367265019 -3.63459515450584e-18
outer loop
vertex 12.9773252001889 10.7673036980433 2.1
vertex 12.3609009844805 11.7358286956292 7.1
vertex 12.3609009844805 11.7358286956292 2.1
endloop
endfacet
facet normal -0.536931367265019 0.843625928268517 1.42766790042401e-18
outer loop
vertex 11.7598273520762 9.03015114577819 7.1
vertex 12.7283523496622 9.64657536148657 2.1
vertex 11.7598273520762 9.03015114577819 2.1
endloop
endfacet
facet normal -0.536931367265019 0.843625928268517 1.42766790042401e-18
outer loop
vertex 12.7283523496622 9.64657536148657 2.1
vertex 11.7598273520762 9.03015114577819 7.1
vertex 12.7283523496622 9.64657536148657 7.1
endloop
endfacet
facet normal -0.976201425488324 0.216865803838603 -4.17232892593232e-32
outer loop
vertex 12.9773252001889 10.7673036980433 7.1
vertex 12.7283523496622 9.64657536148657 2.1
vertex 12.7283523496622 9.64657536148657 7.1
endloop
endfacet
facet normal -0.976201425488324 0.216865803838603 -4.17232892593232e-32
outer loop
vertex 12.7283523496622 9.64657536148657 2.1
vertex 12.9773252001889 10.7673036980433 7.1
vertex 12.9773252001889 10.7673036980433 2.1
endloop
endfacet
facet normal -0.843625928268517 -0.53693136726502 -0.0
outer loop
vertex 9.13627967969782 10.0917525826451 8.1
vertex 10.1225584248312 8.54211258650762 2.1
vertex 10.1225584248312 8.54211258650762 8.1
endloop
endfacet
facet normal -0.843625928268517 -0.53693136726502 -0.0
outer loop
vertex 10.1225584248312 8.54211258650762 2.1
vertex 9.13627967969782 10.0917525826451 8.1
vertex 9.13627967969782 10.0917525826451 2.1
endloop
endfacet
facet normal 0.843625928268517 0.536931367265019 -2.20692725408184e-18
outer loop
vertex 10.0226747998111 10.2476489938909 2.1
vertex 10.6390990155195 9.27912399630491 7.1
vertex 10.6390990155195 9.27912399630491 2.1
endloop
endfacet
facet normal 0.843625928268517 0.536931367265019 -2.20692725408184e-18
outer loop
vertex 10.6390990155195 9.27912399630491 7.1
vertex 10.0226747998111 10.2476489938909 2.1
vertex 10.0226747998111 10.2476489938909 7.1
endloop
endfacet
facet normal 0.536931367265019 -0.843625928268517 0.0
outer loop
vertex 13.4653637594594 9.13003477079828 8.1
vertex 11.9157237633219 8.14375602566488 2.1
vertex 13.4653637594594 9.13003477079828 2.1
endloop
endfacet
facet normal 0.536931367265019 -0.843625928268517 0.0
outer loop
vertex 11.9157237633219 8.14375602566488 2.1
vertex 13.4653637594594 9.13003477079828 8.1
vertex 11.9157237633219 8.14375602566488 8.1
endloop
endfacet
facet normal 0.0 0.0 -1.0
outer loop
vertex 10.2716476503379 11.3683773304475 7.1
vertex 10.6390990155195 9.27912399630491 7.1
vertex 10.0226747998111 10.2476489938909 7.1
endloop
endfacet
facet normal 0.0 0.0 -1.0
outer loop
vertex 10.6390990155195 9.27912399630491 7.1
vertex 10.2716476503379 11.3683773304475 7.1
vertex 11.2401726479238 11.9848015461559 7.1
endloop
endfacet
facet normal 0.0 0.0 -1.0
outer loop
vertex 10.6390990155195 9.27912399630491 7.1
vertex 11.2401726479238 11.9848015461559 7.1
vertex 11.7598273520762 9.03015114577819 7.1
endloop
endfacet
facet normal 0.0 0.0 -1.0
outer loop
vertex 11.7598273520762 9.03015114577819 7.1
vertex 11.2401726479238 11.9848015461559 7.1
vertex 12.3609009844805 11.7358286956292 7.1
endloop
endfacet
facet normal 0.0 0.0 -1.0
outer loop
vertex 11.7598273520762 9.03015114577819 7.1
vertex 12.3609009844805 11.7358286956292 7.1
vertex 12.7283523496622 9.64657536148657 7.1
endloop
endfacet
facet normal 0.0 0.0 -1.0
outer loop
vertex 12.7283523496622 9.64657536148657 7.1
vertex 12.3609009844805 11.7358286956292 7.1
vertex 12.9773252001889 10.7673036980433 7.1
endloop
endfacet
facet normal -0.976201425488324 0.216865803838604 0.0
outer loop
vertex 9.53463624054056 11.8849179211358 8.1
vertex 9.13627967969782 10.0917525826451 2.1
vertex 9.13627967969782 10.0917525826451 8.1
endloop
endfacet
facet normal -0.976201425488324 0.216865803838604 0.0
outer loop
vertex 9.13627967969782 10.0917525826451 2.1
vertex 9.53463624054056 11.8849179211358 8.1
vertex 9.53463624054056 11.8849179211358 2.1
endloop
endfacet
facet normal 0.094018859116815 0.423217227742032 0.901136855462433
outer loop
vertex 14.7343712239686 20.8316377494249 5.48790388062714
vertex 13.1893950614674 22.3471950081335 4.90632209101023
vertex 12.9412058854779 21.2299943102676 5.48790388062714
endloop
endfacet
facet normal 0.104880074427057 0.4775794739889 0.872306148099772
outer loop
vertex 13.1893950614674 22.3471950081335 4.90632209101023
vertex 14.7343712239686 20.8316377494249 5.48790388062714
vertex 14.9825603999581 21.9488384472907 4.90632209101023
endloop
endfacet
facet normal 0.040380310938218 0.181768247468317 0.982511951429004
outer loop
vertex 13.1520340527 13.7088928313504 7.88846921164096
vertex 11.6312054070694 15.333147911356 7.62205188705293
vertex 11.3588687142093 14.1072493921931 7.88846921164096
endloop
endfacet
facet normal 0.0496120632385611 0.22332412947384 0.973480855680257
outer loop
vertex 11.6312054070694 15.333147911356 7.62205188705293
vertex 13.1520340527 13.7088928313504 7.88846921164096
vertex 13.4243707455601 14.9347913505132 7.62205188705293
endloop
endfacet
facet normal 0.0496120632385612 0.22332412947384 0.973480855680257
outer loop
vertex 13.4243707455601 14.9347913505132 7.62205188705293
vertex 11.9007705974533 16.5465707675965 7.30125253466786
vertex 11.6312054070694 15.333147911356 7.62205188705293
endloop
endfacet
facet normal 0.0587498663024204 0.264457107651486 0.962606301362119
outer loop
vertex 11.9007705974533 16.5465707675965 7.30125253466786
vertex 13.4243707455601 14.9347913505132 7.62205188705293
vertex 13.693935935944 16.1482142067538 7.30125253466786
endloop
endfacet
facet normal 0.0587498663024204 0.264457107651486 0.962606301362119
outer loop
vertex 13.693935935944 16.1482142067538 7.30125253466786
vertex 12.167053815887 17.7452201296327 6.92667864492768
vertex 11.9007705974533 16.5465707675965 7.30125253466786
endloop
endfacet
facet normal 0.0677764160798342 0.305089289415424 0.949908881370927
outer loop
vertex 12.167053815887 17.7452201296327 6.92667864492768
vertex 13.693935935944 16.1482142067538 7.30125253466786
vertex 13.9602191543777 17.34686356879 6.92667864492768
endloop
endfacet
facet normal 0.0854276253339098 0.384544580800344 0.919145030018058
outer loop
vertex 14.4809298273729 19.6907946646451 6.01914503001806
vertex 12.9412058854779 21.2299943102676 5.48790388062714
vertex 12.6877644888822 20.0891512254878 6.01914503001806
endloop
endfacet
facet normal 0.0940188591168149 0.423217227742032 0.901136855462433
outer loop
vertex 12.9412058854779 21.2299943102676 5.48790388062714
vertex 14.4809298273729 19.6907946646451 6.01914503001806
vertex 14.7343712239686 20.8316377494249 5.48790388062714
endloop
endfacet
facet normal 0.0766746191986616 0.345143730526613 0.935412640522306
outer loop
vertex 14.2227161463831 18.52846958157 6.49903953989339
vertex 12.6877644888822 20.0891512254878 6.01914503001806
vertex 12.4295508078924 18.9268261424127 6.49903953989339
endloop
endfacet
facet normal 0.0854276253339098 0.384544580800344 0.919145030018058
outer loop
vertex 12.6877644888822 20.0891512254878 6.01914503001806
vertex 14.2227161463831 18.52846958157 6.49903953989339
vertex 14.4809298273729 19.6907946646451 6.01914503001806
endloop
endfacet
facet normal 0.0677764160798342 0.305089289415424 0.949908881370926
outer loop
vertex 13.9602191543777 17.34686356879 6.92667864492768
vertex 12.4295508078924 18.9268261424127 6.49903953989339
vertex 12.167053815887 17.7452201296327 6.92667864492768
endloop
endfacet
facet normal 0.0766746191986616 0.345143730526613 0.935412640522306
outer loop
vertex 12.4295508078924 18.9268261424127 6.49903953989339
vertex 13.9602191543777 17.34686356879 6.92667864492768
vertex 14.2227161463831 18.52846958157 6.49903953989339
endloop
endfacet
facet normal 0.152203603245789 0.685130490022177 0.712341403261786
outer loop
vertex 15.0937920908127 22.4495376504371 4.58998367788006
vertex 13.3418401474105 23.0334125102576 4.40274611214208
vertex 13.300626752322 22.8478942112799 4.58998367788007
endloop
endfacet
facet normal 0.152203603245789 0.685130490022177 0.712341403261786
outer loop
vertex 13.3418401474105 23.0334125102576 4.40274611214208
vertex 15.0937920908127 22.4495376504371 4.58998367788006
vertex 15.1350054859012 22.6350559494148 4.40274611214207
endloop
endfacet
facet normal 0.176924219907129 0.796408067199404 0.57830096914147
outer loop
vertex 13.3752984669917 23.1840220516952 4.18509778089982
vertex 15.1350054859012 22.6350559494148 4.40274611214207
vertex 15.1684638054824 22.7856654908524 4.18509778089981
endloop
endfacet
facet normal 0.176924219907129 0.796408067199404 0.57830096914147
outer loop
vertex 15.1350054859012 22.6350559494148 4.40274611214207
vertex 13.3752984669917 23.1840220516952 4.18509778089982
vertex 13.3418401474105 23.0334125102576 4.40274611214208
endloop
endfacet
facet normal 0.196167148418305 0.883028336096941 0.426355963405344
outer loop
vertex 13.3999658198757 23.2950598668885 3.9437772171002
vertex 15.1684638054824 22.7856654908524 4.18509778089981
vertex 15.1931311583664 22.8967033060458 3.94377721710019
endloop
endfacet
facet normal 0.196167148418305 0.883028336096941 0.426355963405344
outer loop
vertex 15.1684638054824 22.7856654908524 4.18509778089981
vertex 13.3999658198757 23.2950598668885 3.9437772171002
vertex 13.3752984669917 23.1840220516952 4.18509778089982
endloop
endfacet
facet normal 0.209336615280719 0.942309477228707 0.26121070159504
outer loop
vertex 13.4150784888808 23.3630881533433 3.68625586130354
vertex 15.1931311583664 22.8967033060458 3.94377721710019
vertex 15.2082438273715 22.9647315925005 3.68625586130353
endloop
endfacet
facet normal 0.209336615280719 0.942309477228707 0.26121070159504
outer loop
vertex 15.1931311583664 22.8967033060458 3.94377721710019
vertex 13.4150784888808 23.3630881533433 3.68625586130354
vertex 13.3999658198757 23.2950598668885 3.9437772171002
endloop
endfacet
facet normal 0.21602488529218 0.972416108166699 0.0879781877082681
outer loop
vertex 13.4201685760112 23.3860007113612 3.42050674105689
vertex 15.2082438273715 22.9647315925005 3.68625586130353
vertex 15.2133339145019 22.9876441505184 3.42050674105688
endloop
endfacet
facet normal 0.21602488529218 0.972416108166699 0.0879781877082681
outer loop
vertex 15.2082438273715 22.9647315925005 3.68625586130353
vertex 13.4201685760112 23.3860007113612 3.42050674105689
vertex 13.4150784888808 23.3630881533433 3.68625586130354
endloop
endfacet
facet normal 0.216024885292179 0.972416108166699 -0.0879781877082679
outer loop
vertex 13.4150784888808 23.3630881533433 3.15475762081025
vertex 15.2133339145019 22.9876441505184 3.42050674105688
vertex 15.2082438273715 22.9647315925005 3.15475762081024
endloop
endfacet
facet normal 0.216024885292179 0.972416108166699 -0.0879781877082679
outer loop
vertex 15.2133339145019 22.9876441505184 3.42050674105688
vertex 13.4150784888808 23.3630881533433 3.15475762081025
vertex 13.4201685760112 23.3860007113612 3.42050674105689
endloop
endfacet
facet normal 0.209336615280718 0.942309477228712 -0.261210701595023
outer loop
vertex 13.3999658198757 23.2950598668885 2.89723626501358
vertex 15.2082438273715 22.9647315925005 3.15475762081024
vertex 15.1931311583664 22.8967033060458 2.89723626501358
endloop
endfacet
facet normal 0.209336615280718 0.942309477228712 -0.261210701595023
outer loop
vertex 15.2082438273715 22.9647315925005 3.15475762081024
vertex 13.3999658198757 23.2950598668885 2.89723626501358
vertex 13.4150784888808 23.3630881533433 3.15475762081025
endloop
endfacet
facet normal 0.1961671484183 0.883028336096934 -0.42635596340536
outer loop
vertex 13.3752984669917 23.1840220516952 2.65591570121396
vertex 15.1931311583664 22.8967033060458 2.89723626501358
vertex 15.1684638054824 22.7856654908524 2.65591570121395
endloop
endfacet
facet normal 0.1961671484183 0.883028336096934 -0.42635596340536
outer loop
vertex 15.1931311583664 22.8967033060458 2.89723626501358
vertex 13.3752984669917 23.1840220516952 2.65591570121396
vertex 13.3999658198757 23.2950598668885 2.89723626501358
endloop
endfacet
facet normal 0.176924219907127 0.796408067199413 -0.578300969141458
outer loop
vertex 13.3418401474104 23.0334125102576 2.4382673699717
vertex 15.1684638054824 22.7856654908524 2.65591570121395
vertex 15.1350054859011 22.6350559494148 2.4382673699717
endloop
endfacet
facet normal 0.176924219907127 0.796408067199413 -0.578300969141458
outer loop
vertex 15.1684638054824 22.7856654908524 2.65591570121395
vertex 13.3418401474104 23.0334125102576 2.4382673699717
vertex 13.3752984669917 23.1840220516952 2.65591570121396
endloop
endfacet
facet normal 0.152203603245782 0.68513049002217 -0.712341403261794
outer loop
vertex 13.3418401474104 23.0334125102576 2.4382673699717
vertex 15.0937920908127 22.4495376504371 2.2510298042337
vertex 13.300626752322 22.8478942112799 2.25102980423371
endloop
endfacet
facet normal 0.152203603245782 0.68513049002217 -0.712341403261794
outer loop
vertex 15.0937920908127 22.4495376504371 2.2510298042337
vertex 13.3418401474104 23.0334125102576 2.4382673699717
vertex 15.1350054859011 22.6350559494148 2.4382673699717
endloop
endfacet
facet normal 0.122770664696855 0.552640830245491 -0.824327287329169
outer loop
vertex 13.300626752322 22.8478942112799 2.25102980423371
vertex 15.0460996135548 22.2348543603097 2.1
vertex 13.2529342750641 22.6332109211525 2.10000000000001
endloop
endfacet
facet normal 0.122770664696855 0.552640830245491 -0.824327287329169
outer loop
vertex 15.0460996135548 22.2348543603097 2.1
vertex 13.300626752322 22.8478942112799 2.25102980423371
vertex 15.0937920908127 22.4495376504371 2.2510298042337
endloop
endfacet
facet normal -0.216865803838605 -0.976201425488324 8.18260157885821e-16
outer loop
vertex 9.69269661986893 0.442577523677579 11.5606951618218
vertex 8.87573270686655 0.624068280681708 2.1
vertex 9.69269661986893 0.44257752367757 2.1
endloop
endfacet
facet normal -0.216865803838605 -0.976201425488324 8.18260157885821e-16
outer loop
vertex 8.87573270686655 0.624068280681708 2.1
vertex 9.69269661986893 0.442577523677579 11.5606951618218
vertex 8.87573270686655 0.624068280681717 11.5606951618218
endloop
endfacet
facet normal 5.88709982751657e-16 1.47218923934562e-16 1.0
outer loop
vertex 10.1225584248312 8.54211258650762 8.1
vertex 9.53463624054056 11.8849179211358 8.1
vertex 9.13627967969782 10.0917525826451 8.1
endloop
endfacet
facet normal 5.88709982751657e-16 1.47218923934562e-16 1.0
outer loop
vertex 9.53463624054056 11.8849179211358 8.1
vertex 10.1225584248312 8.54211258650762 8.1
vertex 11.0842762366781 12.8711966662692 8.1
endloop
endfacet
facet normal 0.0788014229242436 0.358133331339665 0.930339106309451
outer loop
vertex 8.29701562903595 -1.98097329956257 12.5583655231416
vertex 8.12511973644309 1.08272306262005 11.453489042714
vertex 7.40270126997363 -1.78258078371918 12.5577338875205
endloop
endfacet
facet normal 0.0721537464370185 0.326171715347739 0.942552836175361
outer loop
vertex 8.12511973644309 1.08272306262005 11.453489042714
vertex 8.29701562903595 -1.98097329956257 12.5583655231416
vertex 8.87573270686655 0.624068280681717 11.5606951618218
endloop
endfacet
facet normal 0.0727371760476895 0.326042092149088 0.942552840623619
outer loop
vertex 10.5668024895084 0.540293994869136 11.4534901508221
vertex 8.12511973644309 1.08272306262005 11.453489042714
vertex 8.87573270686655 0.624068280681717 11.5606951618218
endloop
endfacet
facet normal -0.216865803838599 -0.976201425488325 -1.12024757897772e-15
outer loop
vertex 4.10468502241724 -20.8523630800614 23.1
vertex 2.64038288418476 -20.5270643743035 2.10000000000001
vertex 4.10468502241724 -20.8523630800614 2.10000000000001
endloop
endfacet
facet normal -0.216865803838599 -0.976201425488325 -1.12024757897772e-15
outer loop
vertex 2.64038288418476 -20.5270643743035 2.10000000000001
vertex 4.10468502241724 -20.8523630800614 23.1
vertex 2.64038288418475 -20.5270643743035 23.1
endloop
endfacet
facet normal 0.0859276619083116 0.390018028888334 0.916789165545181
outer loop
vertex 7.6653148476697 -4.82451613728334 13.7664137922751
vertex 7.40270126997363 -1.78258078371918 12.5577338875205
vertex 6.68905204125242 -4.60792663403835 13.7657640420506
endloop
endfacet
facet normal 0.0788621684852959 0.35840580950916 0.930229022387434
outer loop
vertex 7.40270126997363 -1.78258078371918 12.5577338875205
vertex 7.6653148476697 -4.82451613728334 13.7664137922751
vertex 8.29701562903595 -1.98097329956257 12.5583655231416
endloop
endfacet
facet normal 0.0929754944405718 0.42140795320332 0.902092508787497
outer loop
vertex 7.04327236743605 -7.62458302274904 15.0767003858842
vertex 6.68905204125242 -4.60792663403835 13.7657640420506
vertex 5.98506453618265 -7.38978112594941 15.0760687502631
endloop
endfacet
facet normal 0.0859877301019322 0.390286104166168 0.916669442692791
outer loop
vertex 6.68905204125242 -4.60792663403835 13.7657640420506
vertex 7.04327236743605 -7.62458302274904 15.0767003858842
vertex 7.6653148476697 -4.82451613728334 13.7664137922751
endloop
endfacet
facet normal -0.969323822905643 0.214706117428737 -0.119635318724306
outer loop
vertex 10.3359079933031 9.88232632971703 8.77661682909205
vertex 10.1225584248312 8.54211258650762 8.1
vertex 9.59264073505831 6.91882591882527 9.56174761264962
endloop
endfacet
facet normal -0.969046371885302 0.215276289205033 -0.120852175992176
outer loop
vertex 11.0842762366781 12.8711966662692 8.1
vertex 10.1225584248312 8.54211258650762 8.1
vertex 10.3359079933031 9.88232632971703 8.77661682909205
endloop
endfacet
facet normal -0.968688023894103 0.248281104658163 -7.3714723383331e-05
outer loop
vertex 3.28313556418452 -18.0136127607387 21.3053854930806
vertex 2.64038288418476 -20.5270643743035 2.10000000000001
vertex 2.64038288418475 -20.5270643743035 23.1
endloop
endfacet
facet normal -0.968434673838359 0.24926740234427 -0.000211272646334734
outer loop
vertex 10.1225584248312 8.54211258650762 2.1
vertex 2.64038288418476 -20.5270643743035 2.10000000000001
vertex 3.28313556418452 -18.0136127607387 21.3053854930806
endloop
endfacet
facet normal -0.966855046455785 0.254964197677919 -0.0135859134929287
outer loop
vertex 10.1225584248312 8.54211258650762 2.1
vertex 3.28313556418452 -18.0136127607387 21.3053854930806
vertex 3.93980938874011 -15.4399047094956 19.6036165296387
endloop
endfacet
facet normal -0.966855046455785 0.254964197677919 -0.0135859134929287
outer loop
vertex 10.1225584248312 8.54211258650762 2.1
vertex 3.93980938874011 -15.4399047094956 19.6036165296387
vertex 4.60958312508362 -12.8091588860786 17.9968213328254
endloop
endfacet
facet normal -0.966855046455785 0.254964197677919 -0.0135859134929287
outer loop
vertex 10.1225584248312 8.54211258650762 2.1
vertex 4.60958312508362 -12.8091588860786 17.9968213328254
vertex 5.29161915776765 -10.1246652871242 16.487009352108
endloop
endfacet
facet normal -0.966855046455785 0.254964197677919 -0.0135859134929287
outer loop
vertex 10.1225584248312 8.54211258650762 2.1
vertex 5.29161915776765 -10.1246652871242 16.487009352108
vertex 5.98506453618265 -7.38978112594941 15.0760687502631
endloop
endfacet
facet normal -0.966855046455785 0.254964197677919 -0.0135859134929287
outer loop
vertex 10.1225584248312 8.54211258650762 2.1
vertex 9.59264073505831 6.91882591882527 9.56174761264962
vertex 10.1225584248312 8.54211258650762 8.1
endloop
endfacet
facet normal -0.976201425488324 0.216865803838606 2.58902966793532e-15
outer loop
vertex 11.3588687142093 14.1072493921931 7.88846921164096
vertex 11.0842762366781 12.8711966662692 2.1
vertex 11.0842762366781 12.8711966662692 8.1
endloop
endfacet
facet normal -0.976201425488324 0.216865803838606 2.58902966793532e-15
outer loop
vertex 11.0842762366781 12.8711966662692 2.1
vertex 11.3588687142093 14.1072493921931 7.88846921164096
vertex 13.2529342750641 22.6332109211525 2.10000000000001
endloop
endfacet
facet normal -0.976201425488324 0.216865803838606 2.58902966793532e-15
outer loop
vertex 13.2529342750641 22.6332109211525 2.10000000000001
vertex 11.3588687142093 14.1072493921931 7.88846921164096
vertex 11.6312054070694 15.333147911356 7.62205188705293
endloop
endfacet
facet normal -0.976201425488324 0.216865803838606 2.58902966793532e-15
outer loop
vertex 13.2529342750641 22.6332109211525 2.10000000000001
vertex 11.6312054070694 15.333147911356 7.62205188705293
vertex 11.9007705974533 16.5465707675965 7.30125253466786
endloop
endfacet
facet normal -0.976201425488324 0.216865803838606 2.58902966793532e-15
outer loop
vertex 13.2529342750641 22.6332109211525 2.10000000000001
vertex 11.9007705974533 16.5465707675965 7.30125253466786
vertex 12.167053815887 17.7452201296327 6.92667864492768
endloop
endfacet
facet normal -0.976201425488324 0.216865803838606 2.58902966793532e-15
outer loop
vertex 13.2529342750641 22.6332109211525 2.10000000000001
vertex 12.167053815887 17.7452201296327 6.92667864492768
vertex 12.4295508078924 18.9268261424127 6.49903953989339
endloop
endfacet
facet normal -0.976201425488324 0.216865803838606 2.58902966793532e-15
outer loop
vertex 13.2529342750641 22.6332109211525 2.10000000000001
vertex 12.4295508078924 18.9268261424127 6.49903953989339
vertex 12.6877644888822 20.0891512254878 6.01914503001806
endloop
endfacet
facet normal -0.976201425488324 0.216865803838606 2.58902966793532e-15
outer loop
vertex 13.2529342750641 22.6332109211525 2.10000000000001
vertex 12.6877644888822 20.0891512254878 6.01914503001806
vertex 12.9412058854779 21.2299943102676 5.48790388062714
endloop
endfacet
facet normal -0.976201425488324 0.216865803838606 2.58902966793532e-15
outer loop
vertex 13.2529342750641 22.6332109211525 2.10000000000001
vertex 12.9412058854779 21.2299943102676 5.48790388062714
vertex 13.1893950614674 22.3471950081335 4.90632209101023
endloop
endfacet
facet normal -0.976201425488324 0.216865803838606 2.58902966793532e-15
outer loop
vertex 13.2529342750641 22.6332109211525 2.10000000000001
vertex 13.1893950614674 22.3471950081335 4.90632209101023
vertex 13.300626752322 22.8478942112799 4.58998367788007
endloop
endfacet
facet normal -0.976201425488324 0.216865803838606 2.58902966793532e-15
outer loop
vertex 13.2529342750641 22.6332109211525 2.10000000000001
vertex 13.300626752322 22.8478942112799 4.58998367788007
vertex 13.300626752322 22.8478942112799 2.25102980423371
endloop
endfacet
facet normal -0.976201425488324 0.216865803838606 2.58902966793532e-15
outer loop
vertex 13.300626752322 22.8478942112799 2.25102980423371
vertex 13.300626752322 22.8478942112799 4.58998367788007
vertex 13.3418401474105 23.0334125102576 4.40274611214208
endloop
endfacet
facet normal -0.976201425488324 0.216865803838606 2.58902966793532e-15
outer loop
vertex 13.300626752322 22.8478942112799 2.25102980423371
vertex 13.3418401474105 23.0334125102576 4.40274611214208
vertex 13.3418401474104 23.0334125102576 2.4382673699717
endloop
endfacet
facet normal -0.976201425488324 0.216865803838606 2.58902966793532e-15
outer loop
vertex 13.3418401474104 23.0334125102576 2.4382673699717
vertex 13.3418401474105 23.0334125102576 4.40274611214208
vertex 13.3752984669917 23.1840220516952 4.18509778089982
endloop
endfacet
facet normal -0.976201425488324 0.216865803838606 2.58902966793532e-15
outer loop
vertex 13.3418401474104 23.0334125102576 2.4382673699717
vertex 13.3752984669917 23.1840220516952 4.18509778089982
vertex 13.3752984669917 23.1840220516952 2.65591570121396
endloop
endfacet
facet normal -0.976201425488324 0.216865803838606 2.58902966793532e-15
outer loop
vertex 13.3752984669917 23.1840220516952 2.65591570121396
vertex 13.3752984669917 23.1840220516952 4.18509778089982
vertex 13.3999658198757 23.2950598668885 3.9437772171002
endloop
endfacet
facet normal -0.976201425488324 0.216865803838606 2.58902966793532e-15
outer loop
vertex 13.3752984669917 23.1840220516952 2.65591570121396
vertex 13.3999658198757 23.2950598668885 3.9437772171002
vertex 13.3999658198757 23.2950598668885 2.89723626501358
endloop
endfacet
facet normal -0.976201425488324 0.216865803838606 2.58902966793532e-15
outer loop
vertex 13.3999658198757 23.2950598668885 2.89723626501358
vertex 13.3999658198757 23.2950598668885 3.9437772171002
vertex 13.4150784888808 23.3630881533433 3.68625586130354
endloop
endfacet
facet normal -0.976201425488324 0.216865803838606 2.58902966793532e-15
outer loop
vertex 13.3999658198757 23.2950598668885 2.89723626501358
vertex 13.4150784888808 23.3630881533433 3.68625586130354
vertex 13.4150784888808 23.3630881533433 3.15475762081025
endloop
endfacet
facet normal -0.976201425488324 0.216865803838606 2.58902966793532e-15
outer loop
vertex 13.4150784888808 23.3630881533433 3.15475762081025
vertex 13.4150784888808 23.3630881533433 3.68625586130354
vertex 13.4201685760112 23.3860007113612 3.42050674105689
endloop
endfacet
facet normal -0.536931367265019 0.843625928268517 1.2816948716628e-16
outer loop
vertex 9.53463624054056 11.8849179211358 8.1
vertex 11.0842762366781 12.8711966662692 2.1
vertex 9.53463624054056 11.8849179211358 2.1
endloop
endfacet
facet normal -0.536931367265019 0.843625928268517 1.2816948716628e-16
outer loop
vertex 11.0842762366781 12.8711966662692 2.1
vertex 9.53463624054056 11.8849179211358 8.1
vertex 11.0842762366781 12.8711966662692 8.1
endloop
endfacet
facet normal 0.976201425488324 -0.216865803838605 2.12063628798048e-16
outer loop
vertex 8.87573270686655 0.624068280681708 2.1
vertex 4.10468502241724 -20.8523630800614 23.1
vertex 4.10468502241724 -20.8523630800614 2.10000000000001
endloop
endfacet
facet normal 0.976201425488324 -0.216865803838605 2.12063628798048e-16
outer loop
vertex 4.10468502241724 -20.8523630800614 23.1
vertex 8.87573270686655 0.624068280681708 2.1
vertex 4.66704242367396 -18.3209630758945 21.3055835099276
endloop
endfacet
facet normal 0.976201425488324 -0.216865803838605 2.12063628798048e-16
outer loop
vertex 4.66704242367396 -18.3209630758945 21.3055835099276
vertex 8.87573270686655 0.624068280681708 2.1
vertex 5.2428077494982 -15.729208535217 19.6039768990611
endloop
endfacet
facet normal 0.976201425488324 -0.216865803838605 2.12063628798048e-16
outer loop
vertex 5.2428077494982 -15.729208535217 19.6039768990611
vertex 8.87573270686655 0.624068280681708 2.1
vertex 5.83126095085724 -13.0803406923764 17.9973081875142
endloop
endfacet
facet normal 0.976201425488324 -0.216865803838605 2.12063628798048e-16
outer loop
vertex 5.83126095085724 -13.0803406923764 17.9973081875142
vertex 8.87573270686655 0.624068280681708 2.1
vertex 6.43166611132918 -10.3776722073097 16.4875866665726
endloop
endfacet
facet normal 0.976201425488324 -0.216865803838605 2.12063628798048e-16
outer loop
vertex 6.43166611132918 -10.3776722073097 16.4875866665726
vertex 8.87573270686655 0.624068280681708 2.1
vertex 7.04327236743605 -7.62458302274904 15.0767003858842
endloop
endfacet
facet normal 0.976201425488324 -0.216865803838605 2.12063628798048e-16
outer loop
vertex 7.04327236743605 -7.62458302274904 15.0767003858842
vertex 8.87573270686655 0.624068280681708 2.1
vertex 7.6653148476697 -4.82451613728334 13.7664137922751
endloop
endfacet
facet normal 0.976201425488324 -0.216865803838605 2.12063628798048e-16
outer loop
vertex 7.6653148476697 -4.82451613728334 13.7664137922751
vertex 8.87573270686655 0.624068280681708 2.1
vertex 8.29701562903595 -1.98097329956257 12.5583655231416
endloop
endfacet
facet normal 0.976201425488324 -0.216865803838605 2.12063628798048e-16
outer loop
vertex 8.29701562903595 -1.98097329956257 12.5583655231416
vertex 8.87573270686655 0.624068280681708 2.1
vertex 8.87573270686655 0.624068280681717 11.5606951618218
endloop
endfacet
facet normal 0.120097617863952 0.541269939001424 0.832227982776834
outer loop
vertex 4.66704242367396 -18.3209630758945 21.3055835099276
vertex 3.93980938874011 -15.4399047094956 19.6036165296387
vertex 3.28313556418452 -18.0136127607387 21.3053854930806
endloop
endfacet
facet normal 0.113558234314922 0.512478532795378 0.851158199656899
outer loop
vertex 3.93980938874011 -15.4399047094956 19.6036165296387
vertex 4.66704242367396 -18.3209630758945 21.3055835099276
vertex 5.2428077494982 -15.729208535217 19.6039768990611
endloop
endfacet
facet normal -0.971067843990513 0.238176666805768 -0.0172950211595994
outer loop
vertex 6.68905204125242 -4.60792663403835 13.7657640420506
vertex 10.1225584248312 8.54211258650762 2.1
vertex 5.98506453618265 -7.38978112594941 15.0760687502631
endloop
endfacet
facet normal -0.966855046455785 0.254964197677919 -0.0135859134929287
outer loop
vertex 10.1225584248312 8.54211258650762 2.1
vertex 6.68905204125242 -4.60792663403835 13.7657640420506
vertex 7.40270126997363 -1.78258078371918 12.5577338875205
endloop
endfacet
facet normal -0.966855046455785 0.254964197677919 -0.0135859134929287
outer loop
vertex 10.1225584248312 8.54211258650762 2.1
vertex 7.40270126997363 -1.78258078371918 12.5577338875205
vertex 8.12511973644309 1.08272306262005 11.453489042714
endloop
endfacet
facet normal -0.966855046455785 0.254964197677919 -0.0135859134929287
outer loop
vertex 10.1225584248312 8.54211258650762 2.1
vertex 8.12511973644309 1.08272306262005 11.453489042714
vertex 8.85540398799587 3.98440157133548 10.4544104703199
endloop
endfacet
facet normal -0.966855046455785 0.254964197677919 -0.0135859134929287
outer loop
vertex 10.1225584248312 8.54211258650762 2.1
vertex 8.85540398799587 3.98440157133548 10.4544104703199
vertex 9.59264073505831 6.91882591882527 9.56174761264962
endloop
endfacet
facet normal 0.0999294925721467 0.45226532202355 0.88626755272277
outer loop
vertex 6.43166611132918 -10.3776722073097 16.4875866665726
vertex 5.98506453618265 -7.38978112594941 15.0760687502631
vertex 5.29161915776765 -10.1246652871242 16.487009352108
endloop
endfacet
facet normal 0.093034691693719 0.421671067842582 0.901963445315802
outer loop
vertex 5.98506453618265 -7.38978112594941 15.0760687502631
vertex 6.43166611132918 -10.3776722073097 16.4875866665726
vertex 7.04327236743605 -7.62458302274904 15.0767003858842
endloop
endfacet
facet normal 0.106775983298111 0.482552676225937 0.869334115319253
outer loop
vertex 5.83126095085724 -13.0803406923764 17.9973081875142
vertex 5.29161915776765 -10.1246652871242 16.487009352108
vertex 4.60958312508362 -12.8091588860786 17.9968213328254
endloop
endfacet
facet normal 0.0999876579952473 0.452522987974143 0.88612945645858
outer loop
vertex 5.29161915776765 -10.1246652871242 16.487009352108
vertex 5.83126095085724 -13.0803406923764 17.9973081875142
vertex 6.43166611132918 -10.3776722073097 16.4875866665726
endloop
endfacet
facet normal 0.113502526738149 0.512233019923197 0.851313402763293
outer loop
vertex 5.2428077494982 -15.729208535217 19.6039768990611
vertex 4.60958312508362 -12.8091588860786 17.9968213328254
vertex 3.93980938874011 -15.4399047094956 19.6036165296387
endloop
endfacet
facet normal 0.10683297949136 0.482804460095724 0.869187303062277
outer loop
vertex 4.60958312508362 -12.8091588860786 17.9968213328254
vertex 5.2428077494982 -15.729208535217 19.6039768990611
vertex 5.83126095085724 -13.0803406923764 17.9973081875142
endloop
endfacet
facet normal 0.12334158932506 0.555535998134113 0.8222935042428
outer loop
vertex 4.10468502241724 -20.8523630800614 23.1
vertex 3.28313556418452 -18.0136127607387 21.3053854930806
vertex 2.64038288418475 -20.5270643743035 23.1
endloop
endfacet
facet normal 0.120151931686648 0.541508829240281 0.832064721741516
outer loop
vertex 3.28313556418452 -18.0136127607387 21.3053854930806
vertex 4.10468502241724 -20.8523630800614 23.1
vertex 4.66704242367396 -18.3209630758945 21.3055835099276
endloop
endfacet
facet normal 0.104880256926246 0.477580447946897 0.872305592923676
outer loop
vertex 14.9825603999581 21.9488384472907 4.90632209101023
vertex 13.300626752322 22.8478942112799 4.58998367788007
vertex 13.1893950614674 22.3471950081335 4.90632209101023
endloop
endfacet
facet normal 0.111337359487969 0.512108744892566 0.851674013802703
outer loop
vertex 13.300626752322 22.8478942112799 4.58998367788007
vertex 14.9825603999581 21.9488384472907 4.90632209101023
vertex 15.0460996135548 22.2348543603097 4.74101348211376
endloop
endfacet
facet normal 0.111337359487969 0.512108744892566 0.851674013802703
outer loop
vertex 13.300626752322 22.8478942112799 4.58998367788007
vertex 15.0460996135548 22.2348543603097 4.74101348211376
vertex 15.0937920908127 22.4495376504371 4.58998367788006
endloop
endfacet
facet normal 0.120429814312233 0.541447224240418 0.832064638827458
outer loop
vertex 6.86784078723813 -18.8099656745256 21.3053858731578
vertex 6.05977166250058 -15.9106992922211 19.6039768990611
vertex 5.48400633667634 -18.5024538328986 21.3055835099276
endloop
endfacet
facet normal 0.114058161352268 0.512109588306595 0.85131340021956
outer loop
vertex 6.05977166250058 -15.9106992922211 19.6039768990611
vertex 6.86784078723813 -18.8099656745256 21.3053858731578
vertex 7.36263824677689 -16.2002970787949 19.6036172213384
endloop
endfacet
facet normal -0.216865803838607 -0.976201425488324 -6.97109804648343e-17
outer loop
vertex 6.38595107365211 -21.3591525428235 23.1
vertex 4.92164893541962 -21.0338538370655 2.1
vertex 6.38595107365212 -21.3591525428235 2.1
endloop
endfacet
facet normal -0.216865803838607 -0.976201425488324 -6.97109804648343e-17
outer loop
vertex 4.92164893541962 -21.0338538370655 2.1
vertex 6.38595107365211 -21.3591525428235 23.1
vertex 4.92164893541963 -21.0338538370655 23.1
endloop
endfacet
facet normal -0.976201425488324 0.216865803838605 1.48444540158633e-16
outer loop
vertex 5.48400633667634 -18.5024538328986 21.3055835099276
vertex 4.92164893541962 -21.0338538370655 2.1
vertex 4.92164893541963 -21.0338538370655 23.1
endloop
endfacet
facet normal -0.976201425488324 0.216865803838605 1.48444540158633e-16
outer loop
vertex 4.92164893541962 -21.0338538370655 2.1
vertex 5.48400633667634 -18.5024538328986 21.3055835099276
vertex 9.69269661986893 0.44257752367757 2.1
endloop
endfacet
facet normal -0.976201425488324 0.216865803838605 1.48444540158633e-16
outer loop
vertex 9.69269661986893 0.44257752367757 2.1
vertex 5.48400633667634 -18.5024538328986 21.3055835099276
vertex 6.05977166250058 -15.9106992922211 19.6039768990611
endloop
endfacet
facet normal -0.976201425488324 0.216865803838605 1.48444540158633e-16
outer loop
vertex 9.69269661986893 0.44257752367757 2.1
vertex 6.05977166250058 -15.9106992922211 19.6039768990611
vertex 6.64822486385963 -13.2618314493805 17.9973081875142
endloop
endfacet
facet normal -0.976201425488324 0.216865803838605 1.48444540158633e-16
outer loop
vertex 9.69269661986893 0.44257752367757 2.1
vertex 6.64822486385963 -13.2618314493805 17.9973081875142
vertex 7.24863002433156 -10.5591629643138 16.4875866665726
endloop
endfacet
facet normal -0.976201425488324 0.216865803838605 1.48444540158633e-16
outer loop
vertex 9.69269661986893 0.44257752367757 2.1
vertex 7.24863002433156 -10.5591629643138 16.4875866665726
vertex 7.86023628043844 -7.80607377975317 15.0767003858842
endloop
endfacet
facet normal -0.976201425488324 0.216865803838605 1.48444540158633e-16
outer loop
vertex 9.69269661986893 0.44257752367757 2.1
vertex 7.86023628043844 -7.80607377975317 15.0767003858842
vertex 8.48227876067209 -5.00600689428748 13.7664137922751
endloop
endfacet
facet normal -0.976201425488324 0.216865803838605 1.48444540158633e-16
outer loop
vertex 9.69269661986893 0.44257752367757 2.1
vertex 8.48227876067209 -5.00600689428748 13.7664137922751
vertex 9.11397954203834 -2.16246405656671 12.5583655231416
endloop
endfacet
facet normal -0.976201425488324 0.216865803838605 1.48444540158633e-16
outer loop
vertex 9.69269661986893 0.44257752367757 2.1
vertex 9.11397954203834 -2.16246405656671 12.5583655231416
vertex 9.69269661986893 0.442577523677579 11.5606951618218
endloop
endfacet
facet normal 0.976201425488324 -0.216865803838605 -2.42190644980643e-15
outer loop
vertex 12.8774415751688 12.4728401054265 2.1
vertex 13.1520340527 13.7088928313504 7.88846921164096
vertex 12.8774415751688 12.4728401054265 8.1
endloop
endfacet
facet normal 0.976201425488324 -0.216865803838605 -2.42190644980643e-15
outer loop
vertex 13.1520340527 13.7088928313504 7.88846921164096
vertex 12.8774415751688 12.4728401054265 2.1
vertex 15.0460996135548 22.2348543603097 2.1
endloop
endfacet
facet normal 0.976201425488324 -0.216865803838605 -2.42190644980643e-15
outer loop
vertex 13.1520340527 13.7088928313504 7.88846921164096
vertex 15.0460996135548 22.2348543603097 2.1
vertex 13.4243707455601 14.9347913505132 7.62205188705293
endloop
endfacet
facet normal 0.976201425488324 -0.216865803838605 -2.42190644980643e-15
outer loop
vertex 13.4243707455601 14.9347913505132 7.62205188705293
vertex 15.0460996135548 22.2348543603097 2.1
vertex 13.693935935944 16.1482142067538 7.30125253466786
endloop
endfacet
facet normal 0.976201425488324 -0.216865803838605 -2.42190644980643e-15
outer loop
vertex 13.693935935944 16.1482142067538 7.30125253466786
vertex 15.0460996135548 22.2348543603097 2.1
vertex 13.9602191543777 17.34686356879 6.92667864492768
endloop
endfacet
facet normal 0.976201425488324 -0.216865803838605 -2.42190644980643e-15
outer loop
vertex 13.9602191543777 17.34686356879 6.92667864492768
vertex 15.0460996135548 22.2348543603097 2.1
vertex 14.2227161463831 18.52846958157 6.49903953989339
endloop
endfacet
facet normal 0.976201425488324 -0.216865803838605 -2.42190644980643e-15
outer loop
vertex 14.2227161463831 18.52846958157 6.49903953989339
vertex 15.0460996135548 22.2348543603097 2.1
vertex 14.4809298273729 19.6907946646451 6.01914503001806
endloop
endfacet
facet normal 0.976201425488324 -0.216865803838605 -2.42190644980643e-15
outer loop
vertex 14.4809298273729 19.6907946646451 6.01914503001806
vertex 15.0460996135548 22.2348543603097 2.1
vertex 14.7343712239686 20.8316377494249 5.48790388062714
endloop
endfacet
facet normal 0.976201425488324 -0.216865803838605 -2.42190644980643e-15
outer loop
vertex 14.7343712239686 20.8316377494249 5.48790388062714
vertex 15.0460996135548 22.2348543603097 2.1
vertex 14.9825603999581 21.9488384472907 4.90632209101023
endloop
endfacet
facet normal 0.976201425488324 -0.216865803838605 -2.42190644980643e-15
outer loop
vertex 14.9825603999581 21.9488384472907 4.90632209101023
vertex 15.0460996135548 22.2348543603097 2.1
vertex 15.0460996135548 22.2348543603097 4.74101348211376
endloop
endfacet
facet normal 0.976201425488324 -0.216865803838605 -2.42190644980643e-15
outer loop
vertex 15.0460996135548 22.2348543603097 4.74101348211376
vertex 15.0460996135548 22.2348543603097 2.1
vertex 15.0937920908127 22.4495376504371 2.2510298042337
endloop
endfacet
facet normal 0.976201425488324 -0.216865803838605 -2.42190644980643e-15
outer loop
vertex 15.0460996135548 22.2348543603097 4.74101348211376
vertex 15.0937920908127 22.4495376504371 2.2510298042337
vertex 15.0937920908127 22.4495376504371 4.58998367788006
endloop
endfacet
facet normal 0.976201425488324 -0.216865803838605 -2.42190644980643e-15
outer loop
vertex 15.0937920908127 22.4495376504371 4.58998367788006
vertex 15.0937920908127 22.4495376504371 2.2510298042337
vertex 15.1350054859011 22.6350559494148 2.4382673699717
endloop
endfacet
facet normal 0.976201425488324 -0.216865803838605 -2.42190644980643e-15
outer loop
vertex 15.0937920908127 22.4495376504371 4.58998367788006
vertex 15.1350054859011 22.6350559494148 2.4382673699717
vertex 15.1350054859012 22.6350559494148 4.40274611214207
endloop
endfacet
facet normal 0.976201425488324 -0.216865803838605 -2.42190644980643e-15
outer loop
vertex 15.1350054859012 22.6350559494148 4.40274611214207
vertex 15.1350054859011 22.6350559494148 2.4382673699717
vertex 15.1684638054824 22.7856654908524 4.18509778089981
endloop
endfacet
facet normal 0.976201425488324 -0.216865803838605 -2.42190644980643e-15
outer loop
vertex 15.1684638054824 22.7856654908524 4.18509778089981
vertex 15.1350054859011 22.6350559494148 2.4382673699717
vertex 15.1684638054824 22.7856654908524 2.65591570121395
endloop
endfacet
facet normal 0.976201425488324 -0.216865803838605 -2.42190644980643e-15
outer loop
vertex 15.1684638054824 22.7856654908524 4.18509778089981
vertex 15.1684638054824 22.7856654908524 2.65591570121395
vertex 15.1931311583664 22.8967033060458 2.89723626501358
endloop
endfacet
facet normal 0.976201425488324 -0.216865803838605 -2.42190644980643e-15
outer loop
vertex 15.1684638054824 22.7856654908524 4.18509778089981
vertex 15.1931311583664 22.8967033060458 2.89723626501358
vertex 15.1931311583664 22.8967033060458 3.94377721710019
endloop
endfacet
facet normal 0.976201425488324 -0.216865803838605 -2.42190644980643e-15
outer loop
vertex 15.1931311583664 22.8967033060458 3.94377721710019
vertex 15.1931311583664 22.8967033060458 2.89723626501358
vertex 15.2082438273715 22.9647315925005 3.68625586130353
endloop
endfacet
facet normal 0.976201425488324 -0.216865803838605 -2.42190644980643e-15
outer loop
vertex 15.2082438273715 22.9647315925005 3.68625586130353
vertex 15.1931311583664 22.8967033060458 2.89723626501358
vertex 15.2082438273715 22.9647315925005 3.15475762081024
endloop
endfacet
facet normal 0.976201425488324 -0.216865803838605 -2.42190644980643e-15
outer loop
vertex 15.2082438273715 22.9647315925005 3.68625586130353
vertex 15.2082438273715 22.9647315925005 3.15475762081024
vertex 15.2133339145019 22.9876441505184 3.42050674105688
endloop
endfacet
facet normal 0.843625928268517 0.53693136726502 1.04380034284796e-16
outer loop
vertex 12.8774415751688 12.4728401054265 2.1
vertex 13.8637203203022 10.923200109289 8.1
vertex 13.8637203203022 10.923200109289 2.1
endloop
endfacet
facet normal 0.843625928268517 0.53693136726502 1.04380034284796e-16
outer loop
vertex 13.8637203203022 10.923200109289 8.1
vertex 12.8774415751688 12.4728401054265 2.1
vertex 12.8774415751688 12.4728401054265 8.1
endloop
endfacet
facet normal 0.982883216480449 -0.184229676542008 -9.50908703838233e-05
outer loop
vertex 6.38595107365212 -21.3591525428235 2.1
vertex 6.86784078723813 -18.8099656745256 21.3053858731578
vertex 6.38595107365211 -21.3591525428235 23.1
endloop
endfacet
facet normal 0.982883216480449 -0.184229676542008 -9.50908703838233e-05
outer loop
vertex 6.86784078723813 -18.8099656745256 21.3053858731578
vertex 6.38595107365212 -21.3591525428235 2.1
vertex 11.9157237633219 8.14375602566488 2.1
endloop
endfacet
facet normal 0.983864459631679 -0.178399687330689 -0.0135748530002105
outer loop
vertex 11.9157237633219 8.14375602566488 2.1
vertex 7.36263824677689 -16.2002970787949 19.6036172213384
vertex 6.86784078723813 -18.8099656745256 21.3053858731578
endloop
endfacet
facet normal 0.983864459631679 -0.178399687330689 -0.0135748530002105
outer loop
vertex 11.9157237633219 8.14375602566488 2.1
vertex 7.86972466121562 -13.5334103932 17.9968222673033
vertex 7.36263824677689 -16.2002970787949 19.6036172213384
endloop
endfacet
facet normal 0.983864459631679 -0.178399687330689 -0.0135748530002105
outer loop
vertex 11.9157237633219 8.14375602566488 2.1
vertex 8.38846587100031 -10.8126408119464 16.487010460216
vertex 7.86972466121562 -13.5334103932 17.9968222673033
endloop
endfacet
facet normal 0.983864459631679 -0.178399687330689 -0.0135748530002105
outer loop
vertex 11.9157237633219 8.14375602566488 2.1
vertex 8.91821314115236 -8.04139091489997 15.0760699626362
vertex 8.38846587100031 -10.8126408119464 16.487010460216
endloop
endfacet
facet normal 0.983864459631679 -0.178399687330689 -0.0135748530002105
outer loop
vertex 11.9157237633219 8.14375602566488 2.1
vertex 9.45830397257302 -5.22312641233945 13.7657652891932
vertex 8.91821314115236 -8.04139091489997 15.0760699626362
endloop
endfacet
facet normal 0.98057419898139 -0.195385457708487 -0.0172847680936517
outer loop
vertex 9.45830397257302 -5.22312641233945 13.7657652891932
vertex 11.9157237633219 8.14375602566488 2.1
vertex 10.0080629305612 -2.36137181075728 12.5577350998936
endloop
endfacet
facet normal 0.98057419898139 -0.195385457708487 -0.0172847680936517
outer loop
vertex 10.0080629305612 -2.36137181075728 12.5577350998936
vertex 11.9157237633219 8.14375602566488 2.1
vertex 10.5668024895084 0.540293994869136 11.4534901508221
endloop
endfacet
facet normal 0.98057419898139 -0.195385457708487 -0.0172847680936517
outer loop
vertex 10.5668024895084 0.540293994869136 11.4534901508221
vertex 11.9157237633219 8.14375602566488 2.1
vertex 11.133823892715 3.47824219682442 10.4544114047978
endloop
endfacet
facet normal 0.98057419898139 -0.195385457708487 -0.0172847680936517
outer loop
vertex 11.133823892715 3.47824219682442 10.4544114047978
vertex 11.9157237633219 8.14375602566488 2.1
vertex 11.7084180262509 6.44879861282262 9.56174830434935
endloop
endfacet
facet normal 0.9926033397426 -0.121402676790247 -5.0755379461577e-18
outer loop
vertex 11.9157237633219 8.14375602566488 8.1
vertex 11.7084180262509 6.44879861282262 9.56174830434935
vertex 11.9157237633219 8.14375602566488 2.1
endloop
endfacet
facet normal 0.969062372663027 -0.215911047677449 -0.119584854306606
outer loop
vertex 12.2898663057702 9.44824828091999 8.77661720916925
vertex 11.7084180262509 6.44879861282262 9.56174830434935
vertex 11.9157237633219 8.14375602566488 8.1
endloop
endfacet
facet normal 0.969052504823081 -0.215277651653855 -0.120800561234266
outer loop
vertex 12.8774415751688 12.4728401054265 8.1
vertex 12.2898663057702 9.44824828091999 8.77661720916925
vertex 11.9157237633219 8.14375602566488 8.1
endloop
endfacet
facet normal 0.0873513010363136 0.389983217065752 0.916669428209707
outer loop
vertex 9.45830397257302 -5.22312641233945 13.7657652891932
vertex 9.11397954203834 -2.16246405656671 12.5583655231416
vertex 8.48227876067209 -5.00600689428748 13.7664137922751
endloop
endfacet
facet normal 0.0802477493039551 0.357811990600989 0.930339119952401
outer loop
vertex 9.11397954203834 -2.16246405656671 12.5583655231416
vertex 9.45830397257302 -5.22312641233945 13.7657652891932
vertex 10.0080629305612 -2.36137181075728 12.5577350998936
endloop
endfacet
facet normal 0.0942559595435408 0.421399813792568 0.901963420004445
outer loop
vertex 8.91821314115236 -8.04139091489997 15.0760699626362
vertex 8.48227876067209 -5.00600689428748 13.7664137922751
vertex 7.86023628043844 -7.80607377975317 15.0767003858842
endloop
endfacet
facet normal 0.0872921989438241 0.389714861462004 0.916789179015112
outer loop
vertex 8.48227876067209 -5.00600689428748 13.7664137922751
vertex 8.91821314115236 -8.04139091489997 15.0760699626362
vertex 9.45830397257302 -5.22312641233945 13.7657652891932
endloop
endfacet
facet normal 0.107640079593434 0.4826252526612 0.869187251838654
outer loop
vertex 7.86972466121562 -13.5334103932 17.9968222673033
vertex 7.24863002433156 -10.5591629643138 16.4875866665726
vertex 6.64822486385963 -13.2618314493805 17.9973081875142
endloop
endfacet
facet normal 0.100963621889832 0.452035570326649 0.886267561300959
outer loop
vertex 7.24863002433156 -10.5591629643138 16.4875866665726
vertex 7.86972466121562 -13.5334103932 17.9968222673033
vertex 8.38846587100031 -10.8126408119464 16.487010460216
endloop
endfacet
facet normal 9.42002257597292e-16 -7.65273263681182e-16 1.0
outer loop
vertex 13.4653637594594 9.13003477079828 8.1
vertex 12.8774415751688 12.4728401054265 8.1
vertex 11.9157237633219 8.14375602566488 8.1
endloop
endfacet
facet normal 9.42002257597292e-16 -7.65273263681182e-16 1.0
outer loop
vertex 12.8774415751688 12.4728401054265 8.1
vertex 13.4653637594594 9.13003477079828 8.1
vertex 13.8637203203022 10.923200109289 8.1
endloop
endfacet
facet normal 0.101020044879392 0.452293713733519 0.886129418905448
outer loop
vertex 8.38846587100031 -10.8126408119464 16.487010460216
vertex 7.86023628043844 -7.80607377975317 15.0767003858842
vertex 7.24863002433156 -10.5591629643138 16.4875866665726
endloop
endfacet
facet normal 0.0941981662396629 0.421136307855414 0.902092520578125
outer loop
vertex 7.86023628043844 -7.80607377975317 15.0767003858842
vertex 8.38846587100031 -10.8126408119464 16.487010460216
vertex 8.91821314115236 -8.04139091489997 15.0760699626362
endloop
endfacet
facet normal 0.11411166772664 0.512355696148541 0.851158133317651
outer loop
vertex 7.36263824677689 -16.2002970787949 19.6036172213384
vertex 6.64822486385963 -13.2618314493805 17.9973081875142
vertex 6.05977166250058 -15.9106992922211 19.6039768990611
endloop
endfacet
facet normal 0.107585086450069 0.482372924712508 0.869334119126722
outer loop
vertex 6.64822486385963 -13.2618314493805 17.9973081875142
vertex 7.36263824677689 -16.2002970787949 19.6036172213384
vertex 7.86972466121562 -13.5334103932 17.9968222673033
endloop
endfacet
facet normal 0.123479348027171 0.555505420032888 0.822293487098657
outer loop
vertex 6.38595107365211 -21.3591525428235 23.1
vertex 5.48400633667634 -18.5024538328986 21.3055835099276
vertex 4.92164893541963 -21.0338538370655 23.1
endloop
endfacet
facet normal 0.12037784868056 0.54120770106717 0.832227972284415
outer loop
vertex 5.48400633667634 -18.5024538328986 21.3055835099276
vertex 6.38595107365211 -21.3591525428235 23.1
vertex 6.86784078723813 -18.8099656745256 21.3053858731578
endloop
endfacet
facet normal 0.0577625178499412 0.26001314898928 0.963875849829382
outer loop
vertex 11.7084180262509 6.44879861282262 9.56174830434935
vertex 10.3359079933031 9.88232632971703 8.77661682909205
vertex 9.59264073505831 6.91882591882527 9.56174761264962
endloop
endfacet
facet normal 0.0503325946421411 0.226567891346112 0.97269400148637
outer loop
vertex 10.3359079933031 9.88232632971703 8.77661682909205
vertex 11.7084180262509 6.44879861282262 9.56174830434935
vertex 12.2898663057702 9.44824828091999 8.77661720916925
endloop
endfacet
facet normal 0.0727371760476895 0.326042092149088 0.942552840623619
outer loop
vertex 10.5668024895084 0.540293994869136 11.4534901508221
vertex 8.85540398799587 3.98440157133548 10.4544104703199
vertex 8.12511973644309 1.08272306262005 11.453489042714
endloop
endfacet
facet normal 0.0651201893531538 0.293133007222501 0.953851351634678
outer loop
vertex 8.85540398799587 3.98440157133548 10.4544104703199
vertex 10.5668024895084 0.540293994869136 11.4534901508221
vertex 11.133823892715 3.47824219682442 10.4544114047978
endloop
endfacet
facet normal 0.0803080985748691 0.358084605394821 0.930229017329886
outer loop
vertex 10.0080629305612 -2.36137181075728 12.5577350998936
vertex 9.69269661986893 0.442577523677579 11.5606951618218
vertex 9.11397954203834 -2.16246405656671 12.5583655231416
endloop
endfacet
facet normal 0.0764921605656166 0.342906744305554 0.936249920737924
outer loop
vertex 9.69269661986893 0.442577523677579 11.5606951618218
vertex 10.0080629305612 -2.36137181075728 12.5577350998936
vertex 10.5668024895084 0.540293994869136 11.4534901508221
endloop
endfacet
facet normal 0.0727371760476895 0.326042092149088 0.942552840623619
outer loop
vertex 10.5668024895084 0.540293994869136 11.4534901508221
vertex 8.87573270686655 0.624068280681717 11.5606951618218
vertex 9.69269661986893 0.442577523677579 11.5606951618218
endloop
endfacet
facet normal -1.96034093493174e-15 3.99539156640989e-16 -1.0
outer loop
vertex 10.1225584248312 8.54211258650762 2.1
vertex 4.10468502241724 -20.8523630800614 2.10000000000001
vertex 2.64038288418476 -20.5270643743035 2.10000000000001
endloop
endfacet
facet normal -1.96034093493174e-15 3.99539156640989e-16 -1.0
outer loop
vertex 4.10468502241724 -20.8523630800614 2.10000000000001
vertex 10.1225584248312 8.54211258650762 2.1
vertex 8.87573270686655 0.624068280681708 2.1
endloop
endfacet
facet normal -1.96034093493174e-15 3.99539156640989e-16 -1.0
outer loop
vertex 8.87573270686655 0.624068280681708 2.1
vertex 10.1225584248312 8.54211258650762 2.1
vertex 9.69269661986893 0.44257752367757 2.1
endloop
endfacet
facet normal -1.96034093493174e-15 3.99539156640989e-16 -1.0
outer loop
vertex 9.69269661986893 0.44257752367757 2.1
vertex 6.38595107365212 -21.3591525428235 2.1
vertex 4.92164893541962 -21.0338538370655 2.1
endloop
endfacet
facet normal -1.96034093493174e-15 3.99539156640989e-16 -1.0
outer loop
vertex 6.38595107365212 -21.3591525428235 2.1
vertex 9.69269661986893 0.44257752367757 2.1
vertex 11.9157237633219 8.14375602566488 2.1
endloop
endfacet
facet normal -1.96034093493174e-15 3.99539156640989e-16 -1.0
outer loop
vertex 11.9157237633219 8.14375602566488 2.1
vertex 9.69269661986893 0.44257752367757 2.1
vertex 10.1225584248312 8.54211258650762 2.1
endloop
endfacet
facet normal 0.0651201795150404 0.293132962937255 0.953851365915862
outer loop
vertex 11.133823892715 3.47824219682442 10.4544114047978
vertex 9.59264073505831 6.91882591882527 9.56174761264962
vertex 8.85540398799587 3.98440157133548 10.4544104703199
endloop
endfacet
facet normal 0.0577625335889529 0.260013219837083 0.963875829774426
outer loop
vertex 9.59264073505831 6.91882591882527 9.56174761264962
vertex 11.133823892715 3.47824219682442 10.4544114047978
vertex 11.7084180262509 6.44879861282262 9.56174830434935
endloop
endfacet
facet normal 0.0503325723778748 0.226567791124834 0.972694025982806
outer loop
vertex 12.2898663057702 9.44824828091999 8.77661720916925
vertex 11.0842762366781 12.8711966662692 8.1
vertex 10.3359079933031 9.88232632971703 8.77661682909205
endloop
endfacet
facet normal 0.0465311321784128 0.209455833124128 0.976710349954618
outer loop
vertex 11.0842762366781 12.8711966662692 8.1
vertex 12.2898663057702 9.44824828091999 8.77661720916925
vertex 12.8774415751688 12.4728401054265 8.1
endloop
endfacet
facet normal 0.0357346608903079 0.160856282009417 0.986330720675962
outer loop
vertex 12.8774415751688 12.4728401054265 8.1
vertex 11.3588687142093 14.1072493921931 7.88846921164096
vertex 11.0842762366781 12.8711966662692 8.1
endloop
endfacet
facet normal 0.040380310938218 0.181768247468317 0.982511951429004
outer loop
vertex 11.3588687142093 14.1072493921931 7.88846921164096
vertex 12.8774415751688 12.4728401054265 8.1
vertex 13.1520340527 13.7088928313504 7.88846921164096
endloop
endfacet
endsolid vane housing
