solid compass mount
facet normal -0.0 -0.0 1.0
  outer loop
    vertex 22.429999999999993 -2.5399999999999996 0.0
    vertex 0.43000000000000005 20.32 0.0
    vertex 0.4299999999999993 -2.540000000000001 0.0
  endloop
endfacet
facet normal -0.0 -0.0 1.0
  outer loop
    vertex 0.43000000000000005 20.32 0.0
    vertex 22.429999999999993 -2.5399999999999996 0.0
    vertex 19.864666666666665 20.32 0.0
  endloop
endfacet
facet normal -0.0 -0.0 1.0
  outer loop
    vertex 19.864666666666665 20.32 0.0
    vertex 22.429999999999993 -2.5399999999999996 0.0
    vertex 22.43 20.32 0.0
  endloop
endfacet
facet normal -0.0 1.0 -0.0
  outer loop
    vertex 9.43 0.0 -2.5399999999999996
    vertex 13.43 0.0 -25.4
    vertex 9.43 0.0 -25.4
  endloop
endfacet
facet normal -0.0 1.0 -0.0
  outer loop
    vertex 13.43 0.0 -25.4
    vertex 9.43 0.0 -2.5399999999999996
    vertex 13.43 0.0 -2.5399999999999996
  endloop
endfacet
facet normal -0.0 1.0 -0.0
  outer loop
    vertex -12.234310813533423 60.0 15.239999999999998
    vertex -9.57 60.0 -25.4
    vertex -12.234310813533423 60.0 -25.4
  endloop
endfacet
facet normal -0.0 1.0 -0.0
  outer loop
    vertex -9.57 60.0 -25.4
    vertex -12.234310813533423 60.0 15.239999999999998
    vertex -9.57 60.0 -2.54
  endloop
endfacet
facet normal -0.0 1.0 -0.0
  outer loop
    vertex -9.57 60.0 -2.54
    vertex -12.234310813533423 60.0 15.239999999999998
    vertex 16.080000000000002 60.0 2.539999999999999
  endloop
endfacet
facet normal -0.0 1.0 -0.0
  outer loop
    vertex -9.57 60.0 -2.54
    vertex 16.080000000000002 60.0 2.539999999999999
    vertex 32.43 60.0 -2.54
  endloop
endfacet
facet normal -0.0 1.0 -0.0
  outer loop
    vertex 16.080000000000002 60.0 2.539999999999999
    vertex -12.234310813533423 60.0 15.239999999999998
    vertex 16.080000000000002 60.0 15.239999999999998
  endloop
endfacet
facet normal -0.0 1.0 -0.0
  outer loop
    vertex 32.43 60.0 -2.54
    vertex 35.09431081353342 60.0 -25.4
    vertex 32.43 60.0 -25.4
  endloop
endfacet
facet normal -0.0 1.0 -0.0
  outer loop
    vertex 35.09431081353342 60.0 -25.4
    vertex 32.43 60.0 -2.54
    vertex 35.09431081353342 60.0 15.239999999999998
  endloop
endfacet
facet normal -0.0 1.0 -0.0
  outer loop
    vertex 35.09431081353342 60.0 15.239999999999998
    vertex 32.43 60.0 -2.54
    vertex 22.43 60.0 2.539999999999999
  endloop
endfacet
facet normal -0.0 1.0 -0.0
  outer loop
    vertex 22.43 60.0 2.539999999999999
    vertex 32.43 60.0 -2.54
    vertex 16.080000000000002 60.0 2.539999999999999
  endloop
endfacet
facet normal -0.0 1.0 -0.0
  outer loop
    vertex 35.09431081353342 60.0 15.239999999999998
    vertex 22.43 60.0 2.539999999999999
    vertex 22.43 60.0 15.239999999999998
  endloop
endfacet
facet normal -0.9533422253507435 0.3018917046944022 4.9364011829465705e-17
  outer loop
    vertex 19.864666666666665 20.32 -2.54
    vertex 13.43 0.0 -25.4
    vertex 13.43 0.0 -2.5399999999999996
  endloop
endfacet
facet normal -0.9533422253507435 0.3018917046944022 4.9364011829465705e-17
  outer loop
    vertex 13.43 0.0 -25.4
    vertex 19.864666666666665 20.32 -2.54
    vertex 32.43 60.0 -25.4
  endloop
endfacet
facet normal -0.9533422253507435 0.3018917046944022 4.9364011829465705e-17
  outer loop
    vertex 32.43 60.0 -25.4
    vertex 19.864666666666665 20.32 -2.54
    vertex 32.43 60.0 -2.54
  endloop
endfacet
facet normal 0.0 0.0 -1.0
  outer loop
    vertex -9.57 60.0 -25.4
    vertex 11.429999999999996 -14.72940256905297 -25.4
    vertex -12.234310813533423 60.0 -25.4
  endloop
endfacet
facet normal 0.0 0.0 -1.0
  outer loop
    vertex 11.429999999999996 -14.72940256905297 -25.4
    vertex -9.57 60.0 -25.4
    vertex 9.43 0.0 -25.4
  endloop
endfacet
facet normal 0.0 0.0 -1.0
  outer loop
    vertex 11.429999999999996 -14.72940256905297 -25.4
    vertex 9.43 0.0 -25.4
    vertex 13.43 0.0 -25.4
  endloop
endfacet
facet normal 0.0 0.0 -1.0
  outer loop
    vertex 11.429999999999996 -14.72940256905297 -25.4
    vertex 13.43 0.0 -25.4
    vertex 35.09431081353342 60.0 -25.4
  endloop
endfacet
facet normal 0.0 0.0 -1.0
  outer loop
    vertex 35.09431081353342 60.0 -25.4
    vertex 13.43 0.0 -25.4
    vertex 32.43 60.0 -25.4
  endloop
endfacet
facet normal 0.9533422253507435 0.3018917046944022 2.7585771316466125e-17
  outer loop
    vertex -9.57 60.0 -25.4
    vertex 9.43 0.0 -2.5399999999999996
    vertex 9.43 0.0 -25.4
  endloop
endfacet
facet normal 0.9533422253507435 0.3018917046944022 2.7585771316466125e-17
  outer loop
    vertex 9.43 0.0 -2.5399999999999996
    vertex -9.57 60.0 -25.4
    vertex -9.57 60.0 -2.54
  endloop
endfacet
facet normal -1.3451504026364314e-33 -5.0671938938057414e-18 -1.0
  outer loop
    vertex 32.43 60.0 -2.54
    vertex 9.43 0.0 -2.5399999999999996
    vertex -9.57 60.0 -2.54
  endloop
endfacet
facet normal -1.3451504026364314e-33 -5.0671938938057414e-18 -1.0
  outer loop
    vertex 9.43 0.0 -2.5399999999999996
    vertex 32.43 60.0 -2.54
    vertex 19.864666666666665 20.32 -2.54
  endloop
endfacet
facet normal -1.3451504026364314e-33 -5.0671938938057414e-18 -1.0
  outer loop
    vertex 9.43 0.0 -2.5399999999999996
    vertex 19.864666666666665 20.32 -2.54
    vertex 13.43 0.0 -2.5399999999999996
  endloop
endfacet
facet normal 1.0 -0.0 -0.0
  outer loop
    vertex 25.399999999999995 29.38638690463131 0.0
    vertex 25.399999999999995 -2.540000000000001 15.239999999999998
    vertex 25.399999999999995 -2.540000000000001 0.0
  endloop
endfacet
facet normal 1.0 -0.0 -0.0
  outer loop
    vertex 25.399999999999995 -2.540000000000001 15.239999999999998
    vertex 25.399999999999995 29.38638690463131 0.0
    vertex 25.399999999999995 29.38638690463131 15.239999999999998
  endloop
endfacet
facet normal 0.6574547172867525 -0.7534940575196306 0.0
  outer loop
    vertex 25.399999999999995 -2.540000000000001 15.239999999999998
    vertex 11.429999999999996 -14.72940256905297 0.0
    vertex 25.399999999999995 -2.540000000000001 0.0
  endloop
endfacet
facet normal 0.6574547172867525 -0.7534940575196306 0.0
  outer loop
    vertex 11.429999999999996 -14.72940256905297 0.0
    vertex 25.399999999999995 -2.540000000000001 15.239999999999998
    vertex 11.429999999999996 -14.72940256905297 15.239999999999998
  endloop
endfacet
facet normal -4.0957137799822464e-17 1.0 4.387684182677308e-17
  outer loop
    vertex 0.42999999999999927 -2.540000000000001 15.239999999999998
    vertex 22.429999999999993 -2.5399999999999996 0.0
    vertex 0.4299999999999993 -2.540000000000001 0.0
  endloop
endfacet
facet normal -4.0957137799822464e-17 1.0 4.387684182677308e-17
  outer loop
    vertex 22.429999999999993 -2.5399999999999996 0.0
    vertex 0.42999999999999927 -2.540000000000001 15.239999999999998
    vertex 22.429999999999993 -2.5399999999999996 15.239999999999998
  endloop
endfacet
facet normal -0.6574547172867526 -0.7534940575196306 -6.66406792477189e-17
  outer loop
    vertex 11.429999999999996 -14.72940256905297 15.239999999999998
    vertex -2.54 -2.540000000000001 0.0
    vertex 11.429999999999996 -14.72940256905297 0.0
  endloop
endfacet
facet normal -0.6574547172867526 -0.7534940575196306 -6.66406792477189e-17
  outer loop
    vertex -2.54 -2.540000000000001 0.0
    vertex 11.429999999999996 -14.72940256905297 15.239999999999998
    vertex -2.54 -2.540000000000001 15.239999999999998
  endloop
endfacet
facet normal -1.0 2.3185874551982035e-16 0.0
  outer loop
    vertex -2.5399999999999925 29.386386904631284 15.239999999999998
    vertex -2.54 -2.540000000000001 0.0
    vertex -2.54 -2.540000000000001 15.239999999999998
  endloop
endfacet
facet normal -1.0 2.3185874551982035e-16 0.0
  outer loop
    vertex -2.54 -2.540000000000001 0.0
    vertex -2.5399999999999925 29.386386904631284 15.239999999999998
    vertex -2.5399999999999925 29.386386904631284 0.0
  endloop
endfacet
facet normal -0.0 -1.0 -0.0
  outer loop
    vertex 22.43 57.9075 2.539999999999999
    vertex 0.43000000000000077 57.9075 0.0
    vertex 22.43 57.9075 0.0
  endloop
endfacet
facet normal -0.0 -1.0 -0.0
  outer loop
    vertex 0.43000000000000077 57.9075 0.0
    vertex 22.43 57.9075 2.539999999999999
    vertex 16.080000000000002 57.9075 2.539999999999999
  endloop
endfacet
facet normal -0.0 -1.0 -0.0
  outer loop
    vertex 0.43000000000000077 57.9075 0.0
    vertex 16.080000000000002 57.9075 2.539999999999999
    vertex 0.43000000000000066 57.9075 15.239999999999998
  endloop
endfacet
facet normal -0.0 -1.0 -0.0
  outer loop
    vertex 0.43000000000000066 57.9075 15.239999999999998
    vertex 16.080000000000002 57.9075 2.539999999999999
    vertex 16.080000000000002 57.9075 15.239999999999998
  endloop
endfacet
facet normal 1.0 -3.8648962230840054e-17 -0.0
  outer loop
    vertex 0.43000000000000005 20.32 0.0
    vertex 0.42999999999999927 -2.540000000000001 15.239999999999998
    vertex 0.4299999999999993 -2.540000000000001 0.0
  endloop
endfacet
facet normal 1.0 -3.8648962230840054e-17 -0.0
  outer loop
    vertex 0.42999999999999927 -2.540000000000001 15.239999999999998
    vertex 0.43000000000000005 20.32 0.0
    vertex 0.43 20.32 15.239999999999998
  endloop
endfacet
facet normal -0.9533422253507438 -0.30189170469440185 2.7092865871204055e-16
  outer loop
    vertex -12.234310813533423 60.0 15.239999999999998
    vertex -2.5399999999999925 29.386386904631284 0.0
    vertex -2.5399999999999925 29.386386904631284 15.239999999999998
  endloop
endfacet
facet normal -0.9533422253507438 -0.30189170469440185 2.7092865871204055e-16
  outer loop
    vertex 6.637469187976362 0.4049052583900859 -6.35
    vertex 11.429999999999996 -14.72940256905297 -25.4
    vertex 11.429999999999996 -14.72940256905297 0.0
  endloop
endfacet
facet normal -0.9533422253507438 -0.30189170469440185 2.7092865871204055e-16
  outer loop
    vertex 11.429999999999996 -14.72940256905297 -25.4
    vertex 6.637469187976362 0.4049052583900859 -6.35
    vertex -12.234310813533423 60.0 -25.4
  endloop
endfacet
facet normal -0.9533422253507438 -0.30189170469440185 2.7092865871204055e-16
  outer loop
    vertex -12.234310813533423 60.0 -25.4
    vertex 6.637469187976362 0.4049052583900859 -6.35
    vertex -2.5399999999999925 29.386386904631284 0.0
  endloop
endfacet
facet normal -0.9533422253507438 -0.30189170469440185 2.7092865871204055e-16
  outer loop
    vertex -12.234310813533423 60.0 -25.4
    vertex -2.5399999999999925 29.386386904631284 0.0
    vertex -12.234310813533423 60.0 15.239999999999998
  endloop
endfacet
facet normal -0.0 -0.0 1.0
  outer loop
    vertex 22.43 21.9075 0.0
    vertex 0.43000000000000077 57.9075 0.0
    vertex 0.43000000000000077 21.9075 0.0
  endloop
endfacet
facet normal -0.0 -0.0 1.0
  outer loop
    vertex 0.43000000000000077 57.9075 0.0
    vertex 22.43 21.9075 0.0
    vertex 22.43 57.9075 0.0
  endloop
endfacet
facet normal -0.0 1.0 -0.0
  outer loop
    vertex 0.43000000000000077 21.9075 0.0
    vertex 16.080000000000002 21.9075 2.539999999999999
    vertex 22.43 21.9075 0.0
  endloop
endfacet
facet normal -0.0 1.0 -0.0
  outer loop
    vertex 16.080000000000002 21.9075 2.539999999999999
    vertex 0.43000000000000077 21.9075 0.0
    vertex 0.43000000000000066 21.9075 15.239999999999998
  endloop
endfacet
facet normal -0.0 1.0 -0.0
  outer loop
    vertex 16.080000000000002 21.9075 2.539999999999999
    vertex 0.43000000000000066 21.9075 15.239999999999998
    vertex 16.080000000000002 21.9075 15.239999999999998
  endloop
endfacet
facet normal -0.0 1.0 -0.0
  outer loop
    vertex 22.43 21.9075 2.539999999999999
    vertex 22.43 21.9075 0.0
    vertex 16.080000000000002 21.9075 2.539999999999999
  endloop
endfacet
facet normal 0.0 -1.0 0.0
  outer loop
    vertex 22.43 20.32 2.539999999999999
    vertex 19.864666666666665 20.32 0.0
    vertex 22.43 20.32 0.0
  endloop
endfacet
facet normal 0.0 -1.0 0.0
  outer loop
    vertex 19.864666666666665 20.32 0.0
    vertex 22.43 20.32 2.539999999999999
    vertex 0.43000000000000005 20.32 0.0
  endloop
endfacet
facet normal 0.0 -1.0 0.0
  outer loop
    vertex 0.43000000000000005 20.32 0.0
    vertex 22.43 20.32 2.539999999999999
    vertex 16.080000000000002 20.32 2.539999999999999
  endloop
endfacet
facet normal 0.0 -1.0 0.0
  outer loop
    vertex 0.43000000000000005 20.32 0.0
    vertex 16.080000000000002 20.32 2.539999999999999
    vertex 0.43 20.32 15.239999999999998
  endloop
endfacet
facet normal 0.0 -1.0 0.0
  outer loop
    vertex 0.43 20.32 15.239999999999998
    vertex 16.080000000000002 20.32 2.539999999999999
    vertex 16.080000000000002 20.32 15.239999999999998
  endloop
endfacet
facet normal -0.4009262010973567 -0.45949249748712045 -0.792543264451027
  outer loop
    vertex 11.429999999999996 -14.72940256905297 0.0
    vertex -2.54 -2.540000000000001 0.0
    vertex 6.637469187976362 0.4049052583900859 -6.35
  endloop
endfacet
facet normal -0.568989926908946 1.3486774819747723e-16 -0.8223444917284681
  outer loop
    vertex 6.637469187976362 0.4049052583900859 -6.35
    vertex -2.54 -2.540000000000001 0.0
    vertex -2.5399999999999925 29.386386904631284 0.0
  endloop
endfacet
facet normal 0.9533422253507438 -0.30189170469440185 1.5804171758202355e-16
  outer loop
    vertex 11.429999999999996 -14.72940256905297 -25.4
    vertex 16.22253081202361 0.4049052583900852 -6.35
    vertex 11.429999999999996 -14.72940256905297 0.0
  endloop
endfacet
facet normal 0.9533422253507438 -0.30189170469440185 1.5804171758202355e-16
  outer loop
    vertex 16.22253081202361 0.4049052583900852 -6.35
    vertex 11.429999999999996 -14.72940256905297 -25.4
    vertex 35.09431081353342 60.0 -25.4
  endloop
endfacet
facet normal 0.9533422253507438 -0.30189170469440185 1.5804171758202355e-16
  outer loop
    vertex 16.22253081202361 0.4049052583900852 -6.35
    vertex 35.09431081353342 60.0 -25.4
    vertex 25.399999999999995 29.38638690463131 0.0
  endloop
endfacet
facet normal 0.9533422253507438 -0.30189170469440185 1.5804171758202355e-16
  outer loop
    vertex 25.399999999999995 29.38638690463131 0.0
    vertex 35.09431081353342 60.0 -25.4
    vertex 25.399999999999995 29.38638690463131 15.239999999999998
  endloop
endfacet
facet normal 0.9533422253507438 -0.30189170469440185 1.5804171758202355e-16
  outer loop
    vertex 25.399999999999995 29.38638690463131 15.239999999999998
    vertex 35.09431081353342 60.0 -25.4
    vertex 35.09431081353342 60.0 15.239999999999998
  endloop
endfacet
facet normal 0.4009262010973563 -0.4594924974871202 -0.7925432644510276
  outer loop
    vertex 25.399999999999995 -2.540000000000001 0.0
    vertex 11.429999999999996 -14.72940256905297 0.0
    vertex 16.22253081202361 0.4049052583900852 -6.35
  endloop
endfacet
facet normal 0.5689899269089449 1.0374442169036648e-17 -0.8223444917284688
  outer loop
    vertex 25.399999999999995 -2.540000000000001 0.0
    vertex 16.22253081202361 0.4049052583900852 -6.35
    vertex 25.399999999999995 29.38638690463131 0.0
  endloop
endfacet
facet normal -0.0 -0.0 1.0
  outer loop
    vertex 22.43 20.32 2.539999999999999
    vertex 16.080000000000002 21.9075 2.539999999999999
    vertex 16.080000000000002 20.32 2.539999999999999
  endloop
endfacet
facet normal -0.0 -0.0 1.0
  outer loop
    vertex 16.080000000000002 21.9075 2.539999999999999
    vertex 22.43 20.32 2.539999999999999
    vertex 22.43 21.9075 2.539999999999999
  endloop
endfacet
facet normal -0.0 -0.0 1.0
  outer loop
    vertex 22.43 57.9075 2.539999999999999
    vertex 16.080000000000002 60.0 2.539999999999999
    vertex 16.080000000000002 57.9075 2.539999999999999
  endloop
endfacet
facet normal -0.0 -0.0 1.0
  outer loop
    vertex 16.080000000000002 60.0 2.539999999999999
    vertex 22.43 57.9075 2.539999999999999
    vertex 22.43 60.0 2.539999999999999
  endloop
endfacet
facet normal 1.0 -0.0 9.328339347660277e-18
  outer loop
    vertex 16.080000000000002 60.0 2.539999999999999
    vertex 16.080000000000002 57.9075 15.239999999999998
    vertex 16.080000000000002 57.9075 2.539999999999999
  endloop
endfacet
facet normal 1.0 -0.0 9.328339347660277e-18
  outer loop
    vertex 16.080000000000002 57.9075 15.239999999999998
    vertex 16.080000000000002 60.0 2.539999999999999
    vertex 16.080000000000002 60.0 15.239999999999998
  endloop
endfacet
facet normal -1.0 9.358799172013926e-17 -7.400846295332692e-17
  outer loop
    vertex 22.43 60.0 15.239999999999998
    vertex 22.429999999999993 -2.5399999999999996 0.0
    vertex 22.429999999999993 -2.5399999999999996 15.239999999999998
  endloop
endfacet
facet normal -1.0 9.358799172013926e-17 -7.400846295332692e-17
  outer loop
    vertex 22.429999999999993 -2.5399999999999996 0.0
    vertex 22.43 60.0 15.239999999999998
    vertex 22.43 20.32 2.539999999999999
  endloop
endfacet
facet normal -1.0 9.358799172013926e-17 -7.400846295332692e-17
  outer loop
    vertex 22.43 20.32 2.539999999999999
    vertex 22.43 60.0 15.239999999999998
    vertex 22.43 21.9075 2.539999999999999
  endloop
endfacet
facet normal -1.0 9.358799172013926e-17 -7.400846295332692e-17
  outer loop
    vertex 22.43 21.9075 2.539999999999999
    vertex 22.43 60.0 15.239999999999998
    vertex 22.43 21.9075 0.0
  endloop
endfacet
facet normal -1.0 9.358799172013926e-17 -7.400846295332692e-17
  outer loop
    vertex 22.43 21.9075 0.0
    vertex 22.43 60.0 15.239999999999998
    vertex 22.43 57.9075 2.539999999999999
  endloop
endfacet
facet normal -1.0 9.358799172013926e-17 -7.400846295332692e-17
  outer loop
    vertex 22.43 57.9075 2.539999999999999
    vertex 22.43 60.0 15.239999999999998
    vertex 22.43 60.0 2.539999999999999
  endloop
endfacet
facet normal -1.0 9.358799172013926e-17 -7.400846295332692e-17
  outer loop
    vertex 22.43 57.9075 0.0
    vertex 22.43 21.9075 0.0
    vertex 22.43 57.9075 2.539999999999999
  endloop
endfacet
facet normal -1.0 9.358799172013926e-17 -7.400846295332692e-17
  outer loop
    vertex 22.43 20.32 0.0
    vertex 22.429999999999993 -2.5399999999999996 0.0
    vertex 22.43 20.32 2.539999999999999
  endloop
endfacet
facet normal 1.0 -0.0 9.328339347660277e-18
  outer loop
    vertex 16.080000000000002 21.9075 2.539999999999999
    vertex 16.080000000000002 20.32 15.239999999999998
    vertex 16.080000000000002 20.32 2.539999999999999
  endloop
endfacet
facet normal 1.0 -0.0 9.328339347660277e-18
  outer loop
    vertex 16.080000000000002 20.32 15.239999999999998
    vertex 16.080000000000002 21.9075 2.539999999999999
    vertex 16.080000000000002 21.9075 15.239999999999998
  endloop
endfacet
facet normal -9.328339347660277e-18 6.443207198923464e-18 1.0
  outer loop
    vertex -2.54 -2.540000000000001 15.239999999999998
    vertex 0.42999999999999927 -2.540000000000001 15.239999999999998
    vertex -2.5399999999999925 29.386386904631284 15.239999999999998
  endloop
endfacet
facet normal -9.328339347660277e-18 6.443207198923464e-18 1.0
  outer loop
    vertex 0.42999999999999927 -2.540000000000001 15.239999999999998
    vertex -2.54 -2.540000000000001 15.239999999999998
    vertex 11.429999999999996 -14.72940256905297 15.239999999999998
  endloop
endfacet
facet normal -9.328339347660277e-18 6.443207198923464e-18 1.0
  outer loop
    vertex 0.42999999999999927 -2.540000000000001 15.239999999999998
    vertex 11.429999999999996 -14.72940256905297 15.239999999999998
    vertex 22.429999999999993 -2.5399999999999996 15.239999999999998
  endloop
endfacet
facet normal -9.328339347660277e-18 6.443207198923464e-18 1.0
  outer loop
    vertex 22.429999999999993 -2.5399999999999996 15.239999999999998
    vertex 11.429999999999996 -14.72940256905297 15.239999999999998
    vertex 25.399999999999995 -2.540000000000001 15.239999999999998
  endloop
endfacet
facet normal -9.328339347660277e-18 6.443207198923464e-18 1.0
  outer loop
    vertex 22.429999999999993 -2.5399999999999996 15.239999999999998
    vertex 25.399999999999995 -2.540000000000001 15.239999999999998
    vertex 22.43 60.0 15.239999999999998
  endloop
endfacet
facet normal -9.328339347660277e-18 6.443207198923464e-18 1.0
  outer loop
    vertex 22.43 60.0 15.239999999999998
    vertex 25.399999999999995 -2.540000000000001 15.239999999999998
    vertex 25.399999999999995 29.38638690463131 15.239999999999998
  endloop
endfacet
facet normal -9.328339347660277e-18 6.443207198923464e-18 1.0
  outer loop
    vertex 22.43 60.0 15.239999999999998
    vertex 25.399999999999995 29.38638690463131 15.239999999999998
    vertex 35.09431081353342 60.0 15.239999999999998
  endloop
endfacet
facet normal -9.328339347660277e-18 6.443207198923464e-18 1.0
  outer loop
    vertex 16.080000000000002 20.32 15.239999999999998
    vertex 0.43000000000000066 21.9075 15.239999999999998
    vertex 0.43 20.32 15.239999999999998
  endloop
endfacet
facet normal -9.328339347660277e-18 6.443207198923464e-18 1.0
  outer loop
    vertex 0.43000000000000066 21.9075 15.239999999999998
    vertex 16.080000000000002 20.32 15.239999999999998
    vertex 16.080000000000002 21.9075 15.239999999999998
  endloop
endfacet
facet normal -9.328339347660277e-18 6.443207198923464e-18 1.0
  outer loop
    vertex -12.234310813533423 60.0 15.239999999999998
    vertex 0.43000000000000066 57.9075 15.239999999999998
    vertex 16.080000000000002 60.0 15.239999999999998
  endloop
endfacet
facet normal -9.328339347660277e-18 6.443207198923464e-18 1.0
  outer loop
    vertex 0.43000000000000066 57.9075 15.239999999999998
    vertex -12.234310813533423 60.0 15.239999999999998
    vertex -2.5399999999999925 29.386386904631284 15.239999999999998
  endloop
endfacet
facet normal -9.328339347660277e-18 6.443207198923464e-18 1.0
  outer loop
    vertex 0.43000000000000066 57.9075 15.239999999999998
    vertex -2.5399999999999925 29.386386904631284 15.239999999999998
    vertex 0.42999999999999927 -2.540000000000001 15.239999999999998
  endloop
endfacet
facet normal -9.328339347660277e-18 6.443207198923464e-18 1.0
  outer loop
    vertex 0.43000000000000066 57.9075 15.239999999999998
    vertex 0.42999999999999927 -2.540000000000001 15.239999999999998
    vertex 0.43 20.32 15.239999999999998
  endloop
endfacet
facet normal -9.328339347660277e-18 6.443207198923464e-18 1.0
  outer loop
    vertex 0.43000000000000066 57.9075 15.239999999999998
    vertex 0.43 20.32 15.239999999999998
    vertex 0.43000000000000066 21.9075 15.239999999999998
  endloop
endfacet
facet normal -9.328339347660277e-18 6.443207198923464e-18 1.0
  outer loop
    vertex 16.080000000000002 60.0 15.239999999999998
    vertex 0.43000000000000066 57.9075 15.239999999999998
    vertex 16.080000000000002 57.9075 15.239999999999998
  endloop
endfacet
facet normal 1.0 9.320890240069636e-18 5.782411586589357e-18
  outer loop
    vertex 0.43000000000000077 57.9075 0.0
    vertex 0.43000000000000066 21.9075 15.239999999999998
    vertex 0.43000000000000077 21.9075 0.0
  endloop
endfacet
facet normal 1.0 9.320890240069636e-18 5.782411586589357e-18
  outer loop
    vertex 0.43000000000000066 21.9075 15.239999999999998
    vertex 0.43000000000000077 57.9075 0.0
    vertex 0.43000000000000066 57.9075 15.239999999999998
  endloop
endfacet
endsolid compass mount
