solid servo shaft
facet normal 0.0 0.0 -1.0
  outer loop
    vertex -2.070552360820166 7.727406610312544 0.0
    vertex -1.9339353865477364 0.5181964250394375 0.0
    vertex -2.002157240145038 4.736662451154672e-16 0.0
  endloop
endfacet
facet normal 0.0 0.0 -1.0
  outer loop
    vertex -1.9339353865477364 0.5181964250394375 0.0
    vertex -2.070552360820166 7.727406610312544 0.0
    vertex 0.0 7.999999999999998 0.0
  endloop
endfacet
facet normal 0.0 0.0 -1.0
  outer loop
    vertex -1.9339353865477364 0.5181964250394375 0.0
    vertex 0.0 7.999999999999998 0.0
    vertex -1.7339190323365434 1.0010786200725197 0.0
  endloop
endfacet
facet normal 0.0 0.0 -1.0
  outer loop
    vertex -1.7339190323365434 1.0010786200725197 0.0
    vertex 0.0 7.999999999999998 0.0
    vertex -1.4157389615082994 1.4157389615082996 0.0
  endloop
endfacet
facet normal 0.0 0.0 -1.0
  outer loop
    vertex -1.4157389615082994 1.4157389615082996 0.0
    vertex 0.0 7.999999999999998 0.0
    vertex -1.0010786200725217 1.733919032336542 0.0
  endloop
endfacet
facet normal 0.0 0.0 -1.0
  outer loop
    vertex -1.0010786200725217 1.733919032336542 0.0
    vertex 0.0 7.999999999999998 0.0
    vertex -0.5181964250394364 1.9339353865477367 0.0
  endloop
endfacet
facet normal 0.0 0.0 -1.0
  outer loop
    vertex -0.5181964250394364 1.9339353865477367 0.0
    vertex 0.0 7.999999999999998 0.0
    vertex 8.81239525796218e-17 2.002157240145038 0.0
  endloop
endfacet
facet normal 0.0 0.0 -1.0
  outer loop
    vertex 8.81239525796218e-17 2.002157240145038 0.0
    vertex 0.0 7.999999999999998 0.0
    vertex 2.070552360820172 7.727406610312543 0.0
  endloop
endfacet
facet normal 0.0 0.0 -1.0
  outer loop
    vertex 8.81239525796218e-17 2.002157240145038 0.0
    vertex 2.070552360820172 7.727406610312543 0.0
    vertex 0.5181964250394385 1.9339353865477364 0.0
  endloop
endfacet
facet normal 0.0 0.0 -1.0
  outer loop
    vertex 0.5181964250394385 1.9339353865477364 0.0
    vertex 2.070552360820172 7.727406610312543 0.0
    vertex 0.8456708580912726 1.798291035047226 0.0
  endloop
endfacet
facet normal 0.0 0.0 -1.0
  outer loop
    vertex 0.8456708580912726 1.798291035047226 0.0
    vertex 2.070552360820172 7.727406610312543 0.0
    vertex 2.070552360820163 -7.727406610312546 0.0
  endloop
endfacet
facet normal 0.0 0.0 -1.0
  outer loop
    vertex 2.070552360820163 -7.727406610312546 0.0
    vertex 2.070552360820172 7.727406610312543 0.0
    vertex 3.999999999999998 -6.928203230275509 0.0
  endloop
endfacet
facet normal 0.0 0.0 -1.0
  outer loop
    vertex 3.999999999999998 -6.928203230275509 0.0
    vertex 2.070552360820172 7.727406610312543 0.0
    vertex 4.0000000000000036 6.928203230275505 0.0
  endloop
endfacet
facet normal 0.0 0.0 -1.0
  outer loop
    vertex 3.999999999999998 -6.928203230275509 0.0
    vertex 4.0000000000000036 6.928203230275505 0.0
    vertex 5.656854249492377 -5.656854249492382 0.0
  endloop
endfacet
facet normal 0.0 0.0 -1.0
  outer loop
    vertex 5.656854249492377 -5.656854249492382 0.0
    vertex 4.0000000000000036 6.928203230275505 0.0
    vertex 5.656854249492381 5.656854249492379 0.0
  endloop
endfacet
facet normal 0.0 0.0 -1.0
  outer loop
    vertex 5.656854249492377 -5.656854249492382 0.0
    vertex 5.656854249492381 5.656854249492379 0.0
    vertex 6.928203230275506 -4.000000000000003 0.0
  endloop
endfacet
facet normal 0.0 0.0 -1.0
  outer loop
    vertex 6.928203230275506 -4.000000000000003 0.0
    vertex 5.656854249492381 5.656854249492379 0.0
    vertex 6.928203230275512 3.9999999999999933 0.0
  endloop
endfacet
facet normal 0.0 0.0 -1.0
  outer loop
    vertex 6.928203230275506 -4.000000000000003 0.0
    vertex 6.928203230275512 3.9999999999999933 0.0
    vertex 7.727406610312544 -2.0705523608201712 0.0
  endloop
endfacet
facet normal 0.0 0.0 -1.0
  outer loop
    vertex 7.727406610312544 -2.0705523608201712 0.0
    vertex 6.928203230275512 3.9999999999999933 0.0
    vertex 7.7274066103125465 2.070552360820162 0.0
  endloop
endfacet
facet normal 0.0 0.0 -1.0
  outer loop
    vertex 7.727406610312544 -2.0705523608201712 0.0
    vertex 7.7274066103125465 2.070552360820162 0.0
    vertex 7.999999999999999 -1.4695761589768234e-15 0.0
  endloop
endfacet
facet normal 0.0 0.0 -1.0
  outer loop
    vertex -7.727406610312546 2.0705523608201672 0.0
    vertex -7.727406610312546 -2.0705523608201646 0.0
    vertex -7.999999999999999 4.898587196589412e-16 0.0
  endloop
endfacet
facet normal 0.0 0.0 -1.0
  outer loop
    vertex -7.727406610312546 -2.0705523608201646 0.0
    vertex -7.727406610312546 2.0705523608201672 0.0
    vertex -6.928203230275508 3.9999999999999996 0.0
  endloop
endfacet
facet normal 0.0 0.0 -1.0
  outer loop
    vertex -7.727406610312546 -2.0705523608201646 0.0
    vertex -6.928203230275508 3.9999999999999996 0.0
    vertex -6.9282032302755105 -3.999999999999997 0.0
  endloop
endfacet
facet normal 0.0 0.0 -1.0
  outer loop
    vertex -6.9282032302755105 -3.999999999999997 0.0
    vertex -6.928203230275508 3.9999999999999996 0.0
    vertex -5.656854249492381 -5.656854249492379 0.0
  endloop
endfacet
facet normal 0.0 0.0 -1.0
  outer loop
    vertex -5.656854249492381 -5.656854249492379 0.0
    vertex -6.928203230275508 3.9999999999999996 0.0
    vertex -5.65685424949238 5.65685424949238 0.0
  endloop
endfacet
facet normal 0.0 0.0 -1.0
  outer loop
    vertex -5.656854249492381 -5.656854249492379 0.0
    vertex -5.65685424949238 5.65685424949238 0.0
    vertex -4.000000000000003 -6.928203230275506 0.0
  endloop
endfacet
facet normal 0.0 0.0 -1.0
  outer loop
    vertex -4.000000000000003 -6.928203230275506 0.0
    vertex -5.65685424949238 5.65685424949238 0.0
    vertex -3.999999999999999 6.928203230275508 0.0
  endloop
endfacet
facet normal 0.0 0.0 -1.0
  outer loop
    vertex -4.000000000000003 -6.928203230275506 0.0
    vertex -3.999999999999999 6.928203230275508 0.0
    vertex -2.070552360820168 -7.727406610312544 0.0
  endloop
endfacet
facet normal 0.0 0.0 -1.0
  outer loop
    vertex -2.070552360820168 -7.727406610312544 0.0
    vertex -3.999999999999999 6.928203230275508 0.0
    vertex -2.070552360820166 7.727406610312544 0.0
  endloop
endfacet
facet normal 0.0 0.0 -1.0
  outer loop
    vertex -2.070552360820168 -7.727406610312544 0.0
    vertex -2.070552360820166 7.727406610312544 0.0
    vertex -2.002157240145038 4.736662451154672e-16 0.0
  endloop
endfacet
facet normal 0.0 0.0 -1.0
  outer loop
    vertex -2.070552360820168 -7.727406610312544 0.0
    vertex -2.002157240145038 4.736662451154672e-16 0.0
    vertex -1.9339353865477364 -0.5181964250394375 0.0
  endloop
endfacet
facet normal 0.0 0.0 -1.0
  outer loop
    vertex -2.070552360820168 -7.727406610312544 0.0
    vertex -1.9339353865477364 -0.5181964250394375 0.0
    vertex -9.797174393178824e-16 -7.999999999999998 0.0
  endloop
endfacet
facet normal 0.0 0.0 -1.0
  outer loop
    vertex -9.797174393178824e-16 -7.999999999999998 0.0
    vertex -1.9339353865477364 -0.5181964250394375 0.0
    vertex -1.7339190323365428 -1.0010786200725206 0.0
  endloop
endfacet
facet normal 0.0 0.0 -1.0
  outer loop
    vertex -9.797174393178824e-16 -7.999999999999998 0.0
    vertex -1.7339190323365428 -1.0010786200725206 0.0
    vertex -1.4157389615083 -1.4157389615082983 0.0
  endloop
endfacet
facet normal 0.0 0.0 -1.0
  outer loop
    vertex -9.797174393178824e-16 -7.999999999999998 0.0
    vertex -1.4157389615083 -1.4157389615082983 0.0
    vertex -1.0010786200725186 -1.733919032336544 0.0
  endloop
endfacet
facet normal 0.0 0.0 -1.0
  outer loop
    vertex -9.797174393178824e-16 -7.999999999999998 0.0
    vertex -1.0010786200725186 -1.733919032336544 0.0
    vertex -0.5181964250394397 -1.933935386547736 0.0
  endloop
endfacet
facet normal 0.0 0.0 -1.0
  outer loop
    vertex -9.797174393178824e-16 -7.999999999999998 0.0
    vertex -0.5181964250394397 -1.933935386547736 0.0
    vertex -2.4234086959395993e-16 -2.002157240145038 0.0
  endloop
endfacet
facet normal 0.0 0.0 -1.0
  outer loop
    vertex -9.797174393178824e-16 -7.999999999999998 0.0
    vertex -2.4234086959395993e-16 -2.002157240145038 0.0
    vertex 2.070552360820163 -7.727406610312546 0.0
  endloop
endfacet
facet normal 0.0 0.0 -1.0
  outer loop
    vertex 2.070552360820163 -7.727406610312546 0.0
    vertex -2.4234086959395993e-16 -2.002157240145038 0.0
    vertex 0.518196425039435 -1.9339353865477373 0.0
  endloop
endfacet
facet normal 0.0 0.0 -1.0
  outer loop
    vertex 2.070552360820163 -7.727406610312546 0.0
    vertex 0.518196425039435 -1.9339353865477373 0.0
    vertex 0.8456708580912722 -1.7982910350472265 0.0
  endloop
endfacet
facet normal 0.0 0.0 -1.0
  outer loop
    vertex 2.070552360820163 -7.727406610312546 0.0
    vertex 0.8456708580912722 -1.7982910350472265 0.0
    vertex 0.8456708580912726 1.798291035047226 0.0
  endloop
endfacet
facet normal 0.7071067811865477 0.7071067811865475 0.0
  outer loop
    vertex 5.656854249492381 5.656854249492379 0.0
    vertex 6.928203230275512 3.9999999999999933 13.500000000000009
    vertex 6.928203230275512 3.9999999999999933 0.0
  endloop
endfacet
facet normal 0.8660254037844389 0.49999999999999944 0.0
  outer loop
    vertex 6.928203230275512 3.9999999999999933 13.500000000000009
    vertex 5.656854249492381 5.656854249492379 0.0
    vertex 5.656854249492381 5.656854249492379 13.500000000000009
  endloop
endfacet
facet normal 0.8660254037844389 0.49999999999999944 0.0
  outer loop
    vertex 6.928203230275512 3.9999999999999933 0.0
    vertex 7.7274066103125465 2.070552360820162 13.500000000000009
    vertex 7.7274066103125465 2.070552360820162 0.0
  endloop
endfacet
facet normal 0.9659258262890684 0.2588190451025203 0.0
  outer loop
    vertex 7.7274066103125465 2.070552360820162 13.500000000000009
    vertex 6.928203230275512 3.9999999999999933 0.0
    vertex 6.928203230275512 3.9999999999999933 13.500000000000009
  endloop
endfacet
facet normal 0.9659258262890684 0.2588190451025203 0.0
  outer loop
    vertex 7.7274066103125465 2.070552360820162 0.0
    vertex 7.999999999999999 -1.4695761589768234e-15 13.500000000000009
    vertex 7.999999999999999 -1.4695761589768234e-15 0.0
  endloop
endfacet
facet normal 1.0 -4.63377714573639e-16 0.0
  outer loop
    vertex 7.999999999999999 -1.4695761589768234e-15 13.500000000000009
    vertex 7.7274066103125465 2.070552360820162 0.0
    vertex 7.7274066103125465 2.070552360820162 13.500000000000009
  endloop
endfacet
facet normal 1.0 -4.63377714573639e-16 0.0
  outer loop
    vertex 7.999999999999999 -1.4695761589768234e-15 0.0
    vertex 7.727406610312544 -2.0705523608201712 13.500000000000009
    vertex 7.727406610312544 -2.0705523608201712 0.0
  endloop
endfacet
facet normal 0.9659258262890682 -0.25881904510252135 0.0
  outer loop
    vertex 7.727406610312544 -2.0705523608201712 13.500000000000009
    vertex 7.999999999999999 -1.4695761589768234e-15 0.0
    vertex 7.999999999999999 -1.4695761589768234e-15 13.500000000000009
  endloop
endfacet
facet normal 0.9659258262890682 -0.25881904510252135 0.0
  outer loop
    vertex 7.727406610312544 -2.0705523608201712 0.0
    vertex 6.928203230275506 -4.000000000000003 13.500000000000009
    vertex 6.928203230275506 -4.000000000000003 0.0
  endloop
endfacet
facet normal 0.8660254037844384 -0.5000000000000004 0.0
  outer loop
    vertex 6.928203230275506 -4.000000000000003 13.500000000000009
    vertex 7.727406610312544 -2.0705523608201712 0.0
    vertex 7.727406610312544 -2.0705523608201712 13.500000000000009
  endloop
endfacet
facet normal 0.8660254037844384 -0.5000000000000004 0.0
  outer loop
    vertex 6.928203230275506 -4.000000000000003 0.0
    vertex 5.656854249492377 -5.656854249492382 13.500000000000009
    vertex 5.656854249492377 -5.656854249492382 0.0
  endloop
endfacet
facet normal 0.7071067811865472 -0.7071067811865478 0.0
  outer loop
    vertex 5.656854249492377 -5.656854249492382 13.500000000000009
    vertex 6.928203230275506 -4.000000000000003 0.0
    vertex 6.928203230275506 -4.000000000000003 13.500000000000009
  endloop
endfacet
facet normal 0.7071067811865472 -0.7071067811865478 0.0
  outer loop
    vertex 5.656854249492377 -5.656854249492382 13.500000000000009
    vertex 3.999999999999998 -6.928203230275509 0.0
    vertex 5.656854249492377 -5.656854249492382 0.0
  endloop
endfacet
facet normal 0.4999999999999996 -0.8660254037844389 0.0
  outer loop
    vertex 3.999999999999998 -6.928203230275509 0.0
    vertex 5.656854249492377 -5.656854249492382 13.500000000000009
    vertex 3.999999999999998 -6.928203230275509 3.5
  endloop
endfacet
facet normal 0.5374874990740224 -0.8432717167907109 0.0
  outer loop
    vertex 3.999999999999998 -6.928203230275509 3.5
    vertex 5.656854249492377 -5.656854249492382 13.500000000000009
    vertex 3.999999999999998 -6.928203230275509 13.500000000000009
  endloop
endfacet
facet normal 0.5374874990740224 -0.8432717167907109 0.0
  outer loop
    vertex 3.999999999999998 -6.928203230275509 3.5
    vertex 2.070552360820163 -7.727406610312546 0.0
    vertex 3.999999999999998 -6.928203230275509 0.0
  endloop
endfacet
facet normal 0.25881904510252035 -0.9659258262890684 0.0
  outer loop
    vertex 2.070552360820163 -7.727406610312546 0.0
    vertex 3.999999999999998 -6.928203230275509 3.5
    vertex 2.070552360820163 -7.727406610312546 3.5
  endloop
endfacet
facet normal 0.25881904510252035 -0.9659258262890684 0.0
  outer loop
    vertex 2.070552360820163 -7.727406610312546 3.5
    vertex -9.797174393178824e-16 -7.999999999999998 0.0
    vertex 2.070552360820163 -7.727406610312546 0.0
  endloop
endfacet
facet normal -2.227777473911726e-16 -1.0 0.0
  outer loop
    vertex -9.797174393178824e-16 -7.999999999999998 0.0
    vertex 2.070552360820163 -7.727406610312546 3.5
    vertex -9.797174393178824e-16 -7.999999999999998 3.5
  endloop
endfacet
facet normal -2.227777473911726e-16 -1.0 0.0
  outer loop
    vertex -9.797174393178824e-16 -7.999999999999998 3.5
    vertex -2.070552360820168 -7.727406610312544 0.0
    vertex -9.797174393178824e-16 -7.999999999999998 0.0
  endloop
endfacet
facet normal -0.2588190451025208 -0.9659258262890682 0.0
  outer loop
    vertex -2.070552360820168 -7.727406610312544 0.0
    vertex -9.797174393178824e-16 -7.999999999999998 3.5
    vertex -2.070552360820168 -7.727406610312544 3.5
  endloop
endfacet
facet normal -0.2588190451025208 -0.9659258262890682 0.0
  outer loop
    vertex -2.070552360820168 -7.727406610312544 3.5
    vertex -4.000000000000003 -6.928203230275506 0.0
    vertex -2.070552360820168 -7.727406610312544 0.0
  endloop
endfacet
facet normal -0.5 -0.8660254037844386 0.0
  outer loop
    vertex -4.000000000000003 -6.928203230275506 0.0
    vertex -2.070552360820168 -7.727406610312544 3.5
    vertex -4.000000000000003 -6.928203230275506 3.5
  endloop
endfacet
facet normal -0.5374874993076099 -0.8432717166418258 0.0
  outer loop
    vertex -4.000000000000003 -6.928203230275506 3.5
    vertex -5.656854249492381 -5.656854249492379 0.0
    vertex -4.000000000000003 -6.928203230275506 0.0
  endloop
endfacet
facet normal -0.7071067811865475 -0.7071067811865475 0.0
  outer loop
    vertex -5.656854249492381 -5.656854249492379 0.0
    vertex -4.000000000000003 -6.928203230275506 3.5
    vertex -5.656854249492381 -5.656854249492379 13.5
  endloop
endfacet
facet normal -0.7071067811865475 -0.7071067811865475 0.0
  outer loop
    vertex -5.656854249492381 -5.656854249492379 13.5
    vertex -4.000000000000003 -6.928203230275506 3.5
    vertex -4.000000000000003 -6.928203230275506 13.5
  endloop
endfacet
facet normal -0.8660254037844389 -0.4999999999999997 0.0
  outer loop
    vertex -6.9282032302755105 -3.999999999999997 13.5
    vertex -5.656854249492381 -5.656854249492379 0.0
    vertex -5.656854249492381 -5.656854249492379 13.5
  endloop
endfacet
facet normal -0.7071067811865475 -0.7071067811865475 0.0
  outer loop
    vertex -5.656854249492381 -5.656854249492379 0.0
    vertex -6.9282032302755105 -3.999999999999997 13.5
    vertex -6.9282032302755105 -3.999999999999997 0.0
  endloop
endfacet
facet normal -0.9659258262890684 -0.2588190451025205 0.0
  outer loop
    vertex -7.727406610312546 -2.0705523608201646 13.5
    vertex -6.9282032302755105 -3.999999999999997 0.0
    vertex -6.9282032302755105 -3.999999999999997 13.5
  endloop
endfacet
facet normal -0.8660254037844389 -0.4999999999999997 0.0
  outer loop
    vertex -6.9282032302755105 -3.999999999999997 0.0
    vertex -7.727406610312546 -2.0705523608201646 13.5
    vertex -7.727406610312546 -2.0705523608201646 0.0
  endloop
endfacet
facet normal -1.0 -5.346665937388143e-17 0.0
  outer loop
    vertex -7.999999999999999 4.898587196589412e-16 13.5
    vertex -7.727406610312546 -2.0705523608201646 0.0
    vertex -7.727406610312546 -2.0705523608201646 13.5
  endloop
endfacet
facet normal -0.9659258262890684 -0.2588190451025205 0.0
  outer loop
    vertex -7.727406610312546 -2.0705523608201646 0.0
    vertex -7.999999999999999 4.898587196589412e-16 13.5
    vertex -7.999999999999999 4.898587196589412e-16 0.0
  endloop
endfacet
facet normal -0.9659258262890682 0.258819045102521 0.0
  outer loop
    vertex -7.727406610312546 2.0705523608201672 13.5
    vertex -7.999999999999999 4.898587196589412e-16 0.0
    vertex -7.999999999999999 4.898587196589412e-16 13.5
  endloop
endfacet
facet normal -1.0 -5.346665937388143e-17 0.0
  outer loop
    vertex -7.999999999999999 4.898587196589412e-16 0.0
    vertex -7.727406610312546 2.0705523608201672 13.5
    vertex -7.727406610312546 2.0705523608201672 0.0
  endloop
endfacet
facet normal -0.8660254037844386 0.5000000000000001 0.0
  outer loop
    vertex -6.928203230275508 3.9999999999999996 13.5
    vertex -7.727406610312546 2.0705523608201672 0.0
    vertex -7.727406610312546 2.0705523608201672 13.5
  endloop
endfacet
facet normal -0.9659258262890682 0.258819045102521 0.0
  outer loop
    vertex -7.727406610312546 2.0705523608201672 0.0
    vertex -6.928203230275508 3.9999999999999996 13.5
    vertex -6.928203230275508 3.9999999999999996 0.0
  endloop
endfacet
facet normal -0.7071067811865475 0.7071067811865477 0.0
  outer loop
    vertex -5.65685424949238 5.65685424949238 13.5
    vertex -6.928203230275508 3.9999999999999996 0.0
    vertex -6.928203230275508 3.9999999999999996 13.5
  endloop
endfacet
facet normal -0.8660254037844386 0.5000000000000001 0.0
  outer loop
    vertex -6.928203230275508 3.9999999999999996 0.0
    vertex -5.65685424949238 5.65685424949238 13.5
    vertex -5.65685424949238 5.65685424949238 0.0
  endloop
endfacet
facet normal -0.7071067811865475 0.7071067811865477 0.0
  outer loop
    vertex -5.65685424949238 5.65685424949238 13.5
    vertex -3.999999999999999 6.928203230275508 0.0
    vertex -5.65685424949238 5.65685424949238 0.0
  endloop
endfacet
facet normal -0.49999999999999967 0.8660254037844388 0.0
  outer loop
    vertex -3.999999999999999 6.928203230275508 0.0
    vertex -5.65685424949238 5.65685424949238 13.5
    vertex -3.999999999999999 6.928203230275508 3.5
  endloop
endfacet
facet normal -0.5374874993076094 0.8432717166418261 0.0
  outer loop
    vertex -3.999999999999999 6.928203230275508 3.5
    vertex -5.65685424949238 5.65685424949238 13.5
    vertex -3.999999999999999 6.928203230275508 13.5
  endloop
endfacet
facet normal -0.5374874993076094 0.8432717166418261 0.0
  outer loop
    vertex -3.999999999999999 6.928203230275508 3.5
    vertex -2.070552360820166 7.727406610312544 0.0
    vertex -3.999999999999999 6.928203230275508 0.0
  endloop
endfacet
facet normal -0.2588190451025207 0.9659258262890682 0.0
  outer loop
    vertex -2.070552360820166 7.727406610312544 0.0
    vertex -3.999999999999999 6.928203230275508 3.5
    vertex -2.070552360820166 7.727406610312544 3.5
  endloop
endfacet
facet normal -0.2588190451025207 0.9659258262890682 0.0
  outer loop
    vertex -2.070552360820166 7.727406610312544 3.5
    vertex 0.0 7.999999999999998 0.0
    vertex -2.070552360820166 7.727406610312544 0.0
  endloop
endfacet
facet normal 1.514888682259974e-16 1.0 0.0
  outer loop
    vertex 0.0 7.999999999999998 0.0
    vertex -2.070552360820166 7.727406610312544 3.5
    vertex 0.0 7.999999999999998 3.5
  endloop
endfacet
facet normal 1.514888682259974e-16 1.0 0.0
  outer loop
    vertex 0.0 7.999999999999998 3.5
    vertex 2.070552360820172 7.727406610312543 0.0
    vertex 0.0 7.999999999999998 0.0
  endloop
endfacet
facet normal 0.2588190451025213 0.9659258262890682 0.0
  outer loop
    vertex 2.070552360820172 7.727406610312543 0.0
    vertex 0.0 7.999999999999998 3.5
    vertex 2.070552360820172 7.727406610312543 3.5
  endloop
endfacet
facet normal 0.2588190451025213 0.9659258262890682 0.0
  outer loop
    vertex 2.070552360820172 7.727406610312543 3.5
    vertex 4.0000000000000036 6.928203230275505 0.0
    vertex 2.070552360820172 7.727406610312543 0.0
  endloop
endfacet
facet normal 0.5000000000000001 0.8660254037844386 0.0
  outer loop
    vertex 4.0000000000000036 6.928203230275505 0.0
    vertex 2.070552360820172 7.727406610312543 3.5
    vertex 4.0000000000000036 6.928203230275505 3.5
  endloop
endfacet
facet normal 0.5374874993076099 0.843271716641826 0.0
  outer loop
    vertex 4.0000000000000036 6.928203230275505 3.5
    vertex 5.656854249492381 5.656854249492379 0.0
    vertex 4.0000000000000036 6.928203230275505 0.0
  endloop
endfacet
facet normal 0.7071067811865477 0.7071067811865475 0.0
  outer loop
    vertex 5.656854249492381 5.656854249492379 0.0
    vertex 4.0000000000000036 6.928203230275505 3.5
    vertex 5.656854249492381 5.656854249492379 13.500000000000009
  endloop
endfacet
facet normal 0.7071067811865477 0.7071067811865475 0.0
  outer loop
    vertex 5.656854249492381 5.656854249492379 13.500000000000009
    vertex 4.0000000000000036 6.928203230275505 3.5
    vertex 4.0000000000000036 6.928203230275505 13.500000000000009
  endloop
endfacet
facet normal -1.0 9.800855463565996e-17 0.0
  outer loop
    vertex 0.8456708580912726 1.798291035047226 3.5
    vertex 0.8456708580912722 -1.7982910350472265 0.0
    vertex 0.8456708580912722 -1.7982910350472265 3.5
  endloop
endfacet
facet normal -1.0 9.800855463565996e-17 0.0
  outer loop
    vertex 0.8456708580912722 -1.7982910350472265 0.0
    vertex 0.8456708580912726 1.798291035047226 3.5
    vertex 0.8456708580912726 1.798291035047226 0.0
  endloop
endfacet
facet normal -0.38268343236509084 -0.9238795325112865 -0.0
  outer loop
    vertex 0.8456708580912726 1.798291035047226 3.5
    vertex 0.5181964250394385 1.9339353865477364 0.0
    vertex 0.8456708580912726 1.798291035047226 0.0
  endloop
endfacet
facet normal -0.2588190451025213 -0.9659258262890682 0.0
  outer loop
    vertex 0.5181964250394385 1.9339353865477364 0.0
    vertex 0.8456708580912726 1.798291035047226 3.5
    vertex 0.5181964250394385 1.9339353865477364 3.5
  endloop
endfacet
facet normal -0.2588190451025213 -0.9659258262890682 0.0
  outer loop
    vertex 0.5181964250394385 1.9339353865477364 3.5
    vertex 8.81239525796218e-17 2.002157240145038 0.0
    vertex 0.5181964250394385 1.9339353865477364 0.0
  endloop
endfacet
facet normal -9.802220885211596e-17 -1.0 0.0
  outer loop
    vertex 8.81239525796218e-17 2.002157240145038 0.0
    vertex 0.5181964250394385 1.9339353865477364 3.5
    vertex 8.81239525796218e-17 2.002157240145038 3.5
  endloop
endfacet
facet normal -9.802220885211596e-17 -1.0 0.0
  outer loop
    vertex 8.81239525796218e-17 2.002157240145038 3.5
    vertex -0.5181964250394364 1.9339353865477367 0.0
    vertex 8.81239525796218e-17 2.002157240145038 0.0
  endloop
endfacet
facet normal 0.25881904510252124 -0.9659258262890681 0.0
  outer loop
    vertex -0.5181964250394364 1.9339353865477367 0.0
    vertex 8.81239525796218e-17 2.002157240145038 3.5
    vertex -0.5181964250394364 1.9339353865477367 3.5
  endloop
endfacet
facet normal 0.25881904510252124 -0.9659258262890681 0.0
  outer loop
    vertex -0.5181964250394364 1.9339353865477367 3.5
    vertex -1.0010786200725217 1.733919032336542 0.0
    vertex -0.5181964250394364 1.9339353865477367 0.0
  endloop
endfacet
facet normal 0.5000000000000006 -0.8660254037844384 0.0
  outer loop
    vertex -1.0010786200725217 1.733919032336542 0.0
    vertex -0.5181964250394364 1.9339353865477367 3.5
    vertex -1.0010786200725217 1.733919032336542 3.5
  endloop
endfacet
facet normal 0.5000000000000006 -0.8660254037844384 0.0
  outer loop
    vertex -1.0010786200725217 1.733919032336542 3.5
    vertex -1.4157389615082994 1.4157389615082996 0.0
    vertex -1.0010786200725217 1.733919032336542 0.0
  endloop
endfacet
facet normal 0.7071067811865477 -0.7071067811865475 0.0
  outer loop
    vertex -1.4157389615082994 1.4157389615082996 0.0
    vertex -1.0010786200725217 1.733919032336542 3.5
    vertex -1.4157389615082994 1.4157389615082996 3.5
  endloop
endfacet
facet normal 0.7071067811865477 -0.7071067811865475 0.0
  outer loop
    vertex -1.4157389615082994 1.4157389615082996 0.0
    vertex -1.7339190323365434 1.0010786200725197 3.5
    vertex -1.7339190323365434 1.0010786200725197 0.0
  endloop
endfacet
facet normal 0.8660254037844386 -0.5000000000000001 0.0
  outer loop
    vertex -1.7339190323365434 1.0010786200725197 3.5
    vertex -1.4157389615082994 1.4157389615082996 0.0
    vertex -1.4157389615082994 1.4157389615082996 3.5
  endloop
endfacet
facet normal 0.8660254037844386 -0.5000000000000001 0.0
  outer loop
    vertex -1.7339190323365434 1.0010786200725197 0.0
    vertex -1.9339353865477364 0.5181964250394375 3.5
    vertex -1.9339353865477364 0.5181964250394375 0.0
  endloop
endfacet
facet normal 0.9659258262890682 -0.2588190451025211 0.0
  outer loop
    vertex -1.9339353865477364 0.5181964250394375 3.5
    vertex -1.7339190323365434 1.0010786200725197 0.0
    vertex -1.7339190323365434 1.0010786200725197 3.5
  endloop
endfacet
facet normal 0.9659258262890682 -0.2588190451025211 0.0
  outer loop
    vertex -1.9339353865477364 0.5181964250394375 0.0
    vertex -2.002157240145038 4.736662451154672e-16 3.5
    vertex -2.002157240145038 4.736662451154672e-16 0.0
  endloop
endfacet
facet normal 1.0 -1.1584442864340977e-16 0.0
  outer loop
    vertex -2.002157240145038 4.736662451154672e-16 3.5
    vertex -1.9339353865477364 0.5181964250394375 0.0
    vertex -1.9339353865477364 0.5181964250394375 3.5
  endloop
endfacet
facet normal 1.0 -1.1584442864340977e-16 0.0
  outer loop
    vertex -2.002157240145038 4.736662451154672e-16 0.0
    vertex -1.9339353865477364 -0.5181964250394375 3.5
    vertex -1.9339353865477364 -0.5181964250394375 0.0
  endloop
endfacet
facet normal 0.9659258262890682 0.25881904510252124 0.0
  outer loop
    vertex -1.9339353865477364 -0.5181964250394375 3.5
    vertex -2.002157240145038 4.736662451154672e-16 0.0
    vertex -2.002157240145038 4.736662451154672e-16 3.5
  endloop
endfacet
facet normal 0.9659258262890682 0.25881904510252124 0.0
  outer loop
    vertex -1.9339353865477364 -0.5181964250394375 0.0
    vertex -1.7339190323365428 -1.0010786200725206 3.5
    vertex -1.7339190323365428 -1.0010786200725206 0.0
  endloop
endfacet
facet normal 0.8660254037844384 0.5000000000000004 0.0
  outer loop
    vertex -1.7339190323365428 -1.0010786200725206 3.5
    vertex -1.9339353865477364 -0.5181964250394375 0.0
    vertex -1.9339353865477364 -0.5181964250394375 3.5
  endloop
endfacet
facet normal 0.8660254037844384 0.5000000000000004 0.0
  outer loop
    vertex -1.7339190323365428 -1.0010786200725206 0.0
    vertex -1.4157389615083 -1.4157389615082983 3.5
    vertex -1.4157389615083 -1.4157389615082983 0.0
  endloop
endfacet
facet normal 0.7071067811865476 0.7071067811865476 0.0
  outer loop
    vertex -1.4157389615083 -1.4157389615082983 3.5
    vertex -1.7339190323365428 -1.0010786200725206 0.0
    vertex -1.7339190323365428 -1.0010786200725206 3.5
  endloop
endfacet
facet normal 0.7071067811865476 0.7071067811865476 0.0
  outer loop
    vertex -1.4157389615083 -1.4157389615082983 3.5
    vertex -1.0010786200725186 -1.733919032336544 0.0
    vertex -1.4157389615083 -1.4157389615082983 0.0
  endloop
endfacet
facet normal 0.5000000000000007 0.8660254037844384 0.0
  outer loop
    vertex -1.0010786200725186 -1.733919032336544 0.0
    vertex -1.4157389615083 -1.4157389615082983 3.5
    vertex -1.0010786200725186 -1.733919032336544 3.5
  endloop
endfacet
facet normal 0.5000000000000007 0.8660254037844384 0.0
  outer loop
    vertex -1.0010786200725186 -1.733919032336544 3.5
    vertex -0.5181964250394397 -1.933935386547736 0.0
    vertex -1.0010786200725186 -1.733919032336544 0.0
  endloop
endfacet
facet normal 0.25881904510252146 0.965925826289068 0.0
  outer loop
    vertex -0.5181964250394397 -1.933935386547736 0.0
    vertex -1.0010786200725186 -1.733919032336544 3.5
    vertex -0.5181964250394397 -1.933935386547736 3.5
  endloop
endfacet
facet normal 0.25881904510252146 0.965925826289068 0.0
  outer loop
    vertex -0.5181964250394397 -1.933935386547736 3.5
    vertex -2.4234086959395993e-16 -2.002157240145038 0.0
    vertex -0.5181964250394397 -1.933935386547736 0.0
  endloop
endfacet
facet normal 7.930887807125745e-16 1.0 0.0
  outer loop
    vertex -2.4234086959395993e-16 -2.002157240145038 0.0
    vertex -0.5181964250394397 -1.933935386547736 3.5
    vertex -2.4234086959395993e-16 -2.002157240145038 3.5
  endloop
endfacet
facet normal 7.930887807125745e-16 1.0 0.0
  outer loop
    vertex -2.4234086959395993e-16 -2.002157240145038 3.5
    vertex 0.518196425039435 -1.9339353865477373 0.0
    vertex -2.4234086959395993e-16 -2.002157240145038 0.0
  endloop
endfacet
facet normal -0.2588190451025199 0.9659258262890684 0.0
  outer loop
    vertex 0.518196425039435 -1.9339353865477373 0.0
    vertex -2.4234086959395993e-16 -2.002157240145038 3.5
    vertex 0.518196425039435 -1.9339353865477373 3.5
  endloop
endfacet
facet normal -0.2588190451025199 0.9659258262890684 0.0
  outer loop
    vertex 0.518196425039435 -1.9339353865477373 3.5
    vertex 0.8456708580912722 -1.7982910350472265 0.0
    vertex 0.518196425039435 -1.9339353865477373 0.0
  endloop
endfacet
facet normal -0.3826834323650893 0.923879532511287 0.0
  outer loop
    vertex 0.8456708580912722 -1.7982910350472265 0.0
    vertex 0.518196425039435 -1.9339353865477373 3.5
    vertex 0.8456708580912722 -1.7982910350472265 3.5
  endloop
endfacet
facet normal -0.0 -0.0 1.0
  outer loop
    vertex -2.070552360820168 -7.727406610312544 3.5
    vertex -3.999999999999999 6.928203230275508 3.5
    vertex -4.000000000000003 -6.928203230275506 3.5
  endloop
endfacet
facet normal -0.0 -0.0 1.0
  outer loop
    vertex -3.999999999999999 6.928203230275508 3.5
    vertex -2.070552360820168 -7.727406610312544 3.5
    vertex -2.070552360820166 7.727406610312544 3.5
  endloop
endfacet
facet normal -0.0 -0.0 1.0
  outer loop
    vertex -2.070552360820166 7.727406610312544 3.5
    vertex -2.070552360820168 -7.727406610312544 3.5
    vertex -2.002157240145038 4.736662451154672e-16 3.5
  endloop
endfacet
facet normal -0.0 -0.0 1.0
  outer loop
    vertex -2.002157240145038 4.736662451154672e-16 3.5
    vertex -2.070552360820168 -7.727406610312544 3.5
    vertex -1.9339353865477364 -0.5181964250394375 3.5
  endloop
endfacet
facet normal -0.0 -0.0 1.0
  outer loop
    vertex -1.9339353865477364 -0.5181964250394375 3.5
    vertex -2.070552360820168 -7.727406610312544 3.5
    vertex -9.797174393178824e-16 -7.999999999999998 3.5
  endloop
endfacet
facet normal -0.0 -0.0 1.0
  outer loop
    vertex -1.9339353865477364 -0.5181964250394375 3.5
    vertex -9.797174393178824e-16 -7.999999999999998 3.5
    vertex -1.7339190323365428 -1.0010786200725206 3.5
  endloop
endfacet
facet normal -0.0 -0.0 1.0
  outer loop
    vertex -1.7339190323365428 -1.0010786200725206 3.5
    vertex -9.797174393178824e-16 -7.999999999999998 3.5
    vertex -1.4157389615083 -1.4157389615082983 3.5
  endloop
endfacet
facet normal -0.0 -0.0 1.0
  outer loop
    vertex -1.4157389615083 -1.4157389615082983 3.5
    vertex -9.797174393178824e-16 -7.999999999999998 3.5
    vertex -1.0010786200725186 -1.733919032336544 3.5
  endloop
endfacet
facet normal -0.0 -0.0 1.0
  outer loop
    vertex -1.0010786200725186 -1.733919032336544 3.5
    vertex -9.797174393178824e-16 -7.999999999999998 3.5
    vertex -0.5181964250394397 -1.933935386547736 3.5
  endloop
endfacet
facet normal -0.0 -0.0 1.0
  outer loop
    vertex -0.5181964250394397 -1.933935386547736 3.5
    vertex -9.797174393178824e-16 -7.999999999999998 3.5
    vertex -2.4234086959395993e-16 -2.002157240145038 3.5
  endloop
endfacet
facet normal -0.0 -0.0 1.0
  outer loop
    vertex -2.4234086959395993e-16 -2.002157240145038 3.5
    vertex -9.797174393178824e-16 -7.999999999999998 3.5
    vertex 2.070552360820163 -7.727406610312546 3.5
  endloop
endfacet
facet normal -0.0 -0.0 1.0
  outer loop
    vertex -2.4234086959395993e-16 -2.002157240145038 3.5
    vertex 2.070552360820163 -7.727406610312546 3.5
    vertex 0.518196425039435 -1.9339353865477373 3.5
  endloop
endfacet
facet normal -0.0 -0.0 1.0
  outer loop
    vertex 0.518196425039435 -1.9339353865477373 3.5
    vertex 2.070552360820163 -7.727406610312546 3.5
    vertex 0.8456708580912722 -1.7982910350472265 3.5
  endloop
endfacet
facet normal -0.0 -0.0 1.0
  outer loop
    vertex 0.8456708580912722 -1.7982910350472265 3.5
    vertex 2.070552360820163 -7.727406610312546 3.5
    vertex 0.8456708580912726 1.798291035047226 3.5
  endloop
endfacet
facet normal -0.0 -0.0 1.0
  outer loop
    vertex -2.070552360820166 7.727406610312544 3.5
    vertex -1.9339353865477364 0.5181964250394375 3.5
    vertex 0.0 7.999999999999998 3.5
  endloop
endfacet
facet normal -0.0 -0.0 1.0
  outer loop
    vertex -1.9339353865477364 0.5181964250394375 3.5
    vertex -2.070552360820166 7.727406610312544 3.5
    vertex -2.002157240145038 4.736662451154672e-16 3.5
  endloop
endfacet
facet normal -0.0 -0.0 1.0
  outer loop
    vertex 0.0 7.999999999999998 3.5
    vertex -1.9339353865477364 0.5181964250394375 3.5
    vertex -1.7339190323365434 1.0010786200725197 3.5
  endloop
endfacet
facet normal -0.0 -0.0 1.0
  outer loop
    vertex 0.0 7.999999999999998 3.5
    vertex -1.7339190323365434 1.0010786200725197 3.5
    vertex -1.4157389615082994 1.4157389615082996 3.5
  endloop
endfacet
facet normal -0.0 -0.0 1.0
  outer loop
    vertex 0.0 7.999999999999998 3.5
    vertex -1.4157389615082994 1.4157389615082996 3.5
    vertex -1.0010786200725217 1.733919032336542 3.5
  endloop
endfacet
facet normal -0.0 -0.0 1.0
  outer loop
    vertex 0.0 7.999999999999998 3.5
    vertex -1.0010786200725217 1.733919032336542 3.5
    vertex -0.5181964250394364 1.9339353865477367 3.5
  endloop
endfacet
facet normal -0.0 -0.0 1.0
  outer loop
    vertex 0.0 7.999999999999998 3.5
    vertex -0.5181964250394364 1.9339353865477367 3.5
    vertex 8.81239525796218e-17 2.002157240145038 3.5
  endloop
endfacet
facet normal -0.0 -0.0 1.0
  outer loop
    vertex 0.0 7.999999999999998 3.5
    vertex 8.81239525796218e-17 2.002157240145038 3.5
    vertex 2.070552360820172 7.727406610312543 3.5
  endloop
endfacet
facet normal -0.0 -0.0 1.0
  outer loop
    vertex 2.070552360820172 7.727406610312543 3.5
    vertex 8.81239525796218e-17 2.002157240145038 3.5
    vertex 0.5181964250394385 1.9339353865477364 3.5
  endloop
endfacet
facet normal -0.0 -0.0 1.0
  outer loop
    vertex 2.070552360820172 7.727406610312543 3.5
    vertex 0.5181964250394385 1.9339353865477364 3.5
    vertex 0.8456708580912726 1.798291035047226 3.5
  endloop
endfacet
facet normal -0.0 -0.0 1.0
  outer loop
    vertex 2.070552360820172 7.727406610312543 3.5
    vertex 0.8456708580912726 1.798291035047226 3.5
    vertex 2.070552360820163 -7.727406610312546 3.5
  endloop
endfacet
facet normal -0.0 -0.0 1.0
  outer loop
    vertex 2.070552360820172 7.727406610312543 3.5
    vertex 2.070552360820163 -7.727406610312546 3.5
    vertex 3.999999999999998 -6.928203230275509 3.5
  endloop
endfacet
facet normal -0.0 -0.0 1.0
  outer loop
    vertex 2.070552360820172 7.727406610312543 3.5
    vertex 3.999999999999998 -6.928203230275509 3.5
    vertex 4.0000000000000036 6.928203230275505 3.5
  endloop
endfacet
facet normal -0.0 -0.0 1.0
  outer loop
    vertex -7.727406610312546 -2.0705523608201646 13.5
    vertex -7.727406610312546 2.0705523608201672 13.5
    vertex -7.999999999999999 4.898587196589412e-16 13.5
  endloop
endfacet
facet normal -0.0 -0.0 1.0
  outer loop
    vertex -7.727406610312546 2.0705523608201672 13.5
    vertex -7.727406610312546 -2.0705523608201646 13.5
    vertex -6.9282032302755105 -3.999999999999997 13.5
  endloop
endfacet
facet normal -0.0 -0.0 1.0
  outer loop
    vertex -7.727406610312546 2.0705523608201672 13.5
    vertex -6.9282032302755105 -3.999999999999997 13.5
    vertex -6.997235951713446 0.07429977530368088 13.5
  endloop
endfacet
facet normal -0.0 -0.0 1.0
  outer loop
    vertex -6.997235951713446 0.07429977530368088 13.5
    vertex -6.9282032302755105 -3.999999999999997 13.5
    vertex -6.982486157559407 -0.18633558491107727 13.5
  endloop
endfacet
facet normal -0.0 -0.0 1.0
  outer loop
    vertex -6.982486157559407 -0.18633558491107727 13.5
    vertex -6.9282032302755105 -3.999999999999997 13.5
    vertex -6.900781555402838 -0.4342724829482596 13.5
  endloop
endfacet
facet normal -0.0 -0.0 1.0
  outer loop
    vertex -6.900781555402838 -0.4342724829482596 13.5
    vertex -6.9282032302755105 -3.999999999999997 13.5
    vertex -5.656854249492381 -5.656854249492379 13.5
  endloop
endfacet
facet normal -0.0 -0.0 1.0
  outer loop
    vertex -6.900781555402838 -0.4342724829482596 13.5
    vertex -5.656854249492381 -5.656854249492379 13.5
    vertex -6.757690178857469 -0.6526144289417287 13.5
  endloop
endfacet
facet normal -0.0 -0.0 1.0
  outer loop
    vertex -6.757690178857469 -0.6526144289417287 13.5
    vertex -5.656854249492381 -5.656854249492379 13.5
    vertex -6.562963468765188 -0.8264817800991562 13.5
  endloop
endfacet
facet normal -0.0 -0.0 1.0
  outer loop
    vertex -6.562963468765188 -0.8264817800991562 13.5
    vertex -5.656854249492381 -5.656854249492379 13.5
    vertex -6.329871728617681 -0.9440257637685461 13.5
  endloop
endfacet
facet normal -0.0 -0.0 1.0
  outer loop
    vertex -6.329871728617681 -0.9440257637685461 13.5
    vertex -5.656854249492381 -5.656854249492379 13.5
    vertex -6.074299775303683 -0.9972359517134476 13.5
  endloop
endfacet
facet normal -0.0 -0.0 1.0
  outer loop
    vertex -6.074299775303683 -0.9972359517134476 13.5
    vertex -5.656854249492381 -5.656854249492379 13.5
    vertex -5.813664415088925 -0.9824861575594085 13.5
  endloop
endfacet
facet normal -0.0 -0.0 1.0
  outer loop
    vertex -5.813664415088925 -0.9824861575594085 13.5
    vertex -5.656854249492381 -5.656854249492379 13.5
    vertex -5.565727517051743 -0.9007815554028392 13.5
  endloop
endfacet
facet normal -0.0 -0.0 1.0
  outer loop
    vertex -5.565727517051743 -0.9007815554028392 13.5
    vertex -5.656854249492381 -5.656854249492379 13.5
    vertex -4.000000000000003 -6.928203230275506 13.5
  endloop
endfacet
facet normal -0.0 -0.0 1.0
  outer loop
    vertex -5.565727517051743 -0.9007815554028392 13.5
    vertex -4.000000000000003 -6.928203230275506 13.5
    vertex -5.347385571058274 -0.7576901788574708 13.5
  endloop
endfacet
facet normal -0.0 -0.0 1.0
  outer loop
    vertex -5.347385571058274 -0.7576901788574708 13.5
    vertex -4.000000000000003 -6.928203230275506 13.5
    vertex -5.1735182199008465 -0.56296346876519 13.5
  endloop
endfacet
facet normal -0.0 -0.0 1.0
  outer loop
    vertex -5.1735182199008465 -0.56296346876519 13.5
    vertex -4.000000000000003 -6.928203230275506 13.5
    vertex -5.055974236231456 -0.32987172861768177 13.5
  endloop
endfacet
facet normal -0.0 -0.0 1.0
  outer loop
    vertex -5.055974236231456 -0.32987172861768177 13.5
    vertex -4.000000000000003 -6.928203230275506 13.5
    vertex -5.002764048286554 -0.07429977530368498 13.5
  endloop
endfacet
facet normal -0.0 -0.0 1.0
  outer loop
    vertex -6.997235951713446 0.07429977530368088 13.5
    vertex -6.928203230275508 3.9999999999999996 13.5
    vertex -7.727406610312546 2.0705523608201672 13.5
  endloop
endfacet
facet normal -0.0 -0.0 1.0
  outer loop
    vertex -6.928203230275508 3.9999999999999996 13.5
    vertex -6.997235951713446 0.07429977530368088 13.5
    vertex -6.944025763768544 0.3298717286176781 13.5
  endloop
endfacet
facet normal -0.0 -0.0 1.0
  outer loop
    vertex -6.928203230275508 3.9999999999999996 13.5
    vertex -6.944025763768544 0.3298717286176781 13.5
    vertex -6.826481780099154 0.5629634687651862 13.5
  endloop
endfacet
facet normal -0.0 -0.0 1.0
  outer loop
    vertex -6.928203230275508 3.9999999999999996 13.5
    vertex -6.826481780099154 0.5629634687651862 13.5
    vertex -5.65685424949238 5.65685424949238 13.5
  endloop
endfacet
facet normal -0.0 -0.0 1.0
  outer loop
    vertex -5.65685424949238 5.65685424949238 13.5
    vertex -6.826481780099154 0.5629634687651862 13.5
    vertex -6.652614428941727 0.757690178857467 13.5
  endloop
endfacet
facet normal -0.0 -0.0 1.0
  outer loop
    vertex -5.65685424949238 5.65685424949238 13.5
    vertex -6.652614428941727 0.757690178857467 13.5
    vertex -6.434272482948257 0.9007815554028357 13.5
  endloop
endfacet
facet normal -0.0 -0.0 1.0
  outer loop
    vertex -5.65685424949238 5.65685424949238 13.5
    vertex -6.434272482948257 0.9007815554028357 13.5
    vertex -6.186335584911076 0.9824861575594047 13.5
  endloop
endfacet
facet normal -0.0 -0.0 1.0
  outer loop
    vertex -5.65685424949238 5.65685424949238 13.5
    vertex -6.186335584911076 0.9824861575594047 13.5
    vertex -5.925700224696318 0.997235951713444 13.5
  endloop
endfacet
facet normal -0.0 -0.0 1.0
  outer loop
    vertex -5.65685424949238 5.65685424949238 13.5
    vertex -5.925700224696318 0.997235951713444 13.5
    vertex -5.67012827138232 0.9440257637685425 13.5
  endloop
endfacet
facet normal -0.0 -0.0 1.0
  outer loop
    vertex -5.65685424949238 5.65685424949238 13.5
    vertex -5.67012827138232 0.9440257637685425 13.5
    vertex -5.437036531234812 0.8264817800991523 13.5
  endloop
endfacet
facet normal -0.0 -0.0 1.0
  outer loop
    vertex -5.65685424949238 5.65685424949238 13.5
    vertex -5.437036531234812 0.8264817800991523 13.5
    vertex -3.999999999999999 6.928203230275508 13.5
  endloop
endfacet
facet normal -0.0 -0.0 1.0
  outer loop
    vertex -3.999999999999999 6.928203230275508 13.5
    vertex -5.437036531234812 0.8264817800991523 13.5
    vertex -5.242309821142531 0.6526144289417249 13.5
  endloop
endfacet
facet normal -0.0 -0.0 1.0
  outer loop
    vertex -3.999999999999999 6.928203230275508 13.5
    vertex -5.242309821142531 0.6526144289417249 13.5
    vertex -5.099218444597162 0.43427248294825566 13.5
  endloop
endfacet
facet normal -0.0 -0.0 1.0
  outer loop
    vertex -3.999999999999999 6.928203230275508 13.5
    vertex -5.099218444597162 0.43427248294825566 13.5
    vertex -5.017513842440594 0.1863355849110734 13.5
  endloop
endfacet
facet normal -0.0 -0.0 1.0
  outer loop
    vertex -3.999999999999999 6.928203230275508 13.5
    vertex -5.017513842440594 0.1863355849110734 13.5
    vertex -5.002764048286554 -0.07429977530368498 13.5
  endloop
endfacet
facet normal -0.0 -0.0 1.0
  outer loop
    vertex -3.999999999999999 6.928203230275508 13.5
    vertex -5.002764048286554 -0.07429977530368498 13.5
    vertex -4.000000000000003 -6.928203230275506 13.5
  endloop
endfacet
facet normal 1.0 -2.543919387194924e-16 1.1749860343949555e-17
  outer loop
    vertex -3.999999999999999 6.928203230275508 3.5
    vertex -4.000000000000003 -6.928203230275506 13.5
    vertex -4.000000000000003 -6.928203230275506 3.5
  endloop
endfacet
facet normal 1.0 -2.543919387194924e-16 1.1749860343949555e-17
  outer loop
    vertex -4.000000000000003 -6.928203230275506 13.5
    vertex -3.999999999999999 6.928203230275508 3.5
    vertex -3.999999999999999 6.928203230275508 13.5
  endloop
endfacet
facet normal -2.434820156495912e-16 1.1758670962157632e-31 1.0
  outer loop
    vertex 5.656854249492377 -5.656854249492382 13.500000000000009
    vertex 4.0000000000000036 6.928203230275505 13.500000000000009
    vertex 3.999999999999998 -6.928203230275509 13.500000000000009
  endloop
endfacet
facet normal -2.434820156495912e-16 1.1758670962157632e-31 1.0
  outer loop
    vertex 4.0000000000000036 6.928203230275505 13.500000000000009
    vertex 5.656854249492377 -5.656854249492382 13.500000000000009
    vertex 5.000000000000001 -1.9461760714645387e-15 13.500000000000009
  endloop
endfacet
facet normal -2.434820156495912e-16 1.1758670962157632e-31 1.0
  outer loop
    vertex 5.000000000000001 -1.9461760714645387e-15 13.500000000000009
    vertex 5.656854249492377 -5.656854249492382 13.500000000000009
    vertex 5.034074173710932 -0.2588190451025232 13.500000000000009
  endloop
endfacet
facet normal -2.434820156495912e-16 1.1758670962157632e-31 1.0
  outer loop
    vertex 5.034074173710932 -0.2588190451025232 13.500000000000009
    vertex 5.656854249492377 -5.656854249492382 13.500000000000009
    vertex 5.133974596215562 -0.5000000000000021 13.500000000000009
  endloop
endfacet
facet normal -2.434820156495912e-16 1.1758670962157632e-31 1.0
  outer loop
    vertex 5.133974596215562 -0.5000000000000021 13.500000000000009
    vertex 5.656854249492377 -5.656854249492382 13.500000000000009
    vertex 5.292893218813453 -0.7071067811865496 13.500000000000009
  endloop
endfacet
facet normal -2.434820156495912e-16 1.1758670962157632e-31 1.0
  outer loop
    vertex 5.292893218813453 -0.7071067811865496 13.500000000000009
    vertex 5.656854249492377 -5.656854249492382 13.500000000000009
    vertex 5.500000000000001 -0.8660254037844404 13.500000000000009
  endloop
endfacet
facet normal -2.434820156495912e-16 1.1758670962157632e-31 1.0
  outer loop
    vertex 5.500000000000001 -0.8660254037844404 13.500000000000009
    vertex 5.656854249492377 -5.656854249492382 13.500000000000009
    vertex 5.741180954897479 -0.96592582628907 13.500000000000009
  endloop
endfacet
facet normal -2.434820156495912e-16 1.1758670962157632e-31 1.0
  outer loop
    vertex 5.741180954897479 -0.96592582628907 13.500000000000009
    vertex 5.656854249492377 -5.656854249492382 13.500000000000009
    vertex 6.928203230275506 -4.000000000000003 13.500000000000009
  endloop
endfacet
facet normal -2.434820156495912e-16 1.1758670962157632e-31 1.0
  outer loop
    vertex 5.741180954897479 -0.96592582628907 13.500000000000009
    vertex 6.928203230275506 -4.000000000000003 13.500000000000009
    vertex 6.0 -1.0000000000000016 13.500000000000009
  endloop
endfacet
facet normal -2.434820156495912e-16 1.1758670962157632e-31 1.0
  outer loop
    vertex 6.0 -1.0000000000000016 13.500000000000009
    vertex 6.928203230275506 -4.000000000000003 13.500000000000009
    vertex 6.258819045102522 -0.9659258262890698 13.500000000000009
  endloop
endfacet
facet normal -2.434820156495912e-16 1.1758670962157632e-31 1.0
  outer loop
    vertex 6.258819045102522 -0.9659258262890698 13.500000000000009
    vertex 6.928203230275506 -4.000000000000003 13.500000000000009
    vertex 6.500000000000001 -0.86602540378444 13.500000000000009
  endloop
endfacet
facet normal -2.434820156495912e-16 1.1758670962157632e-31 1.0
  outer loop
    vertex 6.500000000000001 -0.86602540378444 13.500000000000009
    vertex 6.928203230275506 -4.000000000000003 13.500000000000009
    vertex 6.707106781186548 -0.7071067811865491 13.500000000000009
  endloop
endfacet
facet normal -2.434820156495912e-16 1.1758670962157632e-31 1.0
  outer loop
    vertex 6.707106781186548 -0.7071067811865491 13.500000000000009
    vertex 6.928203230275506 -4.000000000000003 13.500000000000009
    vertex 6.866025403784439 -0.5000000000000013 13.500000000000009
  endloop
endfacet
facet normal -2.434820156495912e-16 1.1758670962157632e-31 1.0
  outer loop
    vertex 6.866025403784439 -0.5000000000000013 13.500000000000009
    vertex 6.928203230275506 -4.000000000000003 13.500000000000009
    vertex 6.965925826289068 -0.25881904510252235 13.500000000000009
  endloop
endfacet
facet normal -2.434820156495912e-16 1.1758670962157632e-31 1.0
  outer loop
    vertex 6.965925826289068 -0.25881904510252235 13.500000000000009
    vertex 6.928203230275506 -4.000000000000003 13.500000000000009
    vertex 7.727406610312544 -2.0705523608201712 13.500000000000009
  endloop
endfacet
facet normal -2.434820156495912e-16 1.1758670962157632e-31 1.0
  outer loop
    vertex 6.965925826289068 -0.25881904510252235 13.500000000000009
    vertex 7.727406610312544 -2.0705523608201712 13.500000000000009
    vertex 7.0 -1.7012467116350682e-15 13.500000000000009
  endloop
endfacet
facet normal -2.434820156495912e-16 1.1758670962157632e-31 1.0
  outer loop
    vertex 5.000000000000001 -1.9461760714645387e-15 13.500000000000009
    vertex 5.656854249492381 5.656854249492379 13.500000000000009
    vertex 4.0000000000000036 6.928203230275505 13.500000000000009
  endloop
endfacet
facet normal -2.434820156495912e-16 1.1758670962157632e-31 1.0
  outer loop
    vertex 5.656854249492381 5.656854249492379 13.500000000000009
    vertex 5.000000000000001 -1.9461760714645387e-15 13.500000000000009
    vertex 5.034074173710931 0.25881904510251846 13.500000000000009
  endloop
endfacet
facet normal -2.434820156495912e-16 1.1758670962157632e-31 1.0
  outer loop
    vertex 5.656854249492381 5.656854249492379 13.500000000000009
    vertex 5.034074173710931 0.25881904510251846 13.500000000000009
    vertex 5.133974596215561 0.4999999999999974 13.500000000000009
  endloop
endfacet
facet normal -2.434820156495912e-16 1.1758670962157632e-31 1.0
  outer loop
    vertex 5.656854249492381 5.656854249492379 13.500000000000009
    vertex 5.133974596215561 0.4999999999999974 13.500000000000009
    vertex 5.292893218813452 0.7071067811865456 13.500000000000009
  endloop
endfacet
facet normal -2.434820156495912e-16 1.1758670962157632e-31 1.0
  outer loop
    vertex 5.656854249492381 5.656854249492379 13.500000000000009
    vertex 5.292893218813452 0.7071067811865456 13.500000000000009
    vertex 5.5 0.8660254037844364 13.500000000000009
  endloop
endfacet
facet normal -2.434820156495912e-16 1.1758670962157632e-31 1.0
  outer loop
    vertex 5.656854249492381 5.656854249492379 13.500000000000009
    vertex 5.5 0.8660254037844364 13.500000000000009
    vertex 5.741180954897479 0.9659258262890661 13.500000000000009
  endloop
endfacet
facet normal -2.434820156495912e-16 1.1758670962157632e-31 1.0
  outer loop
    vertex 5.656854249492381 5.656854249492379 13.500000000000009
    vertex 5.741180954897479 0.9659258262890661 13.500000000000009
    vertex 6.928203230275512 3.9999999999999933 13.500000000000009
  endloop
endfacet
facet normal -2.434820156495912e-16 1.1758670962157632e-31 1.0
  outer loop
    vertex 6.928203230275512 3.9999999999999933 13.500000000000009
    vertex 5.741180954897479 0.9659258262890661 13.500000000000009
    vertex 6.0 0.999999999999998 13.500000000000009
  endloop
endfacet
facet normal -2.434820156495912e-16 1.1758670962157632e-31 1.0
  outer loop
    vertex 6.928203230275512 3.9999999999999933 13.500000000000009
    vertex 6.0 0.999999999999998 13.500000000000009
    vertex 6.258819045102521 0.9659258262890662 13.500000000000009
  endloop
endfacet
facet normal -2.434820156495912e-16 1.1758670962157632e-31 1.0
  outer loop
    vertex 6.928203230275512 3.9999999999999933 13.500000000000009
    vertex 6.258819045102521 0.9659258262890662 13.500000000000009
    vertex 6.500000000000001 0.8660254037844367 13.500000000000009
  endloop
endfacet
facet normal -2.434820156495912e-16 1.1758670962157632e-31 1.0
  outer loop
    vertex 6.928203230275512 3.9999999999999933 13.500000000000009
    vertex 6.500000000000001 0.8660254037844367 13.500000000000009
    vertex 6.707106781186548 0.7071067811865457 13.500000000000009
  endloop
endfacet
facet normal -2.434820156495912e-16 1.1758670962157632e-31 1.0
  outer loop
    vertex 6.928203230275512 3.9999999999999933 13.500000000000009
    vertex 6.707106781186548 0.7071067811865457 13.500000000000009
    vertex 6.866025403784439 0.4999999999999982 13.500000000000009
  endloop
endfacet
facet normal -2.434820156495912e-16 1.1758670962157632e-31 1.0
  outer loop
    vertex 6.928203230275512 3.9999999999999933 13.500000000000009
    vertex 6.866025403784439 0.4999999999999982 13.500000000000009
    vertex 6.965925826289068 0.25881904510251913 13.500000000000009
  endloop
endfacet
facet normal -2.434820156495912e-16 1.1758670962157632e-31 1.0
  outer loop
    vertex 6.928203230275512 3.9999999999999933 13.500000000000009
    vertex 6.965925826289068 0.25881904510251913 13.500000000000009
    vertex 7.7274066103125465 2.070552360820162 13.500000000000009
  endloop
endfacet
facet normal -2.434820156495912e-16 1.1758670962157632e-31 1.0
  outer loop
    vertex 7.7274066103125465 2.070552360820162 13.500000000000009
    vertex 6.965925826289068 0.25881904510251913 13.500000000000009
    vertex 7.0 -1.7012467116350682e-15 13.500000000000009
  endloop
endfacet
facet normal -2.434820156495912e-16 1.1758670962157632e-31 1.0
  outer loop
    vertex 7.7274066103125465 2.070552360820162 13.500000000000009
    vertex 7.0 -1.7012467116350682e-15 13.500000000000009
    vertex 7.727406610312544 -2.0705523608201712 13.500000000000009
  endloop
endfacet
facet normal -2.434820156495912e-16 1.1758670962157632e-31 1.0
  outer loop
    vertex 7.7274066103125465 2.070552360820162 13.500000000000009
    vertex 7.727406610312544 -2.0705523608201712 13.500000000000009
    vertex 7.999999999999999 -1.4695761589768234e-15 13.500000000000009
  endloop
endfacet
facet normal -1.0 4.070271019511878e-16 -2.3468027429248602e-32
  outer loop
    vertex 4.0000000000000036 6.928203230275505 13.500000000000009
    vertex 3.999999999999998 -6.928203230275509 3.5
    vertex 3.999999999999998 -6.928203230275509 13.500000000000009
  endloop
endfacet
facet normal -1.0 4.070271019511878e-16 -2.3468027429248602e-32
  outer loop
    vertex 3.999999999999998 -6.928203230275509 3.5
    vertex 4.0000000000000036 6.928203230275505 13.500000000000009
    vertex 4.0000000000000036 6.928203230275505 3.5
  endloop
endfacet
facet normal -4.970131851683474e-31 -8.283553086139128e-32 1.0
  outer loop
    vertex 5.034074173710932 -0.2588190451025232 3.500000000000005
    vertex 5.034074173710931 0.25881904510251846 3.500000000000005
    vertex 5.000000000000001 -1.9461760714645387e-15 3.500000000000005
  endloop
endfacet
facet normal -4.970131851683474e-31 -8.283553086139128e-32 1.0
  outer loop
    vertex 5.034074173710931 0.25881904510251846 3.500000000000005
    vertex 5.034074173710932 -0.2588190451025232 3.500000000000005
    vertex 5.133974596215561 0.4999999999999974 3.500000000000005
  endloop
endfacet
facet normal -4.970131851683474e-31 -8.283553086139128e-32 1.0
  outer loop
    vertex 5.133974596215561 0.4999999999999974 3.500000000000005
    vertex 5.034074173710932 -0.2588190451025232 3.500000000000005
    vertex 5.133974596215562 -0.5000000000000021 3.500000000000005
  endloop
endfacet
facet normal -4.970131851683474e-31 -8.283553086139128e-32 1.0
  outer loop
    vertex 5.133974596215561 0.4999999999999974 3.500000000000005
    vertex 5.133974596215562 -0.5000000000000021 3.500000000000005
    vertex 5.292893218813452 0.7071067811865456 3.500000000000005
  endloop
endfacet
facet normal -4.970131851683474e-31 -8.283553086139128e-32 1.0
  outer loop
    vertex 5.292893218813452 0.7071067811865456 3.500000000000005
    vertex 5.133974596215562 -0.5000000000000021 3.500000000000005
    vertex 5.292893218813453 -0.7071067811865496 3.500000000000005
  endloop
endfacet
facet normal -4.970131851683474e-31 -8.283553086139128e-32 1.0
  outer loop
    vertex 5.292893218813452 0.7071067811865456 3.500000000000005
    vertex 5.292893218813453 -0.7071067811865496 3.500000000000005
    vertex 5.5 0.8660254037844364 3.500000000000005
  endloop
endfacet
facet normal -4.970131851683474e-31 -8.283553086139128e-32 1.0
  outer loop
    vertex 5.5 0.8660254037844364 3.500000000000005
    vertex 5.292893218813453 -0.7071067811865496 3.500000000000005
    vertex 5.500000000000001 -0.8660254037844404 3.500000000000005
  endloop
endfacet
facet normal -4.970131851683474e-31 -8.283553086139128e-32 1.0
  outer loop
    vertex 5.5 0.8660254037844364 3.500000000000005
    vertex 5.500000000000001 -0.8660254037844404 3.500000000000005
    vertex 5.741180954897479 0.9659258262890661 3.500000000000005
  endloop
endfacet
facet normal -4.970131851683474e-31 -8.283553086139128e-32 1.0
  outer loop
    vertex 5.741180954897479 0.9659258262890661 3.500000000000005
    vertex 5.500000000000001 -0.8660254037844404 3.500000000000005
    vertex 5.741180954897479 -0.96592582628907 3.500000000000005
  endloop
endfacet
facet normal -4.970131851683474e-31 -8.283553086139128e-32 1.0
  outer loop
    vertex 5.741180954897479 0.9659258262890661 3.500000000000005
    vertex 5.741180954897479 -0.96592582628907 3.500000000000005
    vertex 6.0 0.999999999999998 3.500000000000005
  endloop
endfacet
facet normal -4.970131851683474e-31 -8.283553086139128e-32 1.0
  outer loop
    vertex 6.0 0.999999999999998 3.500000000000005
    vertex 5.741180954897479 -0.96592582628907 3.500000000000005
    vertex 6.0 -1.0000000000000016 3.500000000000005
  endloop
endfacet
facet normal -4.970131851683474e-31 -8.283553086139128e-32 1.0
  outer loop
    vertex 6.0 0.999999999999998 3.500000000000005
    vertex 6.0 -1.0000000000000016 3.500000000000005
    vertex 6.258819045102522 -0.9659258262890698 3.500000000000005
  endloop
endfacet
facet normal -4.970131851683474e-31 -8.283553086139128e-32 1.0
  outer loop
    vertex 6.0 0.999999999999998 3.500000000000005
    vertex 6.258819045102522 -0.9659258262890698 3.500000000000005
    vertex 6.258819045102521 0.9659258262890662 3.500000000000005
  endloop
endfacet
facet normal -4.970131851683474e-31 -8.283553086139128e-32 1.0
  outer loop
    vertex 6.258819045102521 0.9659258262890662 3.500000000000005
    vertex 6.258819045102522 -0.9659258262890698 3.500000000000005
    vertex 6.500000000000001 0.8660254037844367 3.500000000000005
  endloop
endfacet
facet normal -4.970131851683474e-31 -8.283553086139128e-32 1.0
  outer loop
    vertex 6.500000000000001 0.8660254037844367 3.500000000000005
    vertex 6.258819045102522 -0.9659258262890698 3.500000000000005
    vertex 6.500000000000001 -0.86602540378444 3.500000000000005
  endloop
endfacet
facet normal -4.970131851683474e-31 -8.283553086139128e-32 1.0
  outer loop
    vertex 6.500000000000001 0.8660254037844367 3.500000000000005
    vertex 6.500000000000001 -0.86602540378444 3.500000000000005
    vertex 6.707106781186548 -0.7071067811865491 3.500000000000005
  endloop
endfacet
facet normal -4.970131851683474e-31 -8.283553086139128e-32 1.0
  outer loop
    vertex 6.500000000000001 0.8660254037844367 3.500000000000005
    vertex 6.707106781186548 -0.7071067811865491 3.500000000000005
    vertex 6.707106781186548 0.7071067811865457 3.500000000000005
  endloop
endfacet
facet normal -4.970131851683474e-31 -8.283553086139128e-32 1.0
  outer loop
    vertex 6.707106781186548 0.7071067811865457 3.500000000000005
    vertex 6.707106781186548 -0.7071067811865491 3.500000000000005
    vertex 6.866025403784439 -0.5000000000000013 3.500000000000005
  endloop
endfacet
facet normal -4.970131851683474e-31 -8.283553086139128e-32 1.0
  outer loop
    vertex 6.707106781186548 0.7071067811865457 3.500000000000005
    vertex 6.866025403784439 -0.5000000000000013 3.500000000000005
    vertex 6.866025403784439 0.4999999999999982 3.500000000000005
  endloop
endfacet
facet normal -4.970131851683474e-31 -8.283553086139128e-32 1.0
  outer loop
    vertex 6.866025403784439 0.4999999999999982 3.500000000000005
    vertex 6.866025403784439 -0.5000000000000013 3.500000000000005
    vertex 6.965925826289068 -0.25881904510252235 3.500000000000005
  endloop
endfacet
facet normal -4.970131851683474e-31 -8.283553086139128e-32 1.0
  outer loop
    vertex 6.866025403784439 0.4999999999999982 3.500000000000005
    vertex 6.965925826289068 -0.25881904510252235 3.500000000000005
    vertex 6.965925826289068 0.25881904510251913 3.500000000000005
  endloop
endfacet
facet normal -4.970131851683474e-31 -8.283553086139128e-32 1.0
  outer loop
    vertex 6.965925826289068 0.25881904510251913 3.500000000000005
    vertex 6.965925826289068 -0.25881904510252235 3.500000000000005
    vertex 7.0 -1.7012467116350678e-15 3.500000000000005
  endloop
endfacet
facet normal -0.25881904510252024 -0.9659258262890684 -2.086494565820168e-31
  outer loop
    vertex 6.258819045102521 0.9659258262890662 13.500000000000009
    vertex 6.0 0.999999999999998 3.500000000000005
    vertex 6.258819045102521 0.9659258262890662 3.500000000000005
  endloop
endfacet
facet normal 1.6931108801729119e-16 -1.0 -8.28355308613912e-32
  outer loop
    vertex 6.0 0.999999999999998 3.500000000000005
    vertex 6.258819045102521 0.9659258262890662 13.500000000000009
    vertex 6.0 0.999999999999998 13.500000000000009
  endloop
endfacet
facet normal 1.6931108801729119e-16 -1.0 -8.28355308613912e-32
  outer loop
    vertex 6.0 0.999999999999998 13.500000000000009
    vertex 5.741180954897479 0.9659258262890661 3.500000000000005
    vertex 6.0 0.999999999999998 3.500000000000005
  endloop
endfacet
facet normal 0.25881904510252113 -0.9659258262890682 4.8623499395251257e-32
  outer loop
    vertex 5.741180954897479 0.9659258262890661 3.500000000000005
    vertex 6.0 0.999999999999998 13.500000000000009
    vertex 5.741180954897479 0.9659258262890661 13.500000000000009
  endloop
endfacet
facet normal 0.25881904510252113 -0.9659258262890682 4.8623499395251257e-32
  outer loop
    vertex 5.741180954897479 0.9659258262890661 13.500000000000009
    vertex 5.5 0.8660254037844364 3.500000000000005
    vertex 5.741180954897479 0.9659258262890661 3.500000000000005
  endloop
endfacet
facet normal 0.4999999999999999 -0.8660254037844388 1.7676891852223896e-31
  outer loop
    vertex 5.5 0.8660254037844364 3.500000000000005
    vertex 5.741180954897479 0.9659258262890661 13.500000000000009
    vertex 5.5 0.8660254037844364 13.500000000000009
  endloop
endfacet
facet normal 0.4999999999999999 -0.8660254037844388 1.7676891852223896e-31
  outer loop
    vertex 5.5 0.8660254037844364 13.500000000000009
    vertex 5.292893218813452 0.7071067811865456 3.500000000000005
    vertex 5.5 0.8660254037844364 3.500000000000005
  endloop
endfacet
facet normal 0.7071067811865477 -0.7071067811865475 2.9286782797638647e-31
  outer loop
    vertex 5.292893218813452 0.7071067811865456 3.500000000000005
    vertex 5.5 0.8660254037844364 13.500000000000009
    vertex 5.292893218813452 0.7071067811865456 13.500000000000009
  endloop
endfacet
facet normal 0.7071067811865477 -0.7071067811865475 2.9286782797638647e-31
  outer loop
    vertex 5.292893218813452 0.7071067811865456 3.500000000000005
    vertex 5.133974596215561 0.4999999999999974 13.500000000000009
    vertex 5.133974596215561 0.4999999999999974 3.500000000000005
  endloop
endfacet
facet normal 0.8660254037844392 -0.49999999999999933 3.890082789409127e-31
  outer loop
    vertex 5.133974596215561 0.4999999999999974 13.500000000000009
    vertex 5.292893218813452 0.7071067811865456 3.500000000000005
    vertex 5.292893218813452 0.7071067811865456 13.500000000000009
  endloop
endfacet
facet normal 0.8660254037844392 -0.49999999999999933 3.890082789409127e-31
  outer loop
    vertex 5.133974596215561 0.4999999999999974 3.500000000000005
    vertex 5.034074173710931 0.25881904510251846 13.500000000000009
    vertex 5.034074173710931 0.25881904510251846 3.500000000000005
  endloop
endfacet
facet normal 0.9659258262890686 -0.25881904510251935 4.586384585621923e-31
  outer loop
    vertex 5.034074173710931 0.25881904510251846 13.500000000000009
    vertex 5.133974596215561 0.4999999999999974 3.500000000000005
    vertex 5.133974596215561 0.4999999999999974 13.500000000000009
  endloop
endfacet
facet normal 1.0 1.1227998468515098e-15 4.970131851683474e-31
  outer loop
    vertex 5.000000000000001 -1.9461760714645387e-15 3.500000000000005
    vertex 5.034074173710931 0.25881904510251846 13.500000000000009
    vertex 5.000000000000001 -1.9461760714645387e-15 13.500000000000009
  endloop
endfacet
facet normal 0.9659258262890686 -0.25881904510251935 4.586384585621923e-31
  outer loop
    vertex 5.034074173710931 0.25881904510251846 13.500000000000009
    vertex 5.000000000000001 -1.9461760714645387e-15 3.500000000000005
    vertex 5.034074173710931 0.25881904510251846 3.500000000000005
  endloop
endfacet
facet normal 1.0 1.1227998468515098e-15 4.970131851683474e-31
  outer loop
    vertex 5.000000000000001 -1.9461760714645387e-15 3.500000000000005
    vertex 5.034074173710932 -0.2588190451025232 13.500000000000009
    vertex 5.034074173710932 -0.2588190451025232 3.500000000000005
  endloop
endfacet
facet normal 0.9659258262890683 0.2588190451025204 5.0151728455840335e-31
  outer loop
    vertex 5.034074173710932 -0.2588190451025232 13.500000000000009
    vertex 5.000000000000001 -1.9461760714645387e-15 3.500000000000005
    vertex 5.000000000000001 -1.9461760714645387e-15 13.500000000000009
  endloop
endfacet
facet normal 0.9659258262890683 0.2588190451025204 5.0151728455840335e-31
  outer loop
    vertex 5.034074173710932 -0.2588190451025232 3.500000000000005
    vertex 5.133974596215562 -0.5000000000000021 13.500000000000009
    vertex 5.133974596215562 -0.5000000000000021 3.500000000000005
  endloop
endfacet
facet normal 0.8660254037844387 0.5 4.718438098023037e-31
  outer loop
    vertex 5.133974596215562 -0.5000000000000021 13.500000000000009
    vertex 5.034074173710932 -0.2588190451025232 3.500000000000005
    vertex 5.034074173710932 -0.2588190451025232 13.500000000000009
  endloop
endfacet
facet normal 0.8660254037844387 0.5 4.718438098023037e-31
  outer loop
    vertex 5.133974596215562 -0.5000000000000021 3.500000000000005
    vertex 5.292893218813453 -0.7071067811865496 13.500000000000009
    vertex 5.292893218813453 -0.7071067811865496 3.500000000000005
  endloop
endfacet
facet normal 0.7071067811865471 0.707106781186548 4.100149591669408e-31
  outer loop
    vertex 5.292893218813453 -0.7071067811865496 13.500000000000009
    vertex 5.133974596215562 -0.5000000000000021 3.500000000000005
    vertex 5.133974596215562 -0.5000000000000021 13.500000000000009
  endloop
endfacet
facet normal 0.7071067811865471 0.707106781186548 4.100149591669408e-31
  outer loop
    vertex 5.292893218813453 -0.7071067811865496 13.500000000000009
    vertex 5.500000000000001 -0.8660254037844404 3.500000000000005
    vertex 5.292893218813453 -0.7071067811865496 3.500000000000005
  endloop
endfacet
facet normal 0.49999999999999967 0.8660254037844388 3.202442666461082e-31
  outer loop
    vertex 5.500000000000001 -0.8660254037844404 3.500000000000005
    vertex 5.292893218813453 -0.7071067811865496 13.500000000000009
    vertex 5.500000000000001 -0.8660254037844404 13.500000000000009
  endloop
endfacet
facet normal 0.49999999999999967 0.8660254037844388 3.202442666461082e-31
  outer loop
    vertex 5.500000000000001 -0.8660254037844404 13.500000000000009
    vertex 5.741180954897479 -0.96592582628907 3.500000000000005
    vertex 5.500000000000001 -0.8660254037844404 3.500000000000005
  endloop
endfacet
facet normal 0.2588190451025204 0.9659258262890684 2.0864945658201687e-31
  outer loop
    vertex 5.741180954897479 -0.96592582628907 3.500000000000005
    vertex 5.500000000000001 -0.8660254037844404 13.500000000000009
    vertex 5.741180954897479 -0.96592582628907 13.500000000000009
  endloop
endfacet
facet normal 0.2588190451025204 0.9659258262890684 2.0864945658201687e-31
  outer loop
    vertex 5.741180954897479 -0.96592582628907 13.500000000000009
    vertex 6.0 -1.0000000000000016 3.500000000000005
    vertex 5.741180954897479 -0.96592582628907 3.500000000000005
  endloop
endfacet
facet normal -1.603999781216443e-16 1.0 8.28355308613912e-32
  outer loop
    vertex 6.0 -1.0000000000000016 3.500000000000005
    vertex 5.741180954897479 -0.96592582628907 13.500000000000009
    vertex 6.0 -1.0000000000000016 13.500000000000009
  endloop
endfacet
facet normal -1.603999781216443e-16 1.0 8.28355308613912e-32
  outer loop
    vertex 6.0 -1.0000000000000016 13.500000000000009
    vertex 6.258819045102522 -0.9659258262890698 3.500000000000005
    vertex 6.0 -1.0000000000000016 3.500000000000005
  endloop
endfacet
facet normal -0.2588190451025208 0.9659258262890682 -4.862349939525109e-32
  outer loop
    vertex 6.258819045102522 -0.9659258262890698 3.500000000000005
    vertex 6.0 -1.0000000000000016 13.500000000000009
    vertex 6.258819045102522 -0.9659258262890698 13.500000000000009
  endloop
endfacet
facet normal -0.2588190451025208 0.9659258262890682 -4.862349939525109e-32
  outer loop
    vertex 6.258819045102522 -0.9659258262890698 13.500000000000009
    vertex 6.500000000000001 -0.86602540378444 3.500000000000005
    vertex 6.258819045102522 -0.9659258262890698 3.500000000000005
  endloop
endfacet
facet normal -0.5 0.8660254037844386 -1.7676891852223905e-31
  outer loop
    vertex 6.500000000000001 -0.86602540378444 3.500000000000005
    vertex 6.258819045102522 -0.9659258262890698 13.500000000000009
    vertex 6.500000000000001 -0.86602540378444 13.500000000000009
  endloop
endfacet
facet normal -0.5 0.8660254037844386 -1.7676891852223905e-31
  outer loop
    vertex 6.500000000000001 -0.86602540378444 13.500000000000009
    vertex 6.707106781186548 -0.7071067811865491 3.500000000000005
    vertex 6.500000000000001 -0.86602540378444 3.500000000000005
  endloop
endfacet
facet normal -0.7071067811865475 0.7071067811865476 -2.928678279763863e-31
  outer loop
    vertex 6.707106781186548 -0.7071067811865491 3.500000000000005
    vertex 6.500000000000001 -0.86602540378444 13.500000000000009
    vertex 6.707106781186548 -0.7071067811865491 13.500000000000009
  endloop
endfacet
facet normal -0.8660254037844394 0.4999999999999986 -3.8900827894091294e-31
  outer loop
    vertex 6.866025403784439 -0.5000000000000013 13.500000000000009
    vertex 6.707106781186548 -0.7071067811865491 3.500000000000005
    vertex 6.707106781186548 -0.7071067811865491 13.500000000000009
  endloop
endfacet
facet normal -0.7071067811865475 0.7071067811865476 -2.928678279763863e-31
  outer loop
    vertex 6.707106781186548 -0.7071067811865491 3.500000000000005
    vertex 6.866025403784439 -0.5000000000000013 13.500000000000009
    vertex 6.866025403784439 -0.5000000000000013 3.500000000000005
  endloop
endfacet
facet normal -0.9659258262890688 0.2588190451025193 -4.586384585621924e-31
  outer loop
    vertex 6.965925826289068 -0.25881904510252235 13.500000000000009
    vertex 6.866025403784439 -0.5000000000000013 3.500000000000005
    vertex 6.866025403784439 -0.5000000000000013 13.500000000000009
  endloop
endfacet
facet normal -0.8660254037844394 0.4999999999999986 -3.8900827894091294e-31
  outer loop
    vertex 6.866025403784439 -0.5000000000000013 3.500000000000005
    vertex 6.965925826289068 -0.25881904510252235 13.500000000000009
    vertex 6.965925826289068 -0.25881904510252235 3.500000000000005
  endloop
endfacet
facet normal -1.0 5.346665937388143e-17 -4.970131851683475e-31
  outer loop
    vertex 7.0 -1.7012467116350682e-15 13.500000000000009
    vertex 6.965925826289068 -0.25881904510252235 3.500000000000005
    vertex 6.965925826289068 -0.25881904510252235 13.500000000000009
  endloop
endfacet
facet normal -0.9659258262890688 0.2588190451025193 -4.586384585621924e-31
  outer loop
    vertex 6.965925826289068 -0.25881904510252235 3.500000000000005
    vertex 7.0 -1.7012467116350682e-15 13.500000000000009
    vertex 7.0 -1.7012467116350678e-15 3.500000000000005
  endloop
endfacet
facet normal -0.9659258262890688 -0.25881904510251924 -5.015172845584035e-31
  outer loop
    vertex 6.965925826289068 0.25881904510251913 13.500000000000009
    vertex 7.0 -1.7012467116350678e-15 3.500000000000005
    vertex 7.0 -1.7012467116350682e-15 13.500000000000009
  endloop
endfacet
facet normal -1.0 5.346665937388143e-17 -4.970131851683475e-31
  outer loop
    vertex 7.0 -1.7012467116350678e-15 3.500000000000005
    vertex 6.965925826289068 0.25881904510251913 13.500000000000009
    vertex 6.965925826289068 0.25881904510251913 3.500000000000005
  endloop
endfacet
facet normal -0.8660254037844393 -0.4999999999999989 -4.71843809802304e-31
  outer loop
    vertex 6.866025403784439 0.4999999999999982 13.500000000000009
    vertex 6.965925826289068 0.25881904510251913 3.500000000000005
    vertex 6.965925826289068 0.25881904510251913 13.500000000000009
  endloop
endfacet
facet normal -0.9659258262890688 -0.25881904510251924 -5.015172845584035e-31
  outer loop
    vertex 6.965925826289068 0.25881904510251913 3.500000000000005
    vertex 6.866025403784439 0.4999999999999982 13.500000000000009
    vertex 6.866025403784439 0.4999999999999982 3.500000000000005
  endloop
endfacet
facet normal -0.7071067811865475 -0.7071067811865477 -4.100149591669409e-31
  outer loop
    vertex 6.707106781186548 0.7071067811865457 13.500000000000009
    vertex 6.866025403784439 0.4999999999999982 3.500000000000005
    vertex 6.866025403784439 0.4999999999999982 13.500000000000009
  endloop
endfacet
facet normal -0.8660254037844393 -0.4999999999999989 -4.71843809802304e-31
  outer loop
    vertex 6.866025403784439 0.4999999999999982 3.500000000000005
    vertex 6.707106781186548 0.7071067811865457 13.500000000000009
    vertex 6.707106781186548 0.7071067811865457 3.500000000000005
  endloop
endfacet
facet normal -0.7071067811865475 -0.7071067811865477 -4.100149591669409e-31
  outer loop
    vertex 6.707106781186548 0.7071067811865457 13.500000000000009
    vertex 6.500000000000001 0.8660254037844367 3.500000000000005
    vertex 6.707106781186548 0.7071067811865457 3.500000000000005
  endloop
endfacet
facet normal -0.4999999999999995 -0.8660254037844389 -3.202442666461082e-31
  outer loop
    vertex 6.500000000000001 0.8660254037844367 3.500000000000005
    vertex 6.707106781186548 0.7071067811865457 13.500000000000009
    vertex 6.500000000000001 0.8660254037844367 13.500000000000009
  endloop
endfacet
facet normal -0.4999999999999995 -0.8660254037844389 -3.202442666461082e-31
  outer loop
    vertex 6.500000000000001 0.8660254037844367 13.500000000000009
    vertex 6.258819045102521 0.9659258262890662 3.500000000000005
    vertex 6.500000000000001 0.8660254037844367 3.500000000000005
  endloop
endfacet
facet normal -0.25881904510252024 -0.9659258262890684 -2.086494565820168e-31
  outer loop
    vertex 6.258819045102521 0.9659258262890662 3.500000000000005
    vertex 6.500000000000001 0.8660254037844367 13.500000000000009
    vertex 6.258819045102521 0.9659258262890662 13.500000000000009
  endloop
endfacet
facet normal 0.0 0.0 1.0
  outer loop
    vertex -6.982486157559407 -0.18633558491107727 3.5000000000000075
    vertex -6.944025763768544 0.3298717286176781 3.5000000000000075
    vertex -6.997235951713446 0.07429977530368088 3.5000000000000075
  endloop
endfacet
facet normal 0.0 0.0 1.0
  outer loop
    vertex -6.944025763768544 0.3298717286176781 3.5000000000000075
    vertex -6.982486157559407 -0.18633558491107727 3.5000000000000075
    vertex -6.900781555402838 -0.4342724829482596 3.5000000000000075
  endloop
endfacet
facet normal 0.0 0.0 1.0
  outer loop
    vertex -6.944025763768544 0.3298717286176781 3.5000000000000075
    vertex -6.900781555402838 -0.4342724829482596 3.5000000000000075
    vertex -6.826481780099154 0.5629634687651862 3.5000000000000075
  endloop
endfacet
facet normal 0.0 0.0 1.0
  outer loop
    vertex -6.826481780099154 0.5629634687651862 3.5000000000000075
    vertex -6.900781555402838 -0.4342724829482596 3.5000000000000075
    vertex -6.757690178857469 -0.6526144289417287 3.5000000000000075
  endloop
endfacet
facet normal 0.0 0.0 1.0
  outer loop
    vertex -6.826481780099154 0.5629634687651862 3.5000000000000075
    vertex -6.757690178857469 -0.6526144289417287 3.5000000000000075
    vertex -6.652614428941727 0.757690178857467 3.5000000000000075
  endloop
endfacet
facet normal 0.0 0.0 1.0
  outer loop
    vertex -6.652614428941727 0.757690178857467 3.5000000000000075
    vertex -6.757690178857469 -0.6526144289417287 3.5000000000000075
    vertex -6.562963468765188 -0.8264817800991562 3.5000000000000075
  endloop
endfacet
facet normal 0.0 0.0 1.0
  outer loop
    vertex -6.652614428941727 0.757690178857467 3.5000000000000075
    vertex -6.562963468765188 -0.8264817800991562 3.5000000000000075
    vertex -6.434272482948257 0.9007815554028357 3.5000000000000075
  endloop
endfacet
facet normal 0.0 0.0 1.0
  outer loop
    vertex -6.434272482948257 0.9007815554028357 3.5000000000000075
    vertex -6.562963468765188 -0.8264817800991562 3.5000000000000075
    vertex -6.329871728617681 -0.9440257637685461 3.5000000000000075
  endloop
endfacet
facet normal 0.0 0.0 1.0
  outer loop
    vertex -6.434272482948257 0.9007815554028357 3.5000000000000075
    vertex -6.329871728617681 -0.9440257637685461 3.5000000000000075
    vertex -6.186335584911076 0.9824861575594047 3.5000000000000075
  endloop
endfacet
facet normal 0.0 0.0 1.0
  outer loop
    vertex -6.186335584911076 0.9824861575594047 3.5000000000000075
    vertex -6.329871728617681 -0.9440257637685461 3.5000000000000075
    vertex -6.074299775303683 -0.9972359517134476 3.5000000000000075
  endloop
endfacet
facet normal 0.0 0.0 1.0
  outer loop
    vertex -6.186335584911076 0.9824861575594047 3.5000000000000075
    vertex -6.074299775303683 -0.9972359517134476 3.5000000000000075
    vertex -5.925700224696318 0.997235951713444 3.5000000000000075
  endloop
endfacet
facet normal 0.0 0.0 1.0
  outer loop
    vertex -5.925700224696318 0.997235951713444 3.5000000000000075
    vertex -6.074299775303683 -0.9972359517134476 3.5000000000000075
    vertex -5.813664415088925 -0.9824861575594085 3.5000000000000075
  endloop
endfacet
facet normal 0.0 0.0 1.0
  outer loop
    vertex -5.925700224696318 0.997235951713444 3.5000000000000075
    vertex -5.813664415088925 -0.9824861575594085 3.5000000000000075
    vertex -5.67012827138232 0.9440257637685425 3.5000000000000075
  endloop
endfacet
facet normal 0.0 0.0 1.0
  outer loop
    vertex -5.67012827138232 0.9440257637685425 3.5000000000000075
    vertex -5.813664415088925 -0.9824861575594085 3.5000000000000075
    vertex -5.565727517051743 -0.9007815554028392 3.5000000000000075
  endloop
endfacet
facet normal 0.0 0.0 1.0
  outer loop
    vertex -5.67012827138232 0.9440257637685425 3.5000000000000075
    vertex -5.565727517051743 -0.9007815554028392 3.5000000000000075
    vertex -5.437036531234812 0.8264817800991523 3.5000000000000075
  endloop
endfacet
facet normal 0.0 0.0 1.0
  outer loop
    vertex -5.437036531234812 0.8264817800991523 3.5000000000000075
    vertex -5.565727517051743 -0.9007815554028392 3.5000000000000075
    vertex -5.347385571058274 -0.7576901788574708 3.5000000000000075
  endloop
endfacet
facet normal 0.0 0.0 1.0
  outer loop
    vertex -5.437036531234812 0.8264817800991523 3.5000000000000075
    vertex -5.347385571058274 -0.7576901788574708 3.5000000000000075
    vertex -5.242309821142531 0.6526144289417249 3.5000000000000075
  endloop
endfacet
facet normal 0.0 0.0 1.0
  outer loop
    vertex -5.242309821142531 0.6526144289417249 3.5000000000000075
    vertex -5.347385571058274 -0.7576901788574708 3.5000000000000075
    vertex -5.1735182199008465 -0.56296346876519 3.5000000000000075
  endloop
endfacet
facet normal 0.0 0.0 1.0
  outer loop
    vertex -5.242309821142531 0.6526144289417249 3.5000000000000075
    vertex -5.1735182199008465 -0.56296346876519 3.5000000000000075
    vertex -5.099218444597162 0.43427248294825566 3.5000000000000075
  endloop
endfacet
facet normal 0.0 0.0 1.0
  outer loop
    vertex -5.099218444597162 0.43427248294825566 3.5000000000000075
    vertex -5.1735182199008465 -0.56296346876519 3.5000000000000075
    vertex -5.055974236231456 -0.32987172861768177 3.5000000000000075
  endloop
endfacet
facet normal 0.0 0.0 1.0
  outer loop
    vertex -5.099218444597162 0.43427248294825566 3.5000000000000075
    vertex -5.055974236231456 -0.32987172861768177 3.5000000000000075
    vertex -5.017513842440594 0.1863355849110734 3.5000000000000075
  endloop
endfacet
facet normal 0.0 0.0 1.0
  outer loop
    vertex -5.017513842440594 0.1863355849110734 3.5000000000000075
    vertex -5.055974236231456 -0.32987172861768177 3.5000000000000075
    vertex -5.002764048286554 -0.07429977530368498 3.5000000000000075
  endloop
endfacet
facet normal -0.5629634687651885 -0.8264817800991543 0.0
  outer loop
    vertex -5.437036531234812 0.8264817800991523 13.5
    vertex -5.67012827138232 0.9440257637685425 3.5000000000000075
    vertex -5.437036531234812 0.8264817800991523 3.5000000000000075
  endloop
endfacet
facet normal -0.3298717286176797 -0.9440257637685446 0.0
  outer loop
    vertex -5.67012827138232 0.9440257637685425 3.5000000000000075
    vertex -5.437036531234812 0.8264817800991523 13.5
    vertex -5.67012827138232 0.9440257637685425 13.5
  endloop
endfacet
facet normal -0.3298717286176797 -0.9440257637685446 0.0
  outer loop
    vertex -5.67012827138232 0.9440257637685425 13.5
    vertex -5.925700224696318 0.997235951713444 3.5000000000000075
    vertex -5.67012827138232 0.9440257637685425 3.5000000000000075
  endloop
endfacet
facet normal -0.07429977530368255 -0.9972359517134459 0.0
  outer loop
    vertex -5.925700224696318 0.997235951713444 3.5000000000000075
    vertex -5.67012827138232 0.9440257637685425 13.5
    vertex -5.925700224696318 0.997235951713444 13.5
  endloop
endfacet
facet normal -0.07429977530368255 -0.9972359517134459 0.0
  outer loop
    vertex -5.925700224696318 0.997235951713444 13.5
    vertex -6.186335584911076 0.9824861575594047 3.5000000000000075
    vertex -5.925700224696318 0.997235951713444 3.5000000000000075
  endloop
endfacet
facet normal 0.18633558491107563 -0.9824861575594067 0.0
  outer loop
    vertex -6.186335584911076 0.9824861575594047 3.5000000000000075
    vertex -5.925700224696318 0.997235951713444 13.5
    vertex -6.186335584911076 0.9824861575594047 13.5
  endloop
endfacet
facet normal 0.18633558491107563 -0.9824861575594067 0.0
  outer loop
    vertex -6.186335584911076 0.9824861575594047 13.5
    vertex -6.434272482948257 0.9007815554028357 3.5000000000000075
    vertex -6.186335584911076 0.9824861575594047 3.5000000000000075
  endloop
endfacet
facet normal 0.4342724829482578 -0.9007815554028376 0.0
  outer loop
    vertex -6.434272482948257 0.9007815554028357 3.5000000000000075
    vertex -6.186335584911076 0.9824861575594047 13.5
    vertex -6.434272482948257 0.9007815554028357 13.5
  endloop
endfacet
facet normal 0.4342724829482578 -0.9007815554028376 0.0
  outer loop
    vertex -6.434272482948257 0.9007815554028357 13.5
    vertex -6.652614428941727 0.757690178857467 3.5000000000000075
    vertex -6.434272482948257 0.9007815554028357 3.5000000000000075
  endloop
endfacet
facet normal 0.6526144289417275 -0.7576901788574688 0.0
  outer loop
    vertex -6.652614428941727 0.757690178857467 3.5000000000000075
    vertex -6.434272482948257 0.9007815554028357 13.5
    vertex -6.652614428941727 0.757690178857467 13.5
  endloop
endfacet
facet normal 0.6526144289417275 -0.7576901788574688 0.0
  outer loop
    vertex -6.652614428941727 0.757690178857467 3.5000000000000075
    vertex -6.826481780099154 0.5629634687651862 13.5
    vertex -6.826481780099154 0.5629634687651862 3.5000000000000075
  endloop
endfacet
facet normal 0.8264817800991546 -0.5629634687651878 0.0
  outer loop
    vertex -6.826481780099154 0.5629634687651862 13.5
    vertex -6.652614428941727 0.757690178857467 3.5000000000000075
    vertex -6.652614428941727 0.757690178857467 13.5
  endloop
endfacet
facet normal 0.8264817800991546 -0.5629634687651878 0.0
  outer loop
    vertex -6.826481780099154 0.5629634687651862 3.5000000000000075
    vertex -6.944025763768544 0.3298717286176781 13.5
    vertex -6.944025763768544 0.3298717286176781 3.5000000000000075
  endloop
endfacet
facet normal 0.9440257637685446 -0.32987172861767927 0.0
  outer loop
    vertex -6.944025763768544 0.3298717286176781 13.5
    vertex -6.826481780099154 0.5629634687651862 3.5000000000000075
    vertex -6.826481780099154 0.5629634687651862 13.5
  endloop
endfacet
facet normal 0.9440257637685446 -0.32987172861767927 0.0
  outer loop
    vertex -6.944025763768544 0.3298717286176781 3.5000000000000075
    vertex -6.997235951713446 0.07429977530368088 13.5
    vertex -6.997235951713446 0.07429977530368088 3.5000000000000075
  endloop
endfacet
facet normal 0.9972359517134459 -0.07429977530368312 0.0
  outer loop
    vertex -6.997235951713446 0.07429977530368088 13.5
    vertex -6.944025763768544 0.3298717286176781 3.5000000000000075
    vertex -6.944025763768544 0.3298717286176781 13.5
  endloop
endfacet
facet normal 0.9972359517134459 -0.07429977530368312 0.0
  outer loop
    vertex -6.997235951713446 0.07429977530368088 3.5000000000000075
    vertex -6.982486157559407 -0.18633558491107727 13.5
    vertex -6.982486157559407 -0.18633558491107727 3.5000000000000075
  endloop
endfacet
facet normal 0.9824861575594072 0.18633558491107385 0.0
  outer loop
    vertex -6.982486157559407 -0.18633558491107727 13.5
    vertex -6.997235951713446 0.07429977530368088 3.5000000000000075
    vertex -6.997235951713446 0.07429977530368088 13.5
  endloop
endfacet
facet normal 0.9824861575594072 0.18633558491107385 0.0
  outer loop
    vertex -6.982486157559407 -0.18633558491107727 3.5000000000000075
    vertex -6.900781555402838 -0.4342724829482596 13.5
    vertex -6.900781555402838 -0.4342724829482596 3.5000000000000075
  endloop
endfacet
facet normal 0.9007815554028374 0.43427248294825793 0.0
  outer loop
    vertex -6.900781555402838 -0.4342724829482596 13.5
    vertex -6.982486157559407 -0.18633558491107727 3.5000000000000075
    vertex -6.982486157559407 -0.18633558491107727 13.5
  endloop
endfacet
facet normal 0.9007815554028374 0.43427248294825793 0.0
  outer loop
    vertex -6.900781555402838 -0.4342724829482596 3.5000000000000075
    vertex -6.757690178857469 -0.6526144289417287 13.5
    vertex -6.757690178857469 -0.6526144289417287 3.5000000000000075
  endloop
endfacet
facet normal 0.7576901788574685 0.6526144289417279 0.0
  outer loop
    vertex -6.757690178857469 -0.6526144289417287 13.5
    vertex -6.900781555402838 -0.4342724829482596 3.5000000000000075
    vertex -6.900781555402838 -0.4342724829482596 13.5
  endloop
endfacet
facet normal 0.7576901788574685 0.6526144289417279 0.0
  outer loop
    vertex -6.757690178857469 -0.6526144289417287 13.5
    vertex -6.562963468765188 -0.8264817800991562 3.5000000000000075
    vertex -6.757690178857469 -0.6526144289417287 3.5000000000000075
  endloop
endfacet
facet normal 0.5629634687651885 0.8264817800991543 0.0
  outer loop
    vertex -6.562963468765188 -0.8264817800991562 3.5000000000000075
    vertex -6.757690178857469 -0.6526144289417287 13.5
    vertex -6.562963468765188 -0.8264817800991562 13.5
  endloop
endfacet
facet normal 0.5629634687651885 0.8264817800991543 0.0
  outer loop
    vertex -6.562963468765188 -0.8264817800991562 13.5
    vertex -6.329871728617681 -0.9440257637685461 3.5000000000000075
    vertex -6.562963468765188 -0.8264817800991562 3.5000000000000075
  endloop
endfacet
facet normal 0.32987172861768 0.9440257637685444 0.0
  outer loop
    vertex -6.329871728617681 -0.9440257637685461 3.5000000000000075
    vertex -6.562963468765188 -0.8264817800991562 13.5
    vertex -6.329871728617681 -0.9440257637685461 13.5
  endloop
endfacet
facet normal 0.32987172861768 0.9440257637685444 0.0
  outer loop
    vertex -6.329871728617681 -0.9440257637685461 13.5
    vertex -6.074299775303683 -0.9972359517134476 3.5000000000000075
    vertex -6.329871728617681 -0.9440257637685461 3.5000000000000075
  endloop
endfacet
facet normal 0.07429977530368323 0.9972359517134458 0.0
  outer loop
    vertex -6.074299775303683 -0.9972359517134476 3.5000000000000075
    vertex -6.329871728617681 -0.9440257637685461 13.5
    vertex -6.074299775303683 -0.9972359517134476 13.5
  endloop
endfacet
facet normal 0.07429977530368323 0.9972359517134458 0.0
  outer loop
    vertex -6.074299775303683 -0.9972359517134476 13.5
    vertex -5.813664415088925 -0.9824861575594085 3.5000000000000075
    vertex -6.074299775303683 -0.9972359517134476 3.5000000000000075
  endloop
endfacet
facet normal -0.18633558491107552 0.9824861575594066 0.0
  outer loop
    vertex -5.813664415088925 -0.9824861575594085 3.5000000000000075
    vertex -6.074299775303683 -0.9972359517134476 13.5
    vertex -5.813664415088925 -0.9824861575594085 13.5
  endloop
endfacet
facet normal -0.18633558491107552 0.9824861575594066 0.0
  outer loop
    vertex -5.813664415088925 -0.9824861575594085 13.5
    vertex -5.565727517051743 -0.9007815554028392 3.5000000000000075
    vertex -5.813664415088925 -0.9824861575594085 3.5000000000000075
  endloop
endfacet
facet normal -0.43427248294825754 0.9007815554028376 0.0
  outer loop
    vertex -5.565727517051743 -0.9007815554028392 3.5000000000000075
    vertex -5.813664415088925 -0.9824861575594085 13.5
    vertex -5.565727517051743 -0.9007815554028392 13.5
  endloop
endfacet
facet normal -0.43427248294825754 0.9007815554028376 0.0
  outer loop
    vertex -5.565727517051743 -0.9007815554028392 13.5
    vertex -5.347385571058274 -0.7576901788574708 3.5000000000000075
    vertex -5.565727517051743 -0.9007815554028392 3.5000000000000075
  endloop
endfacet
facet normal -0.6526144289417272 0.7576901788574691 0.0
  outer loop
    vertex -5.347385571058274 -0.7576901788574708 3.5000000000000075
    vertex -5.565727517051743 -0.9007815554028392 13.5
    vertex -5.347385571058274 -0.7576901788574708 13.5
  endloop
endfacet
facet normal -0.8264817800991541 0.5629634687651888 0.0
  outer loop
    vertex -5.1735182199008465 -0.56296346876519 13.5
    vertex -5.347385571058274 -0.7576901788574708 3.5000000000000075
    vertex -5.347385571058274 -0.7576901788574708 13.5
  endloop
endfacet
facet normal -0.6526144289417272 0.7576901788574691 0.0
  outer loop
    vertex -5.347385571058274 -0.7576901788574708 3.5000000000000075
    vertex -5.1735182199008465 -0.56296346876519 13.5
    vertex -5.1735182199008465 -0.56296346876519 3.5000000000000075
  endloop
endfacet
facet normal -0.9440257637685442 0.3298717286176805 0.0
  outer loop
    vertex -5.055974236231456 -0.32987172861768177 13.5
    vertex -5.1735182199008465 -0.56296346876519 3.5000000000000075
    vertex -5.1735182199008465 -0.56296346876519 13.5
  endloop
endfacet
facet normal -0.8264817800991541 0.5629634687651888 0.0
  outer loop
    vertex -5.1735182199008465 -0.56296346876519 3.5000000000000075
    vertex -5.055974236231456 -0.32987172861768177 13.5
    vertex -5.055974236231456 -0.32987172861768177 3.5000000000000075
  endloop
endfacet
facet normal -0.997235951713446 0.074299775303682 0.0
  outer loop
    vertex -5.002764048286554 -0.07429977530368498 13.5
    vertex -5.055974236231456 -0.32987172861768177 3.5000000000000075
    vertex -5.055974236231456 -0.32987172861768177 13.5
  endloop
endfacet
facet normal -0.9440257637685442 0.3298717286176805 0.0
  outer loop
    vertex -5.055974236231456 -0.32987172861768177 3.5000000000000075
    vertex -5.002764048286554 -0.07429977530368498 13.5
    vertex -5.002764048286554 -0.07429977530368498 3.5000000000000075
  endloop
endfacet
facet normal -0.9824861575594067 -0.18633558491107519 0.0
  outer loop
    vertex -5.017513842440594 0.1863355849110734 13.5
    vertex -5.002764048286554 -0.07429977530368498 3.5000000000000075
    vertex -5.002764048286554 -0.07429977530368498 13.5
  endloop
endfacet
facet normal -0.997235951713446 0.074299775303682 0.0
  outer loop
    vertex -5.002764048286554 -0.07429977530368498 3.5000000000000075
    vertex -5.017513842440594 0.1863355849110734 13.5
    vertex -5.017513842440594 0.1863355849110734 3.5000000000000075
  endloop
endfacet
facet normal -0.9007815554028379 -0.4342724829482568 0.0
  outer loop
    vertex -5.099218444597162 0.43427248294825566 13.5
    vertex -5.017513842440594 0.1863355849110734 3.5000000000000075
    vertex -5.017513842440594 0.1863355849110734 13.5
  endloop
endfacet
facet normal -0.9824861575594067 -0.18633558491107519 0.0
  outer loop
    vertex -5.017513842440594 0.1863355849110734 3.5000000000000075
    vertex -5.099218444597162 0.43427248294825566 13.5
    vertex -5.099218444597162 0.43427248294825566 3.5000000000000075
  endloop
endfacet
facet normal -0.7576901788574691 -0.6526144289417269 0.0
  outer loop
    vertex -5.242309821142531 0.6526144289417249 13.5
    vertex -5.099218444597162 0.43427248294825566 3.5000000000000075
    vertex -5.099218444597162 0.43427248294825566 13.5
  endloop
endfacet
facet normal -0.9007815554028379 -0.4342724829482568 0.0
  outer loop
    vertex -5.099218444597162 0.43427248294825566 3.5000000000000075
    vertex -5.242309821142531 0.6526144289417249 13.5
    vertex -5.242309821142531 0.6526144289417249 3.5000000000000075
  endloop
endfacet
facet normal -0.7576901788574691 -0.6526144289417269 0.0
  outer loop
    vertex -5.242309821142531 0.6526144289417249 13.5
    vertex -5.437036531234812 0.8264817800991523 3.5000000000000075
    vertex -5.242309821142531 0.6526144289417249 3.5000000000000075
  endloop
endfacet
facet normal -0.5629634687651885 -0.8264817800991543 0.0
  outer loop
    vertex -5.437036531234812 0.8264817800991523 3.5000000000000075
    vertex -5.242309821142531 0.6526144289417249 13.5
    vertex -5.437036531234812 0.8264817800991523 13.5
  endloop
endfacet
endsolid servo shaft
