solid servo shaft
facet normal 0.0 0.0 -1.0
  outer loop
    vertex -3.1058285412302444 11.59110991546882 0.0
    vertex -1.9339353865477364 0.5181964250394375 0.0
    vertex -2.002157240145038 4.736662451154672e-16 0.0
  endloop
endfacet
facet normal 0.0 0.0 -1.0
  outer loop
    vertex -1.9339353865477364 0.5181964250394375 0.0
    vertex -3.1058285412302444 11.59110991546882 0.0
    vertex 1.469576158976824e-15 12.0 0.0
  endloop
endfacet
facet normal 0.0 0.0 -1.0
  outer loop
    vertex -1.9339353865477364 0.5181964250394375 0.0
    vertex 1.469576158976824e-15 12.0 0.0
    vertex -1.7339190323365434 1.0010786200725197 0.0
  endloop
endfacet
facet normal 0.0 0.0 -1.0
  outer loop
    vertex -1.7339190323365434 1.0010786200725197 0.0
    vertex 1.469576158976824e-15 12.0 0.0
    vertex -1.4157389615082994 1.4157389615082996 0.0
  endloop
endfacet
facet normal 0.0 0.0 -1.0
  outer loop
    vertex -1.4157389615082994 1.4157389615082996 0.0
    vertex 1.469576158976824e-15 12.0 0.0
    vertex -1.0010786200725217 1.733919032336542 0.0
  endloop
endfacet
facet normal 0.0 0.0 -1.0
  outer loop
    vertex -1.0010786200725217 1.733919032336542 0.0
    vertex 1.469576158976824e-15 12.0 0.0
    vertex -0.5181964250394364 1.9339353865477367 0.0
  endloop
endfacet
facet normal 0.0 0.0 -1.0
  outer loop
    vertex -0.5181964250394364 1.9339353865477367 0.0
    vertex 1.469576158976824e-15 12.0 0.0
    vertex 8.81239525796218e-17 2.002157240145038 0.0
  endloop
endfacet
facet normal 0.0 0.0 -1.0
  outer loop
    vertex 8.81239525796218e-17 2.002157240145038 0.0
    vertex 1.469576158976824e-15 12.0 0.0
    vertex 0.5181964250394385 1.9339353865477364 0.0
  endloop
endfacet
facet normal 0.0 0.0 -1.0
  outer loop
    vertex 0.5181964250394385 1.9339353865477364 0.0
    vertex 1.469576158976824e-15 12.0 0.0
    vertex 3.1058285412302524 11.591109915468818 0.0
  endloop
endfacet
facet normal 0.0 0.0 -1.0
  outer loop
    vertex 0.5181964250394385 1.9339353865477364 0.0
    vertex 3.1058285412302524 11.591109915468818 0.0
    vertex 0.8456708580912726 1.798291035047226 0.0
  endloop
endfacet
facet normal 0.0 0.0 -1.0
  outer loop
    vertex 0.8456708580912726 1.798291035047226 0.0
    vertex 3.1058285412302524 11.591109915468818 0.0
    vertex 3.105828541230249 -11.59110991546882 0.0
  endloop
endfacet
facet normal 0.0 0.0 -1.0
  outer loop
    vertex 3.105828541230249 -11.59110991546882 0.0
    vertex 3.1058285412302524 11.591109915468818 0.0
    vertex 6.0 -10.392304845413262 0.0
  endloop
endfacet
facet normal 0.0 0.0 -1.0
  outer loop
    vertex 6.0 -10.392304845413262 0.0
    vertex 3.1058285412302524 11.591109915468818 0.0
    vertex 6.000000000000004 10.392304845413262 0.0
  endloop
endfacet
facet normal 0.0 0.0 -1.0
  outer loop
    vertex 6.0 -10.392304845413262 0.0
    vertex 6.000000000000004 10.392304845413262 0.0
    vertex 8.48528137423857 -8.48528137423857 0.0
  endloop
endfacet
facet normal 0.0 0.0 -1.0
  outer loop
    vertex 8.48528137423857 -8.48528137423857 0.0
    vertex 6.000000000000004 10.392304845413262 0.0
    vertex 8.485281374238571 8.48528137423857 0.0
  endloop
endfacet
facet normal 0.0 0.0 -1.0
  outer loop
    vertex 8.48528137423857 -8.48528137423857 0.0
    vertex 8.485281374238571 8.48528137423857 0.0
    vertex 10.392304845413262 -6.000000000000001 0.0
  endloop
endfacet
facet normal 0.0 0.0 -1.0
  outer loop
    vertex 10.392304845413262 -6.000000000000001 0.0
    vertex 8.485281374238571 8.48528137423857 0.0
    vertex 10.392304845413266 5.9999999999999964 0.0
  endloop
endfacet
facet normal 0.0 0.0 -1.0
  outer loop
    vertex 10.392304845413262 -6.000000000000001 0.0
    vertex 10.392304845413266 5.9999999999999964 0.0
    vertex 11.59110991546882 -3.1058285412302515 0.0
  endloop
endfacet
facet normal 0.0 0.0 -1.0
  outer loop
    vertex 11.59110991546882 -3.1058285412302515 0.0
    vertex 10.392304845413266 5.9999999999999964 0.0
    vertex 11.59110991546882 3.1058285412302475 0.0
  endloop
endfacet
facet normal 0.0 0.0 -1.0
  outer loop
    vertex 11.59110991546882 -3.1058285412302515 0.0
    vertex 11.59110991546882 3.1058285412302475 0.0
    vertex 12.0 -7.347880794884119e-16 0.0
  endloop
endfacet
facet normal 0.0 0.0 -1.0
  outer loop
    vertex -11.591109915468818 3.1058285412302573 0.0
    vertex -11.59110991546882 -3.105828541230243 0.0
    vertex -12.0 2.2043642384652354e-15 0.0
  endloop
endfacet
facet normal 0.0 0.0 -1.0
  outer loop
    vertex -11.59110991546882 -3.105828541230243 0.0
    vertex -11.591109915468818 3.1058285412302573 0.0
    vertex -10.39230484541327 -5.999999999999991 0.0
  endloop
endfacet
facet normal 0.0 0.0 -1.0
  outer loop
    vertex -10.39230484541327 -5.999999999999991 0.0
    vertex -11.591109915468818 3.1058285412302573 0.0
    vertex -10.392304845413262 6.000000000000005 0.0
  endloop
endfacet
facet normal 0.0 0.0 -1.0
  outer loop
    vertex -10.39230484541327 -5.999999999999991 0.0
    vertex -10.392304845413262 6.000000000000005 0.0
    vertex -8.485281374238573 -8.48528137423857 0.0
  endloop
endfacet
facet normal 0.0 0.0 -1.0
  outer loop
    vertex -8.485281374238573 -8.48528137423857 0.0
    vertex -10.392304845413262 6.000000000000005 0.0
    vertex -8.485281374238566 8.485281374238575 0.0
  endloop
endfacet
facet normal 0.0 0.0 -1.0
  outer loop
    vertex -8.485281374238573 -8.48528137423857 0.0
    vertex -8.485281374238566 8.485281374238575 0.0
    vertex -6.000000000000006 -10.39230484541326 0.0
  endloop
endfacet
facet normal 0.0 0.0 -1.0
  outer loop
    vertex -6.000000000000006 -10.39230484541326 0.0
    vertex -8.485281374238566 8.485281374238575 0.0
    vertex -5.999999999999997 10.392304845413264 0.0
  endloop
endfacet
facet normal 0.0 0.0 -1.0
  outer loop
    vertex -6.000000000000006 -10.39230484541326 0.0
    vertex -5.999999999999997 10.392304845413264 0.0
    vertex -3.105828541230258 -11.591109915468817 0.0
  endloop
endfacet
facet normal 0.0 0.0 -1.0
  outer loop
    vertex -3.105828541230258 -11.591109915468817 0.0
    vertex -5.999999999999997 10.392304845413264 0.0
    vertex -3.1058285412302444 11.59110991546882 0.0
  endloop
endfacet
facet normal 0.0 0.0 -1.0
  outer loop
    vertex -3.105828541230258 -11.591109915468817 0.0
    vertex -3.1058285412302444 11.59110991546882 0.0
    vertex -2.002157240145038 4.736662451154672e-16 0.0
  endloop
endfacet
facet normal 0.0 0.0 -1.0
  outer loop
    vertex -3.105828541230258 -11.591109915468817 0.0
    vertex -2.002157240145038 4.736662451154672e-16 0.0
    vertex -1.9339353865477364 -0.5181964250394375 0.0
  endloop
endfacet
facet normal 0.0 0.0 -1.0
  outer loop
    vertex -3.105828541230258 -11.591109915468817 0.0
    vertex -1.9339353865477364 -0.5181964250394375 0.0
    vertex 0.0 -12.0 0.0
  endloop
endfacet
facet normal 0.0 0.0 -1.0
  outer loop
    vertex 0.0 -12.0 0.0
    vertex -1.9339353865477364 -0.5181964250394375 0.0
    vertex -1.7339190323365428 -1.0010786200725206 0.0
  endloop
endfacet
facet normal 0.0 0.0 -1.0
  outer loop
    vertex 0.0 -12.0 0.0
    vertex -1.7339190323365428 -1.0010786200725206 0.0
    vertex -1.4157389615083 -1.4157389615082983 0.0
  endloop
endfacet
facet normal 0.0 0.0 -1.0
  outer loop
    vertex 0.0 -12.0 0.0
    vertex -1.4157389615083 -1.4157389615082983 0.0
    vertex -1.0010786200725186 -1.733919032336544 0.0
  endloop
endfacet
facet normal 0.0 0.0 -1.0
  outer loop
    vertex 0.0 -12.0 0.0
    vertex -1.0010786200725186 -1.733919032336544 0.0
    vertex -0.5181964250394397 -1.933935386547736 0.0
  endloop
endfacet
facet normal 0.0 0.0 -1.0
  outer loop
    vertex 0.0 -12.0 0.0
    vertex -0.5181964250394397 -1.933935386547736 0.0
    vertex -2.4234086959395993e-16 -2.002157240145038 0.0
  endloop
endfacet
facet normal 0.0 0.0 -1.0
  outer loop
    vertex 0.0 -12.0 0.0
    vertex -2.4234086959395993e-16 -2.002157240145038 0.0
    vertex 0.518196425039435 -1.9339353865477373 0.0
  endloop
endfacet
facet normal 0.0 0.0 -1.0
  outer loop
    vertex 0.0 -12.0 0.0
    vertex 0.518196425039435 -1.9339353865477373 0.0
    vertex 3.105828541230249 -11.59110991546882 0.0
  endloop
endfacet
facet normal 0.0 0.0 -1.0
  outer loop
    vertex 3.105828541230249 -11.59110991546882 0.0
    vertex 0.518196425039435 -1.9339353865477373 0.0
    vertex 0.8456708580912722 -1.7982910350472265 0.0
  endloop
endfacet
facet normal 0.0 0.0 -1.0
  outer loop
    vertex 3.105828541230249 -11.59110991546882 0.0
    vertex 0.8456708580912722 -1.7982910350472265 0.0
    vertex 0.8456708580912726 1.798291035047226 0.0
  endloop
endfacet
facet normal 0.7071067811865475 -0.7071067811865477 0.0
  outer loop
    vertex 8.485281374238571 -8.48528137423857 13.5
    vertex 6.0 -10.392304845413262 0.0
    vertex 8.48528137423857 -8.48528137423857 0.0
  endloop
endfacet
facet normal 0.5000000000000006 -0.8660254037844384 2.1405181737128454e-16
  outer loop
    vertex 6.0 -10.392304845413262 0.0
    vertex 8.485281374238571 -8.48528137423857 13.5
    vertex 5.999999999999987 -10.392304845413262 3.500000000000006
  endloop
endfacet
facet normal 0.53748749930761 -0.8432717166418258 1.4256400130619906e-16
  outer loop
    vertex 5.999999999999987 -10.392304845413262 3.500000000000006
    vertex 8.485281374238571 -8.48528137423857 13.5
    vertex 6.000000000000001 -10.392304845413262 13.5
  endloop
endfacet
facet normal 0.53748749930761 -0.8432717166418258 1.4256400130619906e-16
  outer loop
    vertex 5.999999999999987 -10.392304845413262 3.500000000000006
    vertex 3.105828541230249 -11.59110991546882 0.0
    vertex 6.0 -10.392304845413262 0.0
  endloop
endfacet
facet normal 0.2588190451025212 -0.9659258262890682 2.14051817371285e-16
  outer loop
    vertex 3.105828541230249 -11.59110991546882 0.0
    vertex 5.999999999999987 -10.392304845413262 3.500000000000006
    vertex 4.999999999999998 -10.80651840778636 3.5000000000000004
  endloop
endfacet
facet normal 0.2588190451025212 -0.9659258262890682 2.14051817371285e-16
  outer loop
    vertex 3.105828541230249 -11.59110991546882 0.0
    vertex 4.999999999999998 -10.80651840778636 3.5000000000000004
    vertex 3.105828541230249 -11.59110991546882 3.5
  endloop
endfacet
facet normal 0.25881904510252113 -0.9659258262890682 2.1405181737128503e-16
  outer loop
    vertex 3.105828541230249 -11.59110991546882 3.5
    vertex 0.0 -12.0 0.0
    vertex 3.105828541230249 -11.59110991546882 0.0
  endloop
endfacet
facet normal -2.405999671824664e-16 -1.0 0.0
  outer loop
    vertex 0.0 -12.0 0.0
    vertex 3.105828541230249 -11.59110991546882 3.5
    vertex 0.0 -12.0 3.5
  endloop
endfacet
facet normal -2.405999671824664e-16 -1.0 0.0
  outer loop
    vertex 0.0 -12.0 3.5
    vertex -3.105828541230258 -11.591109915468817 0.0
    vertex 0.0 -12.0 0.0
  endloop
endfacet
facet normal -0.2588190451025212 -0.9659258262890682 -9.192409334963162e-18
  outer loop
    vertex -3.105828541230258 -11.591109915468817 0.0
    vertex 0.0 -12.0 3.5
    vertex -3.105828541230258 -11.591109915468817 3.5
  endloop
endfacet
facet normal -0.25881904510252124 -0.9659258262890682 -9.192409334963163e-18
  outer loop
    vertex -3.105828541230258 -11.591109915468817 3.5
    vertex -6.000000000000006 -10.39230484541326 0.0
    vertex -3.105828541230258 -11.591109915468817 0.0
  endloop
endfacet
facet normal -0.5000000000000004 -0.8660254037844385 -9.192409334963163e-18
  outer loop
    vertex -6.000000000000006 -10.39230484541326 0.0
    vertex -3.105828541230258 -11.591109915468817 3.5
    vertex -4.999999999999999 -10.80651840778636 3.499999999999999
  endloop
endfacet
facet normal -0.5374874993076101 -0.8432717166418258 -6.1223804241926e-18
  outer loop
    vertex -6.000000000000005 -10.39230484541326 3.500000000000002
    vertex -6.000000000000006 -10.39230484541326 0.0
    vertex -4.999999999999999 -10.80651840778636 3.499999999999999
  endloop
endfacet
facet normal -0.5374874993076101 -0.8432717166418258 -6.1223804241926e-18
  outer loop
    vertex -6.000000000000005 -10.39230484541326 3.500000000000002
    vertex -8.485281374238573 -8.48528137423857 0.0
    vertex -6.000000000000006 -10.39230484541326 0.0
  endloop
endfacet
facet normal -0.7071067811865478 -0.7071067811865471 0.0
  outer loop
    vertex -8.485281374238573 -8.48528137423857 0.0
    vertex -6.000000000000005 -10.39230484541326 3.500000000000002
    vertex -8.485281374238573 -8.48528137423857 13.499999999999993
  endloop
endfacet
facet normal -0.7071067811865478 -0.7071067811865471 0.0
  outer loop
    vertex -8.485281374238573 -8.48528137423857 13.499999999999993
    vertex -6.000000000000005 -10.39230484541326 3.500000000000002
    vertex -6.000000000000005 -10.39230484541326 13.499999999999993
  endloop
endfacet
facet normal -0.8660254037844392 -0.49999999999999933 0.0
  outer loop
    vertex -10.39230484541327 -5.999999999999991 13.499999999999993
    vertex -8.485281374238573 -8.48528137423857 0.0
    vertex -8.485281374238573 -8.48528137423857 13.499999999999993
  endloop
endfacet
facet normal -0.7071067811865478 -0.7071067811865471 0.0
  outer loop
    vertex -8.485281374238573 -8.48528137423857 0.0
    vertex -10.39230484541327 -5.999999999999991 13.499999999999993
    vertex -10.39230484541327 -5.999999999999991 0.0
  endloop
endfacet
facet normal -0.9659258262890684 -0.2588190451025204 0.0
  outer loop
    vertex -11.59110991546882 -3.105828541230243 13.499999999999993
    vertex -10.39230484541327 -5.999999999999991 0.0
    vertex -10.39230484541327 -5.999999999999991 13.499999999999993
  endloop
endfacet
facet normal -0.8660254037844392 -0.49999999999999933 0.0
  outer loop
    vertex -10.39230484541327 -5.999999999999991 0.0
    vertex -11.59110991546882 -3.105828541230243 13.499999999999993
    vertex -11.59110991546882 -3.105828541230243 0.0
  endloop
endfacet
facet normal -1.0 2.4059996718246644e-16 0.0
  outer loop
    vertex -12.0 2.2043642384652354e-15 13.499999999999993
    vertex -11.59110991546882 -3.105828541230243 0.0
    vertex -11.59110991546882 -3.105828541230243 13.499999999999993
  endloop
endfacet
facet normal -0.9659258262890684 -0.2588190451025204 0.0
  outer loop
    vertex -11.59110991546882 -3.105828541230243 0.0
    vertex -12.0 2.2043642384652354e-15 13.499999999999993
    vertex -12.0 2.2043642384652354e-15 0.0
  endloop
endfacet
facet normal -0.9659258262890682 0.2588190451025212 0.0
  outer loop
    vertex -11.591109915468818 3.1058285412302573 13.499999999999993
    vertex -12.0 2.2043642384652354e-15 0.0
    vertex -12.0 2.2043642384652354e-15 13.499999999999993
  endloop
endfacet
facet normal -1.0 2.4059996718246644e-16 0.0
  outer loop
    vertex -12.0 2.2043642384652354e-15 0.0
    vertex -11.591109915468818 3.1058285412302573 13.499999999999993
    vertex -11.591109915468818 3.1058285412302573 0.0
  endloop
endfacet
facet normal -0.8660254037844383 0.5000000000000006 0.0
  outer loop
    vertex -10.392304845413262 6.000000000000005 13.499999999999993
    vertex -11.591109915468818 3.1058285412302573 0.0
    vertex -11.591109915468818 3.1058285412302573 13.499999999999993
  endloop
endfacet
facet normal -0.9659258262890682 0.2588190451025212 0.0
  outer loop
    vertex -11.591109915468818 3.1058285412302573 0.0
    vertex -10.392304845413262 6.000000000000005 13.499999999999993
    vertex -10.392304845413262 6.000000000000005 0.0
  endloop
endfacet
facet normal -0.7071067811865471 0.707106781186548 0.0
  outer loop
    vertex -8.485281374238566 8.485281374238575 13.499999999999993
    vertex -10.392304845413262 6.000000000000005 0.0
    vertex -10.392304845413262 6.000000000000005 13.499999999999993
  endloop
endfacet
facet normal -0.8660254037844383 0.5000000000000006 0.0
  outer loop
    vertex -10.392304845413262 6.000000000000005 0.0
    vertex -8.485281374238566 8.485281374238575 13.499999999999993
    vertex -8.485281374238566 8.485281374238575 0.0
  endloop
endfacet
facet normal -0.7071067811865471 0.707106781186548 0.0
  outer loop
    vertex -8.485281374238566 8.485281374238575 13.499999999999993
    vertex -5.999999999999997 10.392304845413264 0.0
    vertex -8.485281374238566 8.485281374238575 0.0
  endloop
endfacet
facet normal -0.49999999999999956 0.8660254037844389 2.7577228004889366e-17
  outer loop
    vertex -5.999999999999997 10.392304845413264 0.0
    vertex -8.485281374238566 8.485281374238575 13.499999999999993
    vertex -5.9999999999999964 10.392304845413264 3.500000000000002
  endloop
endfacet
facet normal -0.5374874993076094 0.8432717166418262 1.8367141272577717e-17
  outer loop
    vertex -5.9999999999999964 10.392304845413264 3.500000000000002
    vertex -8.485281374238566 8.485281374238575 13.499999999999993
    vertex -5.9999999999999964 10.392304845413264 13.499999999999993
  endloop
endfacet
facet normal -0.5374874993076094 0.8432717166418262 1.8367141272577717e-17
  outer loop
    vertex -5.9999999999999964 10.392304845413264 3.500000000000002
    vertex -3.1058285412302444 11.59110991546882 0.0
    vertex -5.999999999999997 10.392304845413264 0.0
  endloop
endfacet
facet normal -0.25881904510252046 0.9659258262890684 2.757722800488937e-17
  outer loop
    vertex -3.1058285412302444 11.59110991546882 0.0
    vertex -5.9999999999999964 10.392304845413264 3.500000000000002
    vertex -4.999999999999999 10.806518407786358 3.499999999999999
  endloop
endfacet
facet normal -0.25881904510252046 0.9659258262890683 2.757722800488936e-17
  outer loop
    vertex -3.1058285412302444 11.59110991546882 3.5
    vertex -3.1058285412302444 11.59110991546882 0.0
    vertex -4.999999999999999 10.806518407786358 3.499999999999999
  endloop
endfacet
facet normal -0.25881904510252046 0.9659258262890683 2.757722800488936e-17
  outer loop
    vertex -3.1058285412302444 11.59110991546882 3.5
    vertex 1.469576158976824e-15 12.0 0.0
    vertex -3.1058285412302444 11.59110991546882 0.0
  endloop
endfacet
facet normal 1.0693331874776287e-16 1.0 0.0
  outer loop
    vertex 1.469576158976824e-15 12.0 0.0
    vertex -3.1058285412302444 11.59110991546882 3.5
    vertex 1.469576158976824e-15 12.0 3.5
  endloop
endfacet
facet normal 1.0693331874776287e-16 1.0 0.0
  outer loop
    vertex 1.469576158976824e-15 12.0 3.5
    vertex 3.1058285412302524 11.591109915468818 0.0
    vertex 1.469576158976824e-15 12.0 0.0
  endloop
endfacet
facet normal 0.25881904510252113 0.9659258262890682 2.3374983737477724e-16
  outer loop
    vertex 3.1058285412302524 11.591109915468818 0.0
    vertex 1.469576158976824e-15 12.0 3.5
    vertex 3.1058285412302524 11.591109915468818 3.5
  endloop
endfacet
facet normal 0.2588190451025212 0.9659258262890682 2.3374983737477734e-16
  outer loop
    vertex 3.1058285412302524 11.591109915468818 3.5
    vertex 6.000000000000004 10.392304845413262 0.0
    vertex 3.1058285412302524 11.591109915468818 0.0
  endloop
endfacet
facet normal 0.5000000000000008 0.8660254037844383 2.3374983737477684e-16
  outer loop
    vertex 6.000000000000004 10.392304845413262 0.0
    vertex 3.1058285412302524 11.591109915468818 3.5
    vertex 4.999999999999998 10.80651840778636 3.500000000000002
  endloop
endfacet
facet normal 0.5000000000000008 0.8660254037844383 2.3374983737477684e-16
  outer loop
    vertex 6.000000000000004 10.392304845413262 0.0
    vertex 4.999999999999998 10.80651840778636 3.500000000000002
    vertex 5.999999999999992 10.392304845413262 3.500000000000006
  endloop
endfacet
facet normal 0.5374874990740232 0.8432717167907103 1.5568338842365165e-16
  outer loop
    vertex 5.999999999999992 10.392304845413262 3.500000000000006
    vertex 8.485281374238571 8.48528137423857 0.0
    vertex 6.000000000000004 10.392304845413262 0.0
  endloop
endfacet
facet normal 0.7071067811865477 0.7071067811865472 0.0
  outer loop
    vertex 8.485281374238571 8.48528137423857 0.0
    vertex 5.999999999999992 10.392304845413262 3.500000000000006
    vertex 8.485281374238573 8.48528137423857 13.5
  endloop
endfacet
facet normal 0.7071067811865477 0.7071067811865472 0.0
  outer loop
    vertex 8.485281374238573 8.48528137423857 13.5
    vertex 5.999999999999992 10.392304845413262 3.500000000000006
    vertex 6.000000000000006 10.392304845413262 13.5
  endloop
endfacet
facet normal 0.7071067811865477 0.7071067811865472 0.0
  outer loop
    vertex 8.485281374238571 8.48528137423857 0.0
    vertex 10.392304845413268 5.9999999999999964 13.5
    vertex 10.392304845413266 5.9999999999999964 0.0
  endloop
endfacet
facet normal 0.8660254037844387 0.4999999999999999 0.0
  outer loop
    vertex 10.392304845413268 5.9999999999999964 13.5
    vertex 8.485281374238571 8.48528137423857 0.0
    vertex 8.485281374238573 8.48528137423857 13.5
  endloop
endfacet
facet normal 0.9659258262890682 0.25881904510252063 0.0
  outer loop
    vertex 11.59110991546882 3.1058285412302475 0.0
    vertex 10.392304845413268 5.9999999999999964 13.5
    vertex 11.591109915468822 3.105828541230247 13.5
  endloop
endfacet
facet normal 0.8660254037844387 0.4999999999999999 0.0
  outer loop
    vertex 10.392304845413268 5.9999999999999964 13.5
    vertex 11.59110991546882 3.1058285412302475 0.0
    vertex 10.392304845413266 5.9999999999999964 0.0
  endloop
endfacet
facet normal 1.0 -1.6931108801729119e-16 0.0
  outer loop
    vertex 12.0 -7.347880794884119e-16 0.0
    vertex 11.591109915468822 3.105828541230247 13.5
    vertex 12.000000000000002 -9.572735926182363e-16 13.5
  endloop
endfacet
facet normal 0.9659258262890682 0.25881904510252063 0.0
  outer loop
    vertex 11.591109915468822 3.105828541230247 13.5
    vertex 12.0 -7.347880794884119e-16 0.0
    vertex 11.59110991546882 3.1058285412302475 0.0
  endloop
endfacet
facet normal 0.9659258262890682 -0.2588190451025209 0.0
  outer loop
    vertex 11.59110991546882 -3.1058285412302515 0.0
    vertex 12.000000000000002 -9.572735926182363e-16 13.5
    vertex 11.59110991546882 -3.1058285412302515 13.5
  endloop
endfacet
facet normal 1.0 -1.6931108801729119e-16 0.0
  outer loop
    vertex 12.000000000000002 -9.572735926182363e-16 13.5
    vertex 11.59110991546882 -3.1058285412302515 0.0
    vertex 12.0 -7.347880794884119e-16 0.0
  endloop
endfacet
facet normal 0.9659258262890682 -0.2588190451025209 0.0
  outer loop
    vertex 11.59110991546882 -3.1058285412302515 0.0
    vertex 10.392304845413264 -6.000000000000001 13.5
    vertex 10.392304845413262 -6.000000000000001 0.0
  endloop
endfacet
facet normal 0.8660254037844386 -0.5000000000000001 0.0
  outer loop
    vertex 10.392304845413264 -6.000000000000001 13.5
    vertex 11.59110991546882 -3.1058285412302515 0.0
    vertex 11.59110991546882 -3.1058285412302515 13.5
  endloop
endfacet
facet normal 0.8660254037844386 -0.5000000000000001 0.0
  outer loop
    vertex 10.392304845413262 -6.000000000000001 0.0
    vertex 8.485281374238571 -8.48528137423857 13.5
    vertex 8.48528137423857 -8.48528137423857 0.0
  endloop
endfacet
facet normal 0.7071067811865475 -0.7071067811865477 0.0
  outer loop
    vertex 8.485281374238571 -8.48528137423857 13.5
    vertex 10.392304845413262 -6.000000000000001 0.0
    vertex 10.392304845413264 -6.000000000000001 13.5
  endloop
endfacet
facet normal 0.7071067811865477 0.7071067811865475 0.0
  outer loop
    vertex -1.4157389615083 -1.4157389615082983 3.5
    vertex -1.0010786200725186 -1.733919032336544 0.0
    vertex -1.4157389615083 -1.4157389615082983 0.0
  endloop
endfacet
facet normal 0.5000000000000007 0.8660254037844383 0.0
  outer loop
    vertex -1.0010786200725186 -1.733919032336544 0.0
    vertex -1.4157389615083 -1.4157389615082983 3.5
    vertex -1.0010786200725186 -1.733919032336544 3.5
  endloop
endfacet
facet normal 0.5000000000000007 0.8660254037844383 0.0
  outer loop
    vertex -1.0010786200725186 -1.733919032336544 3.5
    vertex -0.5181964250394397 -1.933935386547736 0.0
    vertex -1.0010786200725186 -1.733919032336544 0.0
  endloop
endfacet
facet normal 0.25881904510252146 0.9659258262890681 0.0
  outer loop
    vertex -0.5181964250394397 -1.933935386547736 0.0
    vertex -1.0010786200725186 -1.733919032336544 3.5
    vertex -0.5181964250394397 -1.933935386547736 3.5
  endloop
endfacet
facet normal 0.25881904510252146 0.9659258262890681 0.0
  outer loop
    vertex -0.5181964250394397 -1.933935386547736 3.5
    vertex -2.4234086959395993e-16 -2.002157240145038 0.0
    vertex -0.5181964250394397 -1.933935386547736 0.0
  endloop
endfacet
facet normal 8.1091100050386845e-16 1.0 0.0
  outer loop
    vertex -2.4234086959395993e-16 -2.002157240145038 0.0
    vertex -0.5181964250394397 -1.933935386547736 3.5
    vertex -2.4234086959395993e-16 -2.002157240145038 3.5
  endloop
endfacet
facet normal 8.1091100050386845e-16 1.0 0.0
  outer loop
    vertex -2.4234086959395993e-16 -2.002157240145038 3.5
    vertex 0.518196425039435 -1.9339353865477373 0.0
    vertex -2.4234086959395993e-16 -2.002157240145038 0.0
  endloop
endfacet
facet normal -0.2588190451025199 0.9659258262890685 0.0
  outer loop
    vertex 0.518196425039435 -1.9339353865477373 0.0
    vertex -2.4234086959395993e-16 -2.002157240145038 3.5
    vertex 0.518196425039435 -1.9339353865477373 3.5
  endloop
endfacet
facet normal -0.2588190451025199 0.9659258262890685 0.0
  outer loop
    vertex 0.518196425039435 -1.9339353865477373 3.5
    vertex 0.8456708580912722 -1.7982910350472265 0.0
    vertex 0.518196425039435 -1.9339353865477373 0.0
  endloop
endfacet
facet normal -0.3826834323650893 0.923879532511287 0.0
  outer loop
    vertex 0.8456708580912722 -1.7982910350472265 0.0
    vertex 0.518196425039435 -1.9339353865477373 3.5
    vertex 0.8456708580912722 -1.7982910350472265 3.5
  endloop
endfacet
facet normal -1.0 9.800855463565996e-17 0.0
  outer loop
    vertex 0.8456708580912726 1.798291035047226 3.5
    vertex 0.8456708580912722 -1.7982910350472265 0.0
    vertex 0.8456708580912722 -1.7982910350472265 3.5
  endloop
endfacet
facet normal -1.0 9.800855463565996e-17 0.0
  outer loop
    vertex 0.8456708580912722 -1.7982910350472265 0.0
    vertex 0.8456708580912726 1.798291035047226 3.5
    vertex 0.8456708580912726 1.798291035047226 0.0
  endloop
endfacet
facet normal -0.3826834323650907 -0.9238795325112863 -0.0
  outer loop
    vertex 0.8456708580912726 1.798291035047226 3.5
    vertex 0.5181964250394385 1.9339353865477364 0.0
    vertex 0.8456708580912726 1.798291035047226 0.0
  endloop
endfacet
facet normal -0.25881904510252124 -0.9659258262890681 0.0
  outer loop
    vertex 0.5181964250394385 1.9339353865477364 0.0
    vertex 0.8456708580912726 1.798291035047226 3.5
    vertex 0.5181964250394385 1.9339353865477364 3.5
  endloop
endfacet
facet normal -0.25881904510252124 -0.9659258262890681 0.0
  outer loop
    vertex 0.5181964250394385 1.9339353865477364 3.5
    vertex 8.81239525796218e-17 2.002157240145038 0.0
    vertex 0.5181964250394385 1.9339353865477364 0.0
  endloop
endfacet
facet normal -9.802220885211596e-17 -1.0 0.0
  outer loop
    vertex 8.81239525796218e-17 2.002157240145038 0.0
    vertex 0.5181964250394385 1.9339353865477364 3.5
    vertex 8.81239525796218e-17 2.002157240145038 3.5
  endloop
endfacet
facet normal -9.802220885211596e-17 -1.0 0.0
  outer loop
    vertex 8.81239525796218e-17 2.002157240145038 3.5
    vertex -0.5181964250394364 1.9339353865477367 0.0
    vertex 8.81239525796218e-17 2.002157240145038 0.0
  endloop
endfacet
facet normal 0.25881904510252124 -0.9659258262890681 0.0
  outer loop
    vertex -0.5181964250394364 1.9339353865477367 0.0
    vertex 8.81239525796218e-17 2.002157240145038 3.5
    vertex -0.5181964250394364 1.9339353865477367 3.5
  endloop
endfacet
facet normal 0.25881904510252124 -0.9659258262890681 0.0
  outer loop
    vertex -0.5181964250394364 1.9339353865477367 3.5
    vertex -1.0010786200725217 1.733919032336542 0.0
    vertex -0.5181964250394364 1.9339353865477367 0.0
  endloop
endfacet
facet normal 0.5000000000000004 -0.8660254037844384 0.0
  outer loop
    vertex -1.0010786200725217 1.733919032336542 0.0
    vertex -0.5181964250394364 1.9339353865477367 3.5
    vertex -1.0010786200725217 1.733919032336542 3.5
  endloop
endfacet
facet normal 0.5000000000000004 -0.8660254037844384 0.0
  outer loop
    vertex -1.0010786200725217 1.733919032336542 3.5
    vertex -1.4157389615082994 1.4157389615082996 0.0
    vertex -1.0010786200725217 1.733919032336542 0.0
  endloop
endfacet
facet normal 0.7071067811865475 -0.7071067811865475 0.0
  outer loop
    vertex -1.4157389615082994 1.4157389615082996 0.0
    vertex -1.0010786200725217 1.733919032336542 3.5
    vertex -1.4157389615082994 1.4157389615082996 3.5
  endloop
endfacet
facet normal 0.7071067811865475 -0.7071067811865475 0.0
  outer loop
    vertex -1.4157389615082994 1.4157389615082996 0.0
    vertex -1.7339190323365434 1.0010786200725197 3.5
    vertex -1.7339190323365434 1.0010786200725197 0.0
  endloop
endfacet
facet normal 0.8660254037844386 -0.5 0.0
  outer loop
    vertex -1.7339190323365434 1.0010786200725197 3.5
    vertex -1.4157389615082994 1.4157389615082996 0.0
    vertex -1.4157389615082994 1.4157389615082996 3.5
  endloop
endfacet
facet normal 0.8660254037844386 -0.5 0.0
  outer loop
    vertex -1.7339190323365434 1.0010786200725197 0.0
    vertex -1.9339353865477364 0.5181964250394375 3.5
    vertex -1.9339353865477364 0.5181964250394375 0.0
  endloop
endfacet
facet normal 0.9659258262890682 -0.2588190451025211 0.0
  outer loop
    vertex -1.9339353865477364 0.5181964250394375 3.5
    vertex -1.7339190323365434 1.0010786200725197 0.0
    vertex -1.7339190323365434 1.0010786200725197 3.5
  endloop
endfacet
facet normal 0.9659258262890682 -0.2588190451025211 0.0
  outer loop
    vertex -1.9339353865477364 0.5181964250394375 0.0
    vertex -2.002157240145038 4.736662451154672e-16 3.5
    vertex -2.002157240145038 4.736662451154672e-16 0.0
  endloop
endfacet
facet normal 1.0 -1.1584442864340977e-16 0.0
  outer loop
    vertex -2.002157240145038 4.736662451154672e-16 3.5
    vertex -1.9339353865477364 0.5181964250394375 0.0
    vertex -1.9339353865477364 0.5181964250394375 3.5
  endloop
endfacet
facet normal 1.0 -1.1584442864340977e-16 0.0
  outer loop
    vertex -2.002157240145038 4.736662451154672e-16 0.0
    vertex -1.9339353865477364 -0.5181964250394375 3.5
    vertex -1.9339353865477364 -0.5181964250394375 0.0
  endloop
endfacet
facet normal 0.9659258262890681 0.25881904510252124 0.0
  outer loop
    vertex -1.9339353865477364 -0.5181964250394375 3.5
    vertex -2.002157240145038 4.736662451154672e-16 0.0
    vertex -2.002157240145038 4.736662451154672e-16 3.5
  endloop
endfacet
facet normal 0.9659258262890681 0.25881904510252124 0.0
  outer loop
    vertex -1.9339353865477364 -0.5181964250394375 0.0
    vertex -1.7339190323365428 -1.0010786200725206 3.5
    vertex -1.7339190323365428 -1.0010786200725206 0.0
  endloop
endfacet
facet normal 0.8660254037844384 0.5000000000000006 0.0
  outer loop
    vertex -1.7339190323365428 -1.0010786200725206 3.5
    vertex -1.9339353865477364 -0.5181964250394375 0.0
    vertex -1.9339353865477364 -0.5181964250394375 3.5
  endloop
endfacet
facet normal 0.8660254037844384 0.5000000000000006 0.0
  outer loop
    vertex -1.7339190323365428 -1.0010786200725206 0.0
    vertex -1.4157389615083 -1.4157389615082983 3.5
    vertex -1.4157389615083 -1.4157389615082983 0.0
  endloop
endfacet
facet normal 0.7071067811865477 0.7071067811865475 0.0
  outer loop
    vertex -1.4157389615083 -1.4157389615082983 3.5
    vertex -1.7339190323365428 -1.0010786200725206 0.0
    vertex -1.7339190323365428 -1.0010786200725206 3.5
  endloop
endfacet
facet normal -0.0 -0.0 1.0
  outer loop
    vertex 6.000000000000001 -10.392304845413262 13.5
    vertex 7.017365148708104 -0.18554985590551415 13.5
    vertex 6.000000000000006 10.392304845413262 13.5
  endloop
endfacet
facet normal -0.0 -0.0 1.0
  outer loop
    vertex 7.017365148708104 -0.18554985590551415 13.5
    vertex 6.000000000000001 -10.392304845413262 13.5
    vertex 8.485281374238571 -8.48528137423857 13.5
  endloop
endfacet
facet normal -0.0 -0.0 1.0
  outer loop
    vertex 6.000000000000006 10.392304845413262 13.5
    vertex 7.017365148708104 -0.18554985590551415 13.5
    vertex 7.002823782801064 0.07509721601247446 13.5
  endloop
endfacet
facet normal -0.0 -0.0 1.0
  outer loop
    vertex 7.017365148708104 -0.18554985590551415 13.5
    vertex 8.485281374238571 -8.48528137423857 13.5
    vertex 7.098871455849815 -0.43355201177917657 13.5
  endloop
endfacet
facet normal -0.0 -0.0 1.0
  outer loop
    vertex 7.098871455849815 -0.43355201177917657 13.5
    vertex 8.485281374238571 -8.48528137423857 13.5
    vertex 7.24178818409003 -0.6520083145286644 13.5
  endloop
endfacet
facet normal -0.0 -0.0 1.0
  outer loop
    vertex 7.24178818409003 -0.6520083145286644 13.5
    vertex 8.485281374238571 -8.48528137423857 13.5
    vertex 7.436375794580242 -0.8260313281377091 13.5
  endloop
endfacet
facet normal -0.0 -0.0 1.0
  outer loop
    vertex 7.436375794580242 -0.8260313281377091 13.5
    vertex 8.485281374238571 -8.48528137423857 13.5
    vertex 7.669373463236768 -0.9437616718154814 13.5
  endloop
endfacet
facet normal -0.0 -0.0 1.0
  outer loop
    vertex 7.669373463236768 -0.9437616718154814 13.5
    vertex 8.485281374238571 -8.48528137423857 13.5
    vertex 7.924902783987524 -0.9971762171989343 13.5
  endloop
endfacet
facet normal -0.0 -0.0 1.0
  outer loop
    vertex 7.924902783987524 -0.9971762171989343 13.5
    vertex 8.485281374238571 -8.48528137423857 13.5
    vertex 8.185549855905512 -0.9826348512918942 13.5
  endloop
endfacet
facet normal -0.0 -0.0 1.0
  outer loop
    vertex 8.185549855905512 -0.9826348512918942 13.5
    vertex 8.485281374238571 -8.48528137423857 13.5
    vertex 8.433552011779176 -0.9011285441501834 13.5
  endloop
endfacet
facet normal -0.0 -0.0 1.0
  outer loop
    vertex 8.433552011779176 -0.9011285441501834 13.5
    vertex 8.485281374238571 -8.48528137423857 13.5
    vertex 8.652008314528663 -0.7582118159099677 13.5
  endloop
endfacet
facet normal -0.0 -0.0 1.0
  outer loop
    vertex 8.652008314528663 -0.7582118159099677 13.5
    vertex 8.485281374238571 -8.48528137423857 13.5
    vertex 10.392304845413264 -6.000000000000001 13.5
  endloop
endfacet
facet normal -0.0 -0.0 1.0
  outer loop
    vertex 8.652008314528663 -0.7582118159099677 13.5
    vertex 10.392304845413264 -6.000000000000001 13.5
    vertex 8.826031328137706 -0.5636242054197576 13.5
  endloop
endfacet
facet normal -0.0 -0.0 1.0
  outer loop
    vertex 8.826031328137706 -0.5636242054197576 13.5
    vertex 10.392304845413264 -6.000000000000001 13.5
    vertex 8.943761671815478 -0.3306265367632302 13.5
  endloop
endfacet
facet normal -0.0 -0.0 1.0
  outer loop
    vertex 8.943761671815478 -0.3306265367632302 13.5
    vertex 10.392304845413264 -6.000000000000001 13.5
    vertex 8.997176217198932 -0.07509721601247459 13.5
  endloop
endfacet
facet normal -0.0 -0.0 1.0
  outer loop
    vertex 7.002823782801064 0.07509721601247446 13.5
    vertex 8.485281374238573 8.48528137423857 13.5
    vertex 6.000000000000006 10.392304845413262 13.5
  endloop
endfacet
facet normal -0.0 -0.0 1.0
  outer loop
    vertex 8.485281374238573 8.48528137423857 13.5
    vertex 7.002823782801064 0.07509721601247446 13.5
    vertex 7.056238328184517 0.33062653676322973 13.5
  endloop
endfacet
facet normal -0.0 -0.0 1.0
  outer loop
    vertex 8.485281374238573 8.48528137423857 13.5
    vertex 7.056238328184517 0.33062653676322973 13.5
    vertex 7.173968671862288 0.5636242054197573 13.5
  endloop
endfacet
facet normal -0.0 -0.0 1.0
  outer loop
    vertex 8.485281374238573 8.48528137423857 13.5
    vertex 7.173968671862288 0.5636242054197573 13.5
    vertex 7.347991685471333 0.7582118159099674 13.5
  endloop
endfacet
facet normal -0.0 -0.0 1.0
  outer loop
    vertex 8.485281374238573 8.48528137423857 13.5
    vertex 7.347991685471333 0.7582118159099674 13.5
    vertex 7.566447988220821 0.9011285441501834 13.5
  endloop
endfacet
facet normal -0.0 -0.0 1.0
  outer loop
    vertex 8.485281374238573 8.48528137423857 13.5
    vertex 7.566447988220821 0.9011285441501834 13.5
    vertex 7.814450144094484 0.9826348512918942 13.5
  endloop
endfacet
facet normal -0.0 -0.0 1.0
  outer loop
    vertex 8.485281374238573 8.48528137423857 13.5
    vertex 7.814450144094484 0.9826348512918942 13.5
    vertex 8.075097216012471 0.9971762171989343 13.5
  endloop
endfacet
facet normal -0.0 -0.0 1.0
  outer loop
    vertex 8.485281374238573 8.48528137423857 13.5
    vertex 8.075097216012471 0.9971762171989343 13.5
    vertex 8.330626536763228 0.9437616718154817 13.5
  endloop
endfacet
facet normal -0.0 -0.0 1.0
  outer loop
    vertex 8.485281374238573 8.48528137423857 13.5
    vertex 8.330626536763228 0.9437616718154817 13.5
    vertex 8.563624205419755 0.8260313281377091 13.5
  endloop
endfacet
facet normal -0.0 -0.0 1.0
  outer loop
    vertex 8.485281374238573 8.48528137423857 13.5
    vertex 8.563624205419755 0.8260313281377091 13.5
    vertex 10.392304845413268 5.9999999999999964 13.5
  endloop
endfacet
facet normal -0.0 -0.0 1.0
  outer loop
    vertex 10.392304845413268 5.9999999999999964 13.5
    vertex 8.563624205419755 0.8260313281377091 13.5
    vertex 8.758211815909965 0.6520083145286647 13.5
  endloop
endfacet
facet normal -0.0 -0.0 1.0
  outer loop
    vertex 10.392304845413268 5.9999999999999964 13.5
    vertex 8.758211815909965 0.6520083145286647 13.5
    vertex 8.90112854415018 0.43355201177917646 13.5
  endloop
endfacet
facet normal -0.0 -0.0 1.0
  outer loop
    vertex 10.392304845413268 5.9999999999999964 13.5
    vertex 8.90112854415018 0.43355201177917646 13.5
    vertex 8.982634851291891 0.18554985590551368 13.5
  endloop
endfacet
facet normal -0.0 -0.0 1.0
  outer loop
    vertex 10.392304845413268 5.9999999999999964 13.5
    vertex 8.982634851291891 0.18554985590551368 13.5
    vertex 8.997176217198932 -0.07509721601247459 13.5
  endloop
endfacet
facet normal -0.0 -0.0 1.0
  outer loop
    vertex 10.392304845413268 5.9999999999999964 13.5
    vertex 8.997176217198932 -0.07509721601247459 13.5
    vertex 10.392304845413264 -6.000000000000001 13.5
  endloop
endfacet
facet normal -0.0 -0.0 1.0
  outer loop
    vertex 10.392304845413268 5.9999999999999964 13.5
    vertex 10.392304845413264 -6.000000000000001 13.5
    vertex 11.59110991546882 -3.1058285412302515 13.5
  endloop
endfacet
facet normal -0.0 -0.0 1.0
  outer loop
    vertex 10.392304845413268 5.9999999999999964 13.5
    vertex 11.59110991546882 -3.1058285412302515 13.5
    vertex 11.591109915468822 3.105828541230247 13.5
  endloop
endfacet
facet normal -0.0 -0.0 1.0
  outer loop
    vertex 11.591109915468822 3.105828541230247 13.5
    vertex 11.59110991546882 -3.1058285412302515 13.5
    vertex 12.000000000000002 -9.572735926182363e-16 13.5
  endloop
endfacet
facet normal -0.0 -0.0 1.0
  outer loop
    vertex -11.59110991546882 -3.105828541230243 13.499999999999993
    vertex -11.591109915468818 3.1058285412302573 13.499999999999993
    vertex -12.0 2.2043642384652354e-15 13.499999999999993
  endloop
endfacet
facet normal -0.0 -0.0 1.0
  outer loop
    vertex -11.591109915468818 3.1058285412302573 13.499999999999993
    vertex -11.59110991546882 -3.105828541230243 13.499999999999993
    vertex -10.39230484541327 -5.999999999999991 13.499999999999993
  endloop
endfacet
facet normal -0.0 -0.0 1.0
  outer loop
    vertex -11.591109915468818 3.1058285412302573 13.499999999999993
    vertex -10.39230484541327 -5.999999999999991 13.499999999999993
    vertex -10.392304845413262 6.000000000000005 13.499999999999993
  endloop
endfacet
facet normal -0.0 -0.0 1.0
  outer loop
    vertex -10.392304845413262 6.000000000000005 13.499999999999993
    vertex -10.39230484541327 -5.999999999999991 13.499999999999993
    vertex -8.485281374238573 -8.48528137423857 13.499999999999993
  endloop
endfacet
facet normal -0.0 -0.0 1.0
  outer loop
    vertex -10.392304845413262 6.000000000000005 13.499999999999993
    vertex -8.485281374238573 -8.48528137423857 13.499999999999993
    vertex -8.982671873918818 -0.18535368409847253 13.499999999999998
  endloop
endfacet
facet normal -0.0 -0.0 1.0
  outer loop
    vertex -10.392304845413262 6.000000000000005 13.499999999999993
    vertex -8.982671873918818 -0.18535368409847253 13.499999999999998
    vertex -8.997161205310663 0.07529628558823327 13.499999999999998
  endloop
endfacet
facet normal -0.0 -0.0 1.0
  outer loop
    vertex -8.982671873918818 -0.18535368409847253 13.499999999999998
    vertex -8.485281374238573 -8.48528137423857 13.499999999999993
    vertex -8.90121507826146 -0.4333721065253135 13.499999999999998
  endloop
endfacet
facet normal -0.0 -0.0 1.0
  outer loop
    vertex -8.90121507826146 -0.4333721065253135 13.499999999999998
    vertex -8.485281374238573 -8.48528137423857 13.499999999999993
    vertex -8.75834196434892 -0.6518569360737224 13.499999999999998
  endloop
endfacet
facet normal -0.0 -0.0 1.0
  outer loop
    vertex -8.75834196434892 -0.6518569360737224 13.499999999999998
    vertex -8.485281374238573 -8.48528137423857 13.499999999999993
    vertex -8.56378909878535 -0.8259187926732281 13.499999999999998
  endloop
endfacet
facet normal -0.0 -0.0 1.0
  outer loop
    vertex -8.56378909878535 -0.8259187926732281 13.499999999999998
    vertex -8.485281374238573 -8.48528137423857 13.499999999999993
    vertex -8.330814937845096 -0.9436956484473925 13.499999999999998
  endloop
endfacet
facet normal -0.0 -0.0 1.0
  outer loop
    vertex -8.330814937845096 -0.9436956484473925 13.499999999999998
    vertex -8.485281374238573 -8.48528137423857 13.499999999999993
    vertex -6.000000000000005 -10.39230484541326 13.499999999999993
  endloop
endfacet
facet normal -0.0 -0.0 1.0
  outer loop
    vertex -8.330814937845096 -0.9436956484473925 13.499999999999998
    vertex -6.000000000000005 -10.39230484541326 13.499999999999993
    vertex -8.075296285588232 -0.9971612053106635 13.499999999999998
  endloop
endfacet
facet normal -0.0 -0.0 1.0
  outer loop
    vertex -8.075296285588232 -0.9971612053106635 13.499999999999998
    vertex -6.000000000000005 -10.39230484541326 13.499999999999993
    vertex -7.814646315901527 -0.9826718739188193 13.499999999999998
  endloop
endfacet
facet normal -0.0 -0.0 1.0
  outer loop
    vertex -7.814646315901527 -0.9826718739188193 13.499999999999998
    vertex -6.000000000000005 -10.39230484541326 13.499999999999993
    vertex -7.566627893474687 -0.9012150782614619 13.499999999999998
  endloop
endfacet
facet normal -0.0 -0.0 1.0
  outer loop
    vertex -7.566627893474687 -0.9012150782614619 13.499999999999998
    vertex -6.000000000000005 -10.39230484541326 13.499999999999993
    vertex -7.348143063926276 -0.7583419643489204 13.499999999999998
  endloop
endfacet
facet normal -0.0 -0.0 1.0
  outer loop
    vertex -7.348143063926276 -0.7583419643489204 13.499999999999998
    vertex -6.000000000000005 -10.39230484541326 13.499999999999993
    vertex -7.174081207326771 -0.5637890987853503 13.499999999999998
  endloop
endfacet
facet normal -0.0 -0.0 1.0
  outer loop
    vertex -7.174081207326771 -0.5637890987853503 13.499999999999998
    vertex -6.000000000000005 -10.39230484541326 13.499999999999993
    vertex -7.0563043515526065 -0.3308149378450971 13.499999999999998
  endloop
endfacet
facet normal -0.0 -0.0 1.0
  outer loop
    vertex -7.0563043515526065 -0.3308149378450971 13.499999999999998
    vertex -6.000000000000005 -10.39230484541326 13.499999999999993
    vertex -7.002838794689335 -0.07529628558823376 13.499999999999998
  endloop
endfacet
facet normal -0.0 -0.0 1.0
  outer loop
    vertex -8.997161205310663 0.07529628558823327 13.499999999999998
    vertex -8.485281374238566 8.485281374238575 13.499999999999993
    vertex -10.392304845413262 6.000000000000005 13.499999999999993
  endloop
endfacet
facet normal -0.0 -0.0 1.0
  outer loop
    vertex -8.485281374238566 8.485281374238575 13.499999999999993
    vertex -8.997161205310663 0.07529628558823327 13.499999999999998
    vertex -8.943695648447394 0.33081493784509697 13.499999999999998
  endloop
endfacet
facet normal -0.0 -0.0 1.0
  outer loop
    vertex -8.485281374238566 8.485281374238575 13.499999999999993
    vertex -8.943695648447394 0.33081493784509697 13.499999999999998
    vertex -8.825918792673228 0.5637890987853502 13.499999999999998
  endloop
endfacet
facet normal -0.0 -0.0 1.0
  outer loop
    vertex -8.485281374238566 8.485281374238575 13.499999999999993
    vertex -8.825918792673228 0.5637890987853502 13.499999999999998
    vertex -8.651856936073722 0.75834196434892 13.499999999999998
  endloop
endfacet
facet normal -0.0 -0.0 1.0
  outer loop
    vertex -8.485281374238566 8.485281374238575 13.499999999999993
    vertex -8.651856936073722 0.75834196434892 13.499999999999998
    vertex -8.433372106525313 0.9012150782614619 13.499999999999998
  endloop
endfacet
facet normal -0.0 -0.0 1.0
  outer loop
    vertex -8.485281374238566 8.485281374238575 13.499999999999993
    vertex -8.433372106525313 0.9012150782614619 13.499999999999998
    vertex -5.9999999999999964 10.392304845413264 13.499999999999993
  endloop
endfacet
facet normal -0.0 -0.0 1.0
  outer loop
    vertex -5.9999999999999964 10.392304845413264 13.499999999999993
    vertex -8.433372106525313 0.9012150782614619 13.499999999999998
    vertex -8.185353684098471 0.9826718739188193 13.499999999999998
  endloop
endfacet
facet normal -0.0 -0.0 1.0
  outer loop
    vertex -5.9999999999999964 10.392304845413264 13.499999999999993
    vertex -8.185353684098471 0.9826718739188193 13.499999999999998
    vertex -7.924703714411766 0.9971612053106635 13.499999999999998
  endloop
endfacet
facet normal -0.0 -0.0 1.0
  outer loop
    vertex -5.9999999999999964 10.392304845413264 13.499999999999993
    vertex -7.924703714411766 0.9971612053106635 13.499999999999998
    vertex -7.669185062154902 0.9436956484473925 13.499999999999998
  endloop
endfacet
facet normal -0.0 -0.0 1.0
  outer loop
    vertex -5.9999999999999964 10.392304845413264 13.499999999999993
    vertex -7.669185062154902 0.9436956484473925 13.499999999999998
    vertex -7.436210901214649 0.8259187926732278 13.499999999999998
  endloop
endfacet
facet normal -0.0 -0.0 1.0
  outer loop
    vertex -5.9999999999999964 10.392304845413264 13.499999999999993
    vertex -7.436210901214649 0.8259187926732278 13.499999999999998
    vertex -7.241658035651079 0.6518569360737222 13.499999999999998
  endloop
endfacet
facet normal -0.0 -0.0 1.0
  outer loop
    vertex -5.9999999999999964 10.392304845413264 13.499999999999993
    vertex -7.241658035651079 0.6518569360737222 13.499999999999998
    vertex -7.098784921738538 0.43337210652531305 13.499999999999998
  endloop
endfacet
facet normal -0.0 -0.0 1.0
  outer loop
    vertex -5.9999999999999964 10.392304845413264 13.499999999999993
    vertex -7.098784921738538 0.43337210652531305 13.499999999999998
    vertex -7.01732812608118 0.1853536840984721 13.499999999999998
  endloop
endfacet
facet normal -0.0 -0.0 1.0
  outer loop
    vertex -5.9999999999999964 10.392304845413264 13.499999999999993
    vertex -7.01732812608118 0.1853536840984721 13.499999999999998
    vertex -7.002838794689335 -0.07529628558823376 13.499999999999998
  endloop
endfacet
facet normal -0.0 -0.0 1.0
  outer loop
    vertex -5.9999999999999964 10.392304845413264 13.499999999999993
    vertex -7.002838794689335 -0.07529628558823376 13.499999999999998
    vertex -6.000000000000005 -10.39230484541326 13.499999999999993
  endloop
endfacet
facet normal -2.5446936599984544e-16 -8.835412077170634e-18 1.0
  outer loop
    vertex -4.999999999999999 -10.80651840778636 3.499999999999999
    vertex -5.9999999999999964 10.392304845413264 3.500000000000002
    vertex -6.000000000000005 -10.39230484541326 3.500000000000002
  endloop
endfacet
facet normal -2.5446936599984544e-16 -8.835412077170634e-18 1.0
  outer loop
    vertex -5.9999999999999964 10.392304845413264 3.500000000000002
    vertex -4.999999999999999 -10.80651840778636 3.499999999999999
    vertex -4.999999999999999 10.806518407786358 3.499999999999999
  endloop
endfacet
facet normal -2.5446936599984544e-16 -8.835412077170634e-18 1.0
  outer loop
    vertex -4.999999999999999 10.806518407786358 3.499999999999999
    vertex -4.999999999999999 -10.80651840778636 3.499999999999999
    vertex -3.105828541230258 -11.591109915468817 3.5
  endloop
endfacet
facet normal -2.5446936599984544e-16 -8.835412077170634e-18 1.0
  outer loop
    vertex -4.999999999999999 10.806518407786358 3.499999999999999
    vertex -3.105828541230258 -11.591109915468817 3.5
    vertex -3.1058285412302444 11.59110991546882 3.5
  endloop
endfacet
facet normal -2.5446936599984544e-16 -8.835412077170634e-18 1.0
  outer loop
    vertex -3.1058285412302444 11.59110991546882 3.5
    vertex -3.105828541230258 -11.591109915468817 3.5
    vertex -2.002157240145038 4.736662451154672e-16 3.5
  endloop
endfacet
facet normal -2.5446936599984544e-16 -8.835412077170634e-18 1.0
  outer loop
    vertex -2.002157240145038 4.736662451154672e-16 3.5
    vertex -3.105828541230258 -11.591109915468817 3.5
    vertex -1.9339353865477364 -0.5181964250394375 3.5
  endloop
endfacet
facet normal -2.5446936599984544e-16 -8.835412077170634e-18 1.0
  outer loop
    vertex -1.9339353865477364 -0.5181964250394375 3.5
    vertex -3.105828541230258 -11.591109915468817 3.5
    vertex 0.0 -12.0 3.5
  endloop
endfacet
facet normal -2.5446936599984544e-16 -8.835412077170634e-18 1.0
  outer loop
    vertex -1.9339353865477364 -0.5181964250394375 3.5
    vertex 0.0 -12.0 3.5
    vertex -1.7339190323365428 -1.0010786200725206 3.5
  endloop
endfacet
facet normal -2.5446936599984544e-16 -8.835412077170634e-18 1.0
  outer loop
    vertex -1.7339190323365428 -1.0010786200725206 3.5
    vertex 0.0 -12.0 3.5
    vertex -1.4157389615083 -1.4157389615082983 3.5
  endloop
endfacet
facet normal -2.5446936599984544e-16 -8.835412077170634e-18 1.0
  outer loop
    vertex -1.4157389615083 -1.4157389615082983 3.5
    vertex 0.0 -12.0 3.5
    vertex -1.0010786200725186 -1.733919032336544 3.5
  endloop
endfacet
facet normal -2.5446936599984544e-16 -8.835412077170634e-18 1.0
  outer loop
    vertex -1.0010786200725186 -1.733919032336544 3.5
    vertex 0.0 -12.0 3.5
    vertex -0.5181964250394397 -1.933935386547736 3.5
  endloop
endfacet
facet normal -2.5446936599984544e-16 -8.835412077170634e-18 1.0
  outer loop
    vertex -0.5181964250394397 -1.933935386547736 3.5
    vertex 0.0 -12.0 3.5
    vertex -2.4234086959395993e-16 -2.002157240145038 3.5
  endloop
endfacet
facet normal -2.5446936599984544e-16 -8.835412077170634e-18 1.0
  outer loop
    vertex -2.4234086959395993e-16 -2.002157240145038 3.5
    vertex 0.0 -12.0 3.5
    vertex 0.518196425039435 -1.9339353865477373 3.5
  endloop
endfacet
facet normal -2.5446936599984544e-16 -8.835412077170634e-18 1.0
  outer loop
    vertex 0.518196425039435 -1.9339353865477373 3.5
    vertex 0.0 -12.0 3.5
    vertex 3.105828541230249 -11.59110991546882 3.5
  endloop
endfacet
facet normal -2.5446936599984544e-16 -8.835412077170634e-18 1.0
  outer loop
    vertex 0.518196425039435 -1.9339353865477373 3.5
    vertex 3.105828541230249 -11.59110991546882 3.5
    vertex 0.8456708580912722 -1.7982910350472265 3.5
  endloop
endfacet
facet normal -2.5446936599984544e-16 -8.835412077170634e-18 1.0
  outer loop
    vertex 0.8456708580912722 -1.7982910350472265 3.5
    vertex 3.105828541230249 -11.59110991546882 3.5
    vertex 0.8456708580912726 1.798291035047226 3.5
  endloop
endfacet
facet normal -2.5446936599984544e-16 -8.835412077170634e-18 1.0
  outer loop
    vertex -3.1058285412302444 11.59110991546882 3.5
    vertex -1.9339353865477364 0.5181964250394375 3.5
    vertex 1.469576158976824e-15 12.0 3.5
  endloop
endfacet
facet normal -2.5446936599984544e-16 -8.835412077170634e-18 1.0
  outer loop
    vertex -1.9339353865477364 0.5181964250394375 3.5
    vertex -3.1058285412302444 11.59110991546882 3.5
    vertex -2.002157240145038 4.736662451154672e-16 3.5
  endloop
endfacet
facet normal -2.5446936599984544e-16 -8.835412077170634e-18 1.0
  outer loop
    vertex 1.469576158976824e-15 12.0 3.5
    vertex -1.9339353865477364 0.5181964250394375 3.5
    vertex -1.7339190323365434 1.0010786200725197 3.5
  endloop
endfacet
facet normal -2.5446936599984544e-16 -8.835412077170634e-18 1.0
  outer loop
    vertex 1.469576158976824e-15 12.0 3.5
    vertex -1.7339190323365434 1.0010786200725197 3.5
    vertex -1.4157389615082994 1.4157389615082996 3.5
  endloop
endfacet
facet normal -2.5446936599984544e-16 -8.835412077170634e-18 1.0
  outer loop
    vertex 1.469576158976824e-15 12.0 3.5
    vertex -1.4157389615082994 1.4157389615082996 3.5
    vertex -1.0010786200725217 1.733919032336542 3.5
  endloop
endfacet
facet normal -2.5446936599984544e-16 -8.835412077170634e-18 1.0
  outer loop
    vertex 1.469576158976824e-15 12.0 3.5
    vertex -1.0010786200725217 1.733919032336542 3.5
    vertex -0.5181964250394364 1.9339353865477367 3.5
  endloop
endfacet
facet normal -2.5446936599984544e-16 -8.835412077170634e-18 1.0
  outer loop
    vertex 1.469576158976824e-15 12.0 3.5
    vertex -0.5181964250394364 1.9339353865477367 3.5
    vertex 8.81239525796218e-17 2.002157240145038 3.5
  endloop
endfacet
facet normal -2.5446936599984544e-16 -8.835412077170634e-18 1.0
  outer loop
    vertex 1.469576158976824e-15 12.0 3.5
    vertex 8.81239525796218e-17 2.002157240145038 3.5
    vertex 0.5181964250394385 1.9339353865477364 3.5
  endloop
endfacet
facet normal -2.5446936599984544e-16 -8.835412077170634e-18 1.0
  outer loop
    vertex 1.469576158976824e-15 12.0 3.5
    vertex 0.5181964250394385 1.9339353865477364 3.5
    vertex 3.1058285412302524 11.591109915468818 3.5
  endloop
endfacet
facet normal -2.5446936599984544e-16 -8.835412077170634e-18 1.0
  outer loop
    vertex 3.1058285412302524 11.591109915468818 3.5
    vertex 0.5181964250394385 1.9339353865477364 3.5
    vertex 0.8456708580912726 1.798291035047226 3.5
  endloop
endfacet
facet normal -2.5446936599984544e-16 -8.835412077170634e-18 1.0
  outer loop
    vertex 3.1058285412302524 11.591109915468818 3.5
    vertex 0.8456708580912726 1.798291035047226 3.5
    vertex 3.105828541230249 -11.59110991546882 3.5
  endloop
endfacet
facet normal -2.5446936599984544e-16 -8.835412077170634e-18 1.0
  outer loop
    vertex 3.1058285412302524 11.591109915468818 3.5
    vertex 3.105828541230249 -11.59110991546882 3.5
    vertex 4.999999999999998 -10.80651840778636 3.5000000000000004
  endloop
endfacet
facet normal -2.5446936599984544e-16 -8.835412077170634e-18 1.0
  outer loop
    vertex 3.1058285412302524 11.591109915468818 3.5
    vertex 4.999999999999998 -10.80651840778636 3.5000000000000004
    vertex 4.999999999999998 10.80651840778636 3.500000000000002
  endloop
endfacet
facet normal -2.5446936599984544e-16 -8.835412077170634e-18 1.0
  outer loop
    vertex 4.999999999999998 10.80651840778636 3.500000000000002
    vertex 4.999999999999998 -10.80651840778636 3.5000000000000004
    vertex 5.999999999999987 -10.392304845413262 3.500000000000006
  endloop
endfacet
facet normal -2.5446936599984544e-16 -8.835412077170634e-18 1.0
  outer loop
    vertex 4.999999999999998 10.80651840778636 3.500000000000002
    vertex 5.999999999999987 -10.392304845413262 3.500000000000006
    vertex 5.999999999999992 10.392304845413262 3.500000000000006
  endloop
endfacet
facet normal 1.0 -4.0702710195118775e-16 -0.0
  outer loop
    vertex -5.9999999999999964 10.392304845413264 3.500000000000002
    vertex -6.000000000000005 -10.39230484541326 13.499999999999993
    vertex -6.000000000000005 -10.39230484541326 3.500000000000002
  endloop
endfacet
facet normal 1.0 -4.0702710195118775e-16 -0.0
  outer loop
    vertex -6.000000000000005 -10.39230484541326 13.499999999999993
    vertex -5.9999999999999964 10.392304845413264 3.500000000000002
    vertex -5.9999999999999964 10.392304845413264 13.499999999999993
  endloop
endfacet
facet normal -1.0 2.3743247613819286e-16 1.4099832412739468e-15
  outer loop
    vertex 6.000000000000006 10.392304845413262 13.5
    vertex 5.999999999999987 -10.392304845413262 3.500000000000006
    vertex 6.000000000000001 -10.392304845413262 13.5
  endloop
endfacet
facet normal -1.0 2.3743247613819286e-16 1.4099832412739468e-15
  outer loop
    vertex 5.999999999999987 -10.392304845413262 3.500000000000006
    vertex 6.000000000000006 10.392304845413262 13.5
    vertex 5.999999999999992 10.392304845413262 3.500000000000006
  endloop
endfacet
facet normal 0.0 0.0 1.0
  outer loop
    vertex -8.982671873918818 -0.18535368409847253 3.5000000000000075
    vertex -8.943695648447394 0.33081493784509697 3.5000000000000075
    vertex -8.997161205310663 0.07529628558823327 3.5000000000000075
  endloop
endfacet
facet normal 0.0 0.0 1.0
  outer loop
    vertex -8.943695648447394 0.33081493784509697 3.5000000000000075
    vertex -8.982671873918818 -0.18535368409847253 3.5000000000000075
    vertex -8.90121507826146 -0.4333721065253135 3.5000000000000075
  endloop
endfacet
facet normal 0.0 0.0 1.0
  outer loop
    vertex -8.943695648447394 0.33081493784509697 3.5000000000000075
    vertex -8.90121507826146 -0.4333721065253135 3.5000000000000075
    vertex -8.825918792673228 0.5637890987853502 3.5000000000000075
  endloop
endfacet
facet normal 0.0 0.0 1.0
  outer loop
    vertex -8.825918792673228 0.5637890987853502 3.5000000000000075
    vertex -8.90121507826146 -0.4333721065253135 3.5000000000000075
    vertex -8.75834196434892 -0.6518569360737224 3.5000000000000075
  endloop
endfacet
facet normal 0.0 0.0 1.0
  outer loop
    vertex -8.825918792673228 0.5637890987853502 3.5000000000000075
    vertex -8.75834196434892 -0.6518569360737224 3.5000000000000075
    vertex -8.651856936073722 0.75834196434892 3.5000000000000075
  endloop
endfacet
facet normal 0.0 0.0 1.0
  outer loop
    vertex -8.651856936073722 0.75834196434892 3.5000000000000075
    vertex -8.75834196434892 -0.6518569360737224 3.5000000000000075
    vertex -8.56378909878535 -0.8259187926732281 3.5000000000000075
  endloop
endfacet
facet normal 0.0 0.0 1.0
  outer loop
    vertex -8.651856936073722 0.75834196434892 3.5000000000000075
    vertex -8.56378909878535 -0.8259187926732281 3.5000000000000075
    vertex -8.433372106525313 0.9012150782614619 3.5000000000000075
  endloop
endfacet
facet normal 0.0 0.0 1.0
  outer loop
    vertex -8.433372106525313 0.9012150782614619 3.5000000000000075
    vertex -8.56378909878535 -0.8259187926732281 3.5000000000000075
    vertex -8.330814937845096 -0.9436956484473925 3.5000000000000075
  endloop
endfacet
facet normal 0.0 0.0 1.0
  outer loop
    vertex -8.433372106525313 0.9012150782614619 3.5000000000000075
    vertex -8.330814937845096 -0.9436956484473925 3.5000000000000075
    vertex -8.185353684098471 0.9826718739188193 3.5000000000000075
  endloop
endfacet
facet normal 0.0 0.0 1.0
  outer loop
    vertex -8.185353684098471 0.9826718739188193 3.5000000000000075
    vertex -8.330814937845096 -0.9436956484473925 3.5000000000000075
    vertex -8.075296285588232 -0.9971612053106635 3.5000000000000075
  endloop
endfacet
facet normal 0.0 0.0 1.0
  outer loop
    vertex -8.185353684098471 0.9826718739188193 3.5000000000000075
    vertex -8.075296285588232 -0.9971612053106635 3.5000000000000075
    vertex -7.924703714411766 0.9971612053106635 3.5000000000000075
  endloop
endfacet
facet normal 0.0 0.0 1.0
  outer loop
    vertex -7.924703714411766 0.9971612053106635 3.5000000000000075
    vertex -8.075296285588232 -0.9971612053106635 3.5000000000000075
    vertex -7.814646315901527 -0.9826718739188193 3.5000000000000075
  endloop
endfacet
facet normal 0.0 0.0 1.0
  outer loop
    vertex -7.924703714411766 0.9971612053106635 3.5000000000000075
    vertex -7.814646315901527 -0.9826718739188193 3.5000000000000075
    vertex -7.669185062154902 0.9436956484473925 3.5000000000000075
  endloop
endfacet
facet normal 0.0 0.0 1.0
  outer loop
    vertex -7.669185062154902 0.9436956484473925 3.5000000000000075
    vertex -7.814646315901527 -0.9826718739188193 3.5000000000000075
    vertex -7.566627893474687 -0.9012150782614619 3.5000000000000075
  endloop
endfacet
facet normal 0.0 0.0 1.0
  outer loop
    vertex -7.669185062154902 0.9436956484473925 3.5000000000000075
    vertex -7.566627893474687 -0.9012150782614619 3.5000000000000075
    vertex -7.436210901214649 0.8259187926732278 3.5000000000000075
  endloop
endfacet
facet normal 0.0 0.0 1.0
  outer loop
    vertex -7.436210901214649 0.8259187926732278 3.5000000000000075
    vertex -7.566627893474687 -0.9012150782614619 3.5000000000000075
    vertex -7.348143063926276 -0.7583419643489204 3.5000000000000075
  endloop
endfacet
facet normal 0.0 0.0 1.0
  outer loop
    vertex -7.436210901214649 0.8259187926732278 3.5000000000000075
    vertex -7.348143063926276 -0.7583419643489204 3.5000000000000075
    vertex -7.241658035651079 0.6518569360737222 3.5000000000000075
  endloop
endfacet
facet normal 0.0 0.0 1.0
  outer loop
    vertex -7.241658035651079 0.6518569360737222 3.5000000000000075
    vertex -7.348143063926276 -0.7583419643489204 3.5000000000000075
    vertex -7.174081207326771 -0.5637890987853503 3.5000000000000075
  endloop
endfacet
facet normal 0.0 0.0 1.0
  outer loop
    vertex -7.241658035651079 0.6518569360737222 3.5000000000000075
    vertex -7.174081207326771 -0.5637890987853503 3.5000000000000075
    vertex -7.098784921738538 0.43337210652531305 3.5000000000000075
  endloop
endfacet
facet normal 0.0 0.0 1.0
  outer loop
    vertex -7.098784921738538 0.43337210652531305 3.5000000000000075
    vertex -7.174081207326771 -0.5637890987853503 3.5000000000000075
    vertex -7.0563043515526065 -0.3308149378450971 3.5000000000000075
  endloop
endfacet
facet normal 0.0 0.0 1.0
  outer loop
    vertex -7.098784921738538 0.43337210652531305 3.5000000000000075
    vertex -7.0563043515526065 -0.3308149378450971 3.5000000000000075
    vertex -7.01732812608118 0.1853536840984721 3.5000000000000075
  endloop
endfacet
facet normal 0.0 0.0 1.0
  outer loop
    vertex -7.01732812608118 0.1853536840984721 3.5000000000000075
    vertex -7.0563043515526065 -0.3308149378450971 3.5000000000000075
    vertex -7.002838794689335 -0.07529628558823376 3.5000000000000075
  endloop
endfacet
facet normal -0.33081493784509647 -0.9436956484473927 0.0
  outer loop
    vertex -7.669185062154902 0.9436956484473925 13.499999999999998
    vertex -7.924703714411766 0.9971612053106635 3.5000000000000075
    vertex -7.669185062154902 0.9436956484473925 3.5000000000000075
  endloop
endfacet
facet normal -0.07529628558823355 -0.9971612053106634 0.0
  outer loop
    vertex -7.924703714411766 0.9971612053106635 3.5000000000000075
    vertex -7.669185062154902 0.9436956484473925 13.499999999999998
    vertex -7.924703714411766 0.9971612053106635 13.499999999999998
  endloop
endfacet
facet normal -0.07529628558823355 -0.9971612053106634 0.0
  outer loop
    vertex -7.924703714411766 0.9971612053106635 13.499999999999998
    vertex -8.185353684098471 0.9826718739188193 3.5000000000000075
    vertex -7.924703714411766 0.9971612053106635 3.5000000000000075
  endloop
endfacet
facet normal 0.18535368409847178 -0.9826718739188193 0.0
  outer loop
    vertex -8.185353684098471 0.9826718739188193 3.5000000000000075
    vertex -7.924703714411766 0.9971612053106635 13.499999999999998
    vertex -8.185353684098471 0.9826718739188193 13.499999999999998
  endloop
endfacet
facet normal 0.18535368409847178 -0.9826718739188193 0.0
  outer loop
    vertex -8.185353684098471 0.9826718739188193 13.499999999999998
    vertex -8.433372106525313 0.9012150782614619 3.5000000000000075
    vertex -8.185353684098471 0.9826718739188193 3.5000000000000075
  endloop
endfacet
facet normal 0.4333721065253136 -0.9012150782614616 0.0
  outer loop
    vertex -8.433372106525313 0.9012150782614619 3.5000000000000075
    vertex -8.185353684098471 0.9826718739188193 13.499999999999998
    vertex -8.433372106525313 0.9012150782614619 13.499999999999998
  endloop
endfacet
facet normal 0.4333721065253136 -0.9012150782614616 0.0
  outer loop
    vertex -8.433372106525313 0.9012150782614619 13.499999999999998
    vertex -8.651856936073722 0.75834196434892 3.5000000000000075
    vertex -8.433372106525313 0.9012150782614619 3.5000000000000075
  endloop
endfacet
facet normal 0.6518569360737232 -0.7583419643489197 0.0
  outer loop
    vertex -8.651856936073722 0.75834196434892 3.5000000000000075
    vertex -8.433372106525313 0.9012150782614619 13.499999999999998
    vertex -8.651856936073722 0.75834196434892 13.499999999999998
  endloop
endfacet
facet normal 0.6518569360737232 -0.7583419643489197 0.0
  outer loop
    vertex -8.651856936073722 0.75834196434892 3.5000000000000075
    vertex -8.825918792673228 0.5637890987853502 13.499999999999998
    vertex -8.825918792673228 0.5637890987853502 3.5000000000000075
  endloop
endfacet
facet normal 0.8259187926732279 -0.5637890987853503 0.0
  outer loop
    vertex -8.825918792673228 0.5637890987853502 13.499999999999998
    vertex -8.651856936073722 0.75834196434892 3.5000000000000075
    vertex -8.651856936073722 0.75834196434892 13.499999999999998
  endloop
endfacet
facet normal 0.8259187926732279 -0.5637890987853503 0.0
  outer loop
    vertex -8.825918792673228 0.5637890987853502 3.5000000000000075
    vertex -8.943695648447394 0.33081493784509697 13.499999999999998
    vertex -8.943695648447394 0.33081493784509697 3.5000000000000075
  endloop
endfacet
facet normal 0.9436956484473926 -0.3308149378450966 0.0
  outer loop
    vertex -8.943695648447394 0.33081493784509697 13.499999999999998
    vertex -8.825918792673228 0.5637890987853502 3.5000000000000075
    vertex -8.825918792673228 0.5637890987853502 13.499999999999998
  endloop
endfacet
facet normal 0.9436956484473926 -0.3308149378450966 0.0
  outer loop
    vertex -8.943695648447394 0.33081493784509697 3.5000000000000075
    vertex -8.997161205310663 0.07529628558823327 13.499999999999998
    vertex -8.997161205310663 0.07529628558823327 3.5000000000000075
  endloop
endfacet
facet normal 0.9971612053106637 -0.0752962855882317 0.0
  outer loop
    vertex -8.997161205310663 0.07529628558823327 13.499999999999998
    vertex -8.943695648447394 0.33081493784509697 3.5000000000000075
    vertex -8.943695648447394 0.33081493784509697 13.499999999999998
  endloop
endfacet
facet normal 0.9971612053106637 -0.0752962855882317 0.0
  outer loop
    vertex -8.997161205310663 0.07529628558823327 3.5000000000000075
    vertex -8.982671873918818 -0.18535368409847253 13.499999999999998
    vertex -8.982671873918818 -0.18535368409847253 3.5000000000000075
  endloop
endfacet
facet normal 0.9826718739188192 0.1853536840984734 0.0
  outer loop
    vertex -8.982671873918818 -0.18535368409847253 13.499999999999998
    vertex -8.997161205310663 0.07529628558823327 3.5000000000000075
    vertex -8.997161205310663 0.07529628558823327 13.499999999999998
  endloop
endfacet
facet normal 0.9826718739188192 0.1853536840984734 0.0
  outer loop
    vertex -8.982671873918818 -0.18535368409847253 3.5000000000000075
    vertex -8.90121507826146 -0.4333721065253135 13.499999999999998
    vertex -8.90121507826146 -0.4333721065253135 3.5000000000000075
  endloop
endfacet
facet normal 0.901215078261462 0.43337210652531266 0.0
  outer loop
    vertex -8.90121507826146 -0.4333721065253135 13.499999999999998
    vertex -8.982671873918818 -0.18535368409847253 3.5000000000000075
    vertex -8.982671873918818 -0.18535368409847253 13.499999999999998
  endloop
endfacet
facet normal 0.901215078261462 0.43337210652531266 0.0
  outer loop
    vertex -8.90121507826146 -0.4333721065253135 3.5000000000000075
    vertex -8.75834196434892 -0.6518569360737224 13.499999999999998
    vertex -8.75834196434892 -0.6518569360737224 3.5000000000000075
  endloop
endfacet
facet normal 0.75834196434892 0.6518569360737226 0.0
  outer loop
    vertex -8.75834196434892 -0.6518569360737224 13.499999999999998
    vertex -8.90121507826146 -0.4333721065253135 3.5000000000000075
    vertex -8.90121507826146 -0.4333721065253135 13.499999999999998
  endloop
endfacet
facet normal 0.75834196434892 0.6518569360737226 0.0
  outer loop
    vertex -8.75834196434892 -0.6518569360737224 13.499999999999998
    vertex -8.56378909878535 -0.8259187926732281 3.5000000000000075
    vertex -8.75834196434892 -0.6518569360737224 3.5000000000000075
  endloop
endfacet
facet normal 0.5637890987853499 0.8259187926732283 0.0
  outer loop
    vertex -8.56378909878535 -0.8259187926732281 3.5000000000000075
    vertex -8.75834196434892 -0.6518569360737224 13.499999999999998
    vertex -8.56378909878535 -0.8259187926732281 13.499999999999998
  endloop
endfacet
facet normal 0.5637890987853499 0.8259187926732283 0.0
  outer loop
    vertex -8.56378909878535 -0.8259187926732281 13.499999999999998
    vertex -8.330814937845096 -0.9436956484473925 3.5000000000000075
    vertex -8.56378909878535 -0.8259187926732281 3.5000000000000075
  endloop
endfacet
facet normal 0.330814937845097 0.9436956484473924 0.0
  outer loop
    vertex -8.330814937845096 -0.9436956484473925 3.5000000000000075
    vertex -8.56378909878535 -0.8259187926732281 13.499999999999998
    vertex -8.330814937845096 -0.9436956484473925 13.499999999999998
  endloop
endfacet
facet normal 0.330814937845097 0.9436956484473924 0.0
  outer loop
    vertex -8.330814937845096 -0.9436956484473925 13.499999999999998
    vertex -8.075296285588232 -0.9971612053106635 3.5000000000000075
    vertex -8.330814937845096 -0.9436956484473925 3.5000000000000075
  endloop
endfacet
facet normal 0.07529628558823355 0.9971612053106634 0.0
  outer loop
    vertex -8.075296285588232 -0.9971612053106635 3.5000000000000075
    vertex -8.330814937845096 -0.9436956484473925 13.499999999999998
    vertex -8.075296285588232 -0.9971612053106635 13.499999999999998
  endloop
endfacet
facet normal 0.07529628558823355 0.9971612053106634 0.0
  outer loop
    vertex -8.075296285588232 -0.9971612053106635 13.499999999999998
    vertex -7.814646315901527 -0.9826718739188193 3.5000000000000075
    vertex -8.075296285588232 -0.9971612053106635 3.5000000000000075
  endloop
endfacet
facet normal -0.1853536840984726 0.9826718739188193 0.0
  outer loop
    vertex -7.814646315901527 -0.9826718739188193 3.5000000000000075
    vertex -8.075296285588232 -0.9971612053106635 13.499999999999998
    vertex -7.814646315901527 -0.9826718739188193 13.499999999999998
  endloop
endfacet
facet normal -0.1853536840984726 0.9826718739188193 0.0
  outer loop
    vertex -7.814646315901527 -0.9826718739188193 13.499999999999998
    vertex -7.566627893474687 -0.9012150782614619 3.5000000000000075
    vertex -7.814646315901527 -0.9826718739188193 3.5000000000000075
  endloop
endfacet
facet normal -0.4333721065253123 0.9012150782614622 0.0
  outer loop
    vertex -7.566627893474687 -0.9012150782614619 3.5000000000000075
    vertex -7.814646315901527 -0.9826718739188193 13.499999999999998
    vertex -7.566627893474687 -0.9012150782614619 13.499999999999998
  endloop
endfacet
facet normal -0.4333721065253123 0.9012150782614622 0.0
  outer loop
    vertex -7.566627893474687 -0.9012150782614619 13.499999999999998
    vertex -7.348143063926276 -0.7583419643489204 3.5000000000000075
    vertex -7.566627893474687 -0.9012150782614619 3.5000000000000075
  endloop
endfacet
facet normal -0.6518569360737215 0.7583419643489209 0.0
  outer loop
    vertex -7.348143063926276 -0.7583419643489204 3.5000000000000075
    vertex -7.566627893474687 -0.9012150782614619 13.499999999999998
    vertex -7.348143063926276 -0.7583419643489204 13.499999999999998
  endloop
endfacet
facet normal -0.8259187926732282 0.5637890987853501 0.0
  outer loop
    vertex -7.174081207326771 -0.5637890987853503 13.499999999999998
    vertex -7.348143063926276 -0.7583419643489204 3.5000000000000075
    vertex -7.348143063926276 -0.7583419643489204 13.499999999999998
  endloop
endfacet
facet normal -0.6518569360737215 0.7583419643489209 0.0
  outer loop
    vertex -7.348143063926276 -0.7583419643489204 3.5000000000000075
    vertex -7.174081207326771 -0.5637890987853503 13.499999999999998
    vertex -7.174081207326771 -0.5637890987853503 3.5000000000000075
  endloop
endfacet
facet normal -0.9436956484473926 0.3308149378450968 0.0
  outer loop
    vertex -7.0563043515526065 -0.3308149378450971 13.499999999999998
    vertex -7.174081207326771 -0.5637890987853503 3.5000000000000075
    vertex -7.174081207326771 -0.5637890987853503 13.499999999999998
  endloop
endfacet
facet normal -0.8259187926732282 0.5637890987853501 0.0
  outer loop
    vertex -7.174081207326771 -0.5637890987853503 3.5000000000000075
    vertex -7.0563043515526065 -0.3308149378450971 13.499999999999998
    vertex -7.0563043515526065 -0.3308149378450971 3.5000000000000075
  endloop
endfacet
facet normal -0.9971612053106637 0.07529628558823186 0.0
  outer loop
    vertex -7.002838794689335 -0.07529628558823376 13.499999999999998
    vertex -7.0563043515526065 -0.3308149378450971 3.5000000000000075
    vertex -7.0563043515526065 -0.3308149378450971 13.499999999999998
  endloop
endfacet
facet normal -0.9436956484473926 0.3308149378450968 0.0
  outer loop
    vertex -7.0563043515526065 -0.3308149378450971 3.5000000000000075
    vertex -7.002838794689335 -0.07529628558823376 13.499999999999998
    vertex -7.002838794689335 -0.07529628558823376 3.5000000000000075
  endloop
endfacet
facet normal -0.9826718739188192 -0.18535368409847344 0.0
  outer loop
    vertex -7.01732812608118 0.1853536840984721 13.499999999999998
    vertex -7.002838794689335 -0.07529628558823376 3.5000000000000075
    vertex -7.002838794689335 -0.07529628558823376 13.499999999999998
  endloop
endfacet
facet normal -0.9971612053106637 0.07529628558823186 0.0
  outer loop
    vertex -7.002838794689335 -0.07529628558823376 3.5000000000000075
    vertex -7.01732812608118 0.1853536840984721 13.499999999999998
    vertex -7.01732812608118 0.1853536840984721 3.5000000000000075
  endloop
endfacet
facet normal -0.901215078261462 -0.43337210652531244 0.0
  outer loop
    vertex -7.098784921738538 0.43337210652531305 13.499999999999998
    vertex -7.01732812608118 0.1853536840984721 3.5000000000000075
    vertex -7.01732812608118 0.1853536840984721 13.499999999999998
  endloop
endfacet
facet normal -0.9826718739188192 -0.18535368409847344 0.0
  outer loop
    vertex -7.01732812608118 0.1853536840984721 3.5000000000000075
    vertex -7.098784921738538 0.43337210652531305 13.499999999999998
    vertex -7.098784921738538 0.43337210652531305 3.5000000000000075
  endloop
endfacet
facet normal -0.7583419643489212 -0.6518569360737212 0.0
  outer loop
    vertex -7.241658035651079 0.6518569360737222 13.499999999999998
    vertex -7.098784921738538 0.43337210652531305 3.5000000000000075
    vertex -7.098784921738538 0.43337210652531305 13.499999999999998
  endloop
endfacet
facet normal -0.901215078261462 -0.43337210652531244 0.0
  outer loop
    vertex -7.098784921738538 0.43337210652531305 3.5000000000000075
    vertex -7.241658035651079 0.6518569360737222 13.499999999999998
    vertex -7.241658035651079 0.6518569360737222 3.5000000000000075
  endloop
endfacet
facet normal -0.7583419643489212 -0.6518569360737212 0.0
  outer loop
    vertex -7.241658035651079 0.6518569360737222 13.499999999999998
    vertex -7.436210901214649 0.8259187926732278 3.5000000000000075
    vertex -7.241658035651079 0.6518569360737222 3.5000000000000075
  endloop
endfacet
facet normal -0.5637890987853506 -0.8259187926732279 0.0
  outer loop
    vertex -7.436210901214649 0.8259187926732278 3.5000000000000075
    vertex -7.241658035651079 0.6518569360737222 13.499999999999998
    vertex -7.436210901214649 0.8259187926732278 13.499999999999998
  endloop
endfacet
facet normal -0.5637890987853506 -0.8259187926732279 0.0
  outer loop
    vertex -7.436210901214649 0.8259187926732278 13.499999999999998
    vertex -7.669185062154902 0.9436956484473925 3.5000000000000075
    vertex -7.436210901214649 0.8259187926732278 3.5000000000000075
  endloop
endfacet
facet normal -0.33081493784509647 -0.9436956484473927 0.0
  outer loop
    vertex -7.669185062154902 0.9436956484473925 3.5000000000000075
    vertex -7.436210901214649 0.8259187926732278 13.499999999999998
    vertex -7.669185062154902 0.9436956484473925 13.499999999999998
  endloop
endfacet
facet normal 0.0 0.0 1.0
  outer loop
    vertex 7.017365148708104 -0.18554985590551415 3.499999999999999
    vertex 7.056238328184517 0.33062653676322973 3.499999999999999
    vertex 7.002823782801064 0.07509721601247446 3.499999999999999
  endloop
endfacet
facet normal 0.0 0.0 1.0
  outer loop
    vertex 7.056238328184517 0.33062653676322973 3.499999999999999
    vertex 7.017365148708104 -0.18554985590551415 3.499999999999999
    vertex 7.098871455849815 -0.43355201177917657 3.499999999999999
  endloop
endfacet
facet normal 0.0 0.0 1.0
  outer loop
    vertex 7.056238328184517 0.33062653676322973 3.499999999999999
    vertex 7.098871455849815 -0.43355201177917657 3.499999999999999
    vertex 7.173968671862288 0.5636242054197573 3.499999999999999
  endloop
endfacet
facet normal 0.0 0.0 1.0
  outer loop
    vertex 7.173968671862288 0.5636242054197573 3.499999999999999
    vertex 7.098871455849815 -0.43355201177917657 3.499999999999999
    vertex 7.24178818409003 -0.6520083145286644 3.499999999999999
  endloop
endfacet
facet normal 0.0 0.0 1.0
  outer loop
    vertex 7.173968671862288 0.5636242054197573 3.499999999999999
    vertex 7.24178818409003 -0.6520083145286644 3.499999999999999
    vertex 7.347991685471333 0.7582118159099674 3.499999999999999
  endloop
endfacet
facet normal 0.0 0.0 1.0
  outer loop
    vertex 7.347991685471333 0.7582118159099674 3.499999999999999
    vertex 7.24178818409003 -0.6520083145286644 3.499999999999999
    vertex 7.436375794580242 -0.8260313281377091 3.499999999999999
  endloop
endfacet
facet normal 0.0 0.0 1.0
  outer loop
    vertex 7.347991685471333 0.7582118159099674 3.499999999999999
    vertex 7.436375794580242 -0.8260313281377091 3.499999999999999
    vertex 7.566447988220821 0.9011285441501834 3.499999999999999
  endloop
endfacet
facet normal 0.0 0.0 1.0
  outer loop
    vertex 7.566447988220821 0.9011285441501834 3.499999999999999
    vertex 7.436375794580242 -0.8260313281377091 3.499999999999999
    vertex 7.669373463236768 -0.9437616718154814 3.499999999999999
  endloop
endfacet
facet normal 0.0 0.0 1.0
  outer loop
    vertex 7.566447988220821 0.9011285441501834 3.499999999999999
    vertex 7.669373463236768 -0.9437616718154814 3.499999999999999
    vertex 7.814450144094484 0.9826348512918942 3.499999999999999
  endloop
endfacet
facet normal 0.0 0.0 1.0
  outer loop
    vertex 7.814450144094484 0.9826348512918942 3.499999999999999
    vertex 7.669373463236768 -0.9437616718154814 3.499999999999999
    vertex 7.924902783987524 -0.9971762171989343 3.499999999999999
  endloop
endfacet
facet normal 0.0 0.0 1.0
  outer loop
    vertex 7.814450144094484 0.9826348512918942 3.499999999999999
    vertex 7.924902783987524 -0.9971762171989343 3.499999999999999
    vertex 8.075097216012471 0.9971762171989343 3.499999999999999
  endloop
endfacet
facet normal 0.0 0.0 1.0
  outer loop
    vertex 8.075097216012471 0.9971762171989343 3.499999999999999
    vertex 7.924902783987524 -0.9971762171989343 3.499999999999999
    vertex 8.185549855905512 -0.9826348512918942 3.499999999999999
  endloop
endfacet
facet normal 0.0 0.0 1.0
  outer loop
    vertex 8.075097216012471 0.9971762171989343 3.499999999999999
    vertex 8.185549855905512 -0.9826348512918942 3.499999999999999
    vertex 8.330626536763228 0.9437616718154817 3.499999999999999
  endloop
endfacet
facet normal 0.0 0.0 1.0
  outer loop
    vertex 8.330626536763228 0.9437616718154817 3.499999999999999
    vertex 8.185549855905512 -0.9826348512918942 3.499999999999999
    vertex 8.433552011779176 -0.9011285441501834 3.499999999999999
  endloop
endfacet
facet normal 0.0 0.0 1.0
  outer loop
    vertex 8.330626536763228 0.9437616718154817 3.499999999999999
    vertex 8.433552011779176 -0.9011285441501834 3.499999999999999
    vertex 8.563624205419755 0.8260313281377091 3.499999999999999
  endloop
endfacet
facet normal 0.0 0.0 1.0
  outer loop
    vertex 8.563624205419755 0.8260313281377091 3.499999999999999
    vertex 8.433552011779176 -0.9011285441501834 3.499999999999999
    vertex 8.652008314528663 -0.7582118159099677 3.499999999999999
  endloop
endfacet
facet normal 0.0 0.0 1.0
  outer loop
    vertex 8.563624205419755 0.8260313281377091 3.499999999999999
    vertex 8.652008314528663 -0.7582118159099677 3.499999999999999
    vertex 8.758211815909965 0.6520083145286647 3.499999999999999
  endloop
endfacet
facet normal 0.0 0.0 1.0
  outer loop
    vertex 8.758211815909965 0.6520083145286647 3.499999999999999
    vertex 8.652008314528663 -0.7582118159099677 3.499999999999999
    vertex 8.826031328137706 -0.5636242054197576 3.499999999999999
  endloop
endfacet
facet normal 0.0 0.0 1.0
  outer loop
    vertex 8.758211815909965 0.6520083145286647 3.499999999999999
    vertex 8.826031328137706 -0.5636242054197576 3.499999999999999
    vertex 8.90112854415018 0.43355201177917646 3.499999999999999
  endloop
endfacet
facet normal 0.0 0.0 1.0
  outer loop
    vertex 8.90112854415018 0.43355201177917646 3.499999999999999
    vertex 8.826031328137706 -0.5636242054197576 3.499999999999999
    vertex 8.943761671815478 -0.3306265367632302 3.499999999999999
  endloop
endfacet
facet normal 0.0 0.0 1.0
  outer loop
    vertex 8.90112854415018 0.43355201177917646 3.499999999999999
    vertex 8.943761671815478 -0.3306265367632302 3.499999999999999
    vertex 8.982634851291891 0.18554985590551368 3.499999999999999
  endloop
endfacet
facet normal 0.0 0.0 1.0
  outer loop
    vertex 8.982634851291891 0.18554985590551368 3.499999999999999
    vertex 8.943761671815478 -0.3306265367632302 3.499999999999999
    vertex 8.997176217198932 -0.07509721601247459 3.499999999999999
  endloop
endfacet
facet normal 0.9011285441501836 0.43355201177917563 0.0
  outer loop
    vertex 7.098871455849815 -0.43355201177917657 3.499999999999999
    vertex 7.24178818409003 -0.6520083145286644 13.5
    vertex 7.24178818409003 -0.6520083145286644 3.499999999999999
  endloop
endfacet
facet normal 0.7582118159099672 0.6520083145286646 0.0
  outer loop
    vertex 7.24178818409003 -0.6520083145286644 13.5
    vertex 7.098871455849815 -0.43355201177917657 3.499999999999999
    vertex 7.098871455849815 -0.43355201177917657 13.5
  endloop
endfacet
facet normal 0.7582118159099672 0.6520083145286646 0.0
  outer loop
    vertex 7.24178818409003 -0.6520083145286644 13.5
    vertex 7.436375794580242 -0.8260313281377091 3.499999999999999
    vertex 7.24178818409003 -0.6520083145286644 3.499999999999999
  endloop
endfacet
facet normal 0.5636242054197561 0.8260313281377097 0.0
  outer loop
    vertex 7.436375794580242 -0.8260313281377091 3.499999999999999
    vertex 7.24178818409003 -0.6520083145286644 13.5
    vertex 7.436375794580242 -0.8260313281377091 13.5
  endloop
endfacet
facet normal 0.5636242054197561 0.8260313281377097 0.0
  outer loop
    vertex 7.436375794580242 -0.8260313281377091 13.5
    vertex 7.669373463236768 -0.9437616718154814 3.499999999999999
    vertex 7.436375794580242 -0.8260313281377091 3.499999999999999
  endloop
endfacet
facet normal 0.33062653676323006 0.9437616718154814 0.0
  outer loop
    vertex 7.669373463236768 -0.9437616718154814 3.499999999999999
    vertex 7.436375794580242 -0.8260313281377091 13.5
    vertex 7.669373463236768 -0.9437616718154814 13.5
  endloop
endfacet
facet normal 0.33062653676323006 0.9437616718154814 0.0
  outer loop
    vertex 7.669373463236768 -0.9437616718154814 13.5
    vertex 7.924902783987524 -0.9971762171989343 3.499999999999999
    vertex 7.669373463236768 -0.9437616718154814 3.499999999999999
  endloop
endfacet
facet normal 0.07509721601247434 0.997176217198934 0.0
  outer loop
    vertex 7.924902783987524 -0.9971762171989343 3.499999999999999
    vertex 7.669373463236768 -0.9437616718154814 13.5
    vertex 7.924902783987524 -0.9971762171989343 13.5
  endloop
endfacet
facet normal 0.07509721601247434 0.997176217198934 0.0
  outer loop
    vertex 7.924902783987524 -0.9971762171989343 13.5
    vertex 8.185549855905512 -0.9826348512918942 3.499999999999999
    vertex 7.924902783987524 -0.9971762171989343 3.499999999999999
  endloop
endfacet
facet normal -0.18554985590551415 0.9826348512918942 0.0
  outer loop
    vertex 8.185549855905512 -0.9826348512918942 3.499999999999999
    vertex 7.924902783987524 -0.9971762171989343 13.5
    vertex 8.185549855905512 -0.9826348512918942 13.5
  endloop
endfacet
facet normal -0.18554985590551415 0.9826348512918942 0.0
  outer loop
    vertex 8.185549855905512 -0.9826348512918942 13.5
    vertex 8.433552011779176 -0.9011285441501834 3.499999999999999
    vertex 8.185549855905512 -0.9826348512918942 3.499999999999999
  endloop
endfacet
facet normal -0.4335520117791766 0.9011285441501831 0.0
  outer loop
    vertex 8.433552011779176 -0.9011285441501834 3.499999999999999
    vertex 8.185549855905512 -0.9826348512918942 13.5
    vertex 8.433552011779176 -0.9011285441501834 13.5
  endloop
endfacet
facet normal -0.4335520117791766 0.9011285441501831 0.0
  outer loop
    vertex 8.433552011779176 -0.9011285441501834 13.5
    vertex 8.652008314528663 -0.7582118159099677 3.499999999999999
    vertex 8.433552011779176 -0.9011285441501834 3.499999999999999
  endloop
endfacet
facet normal -0.6520083145286654 0.7582118159099664 0.0
  outer loop
    vertex 8.652008314528663 -0.7582118159099677 3.499999999999999
    vertex 8.433552011779176 -0.9011285441501834 13.5
    vertex 8.652008314528663 -0.7582118159099677 13.5
  endloop
endfacet
facet normal -0.8260313281377094 0.5636242054197566 0.0
  outer loop
    vertex 8.826031328137706 -0.5636242054197576 13.5
    vertex 8.652008314528663 -0.7582118159099677 3.499999999999999
    vertex 8.652008314528663 -0.7582118159099677 13.5
  endloop
endfacet
facet normal -0.6520083145286654 0.7582118159099664 0.0
  outer loop
    vertex 8.652008314528663 -0.7582118159099677 3.499999999999999
    vertex 8.826031328137706 -0.5636242054197576 13.5
    vertex 8.826031328137706 -0.5636242054197576 3.499999999999999
  endloop
endfacet
facet normal -0.9437616718154814 0.33062653676323045 0.0
  outer loop
    vertex 8.943761671815478 -0.3306265367632302 13.5
    vertex 8.826031328137706 -0.5636242054197576 3.499999999999999
    vertex 8.826031328137706 -0.5636242054197576 13.5
  endloop
endfacet
facet normal -0.8260313281377094 0.5636242054197566 0.0
  outer loop
    vertex 8.826031328137706 -0.5636242054197576 3.499999999999999
    vertex 8.943761671815478 -0.3306265367632302 13.5
    vertex 8.943761671815478 -0.3306265367632302 3.499999999999999
  endloop
endfacet
facet normal -0.997176217198934 0.07509721601247475 0.0
  outer loop
    vertex 8.997176217198932 -0.07509721601247459 13.5
    vertex 8.943761671815478 -0.3306265367632302 3.499999999999999
    vertex 8.943761671815478 -0.3306265367632302 13.5
  endloop
endfacet
facet normal -0.9437616718154814 0.33062653676323045 0.0
  outer loop
    vertex 8.943761671815478 -0.3306265367632302 3.499999999999999
    vertex 8.997176217198932 -0.07509721601247459 13.5
    vertex 8.997176217198932 -0.07509721601247459 3.499999999999999
  endloop
endfacet
facet normal -0.9826348512918943 -0.1855498559055134 0.0
  outer loop
    vertex 8.982634851291891 0.18554985590551368 13.5
    vertex 8.997176217198932 -0.07509721601247459 3.499999999999999
    vertex 8.997176217198932 -0.07509721601247459 13.5
  endloop
endfacet
facet normal -0.997176217198934 0.07509721601247475 0.0
  outer loop
    vertex 8.997176217198932 -0.07509721601247459 3.499999999999999
    vertex 8.982634851291891 0.18554985590551368 13.5
    vertex 8.982634851291891 0.18554985590551368 3.499999999999999
  endloop
endfacet
facet normal -0.9011285441501831 -0.433552011779177 0.0
  outer loop
    vertex 8.90112854415018 0.43355201177917646 13.5
    vertex 8.982634851291891 0.18554985590551368 3.499999999999999
    vertex 8.982634851291891 0.18554985590551368 13.5
  endloop
endfacet
facet normal -0.9826348512918943 -0.1855498559055134 0.0
  outer loop
    vertex 8.982634851291891 0.18554985590551368 3.499999999999999
    vertex 8.90112854415018 0.43355201177917646 13.5
    vertex 8.90112854415018 0.43355201177917646 3.499999999999999
  endloop
endfacet
facet normal -0.7582118159099669 -0.652008314528665 0.0
  outer loop
    vertex 8.758211815909965 0.6520083145286647 13.5
    vertex 8.90112854415018 0.43355201177917646 3.499999999999999
    vertex 8.90112854415018 0.43355201177917646 13.5
  endloop
endfacet
facet normal -0.9011285441501831 -0.433552011779177 0.0
  outer loop
    vertex 8.90112854415018 0.43355201177917646 3.499999999999999
    vertex 8.758211815909965 0.6520083145286647 13.5
    vertex 8.758211815909965 0.6520083145286647 3.499999999999999
  endloop
endfacet
facet normal -0.7582118159099669 -0.652008314528665 0.0
  outer loop
    vertex 8.758211815909965 0.6520083145286647 13.5
    vertex 8.563624205419755 0.8260313281377091 3.499999999999999
    vertex 8.758211815909965 0.6520083145286647 3.499999999999999
  endloop
endfacet
facet normal -0.5636242054197574 -0.8260313281377087 0.0
  outer loop
    vertex 8.563624205419755 0.8260313281377091 3.499999999999999
    vertex 8.758211815909965 0.6520083145286647 13.5
    vertex 8.563624205419755 0.8260313281377091 13.5
  endloop
endfacet
facet normal -0.5636242054197574 -0.8260313281377087 0.0
  outer loop
    vertex 8.563624205419755 0.8260313281377091 13.5
    vertex 8.330626536763228 0.9437616718154817 3.499999999999999
    vertex 8.563624205419755 0.8260313281377091 3.499999999999999
  endloop
endfacet
facet normal -0.33062653676323 -0.9437616718154814 0.0
  outer loop
    vertex 8.330626536763228 0.9437616718154817 3.499999999999999
    vertex 8.563624205419755 0.8260313281377091 13.5
    vertex 8.330626536763228 0.9437616718154817 13.5
  endloop
endfacet
facet normal -0.33062653676323 -0.9437616718154814 0.0
  outer loop
    vertex 8.330626536763228 0.9437616718154817 13.5
    vertex 8.075097216012471 0.9971762171989343 3.499999999999999
    vertex 8.330626536763228 0.9437616718154817 3.499999999999999
  endloop
endfacet
facet normal -0.07509721601247402 -0.9971762171989341 0.0
  outer loop
    vertex 8.075097216012471 0.9971762171989343 3.499999999999999
    vertex 8.330626536763228 0.9437616718154817 13.5
    vertex 8.075097216012471 0.9971762171989343 13.5
  endloop
endfacet
facet normal -0.07509721601247402 -0.9971762171989341 0.0
  outer loop
    vertex 8.075097216012471 0.9971762171989343 13.5
    vertex 7.814450144094484 0.9826348512918942 3.499999999999999
    vertex 8.075097216012471 0.9971762171989343 3.499999999999999
  endloop
endfacet
facet normal 0.18554985590551415 -0.9826348512918942 0.0
  outer loop
    vertex 7.814450144094484 0.9826348512918942 3.499999999999999
    vertex 8.075097216012471 0.9971762171989343 13.5
    vertex 7.814450144094484 0.9826348512918942 13.5
  endloop
endfacet
facet normal 0.18554985590551415 -0.9826348512918942 0.0
  outer loop
    vertex 7.814450144094484 0.9826348512918942 13.5
    vertex 7.566447988220821 0.9011285441501834 3.499999999999999
    vertex 7.814450144094484 0.9826348512918942 3.499999999999999
  endloop
endfacet
facet normal 0.43355201177917696 -0.9011285441501831 0.0
  outer loop
    vertex 7.566447988220821 0.9011285441501834 3.499999999999999
    vertex 7.814450144094484 0.9826348512918942 13.5
    vertex 7.566447988220821 0.9011285441501834 13.5
  endloop
endfacet
facet normal 0.43355201177917696 -0.9011285441501831 0.0
  outer loop
    vertex 7.566447988220821 0.9011285441501834 13.5
    vertex 7.347991685471333 0.7582118159099674 3.499999999999999
    vertex 7.566447988220821 0.9011285441501834 3.499999999999999
  endloop
endfacet
facet normal 0.6520083145286641 -0.7582118159099678 0.0
  outer loop
    vertex 7.347991685471333 0.7582118159099674 3.499999999999999
    vertex 7.566447988220821 0.9011285441501834 13.5
    vertex 7.347991685471333 0.7582118159099674 13.5
  endloop
endfacet
facet normal 0.6520083145286641 -0.7582118159099678 0.0
  outer loop
    vertex 7.347991685471333 0.7582118159099674 3.499999999999999
    vertex 7.173968671862288 0.5636242054197573 13.5
    vertex 7.173968671862288 0.5636242054197573 3.499999999999999
  endloop
endfacet
facet normal 0.8260313281377097 -0.5636242054197561 0.0
  outer loop
    vertex 7.173968671862288 0.5636242054197573 13.5
    vertex 7.347991685471333 0.7582118159099674 3.499999999999999
    vertex 7.347991685471333 0.7582118159099674 13.5
  endloop
endfacet
facet normal 0.8260313281377097 -0.5636242054197561 0.0
  outer loop
    vertex 7.173968671862288 0.5636242054197573 3.499999999999999
    vertex 7.056238328184517 0.33062653676322973 13.5
    vertex 7.056238328184517 0.33062653676322973 3.499999999999999
  endloop
endfacet
facet normal 0.9437616718154821 -0.33062653676322806 0.0
  outer loop
    vertex 7.056238328184517 0.33062653676322973 13.5
    vertex 7.173968671862288 0.5636242054197573 3.499999999999999
    vertex 7.173968671862288 0.5636242054197573 13.5
  endloop
endfacet
facet normal 0.9437616718154821 -0.33062653676322806 0.0
  outer loop
    vertex 7.056238328184517 0.33062653676322973 3.499999999999999
    vertex 7.002823782801064 0.07509721601247446 13.5
    vertex 7.002823782801064 0.07509721601247446 3.499999999999999
  endloop
endfacet
facet normal 0.997176217198934 -0.07509721601247493 0.0
  outer loop
    vertex 7.002823782801064 0.07509721601247446 13.5
    vertex 7.056238328184517 0.33062653676322973 3.499999999999999
    vertex 7.056238328184517 0.33062653676322973 13.5
  endloop
endfacet
facet normal 0.997176217198934 -0.07509721601247493 0.0
  outer loop
    vertex 7.002823782801064 0.07509721601247446 3.499999999999999
    vertex 7.017365148708104 -0.18554985590551415 13.5
    vertex 7.017365148708104 -0.18554985590551415 3.499999999999999
  endloop
endfacet
facet normal 0.9826348512918943 0.18554985590551362 0.0
  outer loop
    vertex 7.017365148708104 -0.18554985590551415 13.5
    vertex 7.002823782801064 0.07509721601247446 3.499999999999999
    vertex 7.002823782801064 0.07509721601247446 13.5
  endloop
endfacet
facet normal 0.9826348512918943 0.18554985590551362 0.0
  outer loop
    vertex 7.017365148708104 -0.18554985590551415 3.499999999999999
    vertex 7.098871455849815 -0.43355201177917657 13.5
    vertex 7.098871455849815 -0.43355201177917657 3.499999999999999
  endloop
endfacet
facet normal 0.9011285441501836 0.43355201177917563 0.0
  outer loop
    vertex 7.098871455849815 -0.43355201177917657 13.5
    vertex 7.017365148708104 -0.18554985590551415 3.499999999999999
    vertex 7.017365148708104 -0.18554985590551415 13.5
  endloop
endfacet
endsolid servo shaft
