solid vane housing2
facet normal 0.0 -1.0 0.0
outer loop
vertex 13.9 22.9 -1.9
vertex 9.1 22.9 -7.0
vertex 13.9 22.9 -7.0
endloop
endfacet
facet normal 0.0 -1.0 0.0
outer loop
vertex 9.1 22.9 -7.0
vertex 13.9 22.9 -1.9
vertex 9.1 22.9 -1.9
endloop
endfacet
facet normal 1.0 0.0 0.0
outer loop
vertex 21.9 21.9 -1.9
vertex 21.9 1.1 0.0
vertex 21.9 1.1 -1.9
endloop
endfacet
facet normal 1.0 0.0 0.0
outer loop
vertex 21.9 1.1 0.0
vertex 21.9 21.9 -1.9
vertex 21.9 21.9 0.0
endloop
endfacet
facet normal 6.60294745553362e-17 -1.54603425578284e-17 -1.0
outer loop
vertex 13.9 22.9 -1.9
vertex 9.1 21.9 -1.9
vertex 9.1 22.9 -1.9
endloop
endfacet
facet normal 6.60294745553362e-17 -1.54603425578284e-17 -1.0
outer loop
vertex 1.1 21.9 -1.9
vertex 4.1 18.9 -1.9
vertex 1.10000000000001 1.1 -1.9
endloop
endfacet
facet normal 6.60294745553362e-17 -1.54603425578284e-17 -1.0
outer loop
vertex 4.1 18.9 -1.9
vertex 1.1 21.9 -1.9
vertex 9.1 21.9 -1.9
endloop
endfacet
facet normal 6.60294745553362e-17 -1.54603425578284e-17 -1.0
outer loop
vertex 4.1 18.9 -1.9
vertex 9.1 21.9 -1.9
vertex 18.9 18.9 -1.9
endloop
endfacet
facet normal 6.60294745553362e-17 -1.54603425578284e-17 -1.0
outer loop
vertex 18.9 18.9 -1.9
vertex 9.1 21.9 -1.9
vertex 13.9 21.9 -1.9
endloop
endfacet
facet normal 6.60294745553362e-17 -1.54603425578284e-17 -1.0
outer loop
vertex 13.9 21.9 -1.9
vertex 9.1 21.9 -1.9
vertex 13.9 22.9 -1.9
endloop
endfacet
facet normal 6.60294745553362e-17 -1.54603425578284e-17 -1.0
outer loop
vertex 18.9 18.9 -1.9
vertex 13.9 21.9 -1.9
vertex 21.9 21.9 -1.9
endloop
endfacet
facet normal 6.60294745553362e-17 -1.54603425578284e-17 -1.0
outer loop
vertex 18.9 18.9 -1.9
vertex 21.9 21.9 -1.9
vertex 18.9 4.1 -1.9
endloop
endfacet
facet normal 6.60294745553362e-17 -1.54603425578284e-17 -1.0
outer loop
vertex 1.10000000000001 1.1 -1.9
vertex 4.1 4.1 -1.9
vertex 21.9 1.1 -1.9
endloop
endfacet
facet normal 6.60294745553362e-17 -1.54603425578284e-17 -1.0
outer loop
vertex 4.1 4.1 -1.9
vertex 1.10000000000001 1.1 -1.9
vertex 4.1 18.9 -1.9
endloop
endfacet
facet normal 6.60294745553362e-17 -1.54603425578284e-17 -1.0
outer loop
vertex 21.9 1.1 -1.9
vertex 4.1 4.1 -1.9
vertex 18.9 4.1 -1.9
endloop
endfacet
facet normal 6.60294745553362e-17 -1.54603425578284e-17 -1.0
outer loop
vertex 21.9 1.1 -1.9
vertex 18.9 4.1 -1.9
vertex 21.9 21.9 -1.9
endloop
endfacet
facet normal 0.0 1.0 0.0
outer loop
vertex -5.71191356803914e-17 26.0 2.0
vertex 7.1 26.0 0.0
vertex 0.0 26.0 0.0
endloop
endfacet
facet normal 0.0 1.0 0.0
outer loop
vertex 7.1 26.0 0.0
vertex -5.71191356803914e-17 26.0 2.0
vertex 15.9 26.0 0.0
endloop
endfacet
facet normal 0.0 1.0 0.0
outer loop
vertex 15.9 26.0 0.0
vertex -5.71191356803914e-17 26.0 2.0
vertex 23.0 26.0 0.0
endloop
endfacet
facet normal 0.0 1.0 0.0
outer loop
vertex 23.0 26.0 0.0
vertex -5.71191356803914e-17 26.0 2.0
vertex 23.0 26.0 2.0
endloop
endfacet
facet normal 0.0 1.0 0.0
outer loop
vertex 7.1 26.0 0.0
vertex 15.9 26.0 -7.0
vertex 7.1 26.0 -7.0
endloop
endfacet
facet normal 0.0 1.0 0.0
outer loop
vertex 15.9 26.0 -7.0
vertex 7.1 26.0 0.0
vertex 15.9 26.0 0.0
endloop
endfacet
facet normal 2.76118875550445e-18 -9.97334327157888e-19 1.0
outer loop
vertex 0.0 0.0 0.0
vertex 1.10000000000001 1.1 0.0
vertex 0.0 26.0 0.0
endloop
endfacet
facet normal 2.76118875550445e-18 -9.97334327157888e-19 1.0
outer loop
vertex 1.10000000000001 1.1 0.0
vertex 0.0 0.0 0.0
vertex 23.0 0.0 0.0
endloop
endfacet
facet normal 2.76118875550445e-18 -9.97334327157888e-19 1.0
outer loop
vertex 0.0 26.0 0.0
vertex 1.10000000000001 1.1 0.0
vertex 1.1 21.9 0.0
endloop
endfacet
facet normal 2.76118875550445e-18 -9.97334327157888e-19 1.0
outer loop
vertex 1.10000000000001 1.1 0.0
vertex 23.0 0.0 0.0
vertex 21.9 1.1 0.0
endloop
endfacet
facet normal 2.76118875550445e-18 -9.97334327157888e-19 1.0
outer loop
vertex 21.9 1.1 0.0
vertex 23.0 0.0 0.0
vertex 21.9 21.9 0.0
endloop
endfacet
facet normal 2.76118875550445e-18 -9.97334327157888e-19 1.0
outer loop
vertex 21.9 21.9 0.0
vertex 13.9 24.55 0.0
vertex 13.9 21.9 0.0
endloop
endfacet
facet normal 2.76118875550445e-18 -9.97334327157888e-19 1.0
outer loop
vertex 13.9 24.55 0.0
vertex 21.9 21.9 0.0
vertex 15.9 24.55 0.0
endloop
endfacet
facet normal 2.76118875550445e-18 -9.97334327157888e-19 1.0
outer loop
vertex 15.9 24.55 0.0
vertex 21.9 21.9 0.0
vertex 15.9 26.0 0.0
endloop
endfacet
facet normal 2.76118875550445e-18 -9.97334327157888e-19 1.0
outer loop
vertex 15.9 26.0 0.0
vertex 21.9 21.9 0.0
vertex 23.0 26.0 0.0
endloop
endfacet
facet normal 2.76118875550445e-18 -9.97334327157888e-19 1.0
outer loop
vertex 23.0 26.0 0.0
vertex 21.9 21.9 0.0
vertex 23.0 0.0 0.0
endloop
endfacet
facet normal 2.76118875550445e-18 -9.97334327157888e-19 1.0
outer loop
vertex 9.1 21.9 0.0
vertex 7.1 24.55 0.0
vertex 1.1 21.9 0.0
endloop
endfacet
facet normal 2.76118875550445e-18 -9.97334327157888e-19 1.0
outer loop
vertex 7.1 24.55 0.0
vertex 9.1 21.9 0.0
vertex 9.1 24.55 0.0
endloop
endfacet
facet normal 2.76118875550445e-18 -9.97334327157888e-19 1.0
outer loop
vertex 1.1 21.9 0.0
vertex 7.1 26.0 0.0
vertex 0.0 26.0 0.0
endloop
endfacet
facet normal 2.76118875550445e-18 -9.97334327157888e-19 1.0
outer loop
vertex 7.1 26.0 0.0
vertex 1.1 21.9 0.0
vertex 7.1 24.55 0.0
endloop
endfacet
facet normal -7.20243843198832e-17 -1.0 4.17429249061367e-16
outer loop
vertex 21.9 1.1 -1.9
vertex 1.10000000000001 1.1 0.0
vertex 1.10000000000001 1.1 -1.9
endloop
endfacet
facet normal -7.20243843198832e-17 -1.0 4.17429249061367e-16
outer loop
vertex 1.10000000000001 1.1 0.0
vertex 21.9 1.1 -1.9
vertex 21.9 1.1 0.0
endloop
endfacet
facet normal -1.0 0.0 0.0
outer loop
vertex 7.1 26.0 0.0
vertex 7.1 24.55 -7.0
vertex 7.1 24.55 0.0
endloop
endfacet
facet normal -1.0 0.0 0.0
outer loop
vertex 7.1 24.55 -7.0
vertex 7.1 26.0 0.0
vertex 7.1 26.0 -7.0
endloop
endfacet
facet normal -1.0 -3.47857707551139e-16 -1.48419288555152e-15
outer loop
vertex 1.10000000000001 1.1 0.0
vertex 1.1 21.9 -1.9
vertex 1.10000000000001 1.1 -1.9
endloop
endfacet
facet normal -1.0 -3.47857707551139e-16 -1.48419288555152e-15
outer loop
vertex 1.1 21.9 -1.9
vertex 1.10000000000001 1.1 0.0
vertex 1.1 21.9 0.0
endloop
endfacet
facet normal -0.915074856572887 -0.403284027539041 0.0
outer loop
vertex 10.0358802294834 9.86222190190459 2.0
vertex 10.252773039938 9.5052663329985 5.63993296509579e-15
vertex 10.252773039938 9.5052663329985 2.0
endloop
endfacet
facet normal -0.779516850038763 -0.626381258105353 0.0
outer loop
vertex 10.252773039938 9.5052663329985 5.63993296509579e-15
vertex 10.0358802294834 9.86222190190459 2.0
vertex 10.0358802294834 9.8622219019046 5.63993296509579e-15
endloop
endfacet
facet normal -0.98827202386427 -0.152703656954309 0.0
outer loop
vertex 9.91876476181717 10.2631504948402 2.0
vertex 10.0358802294834 9.8622219019046 5.63993296509579e-15
vertex 10.0358802294834 9.86222190190459 2.0
endloop
endfacet
facet normal -0.915074856572887 -0.403284027539041 0.0
outer loop
vertex 10.0358802294834 9.8622219019046 5.63993296509579e-15
vertex 9.91876476181717 10.2631504948402 2.0
vertex 9.91876476181717 10.2631504948402 5.63993296509579e-15
endloop
endfacet
facet normal -0.994120085926042 0.108283215497132 0.0
outer loop
vertex 9.90940786251833 10.6807294907625 2.0
vertex 9.91876476181717 10.2631504948402 5.63993296509579e-15
vertex 9.91876476181717 10.2631504948402 2.0
endloop
endfacet
facet normal -0.98827202386427 -0.152703656954309 0.0
outer loop
vertex 9.91876476181717 10.2631504948402 5.63993296509579e-15
vertex 9.90940786251833 10.6807294907625 2.0
vertex 9.90940786251833 10.6807294907625 5.63993296509579e-15
endloop
endfacet
facet normal -0.932220506993074 0.361890765758918 0.0
outer loop
vertex 10.0084471888111 11.0865015711813 2.0
vertex 9.90940786251833 10.6807294907625 5.63993296509579e-15
vertex 9.90940786251833 10.6807294907625 2.0
endloop
endfacet
facet normal -0.994120085926042 0.108283215497132 0.0
outer loop
vertex 9.90940786251833 10.6807294907625 5.63993296509579e-15
vertex 10.0084471888111 11.0865015711813 2.0
vertex 10.0084471888111 11.0865015711813 5.63993296509579e-15
endloop
endfacet
facet normal -0.806791641075756 0.590836058387002 0.0
outer loop
vertex 10.2091333742788 11.4528140393863 2.0
vertex 10.0084471888111 11.0865015711813 5.63993296509579e-15
vertex 10.0084471888111 11.0865015711813 2.0
endloop
endfacet
facet normal -0.932220506993074 0.361890765758919 0.0
outer loop
vertex 10.0084471888111 11.0865015711813 5.63993296509579e-15
vertex 10.2091333742788 11.4528140393863 2.0
vertex 10.2091333742788 11.4528140393863 5.63993296509579e-15
endloop
endfacet
facet normal -0.626381258105353 0.779516850038763 0.0
outer loop
vertex 10.4977899870314 11.7547033060291 2.0
vertex 10.2091333742788 11.4528140393863 5.63993296509579e-15
vertex 10.2091333742788 11.4528140393863 2.0
endloop
endfacet
facet normal -0.806791641075756 0.590836058387002 0.0
outer loop
vertex 10.2091333742788 11.4528140393863 5.63993296509579e-15
vertex 10.4977899870314 11.7547033060291 2.0
vertex 10.4977899870314 11.7547033060291 5.63993296509579e-15
endloop
endfacet
facet normal -0.626381258105353 0.779516850038763 0.0
outer loop
vertex 10.4977899870314 11.7547033060291 2.0
vertex 10.8547455559375 11.9715961164837 5.63993296509579e-15
vertex 10.4977899870314 11.7547033060291 5.63993296509579e-15
endloop
endfacet
facet normal -0.403284027539041 0.915074856572887 0.0
outer loop
vertex 10.8547455559375 11.9715961164837 5.63993296509579e-15
vertex 10.4977899870314 11.7547033060291 2.0
vertex 10.8547455559375 11.9715961164837 2.0
endloop
endfacet
facet normal -0.403284027539041 0.915074856572887 0.0
outer loop
vertex 10.8547455559375 11.9715961164837 2.0
vertex 11.2556741488731 12.0887115841499 5.63993296509579e-15
vertex 10.8547455559375 11.9715961164837 5.63993296509579e-15
endloop
endfacet
facet normal -0.152703656954309 0.98827202386427 0.0
outer loop
vertex 11.2556741488731 12.0887115841499 5.63993296509579e-15
vertex 10.8547455559375 11.9715961164837 2.0
vertex 11.2556741488731 12.0887115841499 2.0
endloop
endfacet
facet normal -0.152703656954309 0.98827202386427 0.0
outer loop
vertex 11.2556741488731 12.0887115841499 2.0
vertex 11.6732531447954 12.0980684834487 5.63993296509579e-15
vertex 11.2556741488731 12.0887115841499 5.63993296509579e-15
endloop
endfacet
facet normal 0.108283215497133 0.994120085926042 0.0
outer loop
vertex 11.6732531447954 12.0980684834487 5.63993296509579e-15
vertex 11.2556741488731 12.0887115841499 2.0
vertex 11.6732531447954 12.0980684834487 2.0
endloop
endfacet
facet normal 0.108283215497133 0.994120085926042 0.0
outer loop
vertex 11.6732531447954 12.0980684834487 2.0
vertex 12.0790252252143 11.999029157156 5.63993296509579e-15
vertex 11.6732531447954 12.0980684834487 5.63993296509579e-15
endloop
endfacet
facet normal 0.361890765758918 0.932220506993074 0.0
outer loop
vertex 12.0790252252143 11.999029157156 5.63993296509579e-15
vertex 11.6732531447954 12.0980684834487 2.0
vertex 12.0790252252143 11.999029157156 2.0
endloop
endfacet
facet normal 0.361890765758919 0.932220506993074 0.0
outer loop
vertex 12.0790252252143 11.999029157156 2.0
vertex 12.4453376934192 11.7983429716883 5.63993296509579e-15
vertex 12.0790252252143 11.999029157156 5.63993296509579e-15
endloop
endfacet
facet normal 0.590836058387 0.806791641075757 0.0
outer loop
vertex 12.4453376934192 11.7983429716883 5.63993296509579e-15
vertex 12.0790252252143 11.999029157156 2.0
vertex 12.4453376934192 11.7983429716883 2.0
endloop
endfacet
facet normal 0.590836058387 0.806791641075757 0.0
outer loop
vertex 12.4453376934192 11.7983429716883 2.0
vertex 12.747226960062 11.5096863589356 5.63993296509579e-15
vertex 12.4453376934192 11.7983429716883 5.63993296509579e-15
endloop
endfacet
facet normal 0.779516850038763 0.626381258105353 0.0
outer loop
vertex 12.747226960062 11.5096863589356 5.63993296509579e-15
vertex 12.4453376934192 11.7983429716883 2.0
vertex 12.747226960062 11.5096863589356 2.0
endloop
endfacet
facet normal 0.915074856572888 0.40328402753904 0.0
outer loop
vertex 12.9641197705166 11.1527307900295 5.63993296509579e-15
vertex 12.747226960062 11.5096863589356 2.0
vertex 12.9641197705166 11.1527307900295 2.0
endloop
endfacet
facet normal 0.779516850038763 0.626381258105353 0.0
outer loop
vertex 12.747226960062 11.5096863589356 2.0
vertex 12.9641197705166 11.1527307900295 5.63993296509579e-15
vertex 12.747226960062 11.5096863589356 5.63993296509579e-15
endloop
endfacet
facet normal 0.98827202386427 0.152703656954311 0.0
outer loop
vertex 13.0812352381828 10.751802197094 5.63993296509579e-15
vertex 12.9641197705166 11.1527307900295 2.0
vertex 13.0812352381828 10.751802197094 2.0
endloop
endfacet
facet normal 0.915074856572888 0.403284027539039 0.0
outer loop
vertex 12.9641197705166 11.1527307900295 2.0
vertex 13.0812352381828 10.751802197094 5.63993296509579e-15
vertex 12.9641197705166 11.1527307900295 5.63993296509579e-15
endloop
endfacet
facet normal 0.994120085926042 -0.108283215497132 0.0
outer loop
vertex 13.0905921374817 10.3342232011716 5.63993296509579e-15
vertex 13.0812352381828 10.751802197094 2.0
vertex 13.0905921374817 10.3342232011716 2.0
endloop
endfacet
facet normal 0.98827202386427 0.152703656954311 0.0
outer loop
vertex 13.0812352381828 10.751802197094 2.0
vertex 13.0905921374817 10.3342232011716 5.63993296509579e-15
vertex 13.0812352381828 10.751802197094 5.63993296509579e-15
endloop
endfacet
facet normal 0.932220506993074 -0.361890765758918 0.0
outer loop
vertex 12.9915528111889 9.92845112075279 5.63993296509579e-15
vertex 13.0905921374817 10.3342232011716 2.0
vertex 12.9915528111889 9.92845112075279 2.0
endloop
endfacet
facet normal 0.994120085926042 -0.108283215497133 0.0
outer loop
vertex 13.0905921374817 10.3342232011716 2.0
vertex 12.9915528111889 9.92845112075279 5.63993296509579e-15
vertex 13.0905921374817 10.3342232011716 5.63993296509579e-15
endloop
endfacet
facet normal 0.806791641075757 -0.590836058387001 0.0
outer loop
vertex 12.7908666257212 9.56213865254786 5.63993296509579e-15
vertex 12.9915528111889 9.92845112075279 2.0
vertex 12.7908666257212 9.56213865254785 2.0
endloop
endfacet
facet normal 0.932220506993074 -0.361890765758918 0.0
outer loop
vertex 12.9915528111889 9.92845112075279 2.0
vertex 12.7908666257212 9.56213865254786 5.63993296509579e-15
vertex 12.9915528111889 9.92845112075279 5.63993296509579e-15
endloop
endfacet
facet normal 0.626381258105351 -0.779516850038765 0.0
outer loop
vertex 12.5022100129686 9.26024938590504 5.63993296509579e-15
vertex 12.7908666257212 9.56213865254785 2.0
vertex 12.5022100129686 9.26024938590504 2.0
endloop
endfacet
facet normal 0.806791641075757 -0.590836058387001 0.0
outer loop
vertex 12.7908666257212 9.56213865254785 2.0
vertex 12.5022100129686 9.26024938590504 5.63993296509579e-15
vertex 12.7908666257212 9.56213865254786 5.63993296509579e-15
endloop
endfacet
facet normal 0.626381258105351 -0.779516850038765 0.0
outer loop
vertex 12.5022100129686 9.26024938590504 2.0
vertex 12.1452544440625 9.04335657545044 5.63993296509579e-15
vertex 12.5022100129686 9.26024938590504 5.63993296509579e-15
endloop
endfacet
facet normal 0.403284027539041 -0.915074856572887 0.0
outer loop
vertex 12.1452544440625 9.04335657545044 5.63993296509579e-15
vertex 12.5022100129686 9.26024938590504 2.0
vertex 12.1452544440625 9.04335657545044 2.0
endloop
endfacet
facet normal 0.403284027539041 -0.915074856572887 0.0
outer loop
vertex 12.1452544440625 9.04335657545044 2.0
vertex 11.7443258511269 8.92624110778423 5.63993296509579e-15
vertex 12.1452544440625 9.04335657545044 5.63993296509579e-15
endloop
endfacet
facet normal 0.152703656954311 -0.98827202386427 0.0
outer loop
vertex 11.7443258511269 8.92624110778423 5.63993296509579e-15
vertex 12.1452544440625 9.04335657545044 2.0
vertex 11.7443258511269 8.92624110778423 2.0
endloop
endfacet
facet normal 0.152703656954311 -0.98827202386427 0.0
outer loop
vertex 11.7443258511269 8.92624110778423 2.0
vertex 11.3267468552046 8.91688420848539 5.63993296509579e-15
vertex 11.7443258511269 8.92624110778423 5.63993296509579e-15
endloop
endfacet
facet normal -0.108283215497133 -0.994120085926042 0.0
outer loop
vertex 11.3267468552046 8.91688420848539 5.63993296509579e-15
vertex 11.7443258511269 8.92624110778423 2.0
vertex 11.3267468552046 8.91688420848539 2.0
endloop
endfacet
facet normal -0.108283215497133 -0.994120085926042 0.0
outer loop
vertex 11.3267468552046 8.91688420848539 2.0
vertex 10.9209747747857 9.01592353477814 5.63993296509579e-15
vertex 11.3267468552046 8.91688420848539 5.63993296509579e-15
endloop
endfacet
facet normal -0.361890765758918 -0.932220506993074 0.0
outer loop
vertex 10.9209747747857 9.01592353477814 5.63993296509579e-15
vertex 11.3267468552046 8.91688420848539 2.0
vertex 10.9209747747857 9.01592353477814 2.0
endloop
endfacet
facet normal -0.361890765758918 -0.932220506993074 0.0
outer loop
vertex 10.9209747747857 9.01592353477814 2.0
vertex 10.5546623065808 9.21660972024585 5.63993296509579e-15
vertex 10.9209747747857 9.01592353477814 5.63993296509579e-15
endloop
endfacet
facet normal -0.590836058387001 -0.806791641075756 0.0
outer loop
vertex 10.5546623065808 9.21660972024585 5.63993296509579e-15
vertex 10.9209747747857 9.01592353477814 2.0
vertex 10.5546623065808 9.21660972024585 2.0
endloop
endfacet
facet normal -0.590836058387001 -0.806791641075757 0.0
outer loop
vertex 10.5546623065808 9.21660972024585 2.0
vertex 10.252773039938 9.5052663329985 5.63993296509579e-15
vertex 10.5546623065808 9.21660972024585 5.63993296509579e-15
endloop
endfacet
facet normal -0.779516850038763 -0.626381258105353 0.0
outer loop
vertex 10.252773039938 9.5052663329985 5.63993296509579e-15
vertex 10.5546623065808 9.21660972024585 2.0
vertex 10.252773039938 9.5052663329985 2.0
endloop
endfacet
facet normal 0.0 0.0 1.0
outer loop
vertex -5.71191356803914e-17 1.48883186199499e-17 2.0
vertex 10.252773039938 9.5052663329985 2.0
vertex -5.71191356803914e-17 26.0 2.0
endloop
endfacet
facet normal 0.0 0.0 1.0
outer loop
vertex 10.252773039938 9.5052663329985 2.0
vertex -5.71191356803914e-17 1.48883186199499e-17 2.0
vertex 10.5546623065808 9.21660972024585 2.0
endloop
endfacet
facet normal 0.0 0.0 1.0
outer loop
vertex 10.5546623065808 9.21660972024585 2.0
vertex -5.71191356803914e-17 1.48883186199499e-17 2.0
vertex 23.0 1.48883186199499e-17 2.0
endloop
endfacet
facet normal 0.0 0.0 1.0
outer loop
vertex -5.71191356803914e-17 26.0 2.0
vertex 10.252773039938 9.5052663329985 2.0
vertex 10.0358802294834 9.86222190190459 2.0
endloop
endfacet
facet normal 0.0 0.0 1.0
outer loop
vertex -5.71191356803914e-17 26.0 2.0
vertex 10.0358802294834 9.86222190190459 2.0
vertex 9.91876476181717 10.2631504948402 2.0
endloop
endfacet
facet normal 0.0 0.0 1.0
outer loop
vertex -5.71191356803914e-17 26.0 2.0
vertex 9.91876476181717 10.2631504948402 2.0
vertex 9.90940786251833 10.6807294907625 2.0
endloop
endfacet
facet normal 0.0 0.0 1.0
outer loop
vertex 10.5546623065808 9.21660972024585 2.0
vertex 23.0 1.48883186199499e-17 2.0
vertex 10.9209747747857 9.01592353477814 2.0
endloop
endfacet
facet normal 0.0 0.0 1.0
outer loop
vertex 10.9209747747857 9.01592353477814 2.0
vertex 23.0 1.48883186199499e-17 2.0
vertex 11.3267468552046 8.91688420848539 2.0
endloop
endfacet
facet normal 0.0 0.0 1.0
outer loop
vertex 11.3267468552046 8.91688420848539 2.0
vertex 23.0 1.48883186199499e-17 2.0
vertex 11.7443258511269 8.92624110778423 2.0
endloop
endfacet
facet normal 0.0 0.0 1.0
outer loop
vertex 11.7443258511269 8.92624110778423 2.0
vertex 23.0 1.48883186199499e-17 2.0
vertex 12.1452544440625 9.04335657545044 2.0
endloop
endfacet
facet normal 0.0 0.0 1.0
outer loop
vertex 12.1452544440625 9.04335657545044 2.0
vertex 23.0 1.48883186199499e-17 2.0
vertex 12.5022100129686 9.26024938590504 2.0
endloop
endfacet
facet normal 0.0 0.0 1.0
outer loop
vertex 12.5022100129686 9.26024938590504 2.0
vertex 23.0 1.48883186199499e-17 2.0
vertex 12.7908666257212 9.56213865254785 2.0
endloop
endfacet
facet normal 0.0 0.0 1.0
outer loop
vertex 12.7908666257212 9.56213865254785 2.0
vertex 23.0 1.48883186199499e-17 2.0
vertex 12.9915528111889 9.92845112075279 2.0
endloop
endfacet
facet normal 0.0 0.0 1.0
outer loop
vertex 12.9915528111889 9.92845112075279 2.0
vertex 23.0 1.48883186199499e-17 2.0
vertex 13.0905921374817 10.3342232011716 2.0
endloop
endfacet
facet normal 0.0 0.0 1.0
outer loop
vertex -5.71191356803914e-17 26.0 2.0
vertex 10.2091333742788 11.4528140393863 2.0
vertex 23.0 26.0 2.0
endloop
endfacet
facet normal 0.0 0.0 1.0
outer loop
vertex 10.2091333742788 11.4528140393863 2.0
vertex -5.71191356803914e-17 26.0 2.0
vertex 10.0084471888111 11.0865015711813 2.0
endloop
endfacet
facet normal 0.0 0.0 1.0
outer loop
vertex 10.0084471888111 11.0865015711813 2.0
vertex -5.71191356803914e-17 26.0 2.0
vertex 9.90940786251833 10.6807294907625 2.0
endloop
endfacet
facet normal 0.0 0.0 1.0
outer loop
vertex 23.0 26.0 2.0
vertex 10.2091333742788 11.4528140393863 2.0
vertex 10.4977899870314 11.7547033060291 2.0
endloop
endfacet
facet normal 0.0 0.0 1.0
outer loop
vertex 23.0 26.0 2.0
vertex 10.4977899870314 11.7547033060291 2.0
vertex 10.8547455559375 11.9715961164837 2.0
endloop
endfacet
facet normal 0.0 0.0 1.0
outer loop
vertex 23.0 26.0 2.0
vertex 10.8547455559375 11.9715961164837 2.0
vertex 11.2556741488731 12.0887115841499 2.0
endloop
endfacet
facet normal 0.0 0.0 1.0
outer loop
vertex 23.0 26.0 2.0
vertex 11.2556741488731 12.0887115841499 2.0
vertex 11.6732531447954 12.0980684834487 2.0
endloop
endfacet
facet normal 0.0 0.0 1.0
outer loop
vertex 23.0 26.0 2.0
vertex 11.6732531447954 12.0980684834487 2.0
vertex 12.0790252252143 11.999029157156 2.0
endloop
endfacet
facet normal 0.0 0.0 1.0
outer loop
vertex 23.0 26.0 2.0
vertex 12.0790252252143 11.999029157156 2.0
vertex 12.4453376934192 11.7983429716883 2.0
endloop
endfacet
facet normal 0.0 0.0 1.0
outer loop
vertex 23.0 26.0 2.0
vertex 12.4453376934192 11.7983429716883 2.0
vertex 12.747226960062 11.5096863589356 2.0
endloop
endfacet
facet normal 0.0 0.0 1.0
outer loop
vertex 23.0 26.0 2.0
vertex 12.747226960062 11.5096863589356 2.0
vertex 12.9641197705166 11.1527307900295 2.0
endloop
endfacet
facet normal 0.0 0.0 1.0
outer loop
vertex 23.0 26.0 2.0
vertex 12.9641197705166 11.1527307900295 2.0
vertex 13.0812352381828 10.751802197094 2.0
endloop
endfacet
facet normal 0.0 0.0 1.0
outer loop
vertex 23.0 26.0 2.0
vertex 13.0812352381828 10.751802197094 2.0
vertex 13.0905921374817 10.3342232011716 2.0
endloop
endfacet
facet normal 0.0 0.0 1.0
outer loop
vertex 23.0 26.0 2.0
vertex 13.0905921374817 10.3342232011716 2.0
vertex 23.0 1.48883186199499e-17 2.0
endloop
endfacet
facet normal -1.0 -0.0 -2.85595678401957e-17
outer loop
vertex -5.71191356803914e-17 1.48883186199499e-17 2.0
vertex 0.0 26.0 0.0
vertex 0.0 0.0 0.0
endloop
endfacet
facet normal -1.0 -0.0 -2.85595678401957e-17
outer loop
vertex 0.0 26.0 0.0
vertex -5.71191356803914e-17 1.48883186199499e-17 2.0
vertex -5.71191356803914e-17 26.0 2.0
endloop
endfacet
facet normal 1.0 0.0 2.85595678401957e-17
outer loop
vertex 23.0 26.0 0.0
vertex 23.0 1.48883186199499e-17 2.0
vertex 23.0 0.0 0.0
endloop
endfacet
facet normal 1.0 0.0 2.85595678401957e-17
outer loop
vertex 23.0 1.48883186199499e-17 2.0
vertex 23.0 26.0 0.0
vertex 23.0 26.0 2.0
endloop
endfacet
facet normal 0.0 -1.0 7.44415930997496e-18
outer loop
vertex 23.0 1.48883186199499e-17 2.0
vertex 0.0 0.0 0.0
vertex 23.0 0.0 0.0
endloop
endfacet
facet normal 0.0 -1.0 7.44415930997496e-18
outer loop
vertex 0.0 0.0 0.0
vertex 23.0 1.48883186199499e-17 2.0
vertex -5.71191356803914e-17 1.48883186199499e-17 2.0
endloop
endfacet
facet normal 0.0 0.0 -1.0
outer loop
vertex 15.9 26.0 -7.0
vertex 7.1 24.55 -7.0
vertex 7.1 26.0 -7.0
endloop
endfacet
facet normal 0.0 0.0 -1.0
outer loop
vertex 7.1 24.55 -7.0
vertex 15.9 26.0 -7.0
vertex 9.1 24.55 -7.0
endloop
endfacet
facet normal 0.0 0.0 -1.0
outer loop
vertex 9.1 24.55 -7.0
vertex 15.9 26.0 -7.0
vertex 9.1 22.9 -7.0
endloop
endfacet
facet normal 0.0 0.0 -1.0
outer loop
vertex 9.1 22.9 -7.0
vertex 15.9 26.0 -7.0
vertex 13.9 24.55 -7.0
endloop
endfacet
facet normal 0.0 0.0 -1.0
outer loop
vertex 13.9 24.55 -7.0
vertex 15.9 26.0 -7.0
vertex 15.9 24.55 -7.0
endloop
endfacet
facet normal 0.0 0.0 -1.0
outer loop
vertex 13.9 22.9 -7.0
vertex 9.1 22.9 -7.0
vertex 13.9 24.55 -7.0
endloop
endfacet
facet normal -1.0 -8.54535297741784e-16 -1.08501635839575e-16
outer loop
vertex 9.1 24.55 0.0
vertex 9.1 21.9 -1.9
vertex 9.1 21.9 0.0
endloop
endfacet
facet normal -1.0 -8.54535297741784e-16 -1.08501635839575e-16
outer loop
vertex 9.1 21.9 -1.9
vertex 9.1 24.55 0.0
vertex 9.1 22.9 -1.9
endloop
endfacet
facet normal -1.0 -8.54535297741784e-16 -1.08501635839575e-16
outer loop
vertex 9.1 22.9 -1.9
vertex 9.1 24.55 0.0
vertex 9.1 22.9 -7.0
endloop
endfacet
facet normal -1.0 -8.54535297741784e-16 -1.08501635839575e-16
outer loop
vertex 9.1 22.9 -7.0
vertex 9.1 24.55 0.0
vertex 9.1 24.55 -7.0
endloop
endfacet
facet normal 1.0 0.0 0.0
outer loop
vertex 13.9 24.55 -7.0
vertex 13.9 22.9 -1.9
vertex 13.9 22.9 -7.0
endloop
endfacet
facet normal 1.0 0.0 0.0
outer loop
vertex 13.9 22.9 -1.9
vertex 13.9 21.9 0.0
vertex 13.9 21.9 -1.9
endloop
endfacet
facet normal 1.0 0.0 0.0
outer loop
vertex 13.9 21.9 0.0
vertex 13.9 22.9 -1.9
vertex 13.9 24.55 0.0
endloop
endfacet
facet normal 1.0 0.0 0.0
outer loop
vertex 13.9 24.55 0.0
vertex 13.9 22.9 -1.9
vertex 13.9 24.55 -7.0
endloop
endfacet
facet normal 0.0 -1.0 0.0
outer loop
vertex 15.9 24.55 0.0
vertex 13.9 24.55 -7.0
vertex 15.9 24.55 -7.0
endloop
endfacet
facet normal 0.0 -1.0 0.0
outer loop
vertex 13.9 24.55 -7.0
vertex 15.9 24.55 0.0
vertex 13.9 24.55 0.0
endloop
endfacet
facet normal 1.0 0.0 0.0
outer loop
vertex 15.9 26.0 -7.0
vertex 15.9 24.55 0.0
vertex 15.9 24.55 -7.0
endloop
endfacet
facet normal 1.0 0.0 0.0
outer loop
vertex 15.9 24.55 0.0
vertex 15.9 26.0 -7.0
vertex 15.9 26.0 0.0
endloop
endfacet
facet normal 0.0 -1.0 0.0
outer loop
vertex 9.1 24.55 0.0
vertex 7.1 24.55 -7.0
vertex 9.1 24.55 -7.0
endloop
endfacet
facet normal 0.0 -1.0 0.0
outer loop
vertex 7.1 24.55 -7.0
vertex 9.1 24.55 0.0
vertex 7.1 24.55 0.0
endloop
endfacet
facet normal 0.0 1.0 0.0
outer loop
vertex 13.9 21.9 0.0
vertex 21.9 21.9 -1.9
vertex 13.9 21.9 -1.9
endloop
endfacet
facet normal 0.0 1.0 0.0
outer loop
vertex 21.9 21.9 -1.9
vertex 13.9 21.9 0.0
vertex 21.9 21.9 0.0
endloop
endfacet
facet normal -3.66595642731227e-16 1.0 -1.18735430844122e-16
outer loop
vertex 1.1 21.9 0.0
vertex 9.1 21.9 -1.9
vertex 1.1 21.9 -1.9
endloop
endfacet
facet normal -3.66595642731227e-16 1.0 -1.18735430844122e-16
outer loop
vertex 9.1 21.9 -1.9
vertex 1.1 21.9 0.0
vertex 9.1 21.9 0.0
endloop
endfacet
facet normal -1.19086422404894e-17 8.3360495683426e-17 -1.0
outer loop
vertex 4.1 18.9 0.0
vertex 10.2091333742788 11.4528140393863 5.63993296509579e-15
vertex 4.1 4.1 -2.8199664825479e-15
endloop
endfacet
facet normal -1.19086422404894e-17 8.3360495683426e-17 -1.0
outer loop
vertex 10.2091333742788 11.4528140393863 5.63993296509579e-15
vertex 4.1 18.9 0.0
vertex 10.4977899870314 11.7547033060291 5.63993296509579e-15
endloop
endfacet
facet normal -1.19086422404894e-17 8.3360495683426e-17 -1.0
outer loop
vertex 10.4977899870314 11.7547033060291 5.63993296509579e-15
vertex 4.1 18.9 0.0
vertex 18.9 18.9 -2.8199664825479e-15
endloop
endfacet
facet normal -1.19086422404894e-17 8.3360495683426e-17 -1.0
outer loop
vertex 4.1 4.1 -2.8199664825479e-15
vertex 10.2091333742788 11.4528140393863 5.63993296509579e-15
vertex 10.0084471888111 11.0865015711813 5.63993296509579e-15
endloop
endfacet
facet normal -1.19086422404894e-17 8.3360495683426e-17 -1.0
outer loop
vertex 4.1 4.1 -2.8199664825479e-15
vertex 10.0084471888111 11.0865015711813 5.63993296509579e-15
vertex 9.90940786251833 10.6807294907625 5.63993296509579e-15
endloop
endfacet
facet normal -1.19086422404894e-17 8.3360495683426e-17 -1.0
outer loop
vertex 10.4977899870314 11.7547033060291 5.63993296509579e-15
vertex 18.9 18.9 -2.8199664825479e-15
vertex 10.8547455559375 11.9715961164837 5.63993296509579e-15
endloop
endfacet
facet normal -1.19086422404894e-17 8.3360495683426e-17 -1.0
outer loop
vertex 10.8547455559375 11.9715961164837 5.63993296509579e-15
vertex 18.9 18.9 -2.8199664825479e-15
vertex 11.2556741488731 12.0887115841499 5.63993296509579e-15
endloop
endfacet
facet normal -1.19086422404894e-17 8.3360495683426e-17 -1.0
outer loop
vertex 11.2556741488731 12.0887115841499 5.63993296509579e-15
vertex 18.9 18.9 -2.8199664825479e-15
vertex 11.6732531447954 12.0980684834487 5.63993296509579e-15
endloop
endfacet
facet normal -1.19086422404894e-17 8.3360495683426e-17 -1.0
outer loop
vertex 11.6732531447954 12.0980684834487 5.63993296509579e-15
vertex 18.9 18.9 -2.8199664825479e-15
vertex 12.0790252252143 11.999029157156 5.63993296509579e-15
endloop
endfacet
facet normal -1.19086422404894e-17 8.3360495683426e-17 -1.0
outer loop
vertex 12.0790252252143 11.999029157156 5.63993296509579e-15
vertex 18.9 18.9 -2.8199664825479e-15
vertex 12.4453376934192 11.7983429716883 5.63993296509579e-15
endloop
endfacet
facet normal -1.19086422404894e-17 8.3360495683426e-17 -1.0
outer loop
vertex 12.4453376934192 11.7983429716883 5.63993296509579e-15
vertex 18.9 18.9 -2.8199664825479e-15
vertex 12.747226960062 11.5096863589356 5.63993296509579e-15
endloop
endfacet
facet normal -1.19086422404894e-17 8.3360495683426e-17 -1.0
outer loop
vertex 12.747226960062 11.5096863589356 5.63993296509579e-15
vertex 18.9 18.9 -2.8199664825479e-15
vertex 12.9641197705166 11.1527307900295 5.63993296509579e-15
endloop
endfacet
facet normal -1.19086422404894e-17 8.3360495683426e-17 -1.0
outer loop
vertex 12.9641197705166 11.1527307900295 5.63993296509579e-15
vertex 18.9 18.9 -2.8199664825479e-15
vertex 13.0812352381828 10.751802197094 5.63993296509579e-15
endloop
endfacet
facet normal -1.19086422404894e-17 8.3360495683426e-17 -1.0
outer loop
vertex 13.0812352381828 10.751802197094 5.63993296509579e-15
vertex 18.9 18.9 -2.8199664825479e-15
vertex 13.0905921374817 10.3342232011716 5.63993296509579e-15
endloop
endfacet
facet normal -1.19086422404894e-17 8.3360495683426e-17 -1.0
outer loop
vertex 4.1 4.1 -2.8199664825479e-15
vertex 10.5546623065808 9.21660972024585 5.63993296509579e-15
vertex 18.9 4.1 -2.8199664825479e-15
endloop
endfacet
facet normal -1.19086422404894e-17 8.3360495683426e-17 -1.0
outer loop
vertex 10.5546623065808 9.21660972024585 5.63993296509579e-15
vertex 4.1 4.1 -2.8199664825479e-15
vertex 10.252773039938 9.5052663329985 5.63993296509579e-15
endloop
endfacet
facet normal -1.19086422404894e-17 8.3360495683426e-17 -1.0
outer loop
vertex 10.252773039938 9.5052663329985 5.63993296509579e-15
vertex 4.1 4.1 -2.8199664825479e-15
vertex 10.0358802294834 9.8622219019046 5.63993296509579e-15
endloop
endfacet
facet normal -1.19086422404894e-17 8.3360495683426e-17 -1.0
outer loop
vertex 10.0358802294834 9.8622219019046 5.63993296509579e-15
vertex 4.1 4.1 -2.8199664825479e-15
vertex 9.91876476181717 10.2631504948402 5.63993296509579e-15
endloop
endfacet
facet normal -1.19086422404894e-17 8.3360495683426e-17 -1.0
outer loop
vertex 9.91876476181717 10.2631504948402 5.63993296509579e-15
vertex 4.1 4.1 -2.8199664825479e-15
vertex 9.90940786251833 10.6807294907625 5.63993296509579e-15
endloop
endfacet
facet normal -1.19086422404894e-17 8.3360495683426e-17 -1.0
outer loop
vertex 18.9 4.1 -2.8199664825479e-15
vertex 10.5546623065808 9.21660972024585 5.63993296509579e-15
vertex 10.9209747747857 9.01592353477814 5.63993296509579e-15
endloop
endfacet
facet normal -1.19086422404894e-17 8.3360495683426e-17 -1.0
outer loop
vertex 18.9 4.1 -2.8199664825479e-15
vertex 10.9209747747857 9.01592353477814 5.63993296509579e-15
vertex 11.3267468552046 8.91688420848539 5.63993296509579e-15
endloop
endfacet
facet normal -1.19086422404894e-17 8.3360495683426e-17 -1.0
outer loop
vertex 18.9 4.1 -2.8199664825479e-15
vertex 11.3267468552046 8.91688420848539 5.63993296509579e-15
vertex 11.7443258511269 8.92624110778423 5.63993296509579e-15
endloop
endfacet
facet normal -1.19086422404894e-17 8.3360495683426e-17 -1.0
outer loop
vertex 18.9 4.1 -2.8199664825479e-15
vertex 11.7443258511269 8.92624110778423 5.63993296509579e-15
vertex 12.1452544440625 9.04335657545044 5.63993296509579e-15
endloop
endfacet
facet normal -1.19086422404894e-17 8.3360495683426e-17 -1.0
outer loop
vertex 18.9 4.1 -2.8199664825479e-15
vertex 12.1452544440625 9.04335657545044 5.63993296509579e-15
vertex 12.5022100129686 9.26024938590504 5.63993296509579e-15
endloop
endfacet
facet normal -1.19086422404894e-17 8.3360495683426e-17 -1.0
outer loop
vertex 18.9 4.1 -2.8199664825479e-15
vertex 12.5022100129686 9.26024938590504 5.63993296509579e-15
vertex 12.7908666257212 9.56213865254786 5.63993296509579e-15
endloop
endfacet
facet normal -1.19086422404894e-17 8.3360495683426e-17 -1.0
outer loop
vertex 18.9 4.1 -2.8199664825479e-15
vertex 12.7908666257212 9.56213865254786 5.63993296509579e-15
vertex 12.9915528111889 9.92845112075279 5.63993296509579e-15
endloop
endfacet
facet normal -1.19086422404894e-17 8.3360495683426e-17 -1.0
outer loop
vertex 18.9 4.1 -2.8199664825479e-15
vertex 12.9915528111889 9.92845112075279 5.63993296509579e-15
vertex 13.0905921374817 10.3342232011716 5.63993296509579e-15
endloop
endfacet
facet normal -1.19086422404894e-17 8.3360495683426e-17 -1.0
outer loop
vertex 18.9 4.1 -2.8199664825479e-15
vertex 13.0905921374817 10.3342232011716 5.63993296509579e-15
vertex 18.9 18.9 -2.8199664825479e-15
endloop
endfacet
facet normal -5.95626192050271e-33 1.0 8.3360495683426e-17
outer loop
vertex 4.1 4.1 -2.8199664825479e-15
vertex 18.9 4.1 -1.9
vertex 4.1 4.1 -1.9
endloop
endfacet
facet normal -5.95626192050271e-33 1.0 8.3360495683426e-17
outer loop
vertex 18.9 4.1 -1.9
vertex 4.1 4.1 -2.8199664825479e-15
vertex 18.9 4.1 -2.8199664825479e-15
endloop
endfacet
facet normal 1.0 9.52691379239154e-17 -1.19086422404894e-17
outer loop
vertex 4.1 4.1 -1.9
vertex 4.1 18.9 0.0
vertex 4.1 4.1 -2.8199664825479e-15
endloop
endfacet
facet normal 1.0 9.52691379239154e-17 -1.19086422404894e-17
outer loop
vertex 4.1 18.9 0.0
vertex 4.1 4.1 -1.9
vertex 4.1 18.9 -1.9
endloop
endfacet
facet normal -7.94168256067027e-33 -1.0 -8.3360495683426e-17
outer loop
vertex 18.9 18.9 -2.8199664825479e-15
vertex 4.1 18.9 -1.9
vertex 18.9 18.9 -1.9
endloop
endfacet
facet normal -7.94168256067027e-33 -1.0 -8.3360495683426e-17
outer loop
vertex 4.1 18.9 -1.9
vertex 18.9 18.9 -2.8199664825479e-15
vertex 4.1 18.9 0.0
endloop
endfacet
facet normal -1.0 0.0 1.19086422404894e-17
outer loop
vertex 18.9 18.9 -2.8199664825479e-15
vertex 18.9 4.1 -1.9
vertex 18.9 4.1 -2.8199664825479e-15
endloop
endfacet
facet normal -1.0 0.0 1.19086422404894e-17
outer loop
vertex 18.9 4.1 -1.9
vertex 18.9 18.9 -2.8199664825479e-15
vertex 18.9 18.9 -1.9
endloop
endfacet
endsolid vane housing2
