solid vane mount
facet normal -0.3713906763541037 -0.0 0.9284766908852592
  outer loop
    vertex 5.0 0.0 7.0
    vertex 0.0 20.0 5.0
    vertex 0.0 0.0 5.0
  endloop
endfacet
facet normal -0.3713906763541037 -0.0 0.9284766908852592
  outer loop
    vertex 0.0 20.0 5.0
    vertex 5.0 0.0 7.0
    vertex 5.0 20.0 7.0
  endloop
endfacet
facet normal 0.37139067635410367 -0.0 0.9284766908852594
  outer loop
    vertex 10.0 0.0 5.0
    vertex 5.0 20.0 7.0
    vertex 5.0 0.0 7.0
  endloop
endfacet
facet normal 0.37139067635410367 -0.0 0.9284766908852594
  outer loop
    vertex 5.0 20.0 7.0
    vertex 10.0 0.0 5.0
    vertex 10.0 20.0 5.0
  endloop
endfacet
facet normal 0.0 0.0 -1.0
  outer loop
    vertex -1.3499999999999996 20.0 3.0
    vertex 0.09376765487743469 -2.0036301158174937e-17 3.0
    vertex -1.35 0.0 3.0
  endloop
endfacet
facet normal 0.0 0.0 -1.0
  outer loop
    vertex 0.09376765487743469 -2.0036301158174937e-17 3.0
    vertex -1.3499999999999996 20.0 3.0
    vertex 0.09376765487743498 19.981564999999996 3.0
  endloop
endfacet
facet normal 1.0 -7.049916206369744e-17 -7.049916206369744e-17
  outer loop
    vertex 13.349999999999998 20.0 -14.999999999999995
    vertex 13.349999999999998 -3.524958103184872e-16 5.0
    vertex 13.349999999999996 -1.127986593019159e-14 -14.99999999999999
  endloop
endfacet
facet normal 1.0 -7.049916206369744e-17 -7.049916206369744e-17
  outer loop
    vertex 13.349999999999998 -3.524958103184872e-16 5.0
    vertex 13.349999999999998 20.0 -14.999999999999995
    vertex 13.349999999999998 20.0 5.0
  endloop
endfacet
facet normal -1.0 0.0 0.0
  outer loop
    vertex -3.3499999999999996 0.0 5.0
    vertex -3.3499999999999996 20.0 -14.999999999999998
    vertex -3.3499999999999996 -2.8199664825478975e-15 -14.999999999999998
  endloop
endfacet
facet normal -1.0 0.0 0.0
  outer loop
    vertex -3.3499999999999996 20.0 -14.999999999999998
    vertex -3.3499999999999996 0.0 5.0
    vertex -3.3499999999999996 20.0 5.0
  endloop
endfacet
facet normal -0.0 -0.0 1.0
  outer loop
    vertex 0.0 0.0 5.0
    vertex -3.3499999999999996 20.0 5.0
    vertex -3.3499999999999996 0.0 5.0
  endloop
endfacet
facet normal -0.0 -0.0 1.0
  outer loop
    vertex -3.3499999999999996 20.0 5.0
    vertex 0.0 0.0 5.0
    vertex 0.0 20.0 5.0
  endloop
endfacet
facet normal -1.0 7.049916206369744e-17 7.833240229299716e-17
  outer loop
    vertex 11.35 -3.524958103184872e-16 3.0
    vertex 11.35 20.0 -14.999999999999995
    vertex 11.349999999999996 -1.127986593019159e-14 -14.99999999999999
  endloop
endfacet
facet normal -1.0 7.049916206369744e-17 7.833240229299716e-17
  outer loop
    vertex 11.35 20.0 -14.999999999999995
    vertex 11.35 -3.524958103184872e-16 3.0
    vertex 11.35 20.0 3.0
  endloop
endfacet
facet normal -0.7432941462471663 2.9282022169902126e-16 0.6689647316224497
  outer loop
    vertex 11.35 20.0 -14.999999999999995
    vertex 9.549999999999997 -1.127986593019159e-14 -16.99999999999999
    vertex 11.349999999999996 -1.127986593019159e-14 -14.99999999999999
  endloop
endfacet
facet normal -0.7432941462471663 2.9282022169902126e-16 0.6689647316224497
  outer loop
    vertex 9.549999999999997 -1.127986593019159e-14 -16.99999999999999
    vertex 11.35 20.0 -14.999999999999995
    vertex 9.549999999999999 20.000000000000004 -16.999999999999993
  endloop
endfacet
facet normal 0.7432941462471659 -9.150631928094434e-18 0.6689647316224502
  outer loop
    vertex 0.4499999999999992 19.999999999999996 -16.999999999999993
    vertex -1.35 0.0 -14.999999999999998
    vertex 0.4499999999999992 -2.8199664825478975e-15 -16.999999999999993
  endloop
endfacet
facet normal 0.7432941462471659 -9.150631928094434e-18 0.6689647316224502
  outer loop
    vertex -1.35 0.0 -14.999999999999998
    vertex 0.4499999999999992 19.999999999999996 -16.999999999999993
    vertex -1.3499999999999996 20.0 -14.999999999999998
  endloop
endfacet
facet normal -0.7432941462471659 1.4557823521968467e-18 -0.6689647316224502
  outer loop
    vertex -3.3499999999999996 20.0 -14.999999999999998
    vertex -1.5500000000000007 -2.8199664825478975e-15 -16.999999999999993
    vertex -3.3499999999999996 -2.8199664825478975e-15 -14.999999999999998
  endloop
endfacet
facet normal -0.7432941462471659 1.4557823521968467e-18 -0.6689647316224502
  outer loop
    vertex -1.5500000000000007 -2.8199664825478975e-15 -16.999999999999993
    vertex -3.3499999999999996 20.0 -14.999999999999998
    vertex -1.5500000000000007 19.999999999999996 -16.999999999999993
  endloop
endfacet
facet normal 0.7432941462471663 -2.9323615951393464e-16 -0.6689647316224497
  outer loop
    vertex 11.549999999999999 20.000000000000004 -16.999999999999993
    vertex 13.349999999999996 -1.127986593019159e-14 -14.99999999999999
    vertex 11.549999999999995 -1.4099832412739488e-14 -16.99999999999999
  endloop
endfacet
facet normal 0.7432941462471663 -2.9323615951393464e-16 -0.6689647316224497
  outer loop
    vertex 13.349999999999996 -1.127986593019159e-14 -14.99999999999999
    vertex 11.549999999999999 20.000000000000004 -16.999999999999993
    vertex 13.349999999999998 20.0 -14.999999999999995
  endloop
endfacet
facet normal 0.0 0.0 -1.0
  outer loop
    vertex 9.549999999999999 20.000000000000004 -32.99999999999999
    vertex 11.549999999999995 -1.4099832412739488e-14 -32.99999999999999
    vertex 9.549999999999997 -1.127986593019159e-14 -32.99999999999999
  endloop
endfacet
facet normal 0.0 0.0 -1.0
  outer loop
    vertex 11.549999999999995 -1.4099832412739488e-14 -32.99999999999999
    vertex 9.549999999999999 20.000000000000004 -32.99999999999999
    vertex 11.549999999999999 20.000000000000004 -32.99999999999999
  endloop
endfacet
facet normal 1.0 0.0 0.0
  outer loop
    vertex 11.549999999999999 20.000000000000004 -32.99999999999999
    vertex 11.549999999999995 -1.4099832412739488e-14 -16.99999999999999
    vertex 11.549999999999995 -1.4099832412739488e-14 -32.99999999999999
  endloop
endfacet
facet normal 1.0 0.0 0.0
  outer loop
    vertex 11.549999999999995 -1.4099832412739488e-14 -16.99999999999999
    vertex 11.549999999999999 20.000000000000004 -32.99999999999999
    vertex 11.549999999999999 20.000000000000004 -16.999999999999993
  endloop
endfacet
facet normal -1.0 0.0 0.0
  outer loop
    vertex 9.549999999999999 20.000000000000004 -16.999999999999993
    vertex 9.549999999999997 -1.127986593019159e-14 -32.99999999999999
    vertex 9.549999999999997 -1.127986593019159e-14 -16.99999999999999
  endloop
endfacet
facet normal -1.0 0.0 0.0
  outer loop
    vertex 9.549999999999997 -1.127986593019159e-14 -32.99999999999999
    vertex 9.549999999999999 20.000000000000004 -16.999999999999993
    vertex 9.549999999999999 20.000000000000004 -32.99999999999999
  endloop
endfacet
facet normal 0.0 0.0 -1.0
  outer loop
    vertex 0.4499999999999992 19.999999999999996 -32.99999999999999
    vertex -1.5500000000000007 -2.8199664825478975e-15 -32.99999999999999
    vertex -1.5500000000000007 19.999999999999996 -32.99999999999999
  endloop
endfacet
facet normal 0.0 0.0 -1.0
  outer loop
    vertex -1.5500000000000007 -2.8199664825478975e-15 -32.99999999999999
    vertex 0.4499999999999992 19.999999999999996 -32.99999999999999
    vertex 0.4499999999999992 -2.8199664825478975e-15 -32.99999999999999
  endloop
endfacet
facet normal -1.0 0.0 0.0
  outer loop
    vertex -1.5500000000000007 19.999999999999996 -16.999999999999993
    vertex -1.5500000000000007 -2.8199664825478975e-15 -32.99999999999999
    vertex -1.5500000000000007 -2.8199664825478975e-15 -16.999999999999993
  endloop
endfacet
facet normal -1.0 0.0 0.0
  outer loop
    vertex -1.5500000000000007 -2.8199664825478975e-15 -32.99999999999999
    vertex -1.5500000000000007 19.999999999999996 -16.999999999999993
    vertex -1.5500000000000007 19.999999999999996 -32.99999999999999
  endloop
endfacet
facet normal 1.0 0.0 0.0
  outer loop
    vertex 0.4499999999999992 19.999999999999996 -32.99999999999999
    vertex 0.4499999999999992 -2.8199664825478975e-15 -16.999999999999993
    vertex 0.4499999999999992 -2.8199664825478975e-15 -32.99999999999999
  endloop
endfacet
facet normal 1.0 0.0 0.0
  outer loop
    vertex 0.4499999999999992 -2.8199664825478975e-15 -16.999999999999993
    vertex 0.4499999999999992 19.999999999999996 -32.99999999999999
    vertex 0.4499999999999992 19.999999999999996 -16.999999999999993
  endloop
endfacet
facet normal -0.0 -0.0 1.0
  outer loop
    vertex 13.349999999999998 -3.524958103184872e-16 5.0
    vertex 10.0 20.0 5.0
    vertex 10.0 0.0 5.0
  endloop
endfacet
facet normal -0.0 -0.0 1.0
  outer loop
    vertex 10.0 20.0 5.0
    vertex 13.349999999999998 -3.524958103184872e-16 5.0
    vertex 13.349999999999998 20.0 5.0
  endloop
endfacet
facet normal 1.7840410342099917e-06 0.999999993184397 0.00011673912347927712
  outer loop
    vertex 5.0 19.981564999999996 5.0
    vertex 11.35 20.0 3.0
    vertex 10.0 19.981564999999996 3.0
  endloop
endfacet
facet normal 1.7840410342099917e-06 0.999999993184397 0.00011673912347927712
  outer loop
    vertex 9.549999999999999 20.000000000000004 -16.999999999999993
    vertex 11.549999999999999 20.000000000000004 -32.99999999999999
    vertex 9.549999999999999 20.000000000000004 -32.99999999999999
  endloop
endfacet
facet normal 1.7840410342099917e-06 0.999999993184397 0.00011673912347927712
  outer loop
    vertex 11.549999999999999 20.000000000000004 -32.99999999999999
    vertex 9.549999999999999 20.000000000000004 -16.999999999999993
    vertex 11.549999999999999 20.000000000000004 -16.999999999999993
  endloop
endfacet
facet normal 1.7840410342099917e-06 0.999999993184397 0.00011673912347927712
  outer loop
    vertex 11.549999999999999 20.000000000000004 -16.999999999999993
    vertex 9.549999999999999 20.000000000000004 -16.999999999999993
    vertex 11.35 20.0 -14.999999999999995
  endloop
endfacet
facet normal 1.7840410342099917e-06 0.999999993184397 0.00011673912347927712
  outer loop
    vertex 11.549999999999999 20.000000000000004 -16.999999999999993
    vertex 11.35 20.0 -14.999999999999995
    vertex 13.349999999999998 20.0 -14.999999999999995
  endloop
endfacet
facet normal 1.7840410342099917e-06 0.999999993184397 0.00011673912347927712
  outer loop
    vertex 13.349999999999998 20.0 -14.999999999999995
    vertex 11.35 20.0 -14.999999999999995
    vertex 11.35 20.0 3.0
  endloop
endfacet
facet normal 1.7840410342099917e-06 0.999999993184397 0.00011673912347927712
  outer loop
    vertex 13.349999999999998 20.0 -14.999999999999995
    vertex 11.35 20.0 3.0
    vertex 13.349999999999998 20.0 5.0
  endloop
endfacet
facet normal 1.7840410342099917e-06 0.999999993184397 0.00011673912347927712
  outer loop
    vertex 13.349999999999998 20.0 5.0
    vertex 11.35 20.0 3.0
    vertex 5.0 19.981564999999996 5.0
  endloop
endfacet
facet normal 1.7840410342099917e-06 0.999999993184397 0.00011673912347927712
  outer loop
    vertex 13.349999999999998 20.0 5.0
    vertex 5.0 19.981564999999996 5.0
    vertex 10.0 20.0 5.0
  endloop
endfacet
facet normal 1.7840410342099917e-06 0.999999993184397 0.00011673912347927712
  outer loop
    vertex -1.5500000000000007 19.999999999999996 -16.999999999999993
    vertex 0.4499999999999992 19.999999999999996 -32.99999999999999
    vertex -1.5500000000000007 19.999999999999996 -32.99999999999999
  endloop
endfacet
facet normal 1.7840410342099917e-06 0.999999993184397 0.00011673912347927712
  outer loop
    vertex 0.4499999999999992 19.999999999999996 -32.99999999999999
    vertex -1.5500000000000007 19.999999999999996 -16.999999999999993
    vertex 0.4499999999999992 19.999999999999996 -16.999999999999993
  endloop
endfacet
facet normal 1.7840410342099917e-06 0.999999993184397 0.00011673912347927712
  outer loop
    vertex 0.4499999999999992 19.999999999999996 -16.999999999999993
    vertex -1.5500000000000007 19.999999999999996 -16.999999999999993
    vertex -3.3499999999999996 20.0 -14.999999999999998
  endloop
endfacet
facet normal 1.7840410342099917e-06 0.999999993184397 0.00011673912347927712
  outer loop
    vertex 0.4499999999999992 19.999999999999996 -16.999999999999993
    vertex -3.3499999999999996 20.0 -14.999999999999998
    vertex -1.3499999999999996 20.0 -14.999999999999998
  endloop
endfacet
facet normal 1.7840410342099917e-06 0.999999993184397 0.00011673912347927712
  outer loop
    vertex -1.3499999999999996 20.0 -14.999999999999998
    vertex -3.3499999999999996 20.0 -14.999999999999998
    vertex -3.3499999999999996 20.0 5.0
  endloop
endfacet
facet normal 1.7840410342099917e-06 0.999999993184397 0.00011673912347927712
  outer loop
    vertex -1.3499999999999996 20.0 -14.999999999999998
    vertex -3.3499999999999996 20.0 5.0
    vertex -1.3499999999999996 20.0 3.0
  endloop
endfacet
facet normal 1.7840410342099917e-06 0.999999993184397 0.00011673912347927712
  outer loop
    vertex -1.3499999999999996 20.0 3.0
    vertex -3.3499999999999996 20.0 5.0
    vertex 0.09376765487743498 19.981564999999996 3.0
  endloop
endfacet
facet normal 1.7840410342099917e-06 0.999999993184397 0.00011673912347927712
  outer loop
    vertex 0.09376765487743498 19.981564999999996 3.0
    vertex -3.3499999999999996 20.0 5.0
    vertex 5.0 19.981564999999996 5.0
  endloop
endfacet
facet normal 1.7840410342099917e-06 0.999999993184397 0.00011673912347927712
  outer loop
    vertex 5.0 19.981564999999996 5.0
    vertex -3.3499999999999996 20.0 5.0
    vertex 0.0 20.0 5.0
  endloop
endfacet
facet normal 1.7840410342099917e-06 0.999999993184397 0.00011673912347927712
  outer loop
    vertex 5.0 19.981564999999996 5.0
    vertex 0.0 20.0 5.0
    vertex 5.0 20.0 7.0
  endloop
endfacet
facet normal 1.7840410342099917e-06 0.999999993184397 0.00011673912347927712
  outer loop
    vertex 5.0 19.981564999999996 5.0
    vertex 5.0 20.0 7.0
    vertex 10.0 20.0 5.0
  endloop
endfacet
facet normal 1.0 -1.762479051592436e-17 -0.0
  outer loop
    vertex -1.3499999999999996 20.0 -14.999999999999998
    vertex -1.35 0.0 3.0
    vertex -1.35 0.0 -14.999999999999998
  endloop
endfacet
facet normal 1.0 -1.762479051592436e-17 -0.0
  outer loop
    vertex -1.35 0.0 3.0
    vertex -1.3499999999999996 20.0 -14.999999999999998
    vertex -1.3499999999999996 20.0 3.0
  endloop
endfacet
facet normal -4.697105316280794e-16 -1.0 2.353989185671517e-16
  outer loop
    vertex 5.0 -1.5751289161869408e-16 5.0
    vertex -1.35 0.0 3.0
    vertex 0.09376765487743469 -2.0036301158174937e-17 3.0
  endloop
endfacet
facet normal -4.697105316280794e-16 -1.0 2.353989185671517e-16
  outer loop
    vertex 0.4499999999999992 -2.8199664825478975e-15 -16.999999999999993
    vertex -1.5500000000000007 -2.8199664825478975e-15 -32.99999999999999
    vertex 0.4499999999999992 -2.8199664825478975e-15 -32.99999999999999
  endloop
endfacet
facet normal -4.697105316280794e-16 -1.0 2.353989185671517e-16
  outer loop
    vertex -1.5500000000000007 -2.8199664825478975e-15 -32.99999999999999
    vertex 0.4499999999999992 -2.8199664825478975e-15 -16.999999999999993
    vertex -1.5500000000000007 -2.8199664825478975e-15 -16.999999999999993
  endloop
endfacet
facet normal -4.697105316280794e-16 -1.0 2.353989185671517e-16
  outer loop
    vertex -1.5500000000000007 -2.8199664825478975e-15 -16.999999999999993
    vertex 0.4499999999999992 -2.8199664825478975e-15 -16.999999999999993
    vertex -1.35 0.0 -14.999999999999998
  endloop
endfacet
facet normal -4.697105316280794e-16 -1.0 2.353989185671517e-16
  outer loop
    vertex -1.5500000000000007 -2.8199664825478975e-15 -16.999999999999993
    vertex -1.35 0.0 -14.999999999999998
    vertex -3.3499999999999996 -2.8199664825478975e-15 -14.999999999999998
  endloop
endfacet
facet normal -4.697105316280794e-16 -1.0 2.353989185671517e-16
  outer loop
    vertex -3.3499999999999996 -2.8199664825478975e-15 -14.999999999999998
    vertex -1.35 0.0 -14.999999999999998
    vertex -1.35 0.0 3.0
  endloop
endfacet
facet normal -4.697105316280794e-16 -1.0 2.353989185671517e-16
  outer loop
    vertex -3.3499999999999996 -2.8199664825478975e-15 -14.999999999999998
    vertex -1.35 0.0 3.0
    vertex -3.3499999999999996 0.0 5.0
  endloop
endfacet
facet normal -4.697105316280794e-16 -1.0 2.353989185671517e-16
  outer loop
    vertex -3.3499999999999996 0.0 5.0
    vertex -1.35 0.0 3.0
    vertex 5.0 -1.5751289161869408e-16 5.0
  endloop
endfacet
facet normal -4.697105316280794e-16 -1.0 2.353989185671517e-16
  outer loop
    vertex -3.3499999999999996 0.0 5.0
    vertex 5.0 -1.5751289161869408e-16 5.0
    vertex 0.0 0.0 5.0
  endloop
endfacet
facet normal -4.697105316280794e-16 -1.0 2.353989185671517e-16
  outer loop
    vertex 11.549999999999995 -1.4099832412739488e-14 -16.99999999999999
    vertex 9.549999999999997 -1.127986593019159e-14 -32.99999999999999
    vertex 11.549999999999995 -1.4099832412739488e-14 -32.99999999999999
  endloop
endfacet
facet normal -4.697105316280794e-16 -1.0 2.353989185671517e-16
  outer loop
    vertex 9.549999999999997 -1.127986593019159e-14 -32.99999999999999
    vertex 11.549999999999995 -1.4099832412739488e-14 -16.99999999999999
    vertex 9.549999999999997 -1.127986593019159e-14 -16.99999999999999
  endloop
endfacet
facet normal -4.697105316280794e-16 -1.0 2.353989185671517e-16
  outer loop
    vertex 9.549999999999997 -1.127986593019159e-14 -16.99999999999999
    vertex 11.549999999999995 -1.4099832412739488e-14 -16.99999999999999
    vertex 13.349999999999996 -1.127986593019159e-14 -14.99999999999999
  endloop
endfacet
facet normal -4.697105316280794e-16 -1.0 2.353989185671517e-16
  outer loop
    vertex 9.549999999999997 -1.127986593019159e-14 -16.99999999999999
    vertex 13.349999999999996 -1.127986593019159e-14 -14.99999999999999
    vertex 11.349999999999996 -1.127986593019159e-14 -14.99999999999999
  endloop
endfacet
facet normal -4.697105316280794e-16 -1.0 2.353989185671517e-16
  outer loop
    vertex 11.349999999999996 -1.127986593019159e-14 -14.99999999999999
    vertex 13.349999999999996 -1.127986593019159e-14 -14.99999999999999
    vertex 13.349999999999998 -3.524958103184872e-16 5.0
  endloop
endfacet
facet normal -4.697105316280794e-16 -1.0 2.353989185671517e-16
  outer loop
    vertex 11.349999999999996 -1.127986593019159e-14 -14.99999999999999
    vertex 13.349999999999998 -3.524958103184872e-16 5.0
    vertex 11.35 -3.524958103184872e-16 3.0
  endloop
endfacet
facet normal -4.697105316280794e-16 -1.0 2.353989185671517e-16
  outer loop
    vertex 11.35 -3.524958103184872e-16 3.0
    vertex 13.349999999999998 -3.524958103184872e-16 5.0
    vertex 10.0 -1.5751289161869408e-16 3.0
  endloop
endfacet
facet normal -4.697105316280794e-16 -1.0 2.353989185671517e-16
  outer loop
    vertex 10.0 -1.5751289161869408e-16 3.0
    vertex 13.349999999999998 -3.524958103184872e-16 5.0
    vertex 5.0 -1.5751289161869408e-16 5.0
  endloop
endfacet
facet normal -4.697105316280794e-16 -1.0 2.353989185671517e-16
  outer loop
    vertex 5.0 -1.5751289161869408e-16 5.0
    vertex 13.349999999999998 -3.524958103184872e-16 5.0
    vertex 10.0 0.0 5.0
  endloop
endfacet
facet normal -4.697105316280794e-16 -1.0 2.353989185671517e-16
  outer loop
    vertex 5.0 -1.5751289161869408e-16 5.0
    vertex 10.0 0.0 5.0
    vertex 5.0 0.0 7.0
  endloop
endfacet
facet normal -4.697105316280794e-16 -1.0 2.353989185671517e-16
  outer loop
    vertex 5.0 -1.5751289161869408e-16 5.0
    vertex 5.0 0.0 7.0
    vertex 0.0 0.0 5.0
  endloop
endfacet
facet normal -0.3713906763541036 0.0 -0.9284766908852594
  outer loop
    vertex 10.0 19.981564999999996 3.0
    vertex 5.0 -1.5751289161869408e-16 5.0
    vertex 5.0 19.981564999999996 5.0
  endloop
endfacet
facet normal -0.3713906763541036 0.0 -0.9284766908852594
  outer loop
    vertex 5.0 -1.5751289161869408e-16 5.0
    vertex 10.0 19.981564999999996 3.0
    vertex 10.0 -1.5751289161869408e-16 3.0
  endloop
endfacet
facet normal 0.377485398701715 0.0 -0.926015536460921
  outer loop
    vertex 0.09376765487743498 19.981564999999996 3.0
    vertex 5.0 -1.5751289161869408e-16 5.0
    vertex 0.09376765487743469 -2.0036301158174937e-17 3.0
  endloop
endfacet
facet normal 0.377485398701715 0.0 -0.926015536460921
  outer loop
    vertex 5.0 -1.5751289161869408e-16 5.0
    vertex 0.09376765487743498 19.981564999999996 3.0
    vertex 5.0 19.981564999999996 5.0
  endloop
endfacet
facet normal 0.0 0.0 -1.0
  outer loop
    vertex 11.35 20.0 3.0
    vertex 10.0 -1.5751289161869408e-16 3.0
    vertex 10.0 19.981564999999996 3.0
  endloop
endfacet
facet normal 0.0 0.0 -1.0
  outer loop
    vertex 10.0 -1.5751289161869408e-16 3.0
    vertex 11.35 20.0 3.0
    vertex 11.35 -3.524958103184872e-16 3.0
  endloop
endfacet
endsolid vane mount
