G75*
G70*
%OFA0B0*%
%FSLAX24Y24*%
%IPPOS*%
%LPD*%
%AMOC8*
5,1,8,0,0,1.08239X$1,22.5*
%
%ADD10R,0.0315X0.0118*%
%ADD11R,0.0118X0.0315*%
%ADD12R,0.0276X0.0354*%
%ADD13R,0.0354X0.0276*%
%ADD14R,0.0670X0.0790*%
%ADD15R,0.0394X0.0433*%
%ADD16R,0.0551X0.0709*%
%ADD17R,0.0748X0.0551*%
%ADD18R,0.0591X0.0315*%
%ADD19R,0.0630X0.0551*%
%ADD20R,0.0790X0.0670*%
%ADD21R,0.0394X0.0142*%
%ADD22R,0.0142X0.0394*%
%ADD23C,0.0236*%
%ADD24R,0.0500X0.0250*%
%ADD25R,0.0900X0.0960*%
%ADD26R,0.0945X0.1969*%
%ADD27R,0.0630X0.1969*%
%ADD28R,0.0327X0.0248*%
%ADD29C,0.0283*%
%ADD30R,0.0591X0.0118*%
%ADD31R,0.0118X0.0591*%
%ADD32R,0.0276X0.0787*%
%ADD33R,0.0256X0.0197*%
%ADD34C,0.0083*%
%ADD35R,0.0350X0.0300*%
%ADD36R,0.0252X0.0138*%
%ADD37R,0.0276X0.0512*%
%ADD38R,0.0236X0.0354*%
%ADD39R,0.0433X0.0394*%
%ADD40R,0.0433X0.0787*%
%ADD41R,0.0315X0.0315*%
%ADD42R,0.0276X0.0197*%
%ADD43C,0.0039*%
%ADD44R,0.1969X0.0945*%
%ADD45R,0.1969X0.0630*%
%ADD46R,0.0787X0.0433*%
%ADD47R,0.0110X0.0256*%
%ADD48R,0.0256X0.0110*%
%ADD49R,0.0354X0.0315*%
%ADD50R,0.0315X0.0354*%
%ADD51R,0.0551X0.0394*%
%ADD52R,0.0394X0.0551*%
D10*
X023794Y003603D03*
X023794Y003800D03*
X023794Y003996D03*
X023794Y004193D03*
X023794Y004390D03*
X023794Y004587D03*
X025368Y004587D03*
X025368Y004390D03*
X025368Y004193D03*
X025368Y003996D03*
X025368Y003800D03*
X025368Y003603D03*
D11*
X025073Y003307D03*
X024876Y003307D03*
X024679Y003307D03*
X024483Y003307D03*
X024286Y003307D03*
X024089Y003307D03*
X024089Y004882D03*
X024286Y004882D03*
X024483Y004882D03*
X024679Y004882D03*
X024876Y004882D03*
X025073Y004882D03*
D12*
X025947Y003800D03*
X026459Y003800D03*
X022943Y001776D03*
X022431Y001776D03*
X010020Y005412D03*
X009508Y005412D03*
X009508Y005849D03*
X010020Y005849D03*
X011738Y016473D03*
X012250Y016473D03*
X011750Y019123D03*
X011238Y019123D03*
D13*
X004129Y000636D03*
X004864Y000656D03*
X004864Y001168D03*
X004129Y001148D03*
X009389Y001531D03*
X009889Y001531D03*
X009889Y002043D03*
X009389Y002043D03*
X010514Y003406D03*
X010514Y003918D03*
X011014Y005343D03*
X011014Y005855D03*
X014715Y013398D03*
X014715Y013910D03*
X009494Y017217D03*
X008994Y017217D03*
X008994Y017729D03*
X009494Y017729D03*
X010494Y018717D03*
X010494Y019229D03*
X024813Y006004D03*
X024813Y005493D03*
X024640Y002678D03*
X024640Y002166D03*
D14*
X022519Y003570D03*
D15*
X015719Y004146D03*
X015719Y004815D03*
X031467Y008477D03*
X031467Y009146D03*
X034616Y010445D03*
X034616Y011115D03*
X034892Y012040D03*
X034085Y012040D03*
X034085Y012709D03*
X034892Y012709D03*
X025297Y018394D03*
X025297Y019063D03*
X029687Y018863D03*
X029687Y019532D03*
X018868Y017020D03*
X018081Y017020D03*
X018081Y016351D03*
X018868Y016351D03*
X005443Y016469D03*
X005443Y015800D03*
X004616Y015800D03*
X004616Y016469D03*
X033829Y005485D03*
X033829Y004815D03*
X035010Y003241D03*
X035797Y003241D03*
X036585Y003241D03*
X036585Y002571D03*
X035797Y002571D03*
X035010Y002571D03*
D16*
X014813Y007237D03*
X013475Y007237D03*
X008132Y011867D03*
X008132Y014111D03*
D17*
X002955Y014741D03*
X002561Y009563D03*
D18*
X004077Y011398D03*
X004234Y011831D03*
X004077Y012264D03*
X003998Y012697D03*
X004077Y013130D03*
X003998Y013563D03*
X004077Y013996D03*
X004077Y014430D03*
D19*
X009764Y004213D03*
X009764Y003111D03*
D20*
X012519Y002637D03*
X012509Y003687D03*
D21*
X008443Y003662D03*
X008443Y003347D03*
X008443Y003032D03*
X008443Y002717D03*
X008443Y002402D03*
X008443Y002087D03*
X008443Y003977D03*
X008443Y004292D03*
X008443Y004607D03*
X008443Y004922D03*
X008443Y005237D03*
X004585Y005237D03*
X004585Y004922D03*
X004585Y004607D03*
X004585Y004292D03*
X004585Y003977D03*
X004585Y003662D03*
X004585Y003347D03*
X004585Y003032D03*
X004585Y002717D03*
X004585Y002402D03*
X004585Y002087D03*
D22*
X004939Y001733D03*
X005254Y001733D03*
X005569Y001733D03*
X005884Y001733D03*
X006199Y001733D03*
X006514Y001733D03*
X006829Y001733D03*
X007144Y001733D03*
X007459Y001733D03*
X007774Y001733D03*
X008089Y001733D03*
X008089Y005591D03*
X007774Y005591D03*
X007459Y005591D03*
X007144Y005591D03*
X006829Y005591D03*
X006514Y005591D03*
X006199Y005591D03*
X005884Y005591D03*
X005569Y005591D03*
X005254Y005591D03*
X004939Y005591D03*
D23*
X005333Y004843D03*
X005923Y004843D03*
X006514Y004843D03*
X007105Y004843D03*
X007695Y004843D03*
X007695Y004252D03*
X007105Y004252D03*
X006514Y004252D03*
X005923Y004252D03*
X005333Y004252D03*
X005333Y003662D03*
X005923Y003662D03*
X006514Y003662D03*
X007105Y003662D03*
X007695Y003662D03*
X007695Y003071D03*
X007105Y003071D03*
X006514Y003071D03*
X005923Y003071D03*
X005333Y003071D03*
X005333Y002481D03*
X005923Y002481D03*
X006514Y002481D03*
X007105Y002481D03*
X007695Y002481D03*
D24*
X012514Y005062D03*
X012514Y005386D03*
D25*
X012514Y005224D03*
D26*
X007154Y007662D03*
D27*
X009516Y007662D03*
D28*
X011639Y005865D03*
X011639Y004959D03*
D29*
X016726Y007481D02*
X016876Y007481D01*
X016726Y007481D02*
X016726Y007553D01*
X016876Y007553D01*
X016876Y007481D01*
X017695Y007705D02*
X017767Y007705D01*
X017767Y007555D01*
X017695Y007555D01*
X017695Y007705D01*
X018395Y007705D02*
X018467Y007705D01*
X018467Y007555D01*
X018395Y007555D01*
X018395Y007705D01*
X016876Y008181D02*
X016726Y008181D01*
X016726Y008253D01*
X016876Y008253D01*
X016876Y008181D01*
X022255Y011630D02*
X022255Y011780D01*
X022255Y011630D02*
X022183Y011630D01*
X022183Y011780D01*
X022255Y011780D01*
X022955Y011780D02*
X022955Y011630D01*
X022883Y011630D01*
X022883Y011780D01*
X022955Y011780D01*
X016542Y015742D02*
X016392Y015742D01*
X016542Y015742D02*
X016542Y015670D01*
X016392Y015670D01*
X016392Y015742D01*
X016392Y016442D02*
X016542Y016442D01*
X016542Y016370D01*
X016392Y016370D01*
X016392Y016442D01*
X015718Y015284D02*
X015718Y015134D01*
X015718Y015284D02*
X015790Y015284D01*
X015790Y015134D01*
X015718Y015134D01*
X015018Y015134D02*
X015018Y015284D01*
X015090Y015284D01*
X015090Y015134D01*
X015018Y015134D01*
X014714Y012764D02*
X014714Y012614D01*
X014714Y012764D02*
X014786Y012764D01*
X014786Y012614D01*
X014714Y012614D01*
X014014Y012614D02*
X014014Y012764D01*
X014086Y012764D01*
X014086Y012614D01*
X014014Y012614D01*
D30*
X015325Y012552D03*
X015325Y012748D03*
X015325Y012945D03*
X015325Y013142D03*
X015325Y013339D03*
X015325Y013536D03*
X015325Y013733D03*
X015325Y013930D03*
X015325Y014126D03*
X015325Y014323D03*
X015325Y012355D03*
X015325Y012158D03*
X015325Y011961D03*
X015325Y011764D03*
X015325Y011567D03*
X015325Y011370D03*
X015325Y011174D03*
X015325Y010977D03*
X015325Y010780D03*
X015325Y010583D03*
X015325Y010386D03*
X015325Y010189D03*
X015325Y009993D03*
X015325Y009796D03*
X015325Y009599D03*
X021624Y009599D03*
X021624Y009796D03*
X021624Y009993D03*
X021624Y010189D03*
X021624Y010386D03*
X021624Y010583D03*
X021624Y010780D03*
X021624Y010977D03*
X021624Y011174D03*
X021624Y011370D03*
X021624Y011567D03*
X021624Y011764D03*
X021624Y011961D03*
X021624Y012158D03*
X021624Y012355D03*
X021624Y012552D03*
X021624Y012748D03*
X021624Y012945D03*
X021624Y013142D03*
X021624Y013339D03*
X021624Y013536D03*
X021624Y013733D03*
X021624Y013930D03*
X021624Y014126D03*
X021624Y014323D03*
D31*
X020837Y015111D03*
X020640Y015111D03*
X020443Y015111D03*
X020246Y015111D03*
X020049Y015111D03*
X019853Y015111D03*
X019656Y015111D03*
X019459Y015111D03*
X019262Y015111D03*
X019065Y015111D03*
X018868Y015111D03*
X018671Y015111D03*
X018475Y015111D03*
X018278Y015111D03*
X018081Y015111D03*
X017884Y015111D03*
X017687Y015111D03*
X017490Y015111D03*
X017294Y015111D03*
X017097Y015111D03*
X016900Y015111D03*
X016703Y015111D03*
X016506Y015111D03*
X016309Y015111D03*
X016112Y015111D03*
X016112Y008811D03*
X016309Y008811D03*
X016506Y008811D03*
X016703Y008811D03*
X016900Y008811D03*
X017097Y008811D03*
X017294Y008811D03*
X017490Y008811D03*
X017687Y008811D03*
X017884Y008811D03*
X018081Y008811D03*
X018278Y008811D03*
X018475Y008811D03*
X018671Y008811D03*
X018868Y008811D03*
X019065Y008811D03*
X019262Y008811D03*
X019459Y008811D03*
X019656Y008811D03*
X019853Y008811D03*
X020049Y008811D03*
X020246Y008811D03*
X020443Y008811D03*
X020640Y008811D03*
X020837Y008811D03*
D32*
X018081Y006449D03*
X017687Y006449D03*
X017294Y006449D03*
D33*
X018996Y006370D03*
X019528Y006370D03*
X019528Y006685D03*
X019528Y007000D03*
X019528Y007315D03*
X018996Y007315D03*
X018996Y007000D03*
X018996Y006685D03*
D34*
X017883Y002770D02*
X017335Y002770D01*
X017335Y003238D01*
X017883Y003238D01*
X017883Y002770D01*
X017883Y002852D02*
X017335Y002852D01*
X017335Y002934D02*
X017883Y002934D01*
X017883Y003016D02*
X017335Y003016D01*
X017335Y003098D02*
X017883Y003098D01*
X017883Y003180D02*
X017335Y003180D01*
X017335Y000999D02*
X017883Y000999D01*
X017335Y000999D02*
X017335Y001467D01*
X017883Y001467D01*
X017883Y000999D01*
X017883Y001081D02*
X017335Y001081D01*
X017335Y001163D02*
X017883Y001163D01*
X017883Y001245D02*
X017335Y001245D01*
X017335Y001327D02*
X017883Y001327D01*
X017883Y001409D02*
X017335Y001409D01*
X020642Y000999D02*
X021190Y000999D01*
X020642Y000999D02*
X020642Y001467D01*
X021190Y001467D01*
X021190Y000999D01*
X021190Y001081D02*
X020642Y001081D01*
X020642Y001163D02*
X021190Y001163D01*
X021190Y001245D02*
X020642Y001245D01*
X020642Y001327D02*
X021190Y001327D01*
X021190Y001409D02*
X020642Y001409D01*
X020642Y002770D02*
X021190Y002770D01*
X020642Y002770D02*
X020642Y003238D01*
X021190Y003238D01*
X021190Y002770D01*
X021190Y002852D02*
X020642Y002852D01*
X020642Y002934D02*
X021190Y002934D01*
X021190Y003016D02*
X020642Y003016D01*
X020642Y003098D02*
X021190Y003098D01*
X021190Y003180D02*
X020642Y003180D01*
D35*
X017587Y002119D03*
D36*
X032628Y011272D03*
X032628Y011469D03*
X032628Y011666D03*
X032628Y011863D03*
X033459Y011863D03*
X033459Y011666D03*
X033459Y011469D03*
X033459Y011272D03*
D37*
X033042Y011567D03*
D38*
X033455Y004146D03*
X033829Y004146D03*
X034203Y004146D03*
X034203Y003241D03*
X033829Y003241D03*
X033455Y003241D03*
D39*
X032864Y002335D03*
X032195Y002335D03*
X032313Y005662D03*
X032983Y005662D03*
X024715Y009993D03*
X024046Y009993D03*
X032313Y012532D03*
X032983Y012532D03*
X033120Y010583D03*
X033790Y010583D03*
X033888Y017079D03*
X034557Y017079D03*
X012510Y007237D03*
X011841Y007237D03*
X015778Y003300D03*
X016447Y003300D03*
D40*
X032884Y004146D03*
D41*
X032884Y004894D03*
X027609Y018654D03*
X022490Y018654D03*
D42*
X032412Y001725D03*
X032923Y001725D03*
D43*
X031782Y003083D02*
X030797Y003083D01*
X030522Y003359D01*
X030522Y003713D01*
X032057Y003713D01*
X032057Y003359D01*
X031782Y003083D01*
X031803Y003104D02*
X030777Y003104D01*
X030739Y003142D02*
X031840Y003142D01*
X031878Y003180D02*
X030701Y003180D01*
X030663Y003217D02*
X031916Y003217D01*
X031954Y003255D02*
X030625Y003255D01*
X030587Y003293D02*
X031992Y003293D01*
X032030Y003331D02*
X030549Y003331D01*
X030522Y003369D02*
X032057Y003369D01*
X032057Y003407D02*
X030522Y003407D01*
X030522Y003445D02*
X032057Y003445D01*
X032057Y003483D02*
X030522Y003483D01*
X030522Y003520D02*
X032057Y003520D01*
X032057Y003558D02*
X030522Y003558D01*
X030522Y003596D02*
X032057Y003596D01*
X032057Y003634D02*
X030522Y003634D01*
X030522Y003672D02*
X032057Y003672D01*
X032057Y003710D02*
X030522Y003710D01*
X030522Y004225D02*
X032057Y004225D01*
X032057Y004579D01*
X031782Y004855D01*
X030797Y004855D01*
X030522Y004579D01*
X030522Y004225D01*
X030522Y004240D02*
X032057Y004240D01*
X032057Y004278D02*
X030522Y004278D01*
X030522Y004316D02*
X032057Y004316D01*
X032057Y004354D02*
X030522Y004354D01*
X030522Y004391D02*
X032057Y004391D01*
X032057Y004429D02*
X030522Y004429D01*
X030522Y004467D02*
X032057Y004467D01*
X032057Y004505D02*
X030522Y004505D01*
X030522Y004543D02*
X032057Y004543D01*
X032056Y004581D02*
X030524Y004581D01*
X030561Y004619D02*
X032018Y004619D01*
X031980Y004657D02*
X030599Y004657D01*
X030637Y004694D02*
X031942Y004694D01*
X031904Y004732D02*
X030675Y004732D01*
X030713Y004770D02*
X031866Y004770D01*
X031828Y004808D02*
X030751Y004808D01*
X030789Y004846D02*
X031791Y004846D01*
X031605Y009973D02*
X030620Y009973D01*
X030345Y010248D01*
X030345Y010603D01*
X031880Y010603D01*
X031880Y010248D01*
X031605Y009973D01*
X031628Y009996D02*
X030597Y009996D01*
X030559Y010034D02*
X031666Y010034D01*
X031704Y010072D02*
X030521Y010072D01*
X030483Y010110D02*
X031742Y010110D01*
X031779Y010148D02*
X030445Y010148D01*
X030408Y010186D02*
X031817Y010186D01*
X031855Y010224D02*
X030370Y010224D01*
X030345Y010261D02*
X031880Y010261D01*
X031880Y010299D02*
X030345Y010299D01*
X030345Y010337D02*
X031880Y010337D01*
X031880Y010375D02*
X030345Y010375D01*
X030345Y010413D02*
X031880Y010413D01*
X031880Y010451D02*
X030345Y010451D01*
X030345Y010489D02*
X031880Y010489D01*
X031880Y010526D02*
X030345Y010526D01*
X030345Y010564D02*
X031880Y010564D01*
X031880Y010602D02*
X030345Y010602D01*
X030345Y011115D02*
X031880Y011115D01*
X031880Y011469D01*
X031605Y011744D01*
X030620Y011744D01*
X030345Y011469D01*
X030345Y011115D01*
X030345Y011132D02*
X031880Y011132D01*
X031880Y011170D02*
X030345Y011170D01*
X030345Y011208D02*
X031880Y011208D01*
X031880Y011246D02*
X030345Y011246D01*
X030345Y011284D02*
X031880Y011284D01*
X031880Y011322D02*
X030345Y011322D01*
X030345Y011360D02*
X031880Y011360D01*
X031880Y011397D02*
X030345Y011397D01*
X030345Y011435D02*
X031880Y011435D01*
X031876Y011473D02*
X030349Y011473D01*
X030387Y011511D02*
X031838Y011511D01*
X031800Y011549D02*
X030425Y011549D01*
X030463Y011587D02*
X031762Y011587D01*
X031724Y011625D02*
X030501Y011625D01*
X030538Y011663D02*
X031686Y011663D01*
X031649Y011700D02*
X030576Y011700D01*
X030614Y011738D02*
X031611Y011738D01*
D44*
X012372Y011823D03*
D45*
X012372Y014185D03*
D46*
X021742Y018654D03*
X026860Y018654D03*
D47*
X011290Y018012D03*
X011093Y018012D03*
X010896Y018012D03*
X010699Y018012D03*
X010699Y016933D03*
X010896Y016933D03*
X011093Y016933D03*
X011290Y016933D03*
D48*
X011534Y017178D03*
X011534Y017374D03*
X011534Y017571D03*
X011534Y017768D03*
X010455Y017768D03*
X010455Y017571D03*
X010455Y017374D03*
X010455Y017178D03*
D49*
X014931Y004855D03*
X014105Y004481D03*
X014931Y004107D03*
D50*
X008731Y015544D03*
X007983Y015544D03*
X008357Y016370D03*
D51*
X023553Y019048D03*
X024420Y019422D03*
X024420Y018674D03*
X027983Y019225D03*
X028849Y019599D03*
X028849Y018851D03*
D52*
X033849Y016331D03*
X034597Y016331D03*
X034223Y015465D03*
M02*
