G75*
G70*
%OFA0B0*%
%FSLAX24Y24*%
%IPPOS*%
%LPD*%
%AMOC8*
5,1,8,0,0,1.08239X$1,22.5*
%
%ADD10C,0.1320*%
%ADD11R,0.0375X0.0178*%
%ADD12R,0.0178X0.0375*%
%ADD13R,0.0336X0.0414*%
%ADD14R,0.0414X0.0336*%
%ADD15R,0.0310X0.0560*%
%ADD16R,0.0454X0.0493*%
%ADD17C,0.0800*%
%ADD18R,0.0800X0.0800*%
%ADD19R,0.0611X0.0769*%
%ADD20R,0.0808X0.0611*%
%ADD21R,0.0651X0.0375*%
%ADD22R,0.0690X0.0611*%
%ADD23R,0.0560X0.0310*%
%ADD24R,0.1660X0.0660*%
%ADD25R,0.0454X0.0202*%
%ADD26R,0.0202X0.0454*%
%ADD27C,0.0296*%
%ADD28R,0.1005X0.2029*%
%ADD29R,0.0690X0.2029*%
%ADD30R,0.0387X0.0308*%
%ADD31R,0.1010X0.1010*%
%ADD32C,0.1010*%
%ADD33C,0.0331*%
%ADD34R,0.0651X0.0178*%
%ADD35R,0.0178X0.0651*%
%ADD36R,0.0336X0.0847*%
%ADD37R,0.0316X0.0257*%
%ADD38C,0.0092*%
%ADD39R,0.0312X0.0198*%
%ADD40C,0.0330*%
%ADD41R,0.0394X0.0669*%
%ADD42R,0.0296X0.0414*%
%ADD43R,0.0493X0.0454*%
%ADD44R,0.0493X0.0847*%
%ADD45R,0.0375X0.0375*%
%ADD46R,0.0336X0.0257*%
%ADD47C,0.0039*%
%ADD48R,0.2029X0.1005*%
%ADD49R,0.2029X0.0690*%
%ADD50C,0.0710*%
%ADD51R,0.0847X0.0493*%
%ADD52R,0.0170X0.0316*%
%ADD53R,0.0316X0.0170*%
%ADD54R,0.0414X0.0375*%
%ADD55R,0.0375X0.0414*%
%ADD56OC8,0.0800*%
%ADD57R,0.0611X0.0454*%
%ADD58R,0.0454X0.0611*%
%ADD59C,0.0400*%
%ADD60C,0.0351*%
%ADD61C,0.0397*%
%ADD62R,0.0436X0.0436*%
%ADD63C,0.0357*%
%ADD64C,0.0436*%
D10*
X004695Y008418D03*
X016329Y001134D03*
X022018Y008418D03*
X037766Y000937D03*
X037766Y020622D03*
X002727Y020622D03*
D11*
X023794Y004587D03*
X023794Y004390D03*
X023794Y004193D03*
X023794Y003996D03*
X023794Y003800D03*
X023794Y003603D03*
X025368Y003603D03*
X025368Y003800D03*
X025368Y003996D03*
X025368Y004193D03*
X025368Y004390D03*
X025368Y004587D03*
D12*
X025073Y004882D03*
X024876Y004882D03*
X024679Y004882D03*
X024483Y004882D03*
X024286Y004882D03*
X024089Y004882D03*
X024089Y003307D03*
X024286Y003307D03*
X024483Y003307D03*
X024679Y003307D03*
X024876Y003307D03*
X025073Y003307D03*
D13*
X025947Y003800D03*
X026459Y003800D03*
X022943Y001776D03*
X022431Y001776D03*
X010020Y005412D03*
X009508Y005412D03*
X009508Y005849D03*
X010020Y005849D03*
X011738Y016473D03*
X012250Y016473D03*
X011750Y019123D03*
X011238Y019123D03*
D14*
X010494Y019229D03*
X010494Y018717D03*
X009494Y017729D03*
X008994Y017729D03*
X008994Y017217D03*
X009494Y017217D03*
X014715Y013910D03*
X014715Y013398D03*
X011014Y005855D03*
X011014Y005343D03*
X010514Y003918D03*
X010514Y003406D03*
X009889Y002043D03*
X009389Y002043D03*
X009389Y001531D03*
X009889Y001531D03*
X004864Y001168D03*
X004864Y000656D03*
X004129Y000636D03*
X004129Y001148D03*
X024640Y002166D03*
X024640Y002678D03*
X024813Y005493D03*
X024813Y006004D03*
D15*
X022675Y005276D03*
X022275Y005276D03*
X022294Y003575D03*
X022614Y003575D03*
X021974Y003575D03*
X026487Y002126D03*
X026887Y002126D03*
D16*
X033829Y004815D03*
X033829Y005485D03*
X035010Y003241D03*
X035797Y003241D03*
X036585Y003241D03*
X036585Y002571D03*
X035797Y002571D03*
X035010Y002571D03*
X031467Y008477D03*
X031467Y009146D03*
X034616Y010445D03*
X034616Y011115D03*
X034892Y012040D03*
X034085Y012040D03*
X034085Y012709D03*
X034892Y012709D03*
X025297Y018394D03*
X025297Y019063D03*
X029687Y018863D03*
X029687Y019532D03*
X018868Y017020D03*
X018081Y017020D03*
X018081Y016351D03*
X018868Y016351D03*
X005443Y016469D03*
X005443Y015800D03*
X004616Y015800D03*
X004616Y016469D03*
X015719Y004815D03*
X015719Y004146D03*
D17*
X003609Y017166D03*
X003609Y018166D03*
X003609Y019166D03*
X006699Y019567D03*
X006699Y018567D03*
X006699Y017567D03*
X021132Y020056D03*
X022132Y020056D03*
X023132Y020056D03*
X025463Y020056D03*
X026463Y020056D03*
X027463Y020056D03*
D18*
X006699Y016567D03*
X003609Y016166D03*
D19*
X008132Y014111D03*
X008132Y011867D03*
X013475Y007237D03*
X014813Y007237D03*
D20*
X002561Y009563D03*
X002955Y014741D03*
D21*
X004077Y014430D03*
X004077Y013996D03*
X003998Y013563D03*
X004077Y013130D03*
X003998Y012697D03*
X004077Y012264D03*
X004234Y011831D03*
X004077Y011398D03*
D22*
X009764Y004213D03*
X009764Y003111D03*
D23*
X012514Y002732D03*
X012514Y002412D03*
X012514Y002092D03*
X012514Y003592D03*
X012514Y003912D03*
X012514Y004232D03*
X012514Y005062D03*
X012514Y005386D03*
D24*
X002854Y003402D03*
X002854Y002402D03*
X002854Y001402D03*
D25*
X004585Y002087D03*
X004585Y002402D03*
X004585Y002717D03*
X004585Y003032D03*
X004585Y003347D03*
X004585Y003662D03*
X004585Y003977D03*
X004585Y004292D03*
X004585Y004607D03*
X004585Y004922D03*
X004585Y005237D03*
X008443Y005237D03*
X008443Y004922D03*
X008443Y004607D03*
X008443Y004292D03*
X008443Y003977D03*
X008443Y003662D03*
X008443Y003347D03*
X008443Y003032D03*
X008443Y002717D03*
X008443Y002402D03*
X008443Y002087D03*
D26*
X008089Y001733D03*
X007774Y001733D03*
X007459Y001733D03*
X007144Y001733D03*
X006829Y001733D03*
X006514Y001733D03*
X006199Y001733D03*
X005884Y001733D03*
X005569Y001733D03*
X005254Y001733D03*
X004939Y001733D03*
X004939Y005591D03*
X005254Y005591D03*
X005569Y005591D03*
X005884Y005591D03*
X006199Y005591D03*
X006514Y005591D03*
X006829Y005591D03*
X007144Y005591D03*
X007459Y005591D03*
X007774Y005591D03*
X008089Y005591D03*
D27*
X007695Y004843D03*
X007105Y004843D03*
X006514Y004843D03*
X005923Y004843D03*
X005333Y004843D03*
X005333Y004252D03*
X005923Y004252D03*
X006514Y004252D03*
X007105Y004252D03*
X007695Y004252D03*
X007695Y003662D03*
X007105Y003662D03*
X007105Y003071D03*
X007695Y003071D03*
X007695Y002481D03*
X007105Y002481D03*
X006514Y002481D03*
X005923Y002481D03*
X005333Y002481D03*
X005333Y003071D03*
X005923Y003071D03*
X006514Y003071D03*
X006514Y003662D03*
X005923Y003662D03*
X005333Y003662D03*
D28*
X007154Y007662D03*
D29*
X009516Y007662D03*
D30*
X011639Y005865D03*
X011639Y004959D03*
D31*
X036979Y009599D03*
D32*
X036979Y010977D03*
X036979Y012355D03*
D33*
X022961Y011786D02*
X022961Y011624D01*
X022877Y011624D01*
X022877Y011786D01*
X022961Y011786D01*
X022261Y011786D02*
X022261Y011624D01*
X022177Y011624D01*
X022177Y011786D01*
X022261Y011786D01*
X016882Y008175D02*
X016720Y008175D01*
X016720Y008259D01*
X016882Y008259D01*
X016882Y008175D01*
X017689Y007711D02*
X017773Y007711D01*
X017773Y007549D01*
X017689Y007549D01*
X017689Y007711D01*
X018389Y007711D02*
X018473Y007711D01*
X018473Y007549D01*
X018389Y007549D01*
X018389Y007711D01*
X016882Y007475D02*
X016720Y007475D01*
X016720Y007559D01*
X016882Y007559D01*
X016882Y007475D01*
X014708Y012608D02*
X014708Y012770D01*
X014792Y012770D01*
X014792Y012608D01*
X014708Y012608D01*
X014008Y012608D02*
X014008Y012770D01*
X014092Y012770D01*
X014092Y012608D01*
X014008Y012608D01*
X015012Y015128D02*
X015012Y015290D01*
X015096Y015290D01*
X015096Y015128D01*
X015012Y015128D01*
X015712Y015128D02*
X015712Y015290D01*
X015796Y015290D01*
X015796Y015128D01*
X015712Y015128D01*
X016386Y015748D02*
X016548Y015748D01*
X016548Y015664D01*
X016386Y015664D01*
X016386Y015748D01*
X016386Y016448D02*
X016548Y016448D01*
X016548Y016364D01*
X016386Y016364D01*
X016386Y016448D01*
D34*
X015325Y014323D03*
X015325Y014126D03*
X015325Y013930D03*
X015325Y013733D03*
X015325Y013536D03*
X015325Y013339D03*
X015325Y013142D03*
X015325Y012945D03*
X015325Y012748D03*
X015325Y012552D03*
X015325Y012355D03*
X015325Y012158D03*
X015325Y011961D03*
X015325Y011764D03*
X015325Y011567D03*
X015325Y011370D03*
X015325Y011174D03*
X015325Y010977D03*
X015325Y010780D03*
X015325Y010583D03*
X015325Y010386D03*
X015325Y010189D03*
X015325Y009993D03*
X015325Y009796D03*
X015325Y009599D03*
X021624Y009599D03*
X021624Y009796D03*
X021624Y009993D03*
X021624Y010189D03*
X021624Y010386D03*
X021624Y010583D03*
X021624Y010780D03*
X021624Y010977D03*
X021624Y011174D03*
X021624Y011370D03*
X021624Y011567D03*
X021624Y011764D03*
X021624Y011961D03*
X021624Y012158D03*
X021624Y012355D03*
X021624Y012552D03*
X021624Y012748D03*
X021624Y012945D03*
X021624Y013142D03*
X021624Y013339D03*
X021624Y013536D03*
X021624Y013733D03*
X021624Y013930D03*
X021624Y014126D03*
X021624Y014323D03*
D35*
X020837Y015111D03*
X020640Y015111D03*
X020443Y015111D03*
X020246Y015111D03*
X020049Y015111D03*
X019853Y015111D03*
X019656Y015111D03*
X019459Y015111D03*
X019262Y015111D03*
X019065Y015111D03*
X018868Y015111D03*
X018671Y015111D03*
X018475Y015111D03*
X018278Y015111D03*
X018081Y015111D03*
X017884Y015111D03*
X017687Y015111D03*
X017490Y015111D03*
X017294Y015111D03*
X017097Y015111D03*
X016900Y015111D03*
X016703Y015111D03*
X016506Y015111D03*
X016309Y015111D03*
X016112Y015111D03*
X016112Y008811D03*
X016309Y008811D03*
X016506Y008811D03*
X016703Y008811D03*
X016900Y008811D03*
X017097Y008811D03*
X017294Y008811D03*
X017490Y008811D03*
X017687Y008811D03*
X017884Y008811D03*
X018081Y008811D03*
X018278Y008811D03*
X018475Y008811D03*
X018671Y008811D03*
X018868Y008811D03*
X019065Y008811D03*
X019262Y008811D03*
X019459Y008811D03*
X019656Y008811D03*
X019853Y008811D03*
X020049Y008811D03*
X020246Y008811D03*
X020443Y008811D03*
X020640Y008811D03*
X020837Y008811D03*
D36*
X018081Y006449D03*
X017687Y006449D03*
X017294Y006449D03*
D37*
X018996Y006370D03*
X019528Y006370D03*
X019528Y006685D03*
X019528Y007000D03*
X019528Y007315D03*
X018996Y007315D03*
X018996Y007000D03*
X018996Y006685D03*
D38*
X017908Y002745D02*
X017310Y002745D01*
X017310Y003263D01*
X017908Y003263D01*
X017908Y002745D01*
X017908Y002836D02*
X017310Y002836D01*
X017310Y002927D02*
X017908Y002927D01*
X017908Y003018D02*
X017310Y003018D01*
X017310Y003109D02*
X017908Y003109D01*
X017908Y003200D02*
X017310Y003200D01*
X017310Y001860D02*
X017908Y001860D01*
X017310Y001860D02*
X017310Y002378D01*
X017908Y002378D01*
X017908Y001860D01*
X017908Y001951D02*
X017310Y001951D01*
X017310Y002042D02*
X017908Y002042D01*
X017908Y002133D02*
X017310Y002133D01*
X017310Y002224D02*
X017908Y002224D01*
X017908Y002315D02*
X017310Y002315D01*
X017310Y000974D02*
X017908Y000974D01*
X017310Y000974D02*
X017310Y001492D01*
X017908Y001492D01*
X017908Y000974D01*
X017908Y001065D02*
X017310Y001065D01*
X017310Y001156D02*
X017908Y001156D01*
X017908Y001247D02*
X017310Y001247D01*
X017310Y001338D02*
X017908Y001338D01*
X017908Y001429D02*
X017310Y001429D01*
X020617Y000974D02*
X021215Y000974D01*
X020617Y000974D02*
X020617Y001492D01*
X021215Y001492D01*
X021215Y000974D01*
X021215Y001065D02*
X020617Y001065D01*
X020617Y001156D02*
X021215Y001156D01*
X021215Y001247D02*
X020617Y001247D01*
X020617Y001338D02*
X021215Y001338D01*
X021215Y001429D02*
X020617Y001429D01*
X020617Y002745D02*
X021215Y002745D01*
X020617Y002745D02*
X020617Y003263D01*
X021215Y003263D01*
X021215Y002745D01*
X021215Y002836D02*
X020617Y002836D01*
X020617Y002927D02*
X021215Y002927D01*
X021215Y003018D02*
X020617Y003018D01*
X020617Y003109D02*
X021215Y003109D01*
X021215Y003200D02*
X020617Y003200D01*
D39*
X032628Y011272D03*
X032628Y011469D03*
X032628Y011666D03*
X032628Y011863D03*
X033459Y011863D03*
X033459Y011666D03*
X033459Y011469D03*
X033459Y011272D03*
D40*
X033042Y011567D03*
D41*
X033042Y011587D03*
D42*
X033455Y004146D03*
X033829Y004146D03*
X034203Y004146D03*
X034203Y003241D03*
X033829Y003241D03*
X033455Y003241D03*
D43*
X032864Y002335D03*
X032195Y002335D03*
X032313Y005662D03*
X032983Y005662D03*
X024715Y009993D03*
X024046Y009993D03*
X032313Y012532D03*
X032983Y012532D03*
X033120Y010583D03*
X033790Y010583D03*
X033888Y017079D03*
X034557Y017079D03*
X012510Y007237D03*
X011841Y007237D03*
X015778Y003300D03*
X016447Y003300D03*
D44*
X032884Y004146D03*
D45*
X032884Y004894D03*
X027609Y018654D03*
X022490Y018654D03*
D46*
X032412Y001725D03*
X032923Y001725D03*
D47*
X031782Y003083D02*
X030797Y003083D01*
X030522Y003359D01*
X030522Y003713D01*
X032057Y003713D01*
X032057Y003359D01*
X031782Y003083D01*
X031803Y003104D02*
X030777Y003104D01*
X030739Y003142D02*
X031840Y003142D01*
X031878Y003180D02*
X030701Y003180D01*
X030663Y003217D02*
X031916Y003217D01*
X031954Y003255D02*
X030625Y003255D01*
X030587Y003293D02*
X031992Y003293D01*
X032030Y003331D02*
X030549Y003331D01*
X030522Y003369D02*
X032057Y003369D01*
X032057Y003407D02*
X030522Y003407D01*
X030522Y003445D02*
X032057Y003445D01*
X032057Y003483D02*
X030522Y003483D01*
X030522Y003520D02*
X032057Y003520D01*
X032057Y003558D02*
X030522Y003558D01*
X030522Y003596D02*
X032057Y003596D01*
X032057Y003634D02*
X030522Y003634D01*
X030522Y003672D02*
X032057Y003672D01*
X032057Y003710D02*
X030522Y003710D01*
X030522Y004225D02*
X032057Y004225D01*
X032057Y004579D01*
X031782Y004855D01*
X030797Y004855D01*
X030522Y004579D01*
X030522Y004225D01*
X030522Y004240D02*
X032057Y004240D01*
X032057Y004278D02*
X030522Y004278D01*
X030522Y004316D02*
X032057Y004316D01*
X032057Y004354D02*
X030522Y004354D01*
X030522Y004391D02*
X032057Y004391D01*
X032057Y004429D02*
X030522Y004429D01*
X030522Y004467D02*
X032057Y004467D01*
X032057Y004505D02*
X030522Y004505D01*
X030522Y004543D02*
X032057Y004543D01*
X032056Y004581D02*
X030524Y004581D01*
X030561Y004619D02*
X032018Y004619D01*
X031980Y004657D02*
X030599Y004657D01*
X030637Y004694D02*
X031942Y004694D01*
X031904Y004732D02*
X030675Y004732D01*
X030713Y004770D02*
X031866Y004770D01*
X031828Y004808D02*
X030751Y004808D01*
X030789Y004846D02*
X031791Y004846D01*
X031605Y009973D02*
X030620Y009973D01*
X030345Y010248D01*
X030345Y010603D01*
X031880Y010603D01*
X031880Y010248D01*
X031605Y009973D01*
X031628Y009996D02*
X030597Y009996D01*
X030559Y010034D02*
X031666Y010034D01*
X031704Y010072D02*
X030521Y010072D01*
X030483Y010110D02*
X031742Y010110D01*
X031779Y010148D02*
X030445Y010148D01*
X030408Y010186D02*
X031817Y010186D01*
X031855Y010224D02*
X030370Y010224D01*
X030345Y010261D02*
X031880Y010261D01*
X031880Y010299D02*
X030345Y010299D01*
X030345Y010337D02*
X031880Y010337D01*
X031880Y010375D02*
X030345Y010375D01*
X030345Y010413D02*
X031880Y010413D01*
X031880Y010451D02*
X030345Y010451D01*
X030345Y010489D02*
X031880Y010489D01*
X031880Y010526D02*
X030345Y010526D01*
X030345Y010564D02*
X031880Y010564D01*
X031880Y010602D02*
X030345Y010602D01*
X030345Y011115D02*
X031880Y011115D01*
X031880Y011469D01*
X031605Y011744D01*
X030620Y011744D01*
X030345Y011469D01*
X030345Y011115D01*
X030345Y011132D02*
X031880Y011132D01*
X031880Y011170D02*
X030345Y011170D01*
X030345Y011208D02*
X031880Y011208D01*
X031880Y011246D02*
X030345Y011246D01*
X030345Y011284D02*
X031880Y011284D01*
X031880Y011322D02*
X030345Y011322D01*
X030345Y011360D02*
X031880Y011360D01*
X031880Y011397D02*
X030345Y011397D01*
X030345Y011435D02*
X031880Y011435D01*
X031876Y011473D02*
X030349Y011473D01*
X030387Y011511D02*
X031838Y011511D01*
X031800Y011549D02*
X030425Y011549D01*
X030463Y011587D02*
X031762Y011587D01*
X031724Y011625D02*
X030501Y011625D01*
X030538Y011663D02*
X031686Y011663D01*
X031649Y011700D02*
X030576Y011700D01*
X030614Y011738D02*
X031611Y011738D01*
D48*
X012372Y011823D03*
D49*
X012372Y014185D03*
D50*
X017884Y019048D03*
X019853Y019048D03*
X031860Y018457D03*
X031860Y020426D03*
D51*
X026860Y018654D03*
X021742Y018654D03*
D52*
X011290Y018012D03*
X011093Y018012D03*
X010896Y018012D03*
X010699Y018012D03*
X010699Y016933D03*
X010896Y016933D03*
X011093Y016933D03*
X011290Y016933D03*
D53*
X011534Y017178D03*
X011534Y017374D03*
X011534Y017571D03*
X011534Y017768D03*
X010455Y017768D03*
X010455Y017571D03*
X010455Y017374D03*
X010455Y017178D03*
D54*
X014931Y004855D03*
X014105Y004481D03*
X014931Y004107D03*
D55*
X008731Y015544D03*
X007983Y015544D03*
X008357Y016370D03*
D56*
X009207Y014355D03*
X010207Y014355D03*
X010207Y013355D03*
X009207Y013355D03*
X009207Y012355D03*
X010207Y012355D03*
D57*
X023553Y019048D03*
X024420Y019422D03*
X024420Y018674D03*
X027983Y019225D03*
X028849Y019599D03*
X028849Y018851D03*
D58*
X033849Y016331D03*
X034597Y016331D03*
X034223Y015465D03*
D59*
X002514Y000662D03*
X003514Y000662D03*
X009014Y002402D03*
X009014Y003412D03*
X009014Y004037D03*
X011889Y003162D03*
X011014Y002037D03*
X011514Y001662D03*
X009014Y005787D03*
X005014Y006662D03*
X002514Y006662D03*
X002514Y004162D03*
X003514Y004162D03*
D60*
X021231Y002119D03*
X025955Y002512D03*
X023986Y006449D03*
D61*
X024774Y007630D03*
X026349Y007630D03*
X026349Y006056D03*
X025857Y004422D03*
X026349Y009205D03*
X024774Y009205D03*
X024774Y010780D03*
X026349Y010780D03*
X026349Y012355D03*
X024774Y012355D03*
X020837Y014323D03*
X027530Y016292D03*
X029105Y016292D03*
X030679Y016292D03*
X032254Y016292D03*
X030679Y017867D03*
X033829Y017867D03*
X035404Y017867D03*
X036979Y017867D03*
X036979Y016292D03*
X033632Y012748D03*
X032313Y012926D03*
X016034Y009461D03*
X015719Y007237D03*
D62*
X015325Y001725D03*
X005876Y013930D03*
D63*
X016112Y012748D03*
X025561Y002906D03*
D64*
X012569Y013536D03*
M02*
