G75*
G70*
%OFA0B0*%
%FSLAX24Y24*%
%IPPOS*%
%LPD*%
%AMOC8*
5,1,8,0,0,1.08239X$1,22.5*
%
%ADD10C,0.1320*%
%ADD11C,0.0800*%
%ADD12R,0.0800X0.0800*%
%ADD13R,0.1660X0.0660*%
%ADD14R,0.1010X0.1010*%
%ADD15C,0.1010*%
%ADD16C,0.0330*%
%ADD17C,0.0710*%
%ADD18OC8,0.0800*%
%ADD19C,0.0400*%
%ADD20C,0.0351*%
%ADD21C,0.0397*%
%ADD22R,0.0436X0.0436*%
%ADD23C,0.0357*%
%ADD24C,0.0436*%
D10*
X004695Y008418D03*
X016329Y001134D03*
X022018Y008418D03*
X037766Y000937D03*
X037766Y020622D03*
X002727Y020622D03*
D11*
X003609Y019166D03*
X003609Y018166D03*
X003609Y017166D03*
X006699Y017567D03*
X006699Y018567D03*
X006699Y019567D03*
X021132Y020056D03*
X022132Y020056D03*
X023132Y020056D03*
X025463Y020056D03*
X026463Y020056D03*
X027463Y020056D03*
D12*
X006699Y016567D03*
X003609Y016166D03*
D13*
X002854Y003402D03*
X002854Y001402D03*
D14*
X036979Y009599D03*
D15*
X036979Y010977D03*
X036979Y012355D03*
D16*
X033042Y011567D03*
D17*
X031860Y018457D03*
X031860Y020426D03*
X019853Y019048D03*
X017884Y019048D03*
D18*
X010207Y014355D03*
X009207Y014355D03*
X009207Y013355D03*
X010207Y013355D03*
X010207Y012355D03*
X009207Y012355D03*
D19*
X002514Y000662D03*
X003514Y000662D03*
X009014Y002402D03*
X009014Y003412D03*
X009014Y004037D03*
X011889Y003162D03*
X011014Y002037D03*
X011514Y001662D03*
X009014Y005787D03*
X005014Y006662D03*
X002514Y006662D03*
X002514Y004162D03*
X003514Y004162D03*
D20*
X021231Y002119D03*
X025955Y002512D03*
X023986Y006449D03*
D21*
X024774Y007630D03*
X026349Y007630D03*
X026349Y006056D03*
X025857Y004422D03*
X026349Y009205D03*
X024774Y009205D03*
X024774Y010780D03*
X026349Y010780D03*
X026349Y012355D03*
X024774Y012355D03*
X020837Y014323D03*
X027530Y016292D03*
X029105Y016292D03*
X030679Y016292D03*
X032254Y016292D03*
X030679Y017867D03*
X033829Y017867D03*
X035404Y017867D03*
X036979Y017867D03*
X036979Y016292D03*
X033632Y012748D03*
X032313Y012926D03*
X016034Y009461D03*
X015719Y007237D03*
D22*
X015325Y001725D03*
X005876Y013930D03*
D23*
X016112Y012748D03*
X025561Y002906D03*
D24*
X012569Y013536D03*
M02*
