%
M48
M72
T01C0.0130
T02C0.0150
T03C0.0151
T04C0.0157
T05C0.0197
T06C0.0200
T07C0.0236
T08C0.0276
T09C0.0400
T10C0.0472
T11C0.1260
%
T01
X23809Y3083
X33042Y11567
T02
X32628Y12119
X33632Y12138
X35010Y13142
X33042Y13300
X33042Y13693
X31073Y13536
X31073Y13142
X31073Y12748
X33435Y15504
X30286Y18654
X25955Y18654
X23986Y17079
X23986Y16685
X23199Y17473
X22412Y16292
X21231Y16292
X20443Y15898
X21231Y15504
X22805Y15111
X22805Y13536
X23593Y13536
X23986Y13142
X22805Y12748
X22805Y10780
X22412Y10386
X20837Y10780
X18868Y10386
X18081Y9993
X17372Y9441
X16112Y9993
X17294Y10780
X16900Y11174
X16309Y12276
X18081Y12355
X18081Y13930
X14144Y14323
X14144Y14717
X14144Y15111
X13750Y13930
X11782Y12748
X13829Y12020
X14144Y11174
X12569Y9205
X12569Y8811
X10994Y8418
X10207Y9599
X10601Y10780
X9813Y11174
X9026Y10780
X7451Y11174
X5876Y11174
X5089Y11567
X5876Y10386
X3514Y10386
X3514Y8418
X5876Y8418
X12963Y6056
X13750Y6056
X15719Y5662
X16506Y6843
X17687Y5662
X18868Y5662
X20049Y6056
X20049Y7237
X23199Y6843
X23199Y6056
X23199Y5268
X23081Y3319
X18081Y4481
X16506Y4087
X14144Y3693
X15325Y2512
X13750Y1331
X13357Y937
X7404Y2182
X6814Y2182
X6214Y2182
X6214Y2772
X6814Y2772
X15187Y8201
X20049Y9599
X20443Y9599
X23593Y8024
X32254Y6843
X33120Y6292
X33632Y6508
X33829Y6056
X33042Y8811
X32648Y8811
X33042Y9599
X32317Y2783
X34046Y1981
X34616Y1981
X34616Y1331
X34046Y1331
X36191Y2119
X10601Y15504
X10601Y16292
X12569Y17079
X11894Y18423
X10896Y18733
X14931Y18260
X16900Y18260
X17294Y17473
X14931Y16685
X16900Y19441
X16900Y20622
X18868Y20622
X20049Y20622
X7057Y14323
X5876Y13142
X7057Y12748
X3455Y13280
X5483Y17473
T03
X23986Y6449
X25955Y2512
X21231Y2119
T04
X25561Y2906
X16112Y12748
T05
X20837Y14323
X24774Y12355
X26349Y12355
X26349Y10780
X24774Y10780
X24774Y9205
X26349Y9205
X26349Y7630
X24774Y7630
X26349Y6056
X25857Y4422
X16034Y9461
X15719Y7237
X27530Y16292
X29105Y16292
X30679Y16292
X32254Y16292
X30679Y17867
X33829Y17867
X35404Y17867
X36979Y17867
X36979Y16292
X33632Y12748
X32313Y12926
T06
X2514Y662
X3514Y662
X9014Y2402
X9014Y3412
X9014Y4037
X11889Y3162
X11014Y2037
X11514Y1662
X9014Y5787
X5014Y6662
X2514Y6662
X2514Y4162
X3514Y4162
T07
X15325Y1725
X12569Y13536
X5876Y13930
T08
X17884Y19048
X19853Y19048
X31860Y18457
X31860Y20426
T09
X27463Y20056
X26463Y20056
X25463Y20056
X23132Y20056
X22132Y20056
X21132Y20056
X10207Y14355
X9207Y14355
X9207Y13355
X10207Y13355
X10207Y12355
X9207Y12355
X3609Y16166
X3609Y17166
X3609Y18166
X3609Y19166
X6699Y19567
X6699Y18567
X6699Y17567
X6699Y16567
T10
X36979Y12355
X36979Y10977
X36979Y9599
T11
X22018Y8418
X16329Y1134
X4695Y8418
X2727Y20622
X37766Y20622
X37766Y937
M30
