G75*
G70*
%OFA0B0*%
%FSLAX24Y24*%
%IPPOS*%
%LPD*%
%AMOC8*
5,1,8,0,0,1.08239X$1,22.5*
%
%ADD10C,0.0100*%
%ADD11C,0.0080*%
%ADD12C,0.0160*%
%ADD13C,0.0060*%
%ADD14R,0.0300X0.0180*%
%ADD15R,0.0280X0.0160*%
%ADD16C,0.0050*%
%ADD17R,0.0160X0.0280*%
%ADD18C,0.0059*%
%ADD19C,0.0087*%
%ADD20C,0.0040*%
%ADD21R,0.0240X0.0620*%
%ADD22C,0.0020*%
%ADD23C,0.0079*%
%ADD24C,0.0220*%
%ADD25R,0.0180X0.0300*%
%ADD26C,0.0020*%
D10*
X004506Y001654D02*
X004742Y001654D01*
X004506Y001654D02*
X004506Y001890D01*
X007730Y002244D02*
X007732Y002269D01*
X007738Y002293D01*
X007747Y002316D01*
X007759Y002337D01*
X007775Y002356D01*
X007794Y002373D01*
X007815Y002386D01*
X007837Y002396D01*
X007861Y002403D01*
X007886Y002406D01*
X007911Y002405D01*
X007935Y002400D01*
X007958Y002392D01*
X007980Y002380D01*
X008000Y002365D01*
X008017Y002347D01*
X008031Y002327D01*
X008042Y002305D01*
X008050Y002281D01*
X008054Y002256D01*
X008054Y002232D01*
X008050Y002207D01*
X008042Y002183D01*
X008031Y002161D01*
X008017Y002141D01*
X008000Y002123D01*
X007980Y002108D01*
X007958Y002096D01*
X007935Y002088D01*
X007911Y002083D01*
X007886Y002082D01*
X007861Y002085D01*
X007837Y002092D01*
X007815Y002102D01*
X007794Y002115D01*
X007775Y002132D01*
X007759Y002151D01*
X007747Y002172D01*
X007738Y002195D01*
X007732Y002219D01*
X007730Y002244D01*
X008286Y001654D02*
X008522Y001654D01*
X008522Y001890D01*
X008522Y005433D02*
X008522Y005670D01*
X008286Y005670D01*
X004742Y005670D02*
X004506Y005670D01*
X004506Y005433D01*
X015719Y009304D02*
X015817Y009205D01*
X021132Y009205D01*
X021231Y009304D01*
X021231Y014619D01*
X021132Y014717D01*
X016014Y014717D01*
X015719Y014422D01*
X015719Y009304D01*
X016014Y014323D02*
X016016Y014342D01*
X016021Y014361D01*
X016031Y014377D01*
X016043Y014392D01*
X016058Y014404D01*
X016074Y014414D01*
X016093Y014419D01*
X016112Y014421D01*
X016131Y014419D01*
X016150Y014414D01*
X016166Y014404D01*
X016181Y014392D01*
X016193Y014377D01*
X016203Y014361D01*
X016208Y014342D01*
X016210Y014323D01*
X016208Y014304D01*
X016203Y014285D01*
X016193Y014269D01*
X016181Y014254D01*
X016166Y014242D01*
X016150Y014232D01*
X016131Y014227D01*
X016112Y014225D01*
X016093Y014227D01*
X016074Y014232D01*
X016058Y014242D01*
X016043Y014254D01*
X016031Y014269D01*
X016021Y014285D01*
X016016Y014304D01*
X016014Y014323D01*
X014318Y018004D02*
X014518Y018204D01*
X014318Y018404D01*
X014518Y018204D02*
X013518Y018204D01*
X013518Y019204D01*
X013718Y019004D01*
X013518Y019204D02*
X013318Y019004D01*
X013818Y018554D02*
X013820Y018567D01*
X013825Y018580D01*
X013834Y018591D01*
X013845Y018598D01*
X013858Y018603D01*
X013871Y018604D01*
X013885Y018601D01*
X013897Y018595D01*
X013907Y018586D01*
X013914Y018574D01*
X013918Y018561D01*
X013918Y018547D01*
X013914Y018534D01*
X013907Y018522D01*
X013897Y018513D01*
X013885Y018507D01*
X013871Y018504D01*
X013858Y018505D01*
X013845Y018510D01*
X013834Y018517D01*
X013825Y018528D01*
X013820Y018541D01*
X013818Y018554D01*
X013662Y018554D02*
X013664Y018582D01*
X013670Y018610D01*
X013679Y018636D01*
X013692Y018661D01*
X013708Y018684D01*
X013727Y018705D01*
X013749Y018722D01*
X013773Y018737D01*
X013799Y018748D01*
X013826Y018756D01*
X013854Y018760D01*
X013882Y018760D01*
X013910Y018756D01*
X013937Y018748D01*
X013963Y018737D01*
X013987Y018722D01*
X014009Y018705D01*
X014028Y018684D01*
X014044Y018661D01*
X014057Y018636D01*
X014066Y018610D01*
X014072Y018582D01*
X014074Y018554D01*
X014072Y018526D01*
X014066Y018498D01*
X014057Y018472D01*
X014044Y018447D01*
X014028Y018424D01*
X014009Y018403D01*
X013987Y018386D01*
X013963Y018371D01*
X013937Y018360D01*
X013910Y018352D01*
X013882Y018348D01*
X013854Y018348D01*
X013826Y018352D01*
X013799Y018360D01*
X013773Y018371D01*
X013749Y018386D01*
X013727Y018403D01*
X013708Y018424D01*
X013692Y018447D01*
X013679Y018472D01*
X013670Y018498D01*
X013664Y018526D01*
X013662Y018554D01*
D11*
X014167Y018949D02*
X014448Y018949D01*
X014167Y018949D02*
X014167Y019019D01*
X014448Y019299D01*
X014448Y019369D01*
X014167Y019369D01*
X013189Y019360D02*
X013189Y019290D01*
X013049Y019150D01*
X013049Y018940D01*
X013049Y019150D02*
X012909Y019290D01*
X012909Y019360D01*
X011664Y018142D02*
X011427Y018142D01*
X011664Y018142D02*
X011664Y017906D01*
X010561Y018142D02*
X010325Y018142D01*
X010325Y017906D01*
X011664Y017040D02*
X011664Y016804D01*
X011427Y016804D01*
X010498Y016829D02*
X010351Y016969D01*
X008908Y016213D02*
X008908Y015898D01*
X008908Y016213D02*
X008671Y016213D01*
X008042Y016213D02*
X007805Y016213D01*
X007805Y015898D01*
X007199Y016317D02*
X007199Y016817D01*
X006949Y017067D01*
X007199Y017317D01*
X007199Y017817D01*
X006949Y018067D01*
X007199Y018317D01*
X007199Y018817D01*
X006949Y019067D01*
X007199Y019317D01*
X007199Y019817D01*
X006949Y020067D01*
X006449Y020067D01*
X006199Y019817D01*
X006199Y019317D01*
X006449Y019067D01*
X006199Y018817D01*
X006199Y018317D01*
X006449Y018067D01*
X006199Y017817D01*
X006199Y017317D01*
X006449Y017067D01*
X006199Y016817D01*
X006199Y016317D01*
X006449Y016067D01*
X006949Y016067D01*
X007199Y016317D01*
X008290Y014918D02*
X008290Y014642D01*
X008707Y014605D02*
X008957Y014855D01*
X010457Y014855D01*
X010707Y014605D01*
X010707Y014105D01*
X010457Y013855D01*
X008957Y013855D01*
X008707Y014105D01*
X008707Y014605D01*
X008290Y014918D02*
X003526Y014918D01*
X003359Y015666D02*
X003109Y015916D01*
X003109Y016416D01*
X003359Y016666D01*
X003109Y016916D01*
X003109Y017416D01*
X003359Y017666D01*
X003109Y017916D01*
X003109Y018416D01*
X003359Y018666D01*
X003109Y018916D01*
X003109Y019416D01*
X003359Y019666D01*
X003859Y019666D01*
X004109Y019416D01*
X004109Y018916D01*
X003859Y018666D01*
X004109Y018416D01*
X004109Y017916D01*
X003859Y017666D01*
X004109Y017416D01*
X004109Y016916D01*
X003859Y016666D01*
X004109Y016416D01*
X004109Y015916D01*
X003859Y015666D01*
X003359Y015666D01*
X002935Y014288D02*
X002935Y010981D01*
X002936Y010981D02*
X002933Y010943D01*
X002927Y010905D01*
X002917Y010868D01*
X002903Y010832D01*
X002887Y010797D01*
X002867Y010765D01*
X002844Y010734D01*
X002818Y010705D01*
X002789Y010679D01*
X002758Y010656D01*
X002726Y010636D01*
X002691Y010620D01*
X002655Y010606D01*
X002618Y010596D01*
X002580Y010590D01*
X002542Y010587D01*
X002510Y010588D01*
X002479Y010584D01*
X002448Y010577D01*
X002418Y010566D01*
X002390Y010552D01*
X002364Y010534D01*
X002340Y010513D01*
X002319Y010489D01*
X002301Y010463D01*
X002287Y010435D01*
X002276Y010405D01*
X002269Y010374D01*
X002265Y010343D01*
X002266Y010311D01*
X002266Y009996D01*
X003093Y009406D02*
X008290Y009406D01*
X008290Y011335D01*
X008957Y011855D02*
X008707Y012105D01*
X008707Y012605D01*
X008957Y012855D01*
X010457Y012855D01*
X010707Y013105D01*
X010707Y013605D01*
X010457Y013855D01*
X008957Y013855D02*
X008707Y013605D01*
X008707Y013105D01*
X008957Y012855D01*
X008290Y012398D02*
X008290Y013579D01*
X010457Y012855D02*
X010707Y012605D01*
X010707Y012105D01*
X010457Y011855D01*
X008957Y011855D01*
X010839Y012105D02*
X010839Y012605D01*
X013849Y017586D02*
X014130Y018007D01*
X013849Y018007D02*
X014130Y017586D01*
X018868Y018798D02*
X018868Y019298D01*
X020632Y019806D02*
X020632Y020306D01*
X020882Y020556D01*
X021382Y020556D01*
X021632Y020306D01*
X021882Y020556D01*
X022382Y020556D01*
X022632Y020306D01*
X022882Y020556D01*
X023382Y020556D01*
X023632Y020306D01*
X023632Y019806D01*
X023382Y019556D01*
X022882Y019556D01*
X022632Y019806D01*
X022382Y019556D01*
X021882Y019556D01*
X021632Y019806D01*
X021382Y019556D01*
X020882Y019556D01*
X020632Y019806D01*
X024963Y019806D02*
X024963Y020306D01*
X025213Y020556D01*
X025713Y020556D01*
X025963Y020306D01*
X026213Y020556D01*
X026713Y020556D01*
X026963Y020306D01*
X027213Y020556D01*
X027713Y020556D01*
X027963Y020306D01*
X027963Y019806D01*
X027713Y019556D01*
X027213Y019556D01*
X026963Y019806D01*
X026713Y019556D01*
X026213Y019556D01*
X025963Y019806D01*
X025713Y019556D01*
X025213Y019556D01*
X024963Y019806D01*
X031610Y019441D02*
X032110Y019441D01*
X035640Y013260D02*
X038081Y013260D01*
X038081Y008693D01*
X035640Y008693D01*
X035640Y013260D01*
X038081Y013260D02*
X038396Y013260D01*
X038396Y008693D01*
X038081Y008693D01*
X027012Y002526D02*
X026362Y002526D01*
X026345Y002524D01*
X026328Y002520D01*
X026312Y002513D01*
X026298Y002503D01*
X026285Y002490D01*
X026275Y002476D01*
X026268Y002460D01*
X026264Y002443D01*
X026262Y002426D01*
X027012Y002526D02*
X027029Y002524D01*
X027046Y002520D01*
X027062Y002513D01*
X027076Y002503D01*
X027089Y002490D01*
X027099Y002476D01*
X027106Y002460D01*
X027110Y002443D01*
X027112Y002426D01*
X027112Y001826D02*
X027110Y001809D01*
X027106Y001792D01*
X027099Y001776D01*
X027089Y001762D01*
X027076Y001749D01*
X027062Y001739D01*
X027046Y001732D01*
X027029Y001728D01*
X027012Y001726D01*
X026362Y001726D01*
X026345Y001728D01*
X026328Y001732D01*
X026312Y001739D01*
X026298Y001749D01*
X026285Y001762D01*
X026275Y001776D01*
X026268Y001792D01*
X026264Y001809D01*
X026262Y001826D01*
X025368Y003307D02*
X025368Y003445D01*
X025368Y003307D02*
X025231Y003307D01*
X023931Y003307D02*
X023794Y003307D01*
X023794Y003445D01*
X023794Y004744D02*
X023931Y004882D01*
X022800Y004876D02*
X022150Y004876D01*
X022133Y004878D01*
X022116Y004882D01*
X022100Y004889D01*
X022086Y004899D01*
X022073Y004912D01*
X022063Y004926D01*
X022056Y004942D01*
X022052Y004959D01*
X022050Y004976D01*
X022050Y005576D02*
X022052Y005593D01*
X022056Y005610D01*
X022063Y005626D01*
X022073Y005640D01*
X022086Y005653D01*
X022100Y005663D01*
X022116Y005670D01*
X022133Y005674D01*
X022150Y005676D01*
X022800Y005676D01*
X022817Y005674D01*
X022834Y005670D01*
X022850Y005663D01*
X022864Y005653D01*
X022877Y005640D01*
X022887Y005626D01*
X022894Y005610D01*
X022898Y005593D01*
X022900Y005576D01*
X022900Y004976D02*
X022898Y004959D01*
X022894Y004942D01*
X022887Y004926D01*
X022877Y004912D01*
X022864Y004899D01*
X022850Y004889D01*
X022834Y004882D01*
X022817Y004878D01*
X022800Y004876D01*
X025231Y004882D02*
X025368Y004882D01*
X025368Y004744D01*
X014577Y005032D02*
X014262Y005032D01*
X014262Y004796D01*
X014262Y004166D02*
X014262Y003930D01*
X014577Y003930D01*
X011895Y005057D02*
X011895Y005215D01*
X011383Y005215D01*
X011383Y005766D01*
X011895Y005766D02*
X011895Y005215D01*
X011383Y005215D02*
X011383Y005057D01*
X010236Y004646D02*
X010236Y004056D01*
X009292Y004056D02*
X009292Y004646D01*
X010236Y004646D01*
X010236Y003268D02*
X010236Y002835D01*
X010079Y002678D01*
X009449Y002678D01*
X009292Y002835D01*
X009292Y003268D01*
X013947Y007040D02*
X013947Y007433D01*
X014341Y007237D01*
X013947Y007040D01*
D12*
X009764Y005861D02*
X009764Y005837D01*
X010502Y003662D02*
X010526Y003662D01*
X009901Y001787D02*
X009877Y001787D01*
X004876Y000912D02*
X004852Y000912D01*
X022687Y001764D02*
X022687Y001788D01*
X024628Y002422D02*
X024652Y002422D01*
X026203Y003788D02*
X026203Y003812D01*
X024825Y005748D02*
X024801Y005748D01*
X014727Y013654D02*
X014703Y013654D01*
X011994Y016461D02*
X011994Y016485D01*
X011494Y019111D02*
X011494Y019135D01*
X010506Y018973D02*
X010482Y018973D01*
D13*
X023726Y018488D02*
X023726Y019608D01*
X024246Y019608D01*
X024246Y018488D01*
X023726Y018488D01*
X028156Y018665D02*
X028156Y019785D01*
X028676Y019785D01*
X028676Y018665D01*
X028156Y018665D01*
X033663Y016158D02*
X033663Y015638D01*
X034783Y015638D01*
X034783Y016158D01*
X033663Y016158D01*
X012908Y005539D02*
X012908Y004909D01*
X012909Y004909D02*
X012909Y004890D01*
X012905Y004871D01*
X012899Y004853D01*
X012890Y004837D01*
X012877Y004822D01*
X012863Y004810D01*
X012846Y004800D01*
X012828Y004794D01*
X012810Y004790D01*
X012809Y004791D02*
X012219Y004791D01*
X012219Y004790D02*
X012200Y004794D01*
X012183Y004800D01*
X012166Y004810D01*
X012152Y004822D01*
X012140Y004837D01*
X012130Y004853D01*
X012124Y004871D01*
X012120Y004890D01*
X012120Y004909D01*
X012120Y005539D01*
X012120Y005558D01*
X012124Y005577D01*
X012130Y005595D01*
X012140Y005611D01*
X012152Y005626D01*
X012166Y005638D01*
X012183Y005648D01*
X012200Y005654D01*
X012219Y005658D01*
X012219Y005657D02*
X012809Y005657D01*
X012809Y005658D02*
X012828Y005654D01*
X012845Y005648D01*
X012862Y005638D01*
X012876Y005626D01*
X012888Y005611D01*
X012898Y005595D01*
X012904Y005577D01*
X012908Y005558D01*
X012908Y005539D01*
X012814Y004512D02*
X012214Y004512D01*
X012197Y004510D01*
X012180Y004506D01*
X012164Y004499D01*
X012150Y004489D01*
X012137Y004476D01*
X012127Y004462D01*
X012120Y004446D01*
X012116Y004429D01*
X012114Y004412D01*
X012114Y003412D01*
X012116Y003395D01*
X012120Y003378D01*
X012127Y003362D01*
X012137Y003348D01*
X012150Y003335D01*
X012164Y003325D01*
X012180Y003318D01*
X012197Y003314D01*
X012214Y003312D01*
X012814Y003312D01*
X012831Y003314D01*
X012848Y003318D01*
X012864Y003325D01*
X012878Y003335D01*
X012891Y003348D01*
X012901Y003362D01*
X012908Y003378D01*
X012912Y003395D01*
X012914Y003412D01*
X012914Y004412D01*
X012912Y004429D01*
X012908Y004446D01*
X012901Y004462D01*
X012891Y004476D01*
X012878Y004489D01*
X012864Y004499D01*
X012848Y004506D01*
X012831Y004510D01*
X012814Y004512D01*
X012814Y003012D02*
X012214Y003012D01*
X012197Y003010D01*
X012180Y003006D01*
X012164Y002999D01*
X012150Y002989D01*
X012137Y002976D01*
X012127Y002962D01*
X012120Y002946D01*
X012116Y002929D01*
X012114Y002912D01*
X012114Y001912D01*
X012116Y001895D01*
X012120Y001878D01*
X012127Y001862D01*
X012137Y001848D01*
X012150Y001835D01*
X012164Y001825D01*
X012180Y001818D01*
X012197Y001814D01*
X012214Y001812D01*
X012814Y001812D01*
X012831Y001814D01*
X012848Y001818D01*
X012864Y001825D01*
X012878Y001835D01*
X012891Y001848D01*
X012901Y001862D01*
X012908Y001878D01*
X012912Y001895D01*
X012914Y001912D01*
X012914Y002912D01*
X012912Y002929D01*
X012908Y002946D01*
X012901Y002962D01*
X012891Y002976D01*
X012878Y002989D01*
X012864Y002999D01*
X012848Y003006D01*
X012831Y003010D01*
X012814Y003012D01*
X021694Y003275D02*
X021694Y003875D01*
X021696Y003892D01*
X021700Y003909D01*
X021707Y003925D01*
X021717Y003939D01*
X021730Y003952D01*
X021744Y003962D01*
X021760Y003969D01*
X021777Y003973D01*
X021794Y003975D01*
X022794Y003975D01*
X022811Y003973D01*
X022828Y003969D01*
X022844Y003962D01*
X022858Y003952D01*
X022871Y003939D01*
X022881Y003925D01*
X022888Y003909D01*
X022892Y003892D01*
X022894Y003875D01*
X022894Y003275D01*
X022892Y003258D01*
X022888Y003241D01*
X022881Y003225D01*
X022871Y003211D01*
X022858Y003198D01*
X022844Y003188D01*
X022828Y003181D01*
X022811Y003177D01*
X022794Y003175D01*
X021794Y003175D01*
X021777Y003177D01*
X021760Y003181D01*
X021744Y003188D01*
X021730Y003198D01*
X021717Y003211D01*
X021707Y003225D01*
X021700Y003241D01*
X021696Y003258D01*
X021694Y003275D01*
X033269Y003386D02*
X033269Y004001D01*
X034389Y004001D02*
X034389Y003386D01*
D14*
X035010Y002906D03*
X035797Y002906D03*
X031467Y008811D03*
X034616Y010780D03*
X034892Y012374D03*
X034085Y012374D03*
X025297Y018729D03*
X029687Y019197D03*
X018868Y016685D03*
X018081Y016685D03*
X005443Y016134D03*
X004616Y016134D03*
X015719Y004481D03*
D15*
X011014Y005599D03*
X009389Y001787D03*
X009494Y017473D03*
X008994Y017473D03*
D16*
X011692Y013746D02*
X011692Y013426D01*
X011842Y013586D02*
X011522Y013586D01*
X011352Y013876D02*
X011304Y013821D01*
X011259Y013765D01*
X011216Y013706D01*
X011177Y013645D01*
X011141Y013581D01*
X011109Y013517D01*
X011080Y013450D01*
X011054Y013382D01*
X011032Y013313D01*
X011014Y013243D01*
X010999Y013172D01*
X010988Y013100D01*
X010981Y013028D01*
X010977Y012955D01*
X010978Y012882D01*
X010982Y012810D01*
X010990Y012738D01*
X011002Y012666D01*
X011017Y012595D01*
X011036Y012525D01*
X011059Y012456D01*
X011085Y012389D01*
X011115Y012322D01*
X011148Y012258D01*
X011185Y012195D01*
X011224Y012134D01*
X011267Y012076D01*
X011313Y012020D01*
X011362Y011966D01*
X013382Y011965D02*
X013432Y012015D01*
X013479Y012069D01*
X013523Y012124D01*
X013564Y012182D01*
X013602Y012242D01*
X013636Y012304D01*
X013667Y012368D01*
X013695Y012433D01*
X013720Y012500D01*
X013740Y012568D01*
X013758Y012636D01*
X013771Y012706D01*
X013781Y012776D01*
X013787Y012847D01*
X013789Y012918D01*
X013787Y012989D01*
X013782Y013060D01*
X013773Y013130D01*
X013760Y013200D01*
X013744Y013269D01*
X013724Y013337D01*
X013700Y013404D01*
X013673Y013469D01*
X013643Y013533D01*
X013609Y013596D01*
X013571Y013656D01*
X013531Y013714D01*
X013488Y013770D01*
X013441Y013824D01*
X013392Y013875D01*
X008916Y008512D02*
X008916Y008192D01*
X008756Y008342D02*
X009076Y008342D01*
X009206Y008682D02*
X009151Y008730D01*
X009095Y008775D01*
X009036Y008818D01*
X008975Y008857D01*
X008911Y008893D01*
X008847Y008925D01*
X008780Y008954D01*
X008712Y008980D01*
X008643Y009002D01*
X008573Y009020D01*
X008502Y009035D01*
X008430Y009046D01*
X008358Y009053D01*
X008285Y009057D01*
X008212Y009056D01*
X008140Y009052D01*
X008068Y009044D01*
X007996Y009032D01*
X007925Y009017D01*
X007855Y008998D01*
X007786Y008975D01*
X007719Y008949D01*
X007652Y008919D01*
X007588Y008886D01*
X007525Y008849D01*
X007464Y008810D01*
X007406Y008767D01*
X007350Y008721D01*
X007296Y008672D01*
X007296Y006652D02*
X007346Y006602D01*
X007400Y006555D01*
X007455Y006511D01*
X007513Y006470D01*
X007573Y006432D01*
X007635Y006398D01*
X007699Y006367D01*
X007764Y006339D01*
X007831Y006314D01*
X007899Y006294D01*
X007967Y006276D01*
X008037Y006263D01*
X008107Y006253D01*
X008178Y006247D01*
X008249Y006245D01*
X008320Y006247D01*
X008391Y006252D01*
X008461Y006261D01*
X008531Y006274D01*
X008600Y006290D01*
X008668Y006310D01*
X008735Y006334D01*
X008800Y006361D01*
X008864Y006391D01*
X008927Y006425D01*
X008987Y006463D01*
X009045Y006503D01*
X009101Y006546D01*
X009155Y006593D01*
X009206Y006642D01*
X009364Y003512D02*
X010164Y003512D01*
X018042Y002315D02*
X018042Y001922D01*
X018140Y001922D01*
X018140Y001331D01*
X018868Y001331D01*
X018868Y001252D01*
X019656Y001252D01*
X019656Y001331D01*
X020384Y001331D01*
X020384Y002906D01*
X019656Y002906D01*
X019656Y002985D01*
X018868Y002985D01*
X018868Y002906D01*
X018140Y002906D01*
X018140Y002315D01*
X018042Y002315D01*
X018868Y002827D02*
X018868Y002906D01*
X018868Y002827D02*
X019656Y002827D01*
X019656Y002906D01*
X018790Y002119D02*
X018792Y002162D01*
X018798Y002204D01*
X018808Y002246D01*
X018821Y002287D01*
X018838Y002327D01*
X018859Y002364D01*
X018883Y002400D01*
X018910Y002433D01*
X018940Y002464D01*
X018973Y002492D01*
X019008Y002517D01*
X019045Y002538D01*
X019084Y002556D01*
X019124Y002570D01*
X019166Y002581D01*
X019208Y002588D01*
X019251Y002591D01*
X019294Y002590D01*
X019337Y002585D01*
X019379Y002576D01*
X019420Y002564D01*
X019460Y002548D01*
X019498Y002528D01*
X019534Y002505D01*
X019568Y002478D01*
X019600Y002449D01*
X019628Y002417D01*
X019654Y002382D01*
X019676Y002346D01*
X019695Y002307D01*
X019710Y002267D01*
X019722Y002226D01*
X019730Y002183D01*
X019734Y002140D01*
X019734Y002098D01*
X019730Y002055D01*
X019722Y002012D01*
X019710Y001971D01*
X019695Y001931D01*
X019676Y001892D01*
X019654Y001856D01*
X019628Y001821D01*
X019600Y001789D01*
X019568Y001760D01*
X019534Y001733D01*
X019498Y001710D01*
X019460Y001690D01*
X019420Y001674D01*
X019379Y001662D01*
X019337Y001653D01*
X019294Y001648D01*
X019251Y001647D01*
X019208Y001650D01*
X019166Y001657D01*
X019124Y001668D01*
X019084Y001682D01*
X019045Y001700D01*
X019008Y001721D01*
X018973Y001746D01*
X018940Y001774D01*
X018910Y001805D01*
X018883Y001838D01*
X018859Y001874D01*
X018838Y001911D01*
X018821Y001951D01*
X018808Y001992D01*
X018798Y002034D01*
X018792Y002076D01*
X018790Y002119D01*
X018671Y002119D02*
X018673Y002167D01*
X018679Y002215D01*
X018689Y002262D01*
X018702Y002308D01*
X018720Y002353D01*
X018740Y002397D01*
X018765Y002439D01*
X018793Y002478D01*
X018823Y002515D01*
X018857Y002549D01*
X018894Y002581D01*
X018932Y002610D01*
X018973Y002635D01*
X019016Y002657D01*
X019061Y002675D01*
X019107Y002689D01*
X019154Y002700D01*
X019202Y002707D01*
X019250Y002710D01*
X019298Y002709D01*
X019346Y002704D01*
X019394Y002695D01*
X019440Y002683D01*
X019485Y002666D01*
X019529Y002646D01*
X019571Y002623D01*
X019611Y002596D01*
X019649Y002566D01*
X019684Y002533D01*
X019716Y002497D01*
X019746Y002459D01*
X019772Y002418D01*
X019794Y002375D01*
X019814Y002331D01*
X019829Y002286D01*
X019841Y002239D01*
X019849Y002191D01*
X019853Y002143D01*
X019853Y002095D01*
X019849Y002047D01*
X019841Y001999D01*
X019829Y001952D01*
X019814Y001907D01*
X019794Y001863D01*
X019772Y001820D01*
X019746Y001779D01*
X019716Y001741D01*
X019684Y001705D01*
X019649Y001672D01*
X019611Y001642D01*
X019571Y001615D01*
X019529Y001592D01*
X019485Y001572D01*
X019440Y001555D01*
X019394Y001543D01*
X019346Y001534D01*
X019298Y001529D01*
X019250Y001528D01*
X019202Y001531D01*
X019154Y001538D01*
X019107Y001549D01*
X019061Y001563D01*
X019016Y001581D01*
X018973Y001603D01*
X018932Y001628D01*
X018894Y001657D01*
X018857Y001689D01*
X018823Y001723D01*
X018793Y001760D01*
X018765Y001799D01*
X018740Y001841D01*
X018720Y001885D01*
X018702Y001930D01*
X018689Y001976D01*
X018679Y002023D01*
X018673Y002071D01*
X018671Y002119D01*
X018868Y001410D02*
X018868Y001331D01*
X018868Y001410D02*
X019656Y001410D01*
X019656Y001331D01*
X030109Y002788D02*
X030109Y005150D01*
X032471Y005150D01*
X032471Y002788D01*
X030109Y002788D01*
X029931Y009678D02*
X029931Y012040D01*
X032294Y012040D01*
X032294Y009678D01*
X029931Y009678D01*
X033514Y011115D02*
X033516Y011127D01*
X033521Y011138D01*
X033530Y011147D01*
X033541Y011152D01*
X033553Y011154D01*
X033565Y011152D01*
X033576Y011147D01*
X033585Y011138D01*
X033590Y011127D01*
X033592Y011115D01*
X033590Y011103D01*
X033585Y011092D01*
X033576Y011083D01*
X033565Y011078D01*
X033553Y011076D01*
X033541Y011078D01*
X033530Y011083D01*
X033521Y011092D01*
X033516Y011103D01*
X033514Y011115D01*
D17*
X009764Y005412D03*
D18*
X004252Y005806D02*
X004252Y005950D01*
X004061Y005970D01*
X004041Y006034D01*
X004010Y006094D01*
X004131Y006242D01*
X004029Y006344D01*
X003881Y006223D01*
X003821Y006253D01*
X003757Y006274D01*
X003738Y006464D01*
X003594Y006464D01*
X003574Y006274D01*
X003510Y006253D01*
X003450Y006223D01*
X003302Y006344D01*
X003200Y006242D01*
X003321Y006094D01*
X003290Y006034D01*
X003270Y005970D01*
X003079Y005950D01*
X003079Y005806D01*
X003270Y005787D01*
X003290Y005723D01*
X003321Y005663D01*
X003200Y005515D01*
X003302Y005413D01*
X003450Y005534D01*
X003510Y005503D01*
X003595Y005708D01*
X003557Y005729D01*
X003525Y005758D01*
X003501Y005795D01*
X003486Y005835D01*
X003481Y005878D01*
X003486Y005922D01*
X003502Y005964D01*
X003527Y006000D01*
X003560Y006029D01*
X003599Y006050D01*
X003641Y006061D01*
X003686Y006062D01*
X003729Y006052D01*
X003768Y006032D01*
X003802Y006003D01*
X003827Y005967D01*
X003844Y005926D01*
X003850Y005882D01*
X003846Y005838D01*
X003831Y005797D01*
X003807Y005760D01*
X003775Y005730D01*
X003736Y005708D01*
X003821Y005503D01*
X003881Y005534D01*
X004029Y005413D01*
X004131Y005515D01*
X004010Y005663D01*
X004041Y005723D01*
X004061Y005787D01*
X004252Y005806D01*
X004252Y005848D02*
X003847Y005848D01*
X003847Y005906D02*
X004252Y005906D01*
X004126Y005963D02*
X003829Y005963D01*
X003781Y006021D02*
X004045Y006021D01*
X004018Y006078D02*
X003313Y006078D01*
X003286Y006021D02*
X003550Y006021D01*
X003502Y005963D02*
X003205Y005963D01*
X003079Y005906D02*
X003484Y005906D01*
X003485Y005848D02*
X003079Y005848D01*
X003236Y005790D02*
X003504Y005790D01*
X003553Y005733D02*
X003287Y005733D01*
X003315Y005675D02*
X003581Y005675D01*
X003558Y005618D02*
X003284Y005618D01*
X003237Y005560D02*
X003534Y005560D01*
X003412Y005503D02*
X003212Y005503D01*
X003270Y005445D02*
X003341Y005445D01*
X003774Y005618D02*
X004047Y005618D01*
X004016Y005675D02*
X003750Y005675D01*
X003778Y005733D02*
X004044Y005733D01*
X004095Y005790D02*
X003827Y005790D01*
X003797Y005560D02*
X004094Y005560D01*
X004119Y005503D02*
X003919Y005503D01*
X003990Y005445D02*
X004061Y005445D01*
X004044Y006136D02*
X003287Y006136D01*
X003240Y006193D02*
X004091Y006193D01*
X004122Y006251D02*
X003915Y006251D01*
X003826Y006251D02*
X003505Y006251D01*
X003416Y006251D02*
X003209Y006251D01*
X003267Y006308D02*
X003345Y006308D01*
X003578Y006308D02*
X003753Y006308D01*
X003748Y006366D02*
X003584Y006366D01*
X003589Y006424D02*
X003742Y006424D01*
X003986Y006308D02*
X004064Y006308D01*
D19*
X017057Y006134D02*
X017057Y006764D01*
X018317Y006764D02*
X018317Y006134D01*
D20*
X018331Y000827D02*
X018101Y000827D01*
X018101Y000367D01*
X018101Y000520D02*
X018331Y000520D01*
X018408Y000597D01*
X018408Y000751D01*
X018331Y000827D01*
X018561Y000827D02*
X018561Y000367D01*
X018868Y000367D01*
X019022Y000444D02*
X019098Y000367D01*
X019252Y000367D01*
X019329Y000444D01*
X019329Y000520D01*
X019252Y000597D01*
X019098Y000597D01*
X019022Y000674D01*
X019022Y000751D01*
X019098Y000827D01*
X019252Y000827D01*
X019329Y000751D01*
X019482Y000827D02*
X019482Y000367D01*
X019789Y000367D01*
X019636Y000597D02*
X019482Y000597D01*
X019482Y000827D02*
X019789Y000827D01*
X019943Y000827D02*
X020249Y000827D01*
X020096Y000827D02*
X020096Y000367D01*
X018868Y000827D02*
X018561Y000827D01*
X018561Y000597D02*
X018715Y000597D01*
X018408Y000367D02*
X018254Y000520D01*
D21*
X014364Y007237D03*
D22*
X032451Y011036D02*
X032451Y012099D01*
X033632Y012099D01*
X033632Y011036D01*
X032451Y011036D01*
D23*
X033376Y003496D03*
D24*
X032530Y002347D02*
X032530Y002323D01*
X036573Y002906D02*
X036597Y002906D01*
X033841Y005150D02*
X033817Y005150D01*
X032648Y005650D02*
X032648Y005674D01*
X033455Y010571D02*
X033455Y010595D01*
X032648Y012520D02*
X032648Y012544D01*
D25*
X034223Y017079D03*
X024380Y009993D03*
X016112Y003300D03*
X012175Y007237D03*
D26*
X030670Y004081D02*
X030670Y003897D01*
X030706Y003861D01*
X030780Y003861D01*
X030816Y003897D01*
X030816Y004081D01*
X030891Y004044D02*
X030927Y004081D01*
X031001Y004081D01*
X031037Y004044D01*
X031112Y004044D02*
X031148Y004081D01*
X031222Y004081D01*
X031258Y004044D01*
X031258Y004008D01*
X031222Y003971D01*
X031258Y003934D01*
X031258Y003897D01*
X031222Y003861D01*
X031148Y003861D01*
X031112Y003897D01*
X031037Y003897D02*
X031037Y003934D01*
X031001Y003971D01*
X030927Y003971D01*
X030891Y004008D01*
X030891Y004044D01*
X030964Y004118D02*
X030964Y003824D01*
X030927Y003861D02*
X031001Y003861D01*
X031037Y003897D01*
X030927Y003861D02*
X030891Y003897D01*
X031185Y003971D02*
X031222Y003971D01*
X031384Y010710D02*
X031384Y011004D01*
X031420Y010967D02*
X031347Y010967D01*
X031310Y010930D01*
X031310Y010894D01*
X031347Y010857D01*
X031420Y010857D01*
X031457Y010820D01*
X031457Y010783D01*
X031420Y010747D01*
X031347Y010747D01*
X031310Y010783D01*
X031236Y010783D02*
X031236Y010967D01*
X031089Y010967D02*
X031089Y010783D01*
X031126Y010747D01*
X031199Y010747D01*
X031236Y010783D01*
X031420Y010967D02*
X031457Y010930D01*
X031531Y010857D02*
X031641Y010857D01*
X031678Y010820D01*
X031678Y010783D01*
X031641Y010747D01*
X031568Y010747D01*
X031531Y010783D01*
X031531Y010857D01*
X031605Y010930D01*
X031678Y010967D01*
M02*
